G04 (created by PCBNEW-RS274X (2011-05-25)-stable) date Mon 14 Nov 2011 21:00:14 CET*
G01*
G70*
G90*
%MOIN*%
G04 Gerber Fmt 3.4, Leading zero omitted, Abs format*
%FSLAX34Y34*%
G04 APERTURE LIST*
%ADD10C,0.006000*%
%ADD11C,0.010000*%
%ADD12C,0.012000*%
%ADD13R,0.080000X0.080000*%
%ADD14C,0.080000*%
%ADD15C,0.106600*%
%ADD16C,0.149900*%
%ADD17O,0.126300X0.086900*%
%ADD18O,0.085000X0.063300*%
%ADD19C,0.067200*%
%ADD20R,0.047600X0.079100*%
%ADD21R,0.079100X0.047600*%
G04 APERTURE END LIST*
G54D10*
G54D11*
X18595Y-56024D02*
X43005Y-56024D01*
X43005Y-56024D02*
X43005Y-40276D01*
X43005Y-40276D02*
X18595Y-40276D01*
X18595Y-40276D02*
X18595Y-56024D01*
G54D12*
X31242Y-47291D02*
X31242Y-46691D01*
X31014Y-46691D01*
X30956Y-46719D01*
X30928Y-46748D01*
X30899Y-46805D01*
X30899Y-46891D01*
X30928Y-46948D01*
X30956Y-46977D01*
X31014Y-47005D01*
X31242Y-47005D01*
X30356Y-46691D02*
X30642Y-46691D01*
X30671Y-46977D01*
X30642Y-46948D01*
X30585Y-46919D01*
X30442Y-46919D01*
X30385Y-46948D01*
X30356Y-46977D01*
X30328Y-47034D01*
X30328Y-47177D01*
X30356Y-47234D01*
X30385Y-47262D01*
X30442Y-47291D01*
X30585Y-47291D01*
X30642Y-47262D01*
X30671Y-47234D01*
X31571Y-49348D02*
X31485Y-49377D01*
X31342Y-49377D01*
X31285Y-49348D01*
X31256Y-49320D01*
X31228Y-49263D01*
X31228Y-49205D01*
X31256Y-49148D01*
X31285Y-49120D01*
X31342Y-49091D01*
X31456Y-49063D01*
X31514Y-49034D01*
X31542Y-49005D01*
X31571Y-48948D01*
X31571Y-48891D01*
X31542Y-48834D01*
X31514Y-48805D01*
X31456Y-48777D01*
X31314Y-48777D01*
X31228Y-48805D01*
X31000Y-49205D02*
X30714Y-49205D01*
X31057Y-49377D02*
X30857Y-48777D01*
X30657Y-49377D01*
X30457Y-49377D02*
X30457Y-48777D01*
X30257Y-49205D01*
X30057Y-48777D01*
X30057Y-49377D01*
%LPC*%
G54D13*
X27550Y-37050D03*
G54D14*
X27550Y-36050D03*
X28550Y-37050D03*
X28550Y-36050D03*
X29550Y-37050D03*
X29550Y-36050D03*
X30550Y-37050D03*
X30550Y-36050D03*
X31550Y-37050D03*
X31550Y-36050D03*
X32550Y-37050D03*
X32550Y-36050D03*
X33550Y-37050D03*
X33550Y-36050D03*
X34550Y-37050D03*
X34550Y-36050D03*
X35550Y-37050D03*
X35550Y-36050D03*
X36550Y-37050D03*
X36550Y-36050D03*
G54D13*
X37900Y-39100D03*
G54D14*
X38900Y-39100D03*
G54D13*
X39900Y-39100D03*
G54D14*
X40900Y-39100D03*
G54D13*
X46600Y-53700D03*
G54D14*
X46600Y-54700D03*
G54D13*
X42200Y-36200D03*
G54D14*
X43200Y-36200D03*
X44200Y-36200D03*
X45200Y-36200D03*
X46200Y-36200D03*
X47200Y-36200D03*
G54D15*
X19383Y-48150D03*
X42217Y-48150D03*
G54D16*
X19383Y-52087D03*
X19383Y-44213D03*
X42217Y-52087D03*
X42217Y-44213D03*
G54D14*
X33509Y-55650D03*
X32509Y-55650D03*
X31509Y-55650D03*
X30509Y-55650D03*
X33509Y-40650D03*
X32509Y-40650D03*
X31509Y-40650D03*
X30509Y-40650D03*
X29009Y-40650D03*
X29009Y-41650D03*
G54D17*
X46761Y-50737D03*
X46761Y-47863D03*
G54D18*
X44665Y-49930D03*
X44665Y-49300D03*
X44665Y-48670D03*
X45353Y-49615D03*
X45353Y-48985D03*
G54D19*
X45650Y-39600D03*
G54D20*
X46595Y-39600D03*
G54D21*
X44666Y-40328D03*
X44666Y-38872D03*
G54D20*
X43878Y-39600D03*
M02*
