M48
;DRILL file {PCBnew (2011-06-08)-testing} date Sa 02 Jul 2011 20:51:29 CEST
;FORMAT={-:-/ absolute / metric / decimal}
FMAT,2
METRIC,TZ
T1C0.635
T2C0.813
T3C0.899
T4C1.001
T5C1.016
%
G90
G05
M71
T1
X45.898Y-108.265
X52.705Y-113.157
X57.953Y-107.302
X59.083Y-108.410
X60.457Y-109.499
X60.686Y-105.672
X70.348Y-118.392
X71.112Y-114.475
X71.356Y-112.156
X72.690Y-108.623
X73.152Y-136.525
X73.957Y-118.008
X74.145Y-120.805
X75.298Y-120.970
X75.634Y-112.685
X75.768Y-124.440
X76.233Y-125.593
X76.327Y-132.842
X76.340Y-122.918
X78.544Y-111.877
X78.671Y-126.401
X79.073Y-124.559
X79.121Y-131.887
X79.291Y-120.124
X79.809Y-121.440
X79.822Y-122.657
X80.046Y-118.123
X80.602Y-119.911
X81.244Y-121.224
X81.326Y-127.005
X82.095Y-122.852
X83.241Y-110.170
X83.271Y-131.613
X83.342Y-116.332
X83.566Y-120.485
X83.980Y-119.154
X84.262Y-114.953
X84.663Y-131.569
X85.443Y-127.008
X86.685Y-121.867
X86.850Y-111.503
X87.549Y-116.624
X87.876Y-126.299
X88.232Y-121.493
X88.245Y-119.268
X88.301Y-125.087
X90.231Y-107.973
X90.632Y-124.099
X91.211Y-120.124
X91.351Y-136.723
X92.121Y-122.738
X92.337Y-119.123
X96.893Y-122.014
X98.890Y-128.224
X100.132Y-135.319
X102.806Y-115.402
X104.211Y-134.236
T2
X67.818Y-94.488
T3
X115.951Y-125.250
X115.951Y-128.750
T4
X111.681Y-101.854
X117.681Y-101.854
T5
X67.818Y-91.948
X70.358Y-91.948
X70.358Y-94.488
X72.898Y-91.948
X72.898Y-94.488
X75.438Y-91.948
X75.438Y-94.488
X77.978Y-91.948
X77.978Y-94.488
X80.518Y-91.948
X80.518Y-94.488
X83.058Y-91.948
X83.058Y-94.488
X85.598Y-91.948
X85.598Y-94.488
X88.138Y-91.948
X88.138Y-94.488
X90.678Y-91.948
X90.678Y-94.488
X94.615Y-98.933
X97.155Y-98.933
X99.695Y-98.933
X102.235Y-98.933
X107.188Y-91.948
X109.728Y-91.948
X112.268Y-91.948
X114.808Y-91.948
X117.348Y-91.948
X118.364Y-136.398
X118.364Y-138.938
X119.888Y-91.948
T0
M30
