G04 (created by PCBNEW (2011-05-25)-stable) date Fri 18 May 2012 19:27:17 CEST*
G01*
G70*
G90*
%MOIN*%
G04 Gerber Fmt 3.4, Leading zero omitted, Abs format*
%FSLAX34Y34*%
G04 APERTURE LIST*
%ADD10C,0.001000*%
%ADD11C,0.008000*%
G04 APERTURE END LIST*
G54D10*
G54D11*
X14450Y-56300D02*
X14450Y-34950D01*
X48250Y-56300D02*
X14450Y-56300D01*
X48250Y-34950D02*
X48250Y-56300D01*
X15250Y-34950D02*
X48250Y-34950D01*
X14450Y-34950D02*
X15250Y-34950D01*
G54D10*
X15575Y-42275D02*
X15825Y-42525D01*
X15825Y-42275D02*
X15575Y-42525D01*
X17875Y-41775D02*
X18125Y-42025D01*
X18125Y-41775D02*
X17875Y-42025D01*
X18525Y-42925D02*
X18775Y-43175D01*
X18775Y-42925D02*
X18525Y-43175D01*
X19725Y-41175D02*
X19975Y-41425D01*
X19975Y-41175D02*
X19725Y-41425D01*
X19975Y-43675D02*
X20225Y-43925D01*
X20225Y-43675D02*
X19975Y-43925D01*
X22691Y-42120D02*
X22941Y-42370D01*
X22941Y-42120D02*
X22691Y-42370D01*
X23136Y-42556D02*
X23386Y-42806D01*
X23386Y-42556D02*
X23136Y-42806D01*
X23677Y-42985D02*
X23927Y-43235D01*
X23927Y-42985D02*
X23677Y-43235D01*
X23767Y-41478D02*
X24017Y-41728D01*
X24017Y-41478D02*
X23767Y-41728D01*
X25475Y-35375D02*
X25725Y-35625D01*
X25725Y-35375D02*
X25475Y-35625D01*
X27275Y-39725D02*
X27525Y-39975D01*
X27525Y-39725D02*
X27275Y-39975D01*
X27872Y-44944D02*
X28122Y-45194D01*
X28122Y-44944D02*
X27872Y-45194D01*
X27968Y-44031D02*
X28218Y-44281D01*
X28218Y-44031D02*
X27968Y-44281D01*
X28025Y-48375D02*
X28275Y-48625D01*
X28275Y-48375D02*
X28025Y-48625D01*
X28493Y-42640D02*
X28743Y-42890D01*
X28743Y-42640D02*
X28493Y-42890D01*
X28675Y-53625D02*
X28925Y-53875D01*
X28925Y-53625D02*
X28675Y-53875D01*
X28875Y-47375D02*
X29125Y-47625D01*
X29125Y-47375D02*
X28875Y-47625D01*
X28975Y-52525D02*
X29225Y-52775D01*
X29225Y-52525D02*
X28975Y-52775D01*
X29325Y-48925D02*
X29575Y-49175D01*
X29575Y-48925D02*
X29325Y-49175D01*
X29375Y-47375D02*
X29625Y-47625D01*
X29625Y-47375D02*
X29375Y-47625D01*
X29652Y-44239D02*
X29902Y-44489D01*
X29902Y-44239D02*
X29652Y-44489D01*
X29888Y-49321D02*
X30138Y-49571D01*
X30138Y-49321D02*
X29888Y-49571D01*
X30125Y-48675D02*
X30375Y-48925D01*
X30375Y-48675D02*
X30125Y-48925D01*
X30375Y-51675D02*
X30625Y-51925D01*
X30625Y-51675D02*
X30375Y-51925D01*
X30775Y-49575D02*
X31025Y-49825D01*
X31025Y-49575D02*
X30775Y-49825D01*
X31006Y-48914D02*
X31256Y-49164D01*
X31256Y-48914D02*
X31006Y-49164D01*
X31092Y-47168D02*
X31342Y-47418D01*
X31342Y-47168D02*
X31092Y-47418D01*
X31125Y-41925D02*
X31375Y-42175D01*
X31375Y-41925D02*
X31125Y-42175D01*
X31296Y-47686D02*
X31546Y-47936D01*
X31546Y-47686D02*
X31296Y-47936D01*
X31301Y-48165D02*
X31551Y-48415D01*
X31551Y-48165D02*
X31301Y-48415D01*
X31325Y-43725D02*
X31575Y-43975D01*
X31575Y-43725D02*
X31325Y-43975D01*
X31389Y-46380D02*
X31639Y-46630D01*
X31639Y-46380D02*
X31389Y-46630D01*
X31608Y-47084D02*
X31858Y-47334D01*
X31858Y-47084D02*
X31608Y-47334D01*
X31850Y-51700D02*
X32100Y-51950D01*
X32100Y-51700D02*
X31850Y-51950D01*
X31861Y-47601D02*
X32111Y-47851D01*
X32111Y-47601D02*
X31861Y-47851D01*
X31875Y-49725D02*
X32125Y-49975D01*
X32125Y-49725D02*
X31875Y-49975D01*
X32196Y-48242D02*
X32446Y-48492D01*
X32446Y-48242D02*
X32196Y-48492D01*
X32647Y-43249D02*
X32897Y-43499D01*
X32897Y-43249D02*
X32647Y-43499D01*
X32725Y-47175D02*
X32975Y-47425D01*
X32975Y-47175D02*
X32725Y-47425D01*
X32825Y-46025D02*
X33075Y-46275D01*
X33075Y-46025D02*
X32825Y-46275D01*
X33025Y-45225D02*
X33275Y-45475D01*
X33275Y-45225D02*
X33025Y-45475D01*
X33025Y-46775D02*
X33275Y-47025D01*
X33275Y-46775D02*
X33025Y-47025D01*
X33207Y-51674D02*
X33457Y-51924D01*
X33457Y-51674D02*
X33207Y-51924D01*
X33474Y-39678D02*
X33724Y-39928D01*
X33724Y-39678D02*
X33474Y-39928D01*
X33514Y-49878D02*
X33764Y-50128D01*
X33764Y-49878D02*
X33514Y-50128D01*
X34003Y-47854D02*
X34253Y-48104D01*
X34253Y-47854D02*
X34003Y-48104D01*
X34068Y-43774D02*
X34318Y-44024D01*
X34318Y-43774D02*
X34068Y-44024D01*
X34375Y-45725D02*
X34625Y-45975D01*
X34625Y-45725D02*
X34375Y-45975D01*
X34472Y-49599D02*
X34722Y-49849D01*
X34722Y-49599D02*
X34472Y-49849D01*
X34612Y-47707D02*
X34862Y-47957D01*
X34862Y-47707D02*
X34612Y-47957D01*
X34625Y-46375D02*
X34875Y-46625D01*
X34875Y-46375D02*
X34625Y-46625D01*
X34639Y-49122D02*
X34889Y-49372D01*
X34889Y-49122D02*
X34639Y-49372D01*
X35175Y-41132D02*
X35425Y-41382D01*
X35425Y-41132D02*
X35175Y-41382D01*
X35399Y-42384D02*
X35649Y-42634D01*
X35649Y-42384D02*
X35399Y-42634D01*
X35557Y-48733D02*
X35807Y-48983D01*
X35807Y-48733D02*
X35557Y-48983D01*
X35785Y-47168D02*
X36035Y-47418D01*
X36035Y-47168D02*
X35785Y-47418D01*
X35840Y-53703D02*
X36090Y-53953D01*
X36090Y-53703D02*
X35840Y-53953D01*
X36025Y-43325D02*
X36275Y-43575D01*
X36275Y-43325D02*
X36025Y-43575D01*
X36143Y-48197D02*
X36393Y-48447D01*
X36393Y-48197D02*
X36143Y-48447D01*
X36425Y-47075D02*
X36675Y-47325D01*
X36675Y-47075D02*
X36425Y-47325D01*
X36475Y-45825D02*
X36725Y-46075D01*
X36725Y-45825D02*
X36475Y-46075D01*
X36525Y-46475D02*
X36775Y-46725D01*
X36775Y-46475D02*
X36525Y-46725D01*
X36825Y-51950D02*
X37075Y-52200D01*
X37075Y-51950D02*
X36825Y-52200D01*
X38022Y-47912D02*
X38272Y-48162D01*
X38272Y-47912D02*
X38022Y-48162D01*
X38525Y-45125D02*
X38775Y-45375D01*
X38775Y-45125D02*
X38525Y-45375D01*
X38675Y-49675D02*
X38925Y-49925D01*
X38925Y-49675D02*
X38675Y-49925D01*
X39275Y-53675D02*
X39525Y-53925D01*
X39525Y-53675D02*
X39275Y-53925D01*
X40250Y-53725D02*
X40500Y-53975D01*
X40500Y-53725D02*
X40250Y-53975D01*
X40350Y-45309D02*
X40600Y-45559D01*
X40600Y-45309D02*
X40350Y-45559D01*
X40475Y-42725D02*
X40725Y-42975D01*
X40725Y-42725D02*
X40475Y-42975D01*
X42625Y-46875D02*
X42875Y-47125D01*
X42875Y-46875D02*
X42625Y-47125D01*
X43325Y-47075D02*
X43575Y-47325D01*
X43575Y-47075D02*
X43325Y-47325D01*
X43425Y-44225D02*
X43675Y-44475D01*
X43675Y-44225D02*
X43425Y-44475D01*
X44325Y-46025D02*
X44575Y-46275D01*
X44575Y-46025D02*
X44325Y-46275D01*
X44975Y-45325D02*
X45225Y-45575D01*
X45225Y-45325D02*
X44975Y-45575D01*
X45825Y-43975D02*
X46075Y-44225D01*
X46075Y-43975D02*
X45825Y-44225D01*
X46975Y-40325D02*
X47225Y-40575D01*
X47225Y-40325D02*
X46975Y-40575D01*
X26860Y-37200D02*
X26856Y-37231D01*
X26847Y-37260D01*
X26833Y-37288D01*
X26813Y-37312D01*
X26789Y-37332D01*
X26762Y-37347D01*
X26732Y-37356D01*
X26701Y-37359D01*
X26671Y-37357D01*
X26641Y-37348D01*
X26613Y-37333D01*
X26589Y-37314D01*
X26568Y-37290D01*
X26553Y-37263D01*
X26544Y-37233D01*
X26541Y-37202D01*
X26543Y-37172D01*
X26552Y-37142D01*
X26566Y-37114D01*
X26585Y-37089D01*
X26609Y-37069D01*
X26636Y-37054D01*
X26666Y-37044D01*
X26697Y-37041D01*
X26727Y-37043D01*
X26757Y-37051D01*
X26785Y-37065D01*
X26810Y-37085D01*
X26830Y-37108D01*
X26846Y-37135D01*
X26856Y-37165D01*
X26859Y-37196D01*
X26860Y-37200D01*
X45650Y-49134D02*
X45650Y-49488D01*
X45827Y-49311D02*
X45473Y-49311D01*
X45650Y-50512D02*
X45650Y-50866D01*
X45827Y-50689D02*
X45473Y-50689D01*
X44166Y-40100D02*
X44162Y-40138D01*
X44151Y-40175D01*
X44133Y-40209D01*
X44108Y-40238D01*
X44079Y-40263D01*
X44045Y-40281D01*
X44008Y-40292D01*
X43970Y-40296D01*
X43933Y-40293D01*
X43896Y-40282D01*
X43862Y-40264D01*
X43832Y-40240D01*
X43807Y-40211D01*
X43788Y-40177D01*
X43777Y-40140D01*
X43773Y-40102D01*
X43776Y-40065D01*
X43786Y-40028D01*
X43804Y-39994D01*
X43828Y-39964D01*
X43857Y-39939D01*
X43891Y-39920D01*
X43927Y-39908D01*
X43965Y-39904D01*
X44003Y-39906D01*
X44040Y-39917D01*
X44074Y-39934D01*
X44104Y-39958D01*
X44129Y-39987D01*
X44148Y-40020D01*
X44161Y-40057D01*
X44165Y-40095D01*
X44166Y-40100D01*
X43772Y-39903D02*
X44166Y-40297D01*
X44166Y-39903D02*
X43772Y-40297D01*
X46528Y-40100D02*
X46524Y-40138D01*
X46513Y-40175D01*
X46495Y-40209D01*
X46470Y-40238D01*
X46441Y-40263D01*
X46407Y-40281D01*
X46370Y-40292D01*
X46332Y-40296D01*
X46295Y-40293D01*
X46258Y-40282D01*
X46224Y-40264D01*
X46194Y-40240D01*
X46169Y-40211D01*
X46150Y-40177D01*
X46139Y-40140D01*
X46135Y-40102D01*
X46138Y-40065D01*
X46148Y-40028D01*
X46166Y-39994D01*
X46190Y-39964D01*
X46219Y-39939D01*
X46253Y-39920D01*
X46289Y-39908D01*
X46327Y-39904D01*
X46365Y-39906D01*
X46402Y-39917D01*
X46436Y-39934D01*
X46466Y-39958D01*
X46491Y-39987D01*
X46510Y-40020D01*
X46523Y-40057D01*
X46527Y-40095D01*
X46528Y-40100D01*
X46134Y-39903D02*
X46528Y-40297D01*
X46528Y-39903D02*
X46134Y-40297D01*
X26900Y-36200D02*
X26896Y-36238D01*
X26884Y-36276D01*
X26866Y-36310D01*
X26841Y-36340D01*
X26811Y-36365D01*
X26777Y-36384D01*
X26740Y-36395D01*
X26701Y-36399D01*
X26663Y-36396D01*
X26626Y-36385D01*
X26591Y-36367D01*
X26561Y-36342D01*
X26535Y-36312D01*
X26517Y-36278D01*
X26505Y-36241D01*
X26501Y-36202D01*
X26504Y-36164D01*
X26515Y-36127D01*
X26532Y-36092D01*
X26557Y-36062D01*
X26586Y-36036D01*
X26620Y-36017D01*
X26658Y-36005D01*
X26696Y-36001D01*
X26734Y-36004D01*
X26772Y-36014D01*
X26807Y-36032D01*
X26837Y-36056D01*
X26863Y-36085D01*
X26882Y-36119D01*
X26895Y-36156D01*
X26899Y-36195D01*
X26900Y-36200D01*
X26500Y-36200D02*
X26900Y-36200D01*
X27900Y-36200D02*
X27896Y-36238D01*
X27884Y-36276D01*
X27866Y-36310D01*
X27841Y-36340D01*
X27811Y-36365D01*
X27777Y-36384D01*
X27740Y-36395D01*
X27701Y-36399D01*
X27663Y-36396D01*
X27626Y-36385D01*
X27591Y-36367D01*
X27561Y-36342D01*
X27535Y-36312D01*
X27517Y-36278D01*
X27505Y-36241D01*
X27501Y-36202D01*
X27504Y-36164D01*
X27515Y-36127D01*
X27532Y-36092D01*
X27557Y-36062D01*
X27586Y-36036D01*
X27620Y-36017D01*
X27658Y-36005D01*
X27696Y-36001D01*
X27734Y-36004D01*
X27772Y-36014D01*
X27807Y-36032D01*
X27837Y-36056D01*
X27863Y-36085D01*
X27882Y-36119D01*
X27895Y-36156D01*
X27899Y-36195D01*
X27900Y-36200D01*
X27500Y-36200D02*
X27900Y-36200D01*
X27900Y-37200D02*
X27896Y-37238D01*
X27884Y-37276D01*
X27866Y-37310D01*
X27841Y-37340D01*
X27811Y-37365D01*
X27777Y-37384D01*
X27740Y-37395D01*
X27701Y-37399D01*
X27663Y-37396D01*
X27626Y-37385D01*
X27591Y-37367D01*
X27561Y-37342D01*
X27535Y-37312D01*
X27517Y-37278D01*
X27505Y-37241D01*
X27501Y-37202D01*
X27504Y-37164D01*
X27515Y-37127D01*
X27532Y-37092D01*
X27557Y-37062D01*
X27586Y-37036D01*
X27620Y-37017D01*
X27658Y-37005D01*
X27696Y-37001D01*
X27734Y-37004D01*
X27772Y-37014D01*
X27807Y-37032D01*
X27837Y-37056D01*
X27863Y-37085D01*
X27882Y-37119D01*
X27895Y-37156D01*
X27899Y-37195D01*
X27900Y-37200D01*
X27500Y-37200D02*
X27900Y-37200D01*
X28900Y-36200D02*
X28896Y-36238D01*
X28884Y-36276D01*
X28866Y-36310D01*
X28841Y-36340D01*
X28811Y-36365D01*
X28777Y-36384D01*
X28740Y-36395D01*
X28701Y-36399D01*
X28663Y-36396D01*
X28626Y-36385D01*
X28591Y-36367D01*
X28561Y-36342D01*
X28535Y-36312D01*
X28517Y-36278D01*
X28505Y-36241D01*
X28501Y-36202D01*
X28504Y-36164D01*
X28515Y-36127D01*
X28532Y-36092D01*
X28557Y-36062D01*
X28586Y-36036D01*
X28620Y-36017D01*
X28658Y-36005D01*
X28696Y-36001D01*
X28734Y-36004D01*
X28772Y-36014D01*
X28807Y-36032D01*
X28837Y-36056D01*
X28863Y-36085D01*
X28882Y-36119D01*
X28895Y-36156D01*
X28899Y-36195D01*
X28900Y-36200D01*
X28500Y-36200D02*
X28900Y-36200D01*
X28900Y-37200D02*
X28896Y-37238D01*
X28884Y-37276D01*
X28866Y-37310D01*
X28841Y-37340D01*
X28811Y-37365D01*
X28777Y-37384D01*
X28740Y-37395D01*
X28701Y-37399D01*
X28663Y-37396D01*
X28626Y-37385D01*
X28591Y-37367D01*
X28561Y-37342D01*
X28535Y-37312D01*
X28517Y-37278D01*
X28505Y-37241D01*
X28501Y-37202D01*
X28504Y-37164D01*
X28515Y-37127D01*
X28532Y-37092D01*
X28557Y-37062D01*
X28586Y-37036D01*
X28620Y-37017D01*
X28658Y-37005D01*
X28696Y-37001D01*
X28734Y-37004D01*
X28772Y-37014D01*
X28807Y-37032D01*
X28837Y-37056D01*
X28863Y-37085D01*
X28882Y-37119D01*
X28895Y-37156D01*
X28899Y-37195D01*
X28900Y-37200D01*
X28500Y-37200D02*
X28900Y-37200D01*
X29900Y-36200D02*
X29896Y-36238D01*
X29884Y-36276D01*
X29866Y-36310D01*
X29841Y-36340D01*
X29811Y-36365D01*
X29777Y-36384D01*
X29740Y-36395D01*
X29701Y-36399D01*
X29663Y-36396D01*
X29626Y-36385D01*
X29591Y-36367D01*
X29561Y-36342D01*
X29535Y-36312D01*
X29517Y-36278D01*
X29505Y-36241D01*
X29501Y-36202D01*
X29504Y-36164D01*
X29515Y-36127D01*
X29532Y-36092D01*
X29557Y-36062D01*
X29586Y-36036D01*
X29620Y-36017D01*
X29658Y-36005D01*
X29696Y-36001D01*
X29734Y-36004D01*
X29772Y-36014D01*
X29807Y-36032D01*
X29837Y-36056D01*
X29863Y-36085D01*
X29882Y-36119D01*
X29895Y-36156D01*
X29899Y-36195D01*
X29900Y-36200D01*
X29500Y-36200D02*
X29900Y-36200D01*
X29900Y-37200D02*
X29896Y-37238D01*
X29884Y-37276D01*
X29866Y-37310D01*
X29841Y-37340D01*
X29811Y-37365D01*
X29777Y-37384D01*
X29740Y-37395D01*
X29701Y-37399D01*
X29663Y-37396D01*
X29626Y-37385D01*
X29591Y-37367D01*
X29561Y-37342D01*
X29535Y-37312D01*
X29517Y-37278D01*
X29505Y-37241D01*
X29501Y-37202D01*
X29504Y-37164D01*
X29515Y-37127D01*
X29532Y-37092D01*
X29557Y-37062D01*
X29586Y-37036D01*
X29620Y-37017D01*
X29658Y-37005D01*
X29696Y-37001D01*
X29734Y-37004D01*
X29772Y-37014D01*
X29807Y-37032D01*
X29837Y-37056D01*
X29863Y-37085D01*
X29882Y-37119D01*
X29895Y-37156D01*
X29899Y-37195D01*
X29900Y-37200D01*
X29500Y-37200D02*
X29900Y-37200D01*
X30900Y-36200D02*
X30896Y-36238D01*
X30884Y-36276D01*
X30866Y-36310D01*
X30841Y-36340D01*
X30811Y-36365D01*
X30777Y-36384D01*
X30740Y-36395D01*
X30701Y-36399D01*
X30663Y-36396D01*
X30626Y-36385D01*
X30591Y-36367D01*
X30561Y-36342D01*
X30535Y-36312D01*
X30517Y-36278D01*
X30505Y-36241D01*
X30501Y-36202D01*
X30504Y-36164D01*
X30515Y-36127D01*
X30532Y-36092D01*
X30557Y-36062D01*
X30586Y-36036D01*
X30620Y-36017D01*
X30658Y-36005D01*
X30696Y-36001D01*
X30734Y-36004D01*
X30772Y-36014D01*
X30807Y-36032D01*
X30837Y-36056D01*
X30863Y-36085D01*
X30882Y-36119D01*
X30895Y-36156D01*
X30899Y-36195D01*
X30900Y-36200D01*
X30500Y-36200D02*
X30900Y-36200D01*
X30900Y-37200D02*
X30896Y-37238D01*
X30884Y-37276D01*
X30866Y-37310D01*
X30841Y-37340D01*
X30811Y-37365D01*
X30777Y-37384D01*
X30740Y-37395D01*
X30701Y-37399D01*
X30663Y-37396D01*
X30626Y-37385D01*
X30591Y-37367D01*
X30561Y-37342D01*
X30535Y-37312D01*
X30517Y-37278D01*
X30505Y-37241D01*
X30501Y-37202D01*
X30504Y-37164D01*
X30515Y-37127D01*
X30532Y-37092D01*
X30557Y-37062D01*
X30586Y-37036D01*
X30620Y-37017D01*
X30658Y-37005D01*
X30696Y-37001D01*
X30734Y-37004D01*
X30772Y-37014D01*
X30807Y-37032D01*
X30837Y-37056D01*
X30863Y-37085D01*
X30882Y-37119D01*
X30895Y-37156D01*
X30899Y-37195D01*
X30900Y-37200D01*
X30500Y-37200D02*
X30900Y-37200D01*
X31900Y-36200D02*
X31896Y-36238D01*
X31884Y-36276D01*
X31866Y-36310D01*
X31841Y-36340D01*
X31811Y-36365D01*
X31777Y-36384D01*
X31740Y-36395D01*
X31701Y-36399D01*
X31663Y-36396D01*
X31626Y-36385D01*
X31591Y-36367D01*
X31561Y-36342D01*
X31535Y-36312D01*
X31517Y-36278D01*
X31505Y-36241D01*
X31501Y-36202D01*
X31504Y-36164D01*
X31515Y-36127D01*
X31532Y-36092D01*
X31557Y-36062D01*
X31586Y-36036D01*
X31620Y-36017D01*
X31658Y-36005D01*
X31696Y-36001D01*
X31734Y-36004D01*
X31772Y-36014D01*
X31807Y-36032D01*
X31837Y-36056D01*
X31863Y-36085D01*
X31882Y-36119D01*
X31895Y-36156D01*
X31899Y-36195D01*
X31900Y-36200D01*
X31500Y-36200D02*
X31900Y-36200D01*
X31900Y-37200D02*
X31896Y-37238D01*
X31884Y-37276D01*
X31866Y-37310D01*
X31841Y-37340D01*
X31811Y-37365D01*
X31777Y-37384D01*
X31740Y-37395D01*
X31701Y-37399D01*
X31663Y-37396D01*
X31626Y-37385D01*
X31591Y-37367D01*
X31561Y-37342D01*
X31535Y-37312D01*
X31517Y-37278D01*
X31505Y-37241D01*
X31501Y-37202D01*
X31504Y-37164D01*
X31515Y-37127D01*
X31532Y-37092D01*
X31557Y-37062D01*
X31586Y-37036D01*
X31620Y-37017D01*
X31658Y-37005D01*
X31696Y-37001D01*
X31734Y-37004D01*
X31772Y-37014D01*
X31807Y-37032D01*
X31837Y-37056D01*
X31863Y-37085D01*
X31882Y-37119D01*
X31895Y-37156D01*
X31899Y-37195D01*
X31900Y-37200D01*
X31500Y-37200D02*
X31900Y-37200D01*
X32900Y-36200D02*
X32896Y-36238D01*
X32884Y-36276D01*
X32866Y-36310D01*
X32841Y-36340D01*
X32811Y-36365D01*
X32777Y-36384D01*
X32740Y-36395D01*
X32701Y-36399D01*
X32663Y-36396D01*
X32626Y-36385D01*
X32591Y-36367D01*
X32561Y-36342D01*
X32535Y-36312D01*
X32517Y-36278D01*
X32505Y-36241D01*
X32501Y-36202D01*
X32504Y-36164D01*
X32515Y-36127D01*
X32532Y-36092D01*
X32557Y-36062D01*
X32586Y-36036D01*
X32620Y-36017D01*
X32658Y-36005D01*
X32696Y-36001D01*
X32734Y-36004D01*
X32772Y-36014D01*
X32807Y-36032D01*
X32837Y-36056D01*
X32863Y-36085D01*
X32882Y-36119D01*
X32895Y-36156D01*
X32899Y-36195D01*
X32900Y-36200D01*
X32500Y-36200D02*
X32900Y-36200D01*
X32900Y-37200D02*
X32896Y-37238D01*
X32884Y-37276D01*
X32866Y-37310D01*
X32841Y-37340D01*
X32811Y-37365D01*
X32777Y-37384D01*
X32740Y-37395D01*
X32701Y-37399D01*
X32663Y-37396D01*
X32626Y-37385D01*
X32591Y-37367D01*
X32561Y-37342D01*
X32535Y-37312D01*
X32517Y-37278D01*
X32505Y-37241D01*
X32501Y-37202D01*
X32504Y-37164D01*
X32515Y-37127D01*
X32532Y-37092D01*
X32557Y-37062D01*
X32586Y-37036D01*
X32620Y-37017D01*
X32658Y-37005D01*
X32696Y-37001D01*
X32734Y-37004D01*
X32772Y-37014D01*
X32807Y-37032D01*
X32837Y-37056D01*
X32863Y-37085D01*
X32882Y-37119D01*
X32895Y-37156D01*
X32899Y-37195D01*
X32900Y-37200D01*
X32500Y-37200D02*
X32900Y-37200D01*
X33900Y-36200D02*
X33896Y-36238D01*
X33884Y-36276D01*
X33866Y-36310D01*
X33841Y-36340D01*
X33811Y-36365D01*
X33777Y-36384D01*
X33740Y-36395D01*
X33701Y-36399D01*
X33663Y-36396D01*
X33626Y-36385D01*
X33591Y-36367D01*
X33561Y-36342D01*
X33535Y-36312D01*
X33517Y-36278D01*
X33505Y-36241D01*
X33501Y-36202D01*
X33504Y-36164D01*
X33515Y-36127D01*
X33532Y-36092D01*
X33557Y-36062D01*
X33586Y-36036D01*
X33620Y-36017D01*
X33658Y-36005D01*
X33696Y-36001D01*
X33734Y-36004D01*
X33772Y-36014D01*
X33807Y-36032D01*
X33837Y-36056D01*
X33863Y-36085D01*
X33882Y-36119D01*
X33895Y-36156D01*
X33899Y-36195D01*
X33900Y-36200D01*
X33500Y-36200D02*
X33900Y-36200D01*
X33900Y-37200D02*
X33896Y-37238D01*
X33884Y-37276D01*
X33866Y-37310D01*
X33841Y-37340D01*
X33811Y-37365D01*
X33777Y-37384D01*
X33740Y-37395D01*
X33701Y-37399D01*
X33663Y-37396D01*
X33626Y-37385D01*
X33591Y-37367D01*
X33561Y-37342D01*
X33535Y-37312D01*
X33517Y-37278D01*
X33505Y-37241D01*
X33501Y-37202D01*
X33504Y-37164D01*
X33515Y-37127D01*
X33532Y-37092D01*
X33557Y-37062D01*
X33586Y-37036D01*
X33620Y-37017D01*
X33658Y-37005D01*
X33696Y-37001D01*
X33734Y-37004D01*
X33772Y-37014D01*
X33807Y-37032D01*
X33837Y-37056D01*
X33863Y-37085D01*
X33882Y-37119D01*
X33895Y-37156D01*
X33899Y-37195D01*
X33900Y-37200D01*
X33500Y-37200D02*
X33900Y-37200D01*
X34900Y-36200D02*
X34896Y-36238D01*
X34884Y-36276D01*
X34866Y-36310D01*
X34841Y-36340D01*
X34811Y-36365D01*
X34777Y-36384D01*
X34740Y-36395D01*
X34701Y-36399D01*
X34663Y-36396D01*
X34626Y-36385D01*
X34591Y-36367D01*
X34561Y-36342D01*
X34535Y-36312D01*
X34517Y-36278D01*
X34505Y-36241D01*
X34501Y-36202D01*
X34504Y-36164D01*
X34515Y-36127D01*
X34532Y-36092D01*
X34557Y-36062D01*
X34586Y-36036D01*
X34620Y-36017D01*
X34658Y-36005D01*
X34696Y-36001D01*
X34734Y-36004D01*
X34772Y-36014D01*
X34807Y-36032D01*
X34837Y-36056D01*
X34863Y-36085D01*
X34882Y-36119D01*
X34895Y-36156D01*
X34899Y-36195D01*
X34900Y-36200D01*
X34500Y-36200D02*
X34900Y-36200D01*
X34900Y-37200D02*
X34896Y-37238D01*
X34884Y-37276D01*
X34866Y-37310D01*
X34841Y-37340D01*
X34811Y-37365D01*
X34777Y-37384D01*
X34740Y-37395D01*
X34701Y-37399D01*
X34663Y-37396D01*
X34626Y-37385D01*
X34591Y-37367D01*
X34561Y-37342D01*
X34535Y-37312D01*
X34517Y-37278D01*
X34505Y-37241D01*
X34501Y-37202D01*
X34504Y-37164D01*
X34515Y-37127D01*
X34532Y-37092D01*
X34557Y-37062D01*
X34586Y-37036D01*
X34620Y-37017D01*
X34658Y-37005D01*
X34696Y-37001D01*
X34734Y-37004D01*
X34772Y-37014D01*
X34807Y-37032D01*
X34837Y-37056D01*
X34863Y-37085D01*
X34882Y-37119D01*
X34895Y-37156D01*
X34899Y-37195D01*
X34900Y-37200D01*
X34500Y-37200D02*
X34900Y-37200D01*
X35900Y-36200D02*
X35896Y-36238D01*
X35884Y-36276D01*
X35866Y-36310D01*
X35841Y-36340D01*
X35811Y-36365D01*
X35777Y-36384D01*
X35740Y-36395D01*
X35701Y-36399D01*
X35663Y-36396D01*
X35626Y-36385D01*
X35591Y-36367D01*
X35561Y-36342D01*
X35535Y-36312D01*
X35517Y-36278D01*
X35505Y-36241D01*
X35501Y-36202D01*
X35504Y-36164D01*
X35515Y-36127D01*
X35532Y-36092D01*
X35557Y-36062D01*
X35586Y-36036D01*
X35620Y-36017D01*
X35658Y-36005D01*
X35696Y-36001D01*
X35734Y-36004D01*
X35772Y-36014D01*
X35807Y-36032D01*
X35837Y-36056D01*
X35863Y-36085D01*
X35882Y-36119D01*
X35895Y-36156D01*
X35899Y-36195D01*
X35900Y-36200D01*
X35500Y-36200D02*
X35900Y-36200D01*
X35900Y-37200D02*
X35896Y-37238D01*
X35884Y-37276D01*
X35866Y-37310D01*
X35841Y-37340D01*
X35811Y-37365D01*
X35777Y-37384D01*
X35740Y-37395D01*
X35701Y-37399D01*
X35663Y-37396D01*
X35626Y-37385D01*
X35591Y-37367D01*
X35561Y-37342D01*
X35535Y-37312D01*
X35517Y-37278D01*
X35505Y-37241D01*
X35501Y-37202D01*
X35504Y-37164D01*
X35515Y-37127D01*
X35532Y-37092D01*
X35557Y-37062D01*
X35586Y-37036D01*
X35620Y-37017D01*
X35658Y-37005D01*
X35696Y-37001D01*
X35734Y-37004D01*
X35772Y-37014D01*
X35807Y-37032D01*
X35837Y-37056D01*
X35863Y-37085D01*
X35882Y-37119D01*
X35895Y-37156D01*
X35899Y-37195D01*
X35900Y-37200D01*
X35500Y-37200D02*
X35900Y-37200D01*
X37950Y-38950D02*
X37946Y-38988D01*
X37934Y-39026D01*
X37916Y-39060D01*
X37891Y-39090D01*
X37861Y-39115D01*
X37827Y-39134D01*
X37790Y-39145D01*
X37751Y-39149D01*
X37713Y-39146D01*
X37676Y-39135D01*
X37641Y-39117D01*
X37611Y-39092D01*
X37585Y-39062D01*
X37567Y-39028D01*
X37555Y-38991D01*
X37551Y-38952D01*
X37554Y-38914D01*
X37565Y-38877D01*
X37582Y-38842D01*
X37607Y-38812D01*
X37636Y-38786D01*
X37670Y-38767D01*
X37708Y-38755D01*
X37746Y-38751D01*
X37784Y-38754D01*
X37822Y-38764D01*
X37857Y-38782D01*
X37887Y-38806D01*
X37913Y-38835D01*
X37932Y-38869D01*
X37945Y-38906D01*
X37949Y-38945D01*
X37950Y-38950D01*
X37550Y-38950D02*
X37950Y-38950D01*
X38950Y-38950D02*
X38946Y-38988D01*
X38934Y-39026D01*
X38916Y-39060D01*
X38891Y-39090D01*
X38861Y-39115D01*
X38827Y-39134D01*
X38790Y-39145D01*
X38751Y-39149D01*
X38713Y-39146D01*
X38676Y-39135D01*
X38641Y-39117D01*
X38611Y-39092D01*
X38585Y-39062D01*
X38567Y-39028D01*
X38555Y-38991D01*
X38551Y-38952D01*
X38554Y-38914D01*
X38565Y-38877D01*
X38582Y-38842D01*
X38607Y-38812D01*
X38636Y-38786D01*
X38670Y-38767D01*
X38708Y-38755D01*
X38746Y-38751D01*
X38784Y-38754D01*
X38822Y-38764D01*
X38857Y-38782D01*
X38887Y-38806D01*
X38913Y-38835D01*
X38932Y-38869D01*
X38945Y-38906D01*
X38949Y-38945D01*
X38950Y-38950D01*
X38550Y-38950D02*
X38950Y-38950D01*
X39950Y-38950D02*
X39946Y-38988D01*
X39934Y-39026D01*
X39916Y-39060D01*
X39891Y-39090D01*
X39861Y-39115D01*
X39827Y-39134D01*
X39790Y-39145D01*
X39751Y-39149D01*
X39713Y-39146D01*
X39676Y-39135D01*
X39641Y-39117D01*
X39611Y-39092D01*
X39585Y-39062D01*
X39567Y-39028D01*
X39555Y-38991D01*
X39551Y-38952D01*
X39554Y-38914D01*
X39565Y-38877D01*
X39582Y-38842D01*
X39607Y-38812D01*
X39636Y-38786D01*
X39670Y-38767D01*
X39708Y-38755D01*
X39746Y-38751D01*
X39784Y-38754D01*
X39822Y-38764D01*
X39857Y-38782D01*
X39887Y-38806D01*
X39913Y-38835D01*
X39932Y-38869D01*
X39945Y-38906D01*
X39949Y-38945D01*
X39950Y-38950D01*
X39550Y-38950D02*
X39950Y-38950D01*
X40950Y-38950D02*
X40946Y-38988D01*
X40934Y-39026D01*
X40916Y-39060D01*
X40891Y-39090D01*
X40861Y-39115D01*
X40827Y-39134D01*
X40790Y-39145D01*
X40751Y-39149D01*
X40713Y-39146D01*
X40676Y-39135D01*
X40641Y-39117D01*
X40611Y-39092D01*
X40585Y-39062D01*
X40567Y-39028D01*
X40555Y-38991D01*
X40551Y-38952D01*
X40554Y-38914D01*
X40565Y-38877D01*
X40582Y-38842D01*
X40607Y-38812D01*
X40636Y-38786D01*
X40670Y-38767D01*
X40708Y-38755D01*
X40746Y-38751D01*
X40784Y-38754D01*
X40822Y-38764D01*
X40857Y-38782D01*
X40887Y-38806D01*
X40913Y-38835D01*
X40932Y-38869D01*
X40945Y-38906D01*
X40949Y-38945D01*
X40950Y-38950D01*
X40550Y-38950D02*
X40950Y-38950D01*
X42400Y-36200D02*
X42396Y-36238D01*
X42384Y-36276D01*
X42366Y-36310D01*
X42341Y-36340D01*
X42311Y-36365D01*
X42277Y-36384D01*
X42240Y-36395D01*
X42201Y-36399D01*
X42163Y-36396D01*
X42126Y-36385D01*
X42091Y-36367D01*
X42061Y-36342D01*
X42035Y-36312D01*
X42017Y-36278D01*
X42005Y-36241D01*
X42001Y-36202D01*
X42004Y-36164D01*
X42015Y-36127D01*
X42032Y-36092D01*
X42057Y-36062D01*
X42086Y-36036D01*
X42120Y-36017D01*
X42158Y-36005D01*
X42196Y-36001D01*
X42234Y-36004D01*
X42272Y-36014D01*
X42307Y-36032D01*
X42337Y-36056D01*
X42363Y-36085D01*
X42382Y-36119D01*
X42395Y-36156D01*
X42399Y-36195D01*
X42400Y-36200D01*
X42000Y-36200D02*
X42400Y-36200D01*
X43400Y-36200D02*
X43396Y-36238D01*
X43384Y-36276D01*
X43366Y-36310D01*
X43341Y-36340D01*
X43311Y-36365D01*
X43277Y-36384D01*
X43240Y-36395D01*
X43201Y-36399D01*
X43163Y-36396D01*
X43126Y-36385D01*
X43091Y-36367D01*
X43061Y-36342D01*
X43035Y-36312D01*
X43017Y-36278D01*
X43005Y-36241D01*
X43001Y-36202D01*
X43004Y-36164D01*
X43015Y-36127D01*
X43032Y-36092D01*
X43057Y-36062D01*
X43086Y-36036D01*
X43120Y-36017D01*
X43158Y-36005D01*
X43196Y-36001D01*
X43234Y-36004D01*
X43272Y-36014D01*
X43307Y-36032D01*
X43337Y-36056D01*
X43363Y-36085D01*
X43382Y-36119D01*
X43395Y-36156D01*
X43399Y-36195D01*
X43400Y-36200D01*
X43000Y-36200D02*
X43400Y-36200D01*
X44400Y-36200D02*
X44396Y-36238D01*
X44384Y-36276D01*
X44366Y-36310D01*
X44341Y-36340D01*
X44311Y-36365D01*
X44277Y-36384D01*
X44240Y-36395D01*
X44201Y-36399D01*
X44163Y-36396D01*
X44126Y-36385D01*
X44091Y-36367D01*
X44061Y-36342D01*
X44035Y-36312D01*
X44017Y-36278D01*
X44005Y-36241D01*
X44001Y-36202D01*
X44004Y-36164D01*
X44015Y-36127D01*
X44032Y-36092D01*
X44057Y-36062D01*
X44086Y-36036D01*
X44120Y-36017D01*
X44158Y-36005D01*
X44196Y-36001D01*
X44234Y-36004D01*
X44272Y-36014D01*
X44307Y-36032D01*
X44337Y-36056D01*
X44363Y-36085D01*
X44382Y-36119D01*
X44395Y-36156D01*
X44399Y-36195D01*
X44400Y-36200D01*
X44000Y-36200D02*
X44400Y-36200D01*
X45400Y-36200D02*
X45396Y-36238D01*
X45384Y-36276D01*
X45366Y-36310D01*
X45341Y-36340D01*
X45311Y-36365D01*
X45277Y-36384D01*
X45240Y-36395D01*
X45201Y-36399D01*
X45163Y-36396D01*
X45126Y-36385D01*
X45091Y-36367D01*
X45061Y-36342D01*
X45035Y-36312D01*
X45017Y-36278D01*
X45005Y-36241D01*
X45001Y-36202D01*
X45004Y-36164D01*
X45015Y-36127D01*
X45032Y-36092D01*
X45057Y-36062D01*
X45086Y-36036D01*
X45120Y-36017D01*
X45158Y-36005D01*
X45196Y-36001D01*
X45234Y-36004D01*
X45272Y-36014D01*
X45307Y-36032D01*
X45337Y-36056D01*
X45363Y-36085D01*
X45382Y-36119D01*
X45395Y-36156D01*
X45399Y-36195D01*
X45400Y-36200D01*
X45000Y-36200D02*
X45400Y-36200D01*
X46400Y-36200D02*
X46396Y-36238D01*
X46384Y-36276D01*
X46366Y-36310D01*
X46341Y-36340D01*
X46311Y-36365D01*
X46277Y-36384D01*
X46240Y-36395D01*
X46201Y-36399D01*
X46163Y-36396D01*
X46126Y-36385D01*
X46091Y-36367D01*
X46061Y-36342D01*
X46035Y-36312D01*
X46017Y-36278D01*
X46005Y-36241D01*
X46001Y-36202D01*
X46004Y-36164D01*
X46015Y-36127D01*
X46032Y-36092D01*
X46057Y-36062D01*
X46086Y-36036D01*
X46120Y-36017D01*
X46158Y-36005D01*
X46196Y-36001D01*
X46234Y-36004D01*
X46272Y-36014D01*
X46307Y-36032D01*
X46337Y-36056D01*
X46363Y-36085D01*
X46382Y-36119D01*
X46395Y-36156D01*
X46399Y-36195D01*
X46400Y-36200D01*
X46000Y-36200D02*
X46400Y-36200D01*
X46800Y-53700D02*
X46796Y-53738D01*
X46784Y-53776D01*
X46766Y-53810D01*
X46741Y-53840D01*
X46711Y-53865D01*
X46677Y-53884D01*
X46640Y-53895D01*
X46601Y-53899D01*
X46563Y-53896D01*
X46526Y-53885D01*
X46491Y-53867D01*
X46461Y-53842D01*
X46435Y-53812D01*
X46417Y-53778D01*
X46405Y-53741D01*
X46401Y-53702D01*
X46404Y-53664D01*
X46415Y-53627D01*
X46432Y-53592D01*
X46457Y-53562D01*
X46486Y-53536D01*
X46520Y-53517D01*
X46558Y-53505D01*
X46596Y-53501D01*
X46634Y-53504D01*
X46672Y-53514D01*
X46707Y-53532D01*
X46737Y-53556D01*
X46763Y-53585D01*
X46782Y-53619D01*
X46795Y-53656D01*
X46799Y-53695D01*
X46800Y-53700D01*
X46400Y-53700D02*
X46800Y-53700D01*
X46800Y-54700D02*
X46796Y-54738D01*
X46784Y-54776D01*
X46766Y-54810D01*
X46741Y-54840D01*
X46711Y-54865D01*
X46677Y-54884D01*
X46640Y-54895D01*
X46601Y-54899D01*
X46563Y-54896D01*
X46526Y-54885D01*
X46491Y-54867D01*
X46461Y-54842D01*
X46435Y-54812D01*
X46417Y-54778D01*
X46405Y-54741D01*
X46401Y-54702D01*
X46404Y-54664D01*
X46415Y-54627D01*
X46432Y-54592D01*
X46457Y-54562D01*
X46486Y-54536D01*
X46520Y-54517D01*
X46558Y-54505D01*
X46596Y-54501D01*
X46634Y-54504D01*
X46672Y-54514D01*
X46707Y-54532D01*
X46737Y-54556D01*
X46763Y-54585D01*
X46782Y-54619D01*
X46795Y-54656D01*
X46799Y-54695D01*
X46800Y-54700D01*
X46400Y-54700D02*
X46800Y-54700D01*
X47400Y-36200D02*
X47396Y-36238D01*
X47384Y-36276D01*
X47366Y-36310D01*
X47341Y-36340D01*
X47311Y-36365D01*
X47277Y-36384D01*
X47240Y-36395D01*
X47201Y-36399D01*
X47163Y-36396D01*
X47126Y-36385D01*
X47091Y-36367D01*
X47061Y-36342D01*
X47035Y-36312D01*
X47017Y-36278D01*
X47005Y-36241D01*
X47001Y-36202D01*
X47004Y-36164D01*
X47015Y-36127D01*
X47032Y-36092D01*
X47057Y-36062D01*
X47086Y-36036D01*
X47120Y-36017D01*
X47158Y-36005D01*
X47196Y-36001D01*
X47234Y-36004D01*
X47272Y-36014D01*
X47307Y-36032D01*
X47337Y-36056D01*
X47363Y-36085D01*
X47382Y-36119D01*
X47395Y-36156D01*
X47399Y-36195D01*
X47400Y-36200D01*
X47000Y-36200D02*
X47400Y-36200D01*
G54D11*
X14766Y-57545D02*
X14766Y-56745D01*
X14957Y-56745D01*
X15071Y-56783D01*
X15147Y-56859D01*
X15186Y-56935D01*
X15224Y-57088D01*
X15224Y-57202D01*
X15186Y-57354D01*
X15147Y-57431D01*
X15071Y-57507D01*
X14957Y-57545D01*
X14766Y-57545D01*
X15566Y-57545D02*
X15566Y-57011D01*
X15566Y-57164D02*
X15605Y-57088D01*
X15643Y-57050D01*
X15719Y-57011D01*
X15795Y-57011D01*
X16061Y-57545D02*
X16061Y-57011D01*
X16061Y-56745D02*
X16023Y-56783D01*
X16061Y-56821D01*
X16100Y-56783D01*
X16061Y-56745D01*
X16061Y-56821D01*
X16557Y-57545D02*
X16481Y-57507D01*
X16442Y-57431D01*
X16442Y-56745D01*
X16976Y-57545D02*
X16900Y-57507D01*
X16861Y-57431D01*
X16861Y-56745D01*
X17890Y-57545D02*
X17890Y-56745D01*
X18157Y-57316D01*
X18424Y-56745D01*
X18424Y-57545D01*
X19147Y-57545D02*
X19147Y-57126D01*
X19109Y-57050D01*
X19033Y-57011D01*
X18881Y-57011D01*
X18804Y-57050D01*
X19147Y-57507D02*
X19071Y-57545D01*
X18881Y-57545D01*
X18804Y-57507D01*
X18766Y-57431D01*
X18766Y-57354D01*
X18804Y-57278D01*
X18881Y-57240D01*
X19071Y-57240D01*
X19147Y-57202D01*
X19528Y-57011D02*
X19528Y-57811D01*
X19528Y-57050D02*
X19605Y-57011D01*
X19757Y-57011D01*
X19833Y-57050D01*
X19871Y-57088D01*
X19909Y-57164D01*
X19909Y-57392D01*
X19871Y-57469D01*
X19833Y-57507D01*
X19757Y-57545D01*
X19605Y-57545D01*
X19528Y-57507D01*
X20252Y-57469D02*
X20291Y-57507D01*
X20252Y-57545D01*
X20214Y-57507D01*
X20252Y-57469D01*
X20252Y-57545D01*
X20252Y-57050D02*
X20291Y-57088D01*
X20252Y-57126D01*
X20214Y-57088D01*
X20252Y-57050D01*
X20252Y-57126D01*
X14126Y-58776D02*
X14376Y-59026D01*
X14376Y-58776D02*
X14126Y-59026D01*
X14919Y-58425D02*
X14995Y-58425D01*
X15071Y-58463D01*
X15109Y-58501D01*
X15147Y-58577D01*
X15186Y-58730D01*
X15186Y-58920D01*
X15147Y-59072D01*
X15109Y-59149D01*
X15071Y-59187D01*
X14995Y-59225D01*
X14919Y-59225D01*
X14843Y-59187D01*
X14805Y-59149D01*
X14766Y-59072D01*
X14728Y-58920D01*
X14728Y-58730D01*
X14766Y-58577D01*
X14805Y-58501D01*
X14843Y-58463D01*
X14919Y-58425D01*
X15528Y-59149D02*
X15567Y-59187D01*
X15528Y-59225D01*
X15490Y-59187D01*
X15528Y-59149D01*
X15528Y-59225D01*
X16252Y-58425D02*
X16100Y-58425D01*
X16024Y-58463D01*
X15986Y-58501D01*
X15909Y-58615D01*
X15871Y-58768D01*
X15871Y-59072D01*
X15909Y-59149D01*
X15948Y-59187D01*
X16024Y-59225D01*
X16176Y-59225D01*
X16252Y-59187D01*
X16290Y-59149D01*
X16329Y-59072D01*
X16329Y-58882D01*
X16290Y-58806D01*
X16252Y-58768D01*
X16176Y-58730D01*
X16024Y-58730D01*
X15948Y-58768D01*
X15909Y-58806D01*
X15871Y-58882D01*
X17014Y-58691D02*
X17014Y-59225D01*
X16824Y-58387D02*
X16633Y-58958D01*
X17129Y-58958D01*
X17433Y-59225D02*
X17433Y-58691D01*
X17433Y-58768D02*
X17472Y-58730D01*
X17548Y-58691D01*
X17662Y-58691D01*
X17738Y-58730D01*
X17776Y-58806D01*
X17776Y-59225D01*
X17776Y-58806D02*
X17814Y-58730D01*
X17891Y-58691D01*
X18005Y-58691D01*
X18081Y-58730D01*
X18119Y-58806D01*
X18119Y-59225D01*
X18500Y-59225D02*
X18500Y-58691D01*
X18500Y-58768D02*
X18539Y-58730D01*
X18615Y-58691D01*
X18729Y-58691D01*
X18805Y-58730D01*
X18843Y-58806D01*
X18843Y-59225D01*
X18843Y-58806D02*
X18881Y-58730D01*
X18958Y-58691D01*
X19072Y-58691D01*
X19148Y-58730D01*
X19186Y-58806D01*
X19186Y-59225D01*
X20749Y-58387D02*
X20063Y-59415D01*
X21778Y-58425D02*
X21854Y-58425D01*
X21930Y-58463D01*
X21968Y-58501D01*
X22006Y-58577D01*
X22045Y-58730D01*
X22045Y-58920D01*
X22006Y-59072D01*
X21968Y-59149D01*
X21930Y-59187D01*
X21854Y-59225D01*
X21778Y-59225D01*
X21702Y-59187D01*
X21664Y-59149D01*
X21625Y-59072D01*
X21587Y-58920D01*
X21587Y-58730D01*
X21625Y-58577D01*
X21664Y-58501D01*
X21702Y-58463D01*
X21778Y-58425D01*
X22387Y-59149D02*
X22426Y-59187D01*
X22387Y-59225D01*
X22349Y-59187D01*
X22387Y-59149D01*
X22387Y-59225D01*
X22921Y-58425D02*
X22997Y-58425D01*
X23073Y-58463D01*
X23111Y-58501D01*
X23149Y-58577D01*
X23188Y-58730D01*
X23188Y-58920D01*
X23149Y-59072D01*
X23111Y-59149D01*
X23073Y-59187D01*
X22997Y-59225D01*
X22921Y-59225D01*
X22845Y-59187D01*
X22807Y-59149D01*
X22768Y-59072D01*
X22730Y-58920D01*
X22730Y-58730D01*
X22768Y-58577D01*
X22807Y-58501D01*
X22845Y-58463D01*
X22921Y-58425D01*
X23492Y-58501D02*
X23530Y-58463D01*
X23607Y-58425D01*
X23797Y-58425D01*
X23873Y-58463D01*
X23911Y-58501D01*
X23950Y-58577D01*
X23950Y-58653D01*
X23911Y-58768D01*
X23454Y-59225D01*
X23950Y-59225D01*
X24673Y-58425D02*
X24292Y-58425D01*
X24254Y-58806D01*
X24292Y-58768D01*
X24369Y-58730D01*
X24559Y-58730D01*
X24635Y-58768D01*
X24673Y-58806D01*
X24712Y-58882D01*
X24712Y-59072D01*
X24673Y-59149D01*
X24635Y-59187D01*
X24559Y-59225D01*
X24369Y-59225D01*
X24292Y-59187D01*
X24254Y-59149D01*
X25016Y-58425D02*
X25016Y-58577D01*
X25321Y-58425D02*
X25321Y-58577D01*
X26503Y-59530D02*
X26465Y-59491D01*
X26389Y-59377D01*
X26351Y-59301D01*
X26313Y-59187D01*
X26274Y-58996D01*
X26274Y-58844D01*
X26313Y-58653D01*
X26351Y-58539D01*
X26389Y-58463D01*
X26465Y-58349D01*
X26503Y-58311D01*
X26731Y-58425D02*
X27265Y-58425D01*
X26922Y-59225D01*
X27493Y-58425D02*
X28027Y-58425D01*
X27684Y-59225D01*
X28941Y-59225D02*
X28941Y-58425D01*
X29284Y-59225D02*
X29284Y-58806D01*
X29246Y-58730D01*
X29170Y-58691D01*
X29056Y-58691D01*
X28980Y-58730D01*
X28941Y-58768D01*
X29780Y-59225D02*
X29704Y-59187D01*
X29665Y-59149D01*
X29627Y-59072D01*
X29627Y-58844D01*
X29665Y-58768D01*
X29704Y-58730D01*
X29780Y-58691D01*
X29894Y-58691D01*
X29970Y-58730D01*
X30008Y-58768D01*
X30046Y-58844D01*
X30046Y-59072D01*
X30008Y-59149D01*
X29970Y-59187D01*
X29894Y-59225D01*
X29780Y-59225D01*
X30504Y-59225D02*
X30428Y-59187D01*
X30389Y-59111D01*
X30389Y-58425D01*
X31113Y-59187D02*
X31037Y-59225D01*
X30885Y-59225D01*
X30808Y-59187D01*
X30770Y-59111D01*
X30770Y-58806D01*
X30808Y-58730D01*
X30885Y-58691D01*
X31037Y-58691D01*
X31113Y-58730D01*
X31151Y-58806D01*
X31151Y-58882D01*
X30770Y-58958D01*
X31456Y-59187D02*
X31533Y-59225D01*
X31685Y-59225D01*
X31761Y-59187D01*
X31799Y-59111D01*
X31799Y-59072D01*
X31761Y-58996D01*
X31685Y-58958D01*
X31571Y-58958D01*
X31494Y-58920D01*
X31456Y-58844D01*
X31456Y-58806D01*
X31494Y-58730D01*
X31571Y-58691D01*
X31685Y-58691D01*
X31761Y-58730D01*
X32066Y-59530D02*
X32104Y-59491D01*
X32181Y-59377D01*
X32219Y-59301D01*
X32257Y-59187D01*
X32295Y-58996D01*
X32295Y-58844D01*
X32257Y-58653D01*
X32219Y-58539D01*
X32181Y-58463D01*
X32104Y-58349D01*
X32066Y-58311D01*
G54D10*
X14376Y-59957D02*
X14372Y-59988D01*
X14363Y-60017D01*
X14349Y-60045D01*
X14329Y-60069D01*
X14305Y-60089D01*
X14278Y-60104D01*
X14248Y-60113D01*
X14217Y-60116D01*
X14187Y-60114D01*
X14157Y-60105D01*
X14129Y-60090D01*
X14105Y-60071D01*
X14084Y-60047D01*
X14069Y-60020D01*
X14060Y-59990D01*
X14057Y-59959D01*
X14059Y-59929D01*
X14068Y-59899D01*
X14082Y-59871D01*
X14101Y-59846D01*
X14125Y-59826D01*
X14152Y-59811D01*
X14182Y-59801D01*
X14213Y-59798D01*
X14243Y-59800D01*
X14273Y-59808D01*
X14301Y-59822D01*
X14326Y-59842D01*
X14346Y-59865D01*
X14362Y-59892D01*
X14372Y-59922D01*
X14375Y-59953D01*
X14376Y-59957D01*
G54D11*
X14919Y-59481D02*
X14995Y-59481D01*
X15071Y-59519D01*
X15109Y-59557D01*
X15147Y-59633D01*
X15186Y-59786D01*
X15186Y-59976D01*
X15147Y-60128D01*
X15109Y-60205D01*
X15071Y-60243D01*
X14995Y-60281D01*
X14919Y-60281D01*
X14843Y-60243D01*
X14805Y-60205D01*
X14766Y-60128D01*
X14728Y-59976D01*
X14728Y-59786D01*
X14766Y-59633D01*
X14805Y-59557D01*
X14843Y-59519D01*
X14919Y-59481D01*
X15528Y-60205D02*
X15567Y-60243D01*
X15528Y-60281D01*
X15490Y-60243D01*
X15528Y-60205D01*
X15528Y-60281D01*
X16024Y-59824D02*
X15948Y-59786D01*
X15909Y-59747D01*
X15871Y-59671D01*
X15871Y-59633D01*
X15909Y-59557D01*
X15948Y-59519D01*
X16024Y-59481D01*
X16176Y-59481D01*
X16252Y-59519D01*
X16290Y-59557D01*
X16329Y-59633D01*
X16329Y-59671D01*
X16290Y-59747D01*
X16252Y-59786D01*
X16176Y-59824D01*
X16024Y-59824D01*
X15948Y-59862D01*
X15909Y-59900D01*
X15871Y-59976D01*
X15871Y-60128D01*
X15909Y-60205D01*
X15948Y-60243D01*
X16024Y-60281D01*
X16176Y-60281D01*
X16252Y-60243D01*
X16290Y-60205D01*
X16329Y-60128D01*
X16329Y-59976D01*
X16290Y-59900D01*
X16252Y-59862D01*
X16176Y-59824D01*
X17091Y-60281D02*
X16633Y-60281D01*
X16862Y-60281D02*
X16862Y-59481D01*
X16786Y-59595D01*
X16710Y-59671D01*
X16633Y-59709D01*
X17433Y-60281D02*
X17433Y-59747D01*
X17433Y-59824D02*
X17472Y-59786D01*
X17548Y-59747D01*
X17662Y-59747D01*
X17738Y-59786D01*
X17776Y-59862D01*
X17776Y-60281D01*
X17776Y-59862D02*
X17814Y-59786D01*
X17891Y-59747D01*
X18005Y-59747D01*
X18081Y-59786D01*
X18119Y-59862D01*
X18119Y-60281D01*
X18500Y-60281D02*
X18500Y-59747D01*
X18500Y-59824D02*
X18539Y-59786D01*
X18615Y-59747D01*
X18729Y-59747D01*
X18805Y-59786D01*
X18843Y-59862D01*
X18843Y-60281D01*
X18843Y-59862D02*
X18881Y-59786D01*
X18958Y-59747D01*
X19072Y-59747D01*
X19148Y-59786D01*
X19186Y-59862D01*
X19186Y-60281D01*
X20749Y-59443D02*
X20063Y-60471D01*
X21778Y-59481D02*
X21854Y-59481D01*
X21930Y-59519D01*
X21968Y-59557D01*
X22006Y-59633D01*
X22045Y-59786D01*
X22045Y-59976D01*
X22006Y-60128D01*
X21968Y-60205D01*
X21930Y-60243D01*
X21854Y-60281D01*
X21778Y-60281D01*
X21702Y-60243D01*
X21664Y-60205D01*
X21625Y-60128D01*
X21587Y-59976D01*
X21587Y-59786D01*
X21625Y-59633D01*
X21664Y-59557D01*
X21702Y-59519D01*
X21778Y-59481D01*
X22387Y-60205D02*
X22426Y-60243D01*
X22387Y-60281D01*
X22349Y-60243D01*
X22387Y-60205D01*
X22387Y-60281D01*
X22921Y-59481D02*
X22997Y-59481D01*
X23073Y-59519D01*
X23111Y-59557D01*
X23149Y-59633D01*
X23188Y-59786D01*
X23188Y-59976D01*
X23149Y-60128D01*
X23111Y-60205D01*
X23073Y-60243D01*
X22997Y-60281D01*
X22921Y-60281D01*
X22845Y-60243D01*
X22807Y-60205D01*
X22768Y-60128D01*
X22730Y-59976D01*
X22730Y-59786D01*
X22768Y-59633D01*
X22807Y-59557D01*
X22845Y-59519D01*
X22921Y-59481D01*
X23454Y-59481D02*
X23950Y-59481D01*
X23683Y-59786D01*
X23797Y-59786D01*
X23873Y-59824D01*
X23911Y-59862D01*
X23950Y-59938D01*
X23950Y-60128D01*
X23911Y-60205D01*
X23873Y-60243D01*
X23797Y-60281D01*
X23569Y-60281D01*
X23492Y-60243D01*
X23454Y-60205D01*
X24254Y-59557D02*
X24292Y-59519D01*
X24369Y-59481D01*
X24559Y-59481D01*
X24635Y-59519D01*
X24673Y-59557D01*
X24712Y-59633D01*
X24712Y-59709D01*
X24673Y-59824D01*
X24216Y-60281D01*
X24712Y-60281D01*
X25016Y-59481D02*
X25016Y-59633D01*
X25321Y-59481D02*
X25321Y-59633D01*
X26503Y-60586D02*
X26465Y-60547D01*
X26389Y-60433D01*
X26351Y-60357D01*
X26313Y-60243D01*
X26274Y-60052D01*
X26274Y-59900D01*
X26313Y-59709D01*
X26351Y-59595D01*
X26389Y-59519D01*
X26465Y-59405D01*
X26503Y-59367D01*
X27227Y-60281D02*
X26769Y-60281D01*
X26998Y-60281D02*
X26998Y-59481D01*
X26922Y-59595D01*
X26846Y-59671D01*
X26769Y-59709D01*
X28179Y-60281D02*
X28179Y-59481D01*
X28522Y-60281D02*
X28522Y-59862D01*
X28484Y-59786D01*
X28408Y-59747D01*
X28294Y-59747D01*
X28218Y-59786D01*
X28179Y-59824D01*
X29018Y-60281D02*
X28942Y-60243D01*
X28903Y-60205D01*
X28865Y-60128D01*
X28865Y-59900D01*
X28903Y-59824D01*
X28942Y-59786D01*
X29018Y-59747D01*
X29132Y-59747D01*
X29208Y-59786D01*
X29246Y-59824D01*
X29284Y-59900D01*
X29284Y-60128D01*
X29246Y-60205D01*
X29208Y-60243D01*
X29132Y-60281D01*
X29018Y-60281D01*
X29742Y-60281D02*
X29666Y-60243D01*
X29627Y-60167D01*
X29627Y-59481D01*
X30351Y-60243D02*
X30275Y-60281D01*
X30123Y-60281D01*
X30046Y-60243D01*
X30008Y-60167D01*
X30008Y-59862D01*
X30046Y-59786D01*
X30123Y-59747D01*
X30275Y-59747D01*
X30351Y-59786D01*
X30389Y-59862D01*
X30389Y-59938D01*
X30008Y-60014D01*
X30656Y-60586D02*
X30694Y-60547D01*
X30771Y-60433D01*
X30809Y-60357D01*
X30847Y-60243D01*
X30885Y-60052D01*
X30885Y-59900D01*
X30847Y-59709D01*
X30809Y-59595D01*
X30771Y-59519D01*
X30694Y-59405D01*
X30656Y-59367D01*
X14199Y-60836D02*
X14199Y-61190D01*
X14376Y-61013D02*
X14022Y-61013D01*
X14919Y-60537D02*
X14995Y-60537D01*
X15071Y-60575D01*
X15109Y-60613D01*
X15147Y-60689D01*
X15186Y-60842D01*
X15186Y-61032D01*
X15147Y-61184D01*
X15109Y-61261D01*
X15071Y-61299D01*
X14995Y-61337D01*
X14919Y-61337D01*
X14843Y-61299D01*
X14805Y-61261D01*
X14766Y-61184D01*
X14728Y-61032D01*
X14728Y-60842D01*
X14766Y-60689D01*
X14805Y-60613D01*
X14843Y-60575D01*
X14919Y-60537D01*
X15528Y-61261D02*
X15567Y-61299D01*
X15528Y-61337D01*
X15490Y-61299D01*
X15528Y-61261D01*
X15528Y-61337D01*
X15948Y-61337D02*
X16100Y-61337D01*
X16176Y-61299D01*
X16214Y-61261D01*
X16290Y-61146D01*
X16329Y-60994D01*
X16329Y-60689D01*
X16290Y-60613D01*
X16252Y-60575D01*
X16176Y-60537D01*
X16024Y-60537D01*
X15948Y-60575D01*
X15909Y-60613D01*
X15871Y-60689D01*
X15871Y-60880D01*
X15909Y-60956D01*
X15948Y-60994D01*
X16024Y-61032D01*
X16176Y-61032D01*
X16252Y-60994D01*
X16290Y-60956D01*
X16329Y-60880D01*
X16824Y-60537D02*
X16900Y-60537D01*
X16976Y-60575D01*
X17014Y-60613D01*
X17052Y-60689D01*
X17091Y-60842D01*
X17091Y-61032D01*
X17052Y-61184D01*
X17014Y-61261D01*
X16976Y-61299D01*
X16900Y-61337D01*
X16824Y-61337D01*
X16748Y-61299D01*
X16710Y-61261D01*
X16671Y-61184D01*
X16633Y-61032D01*
X16633Y-60842D01*
X16671Y-60689D01*
X16710Y-60613D01*
X16748Y-60575D01*
X16824Y-60537D01*
X17433Y-61337D02*
X17433Y-60803D01*
X17433Y-60880D02*
X17472Y-60842D01*
X17548Y-60803D01*
X17662Y-60803D01*
X17738Y-60842D01*
X17776Y-60918D01*
X17776Y-61337D01*
X17776Y-60918D02*
X17814Y-60842D01*
X17891Y-60803D01*
X18005Y-60803D01*
X18081Y-60842D01*
X18119Y-60918D01*
X18119Y-61337D01*
X18500Y-61337D02*
X18500Y-60803D01*
X18500Y-60880D02*
X18539Y-60842D01*
X18615Y-60803D01*
X18729Y-60803D01*
X18805Y-60842D01*
X18843Y-60918D01*
X18843Y-61337D01*
X18843Y-60918D02*
X18881Y-60842D01*
X18958Y-60803D01*
X19072Y-60803D01*
X19148Y-60842D01*
X19186Y-60918D01*
X19186Y-61337D01*
X20749Y-60499D02*
X20063Y-61527D01*
X21778Y-60537D02*
X21854Y-60537D01*
X21930Y-60575D01*
X21968Y-60613D01*
X22006Y-60689D01*
X22045Y-60842D01*
X22045Y-61032D01*
X22006Y-61184D01*
X21968Y-61261D01*
X21930Y-61299D01*
X21854Y-61337D01*
X21778Y-61337D01*
X21702Y-61299D01*
X21664Y-61261D01*
X21625Y-61184D01*
X21587Y-61032D01*
X21587Y-60842D01*
X21625Y-60689D01*
X21664Y-60613D01*
X21702Y-60575D01*
X21778Y-60537D01*
X22387Y-61261D02*
X22426Y-61299D01*
X22387Y-61337D01*
X22349Y-61299D01*
X22387Y-61261D01*
X22387Y-61337D01*
X22921Y-60537D02*
X22997Y-60537D01*
X23073Y-60575D01*
X23111Y-60613D01*
X23149Y-60689D01*
X23188Y-60842D01*
X23188Y-61032D01*
X23149Y-61184D01*
X23111Y-61261D01*
X23073Y-61299D01*
X22997Y-61337D01*
X22921Y-61337D01*
X22845Y-61299D01*
X22807Y-61261D01*
X22768Y-61184D01*
X22730Y-61032D01*
X22730Y-60842D01*
X22768Y-60689D01*
X22807Y-60613D01*
X22845Y-60575D01*
X22921Y-60537D01*
X23454Y-60537D02*
X23950Y-60537D01*
X23683Y-60842D01*
X23797Y-60842D01*
X23873Y-60880D01*
X23911Y-60918D01*
X23950Y-60994D01*
X23950Y-61184D01*
X23911Y-61261D01*
X23873Y-61299D01*
X23797Y-61337D01*
X23569Y-61337D01*
X23492Y-61299D01*
X23454Y-61261D01*
X24673Y-60537D02*
X24292Y-60537D01*
X24254Y-60918D01*
X24292Y-60880D01*
X24369Y-60842D01*
X24559Y-60842D01*
X24635Y-60880D01*
X24673Y-60918D01*
X24712Y-60994D01*
X24712Y-61184D01*
X24673Y-61261D01*
X24635Y-61299D01*
X24559Y-61337D01*
X24369Y-61337D01*
X24292Y-61299D01*
X24254Y-61261D01*
X25016Y-60537D02*
X25016Y-60689D01*
X25321Y-60537D02*
X25321Y-60689D01*
X26503Y-61642D02*
X26465Y-61603D01*
X26389Y-61489D01*
X26351Y-61413D01*
X26313Y-61299D01*
X26274Y-61108D01*
X26274Y-60956D01*
X26313Y-60765D01*
X26351Y-60651D01*
X26389Y-60575D01*
X26465Y-60461D01*
X26503Y-60423D01*
X26769Y-60613D02*
X26807Y-60575D01*
X26884Y-60537D01*
X27074Y-60537D01*
X27150Y-60575D01*
X27188Y-60613D01*
X27227Y-60689D01*
X27227Y-60765D01*
X27188Y-60880D01*
X26731Y-61337D01*
X27227Y-61337D01*
X28179Y-61337D02*
X28179Y-60537D01*
X28522Y-61337D02*
X28522Y-60918D01*
X28484Y-60842D01*
X28408Y-60803D01*
X28294Y-60803D01*
X28218Y-60842D01*
X28179Y-60880D01*
X29018Y-61337D02*
X28942Y-61299D01*
X28903Y-61261D01*
X28865Y-61184D01*
X28865Y-60956D01*
X28903Y-60880D01*
X28942Y-60842D01*
X29018Y-60803D01*
X29132Y-60803D01*
X29208Y-60842D01*
X29246Y-60880D01*
X29284Y-60956D01*
X29284Y-61184D01*
X29246Y-61261D01*
X29208Y-61299D01*
X29132Y-61337D01*
X29018Y-61337D01*
X29742Y-61337D02*
X29666Y-61299D01*
X29627Y-61223D01*
X29627Y-60537D01*
X30351Y-61299D02*
X30275Y-61337D01*
X30123Y-61337D01*
X30046Y-61299D01*
X30008Y-61223D01*
X30008Y-60918D01*
X30046Y-60842D01*
X30123Y-60803D01*
X30275Y-60803D01*
X30351Y-60842D01*
X30389Y-60918D01*
X30389Y-60994D01*
X30008Y-61070D01*
X30694Y-61299D02*
X30771Y-61337D01*
X30923Y-61337D01*
X30999Y-61299D01*
X31037Y-61223D01*
X31037Y-61184D01*
X30999Y-61108D01*
X30923Y-61070D01*
X30809Y-61070D01*
X30732Y-61032D01*
X30694Y-60956D01*
X30694Y-60918D01*
X30732Y-60842D01*
X30809Y-60803D01*
X30923Y-60803D01*
X30999Y-60842D01*
X31304Y-61642D02*
X31342Y-61603D01*
X31419Y-61489D01*
X31457Y-61413D01*
X31495Y-61299D01*
X31533Y-61108D01*
X31533Y-60956D01*
X31495Y-60765D01*
X31457Y-60651D01*
X31419Y-60575D01*
X31342Y-60461D01*
X31304Y-60423D01*
G54D10*
X14376Y-62069D02*
X14372Y-62107D01*
X14361Y-62144D01*
X14343Y-62178D01*
X14318Y-62207D01*
X14289Y-62232D01*
X14255Y-62250D01*
X14218Y-62261D01*
X14180Y-62265D01*
X14143Y-62262D01*
X14106Y-62251D01*
X14072Y-62233D01*
X14042Y-62209D01*
X14017Y-62180D01*
X13998Y-62146D01*
X13987Y-62109D01*
X13983Y-62071D01*
X13986Y-62034D01*
X13996Y-61997D01*
X14014Y-61963D01*
X14038Y-61933D01*
X14067Y-61908D01*
X14101Y-61889D01*
X14137Y-61877D01*
X14175Y-61873D01*
X14213Y-61875D01*
X14250Y-61886D01*
X14284Y-61903D01*
X14314Y-61927D01*
X14339Y-61956D01*
X14358Y-61989D01*
X14371Y-62026D01*
X14375Y-62064D01*
X14376Y-62069D01*
X13982Y-61872D02*
X14376Y-62266D01*
X14376Y-61872D02*
X13982Y-62266D01*
G54D11*
X15186Y-62393D02*
X14728Y-62393D01*
X14957Y-62393D02*
X14957Y-61593D01*
X14881Y-61707D01*
X14805Y-61783D01*
X14728Y-61821D01*
X15528Y-62317D02*
X15567Y-62355D01*
X15528Y-62393D01*
X15490Y-62355D01*
X15528Y-62317D01*
X15528Y-62393D01*
X16062Y-61593D02*
X16138Y-61593D01*
X16214Y-61631D01*
X16252Y-61669D01*
X16290Y-61745D01*
X16329Y-61898D01*
X16329Y-62088D01*
X16290Y-62240D01*
X16252Y-62317D01*
X16214Y-62355D01*
X16138Y-62393D01*
X16062Y-62393D01*
X15986Y-62355D01*
X15948Y-62317D01*
X15909Y-62240D01*
X15871Y-62088D01*
X15871Y-61898D01*
X15909Y-61745D01*
X15948Y-61669D01*
X15986Y-61631D01*
X16062Y-61593D01*
X16824Y-61593D02*
X16900Y-61593D01*
X16976Y-61631D01*
X17014Y-61669D01*
X17052Y-61745D01*
X17091Y-61898D01*
X17091Y-62088D01*
X17052Y-62240D01*
X17014Y-62317D01*
X16976Y-62355D01*
X16900Y-62393D01*
X16824Y-62393D01*
X16748Y-62355D01*
X16710Y-62317D01*
X16671Y-62240D01*
X16633Y-62088D01*
X16633Y-61898D01*
X16671Y-61745D01*
X16710Y-61669D01*
X16748Y-61631D01*
X16824Y-61593D01*
X17433Y-62393D02*
X17433Y-61859D01*
X17433Y-61936D02*
X17472Y-61898D01*
X17548Y-61859D01*
X17662Y-61859D01*
X17738Y-61898D01*
X17776Y-61974D01*
X17776Y-62393D01*
X17776Y-61974D02*
X17814Y-61898D01*
X17891Y-61859D01*
X18005Y-61859D01*
X18081Y-61898D01*
X18119Y-61974D01*
X18119Y-62393D01*
X18500Y-62393D02*
X18500Y-61859D01*
X18500Y-61936D02*
X18539Y-61898D01*
X18615Y-61859D01*
X18729Y-61859D01*
X18805Y-61898D01*
X18843Y-61974D01*
X18843Y-62393D01*
X18843Y-61974D02*
X18881Y-61898D01*
X18958Y-61859D01*
X19072Y-61859D01*
X19148Y-61898D01*
X19186Y-61974D01*
X19186Y-62393D01*
X20749Y-61555D02*
X20063Y-62583D01*
X21778Y-61593D02*
X21854Y-61593D01*
X21930Y-61631D01*
X21968Y-61669D01*
X22006Y-61745D01*
X22045Y-61898D01*
X22045Y-62088D01*
X22006Y-62240D01*
X21968Y-62317D01*
X21930Y-62355D01*
X21854Y-62393D01*
X21778Y-62393D01*
X21702Y-62355D01*
X21664Y-62317D01*
X21625Y-62240D01*
X21587Y-62088D01*
X21587Y-61898D01*
X21625Y-61745D01*
X21664Y-61669D01*
X21702Y-61631D01*
X21778Y-61593D01*
X22387Y-62317D02*
X22426Y-62355D01*
X22387Y-62393D01*
X22349Y-62355D01*
X22387Y-62317D01*
X22387Y-62393D01*
X22921Y-61593D02*
X22997Y-61593D01*
X23073Y-61631D01*
X23111Y-61669D01*
X23149Y-61745D01*
X23188Y-61898D01*
X23188Y-62088D01*
X23149Y-62240D01*
X23111Y-62317D01*
X23073Y-62355D01*
X22997Y-62393D01*
X22921Y-62393D01*
X22845Y-62355D01*
X22807Y-62317D01*
X22768Y-62240D01*
X22730Y-62088D01*
X22730Y-61898D01*
X22768Y-61745D01*
X22807Y-61669D01*
X22845Y-61631D01*
X22921Y-61593D01*
X23454Y-61593D02*
X23950Y-61593D01*
X23683Y-61898D01*
X23797Y-61898D01*
X23873Y-61936D01*
X23911Y-61974D01*
X23950Y-62050D01*
X23950Y-62240D01*
X23911Y-62317D01*
X23873Y-62355D01*
X23797Y-62393D01*
X23569Y-62393D01*
X23492Y-62355D01*
X23454Y-62317D01*
X24331Y-62393D02*
X24483Y-62393D01*
X24559Y-62355D01*
X24597Y-62317D01*
X24673Y-62202D01*
X24712Y-62050D01*
X24712Y-61745D01*
X24673Y-61669D01*
X24635Y-61631D01*
X24559Y-61593D01*
X24407Y-61593D01*
X24331Y-61631D01*
X24292Y-61669D01*
X24254Y-61745D01*
X24254Y-61936D01*
X24292Y-62012D01*
X24331Y-62050D01*
X24407Y-62088D01*
X24559Y-62088D01*
X24635Y-62050D01*
X24673Y-62012D01*
X24712Y-61936D01*
X25016Y-61593D02*
X25016Y-61745D01*
X25321Y-61593D02*
X25321Y-61745D01*
X26503Y-62698D02*
X26465Y-62659D01*
X26389Y-62545D01*
X26351Y-62469D01*
X26313Y-62355D01*
X26274Y-62164D01*
X26274Y-62012D01*
X26313Y-61821D01*
X26351Y-61707D01*
X26389Y-61631D01*
X26465Y-61517D01*
X26503Y-61479D01*
X26769Y-61669D02*
X26807Y-61631D01*
X26884Y-61593D01*
X27074Y-61593D01*
X27150Y-61631D01*
X27188Y-61669D01*
X27227Y-61745D01*
X27227Y-61821D01*
X27188Y-61936D01*
X26731Y-62393D01*
X27227Y-62393D01*
X28179Y-62393D02*
X28179Y-61593D01*
X28522Y-62393D02*
X28522Y-61974D01*
X28484Y-61898D01*
X28408Y-61859D01*
X28294Y-61859D01*
X28218Y-61898D01*
X28179Y-61936D01*
X29018Y-62393D02*
X28942Y-62355D01*
X28903Y-62317D01*
X28865Y-62240D01*
X28865Y-62012D01*
X28903Y-61936D01*
X28942Y-61898D01*
X29018Y-61859D01*
X29132Y-61859D01*
X29208Y-61898D01*
X29246Y-61936D01*
X29284Y-62012D01*
X29284Y-62240D01*
X29246Y-62317D01*
X29208Y-62355D01*
X29132Y-62393D01*
X29018Y-62393D01*
X29742Y-62393D02*
X29666Y-62355D01*
X29627Y-62279D01*
X29627Y-61593D01*
X30351Y-62355D02*
X30275Y-62393D01*
X30123Y-62393D01*
X30046Y-62355D01*
X30008Y-62279D01*
X30008Y-61974D01*
X30046Y-61898D01*
X30123Y-61859D01*
X30275Y-61859D01*
X30351Y-61898D01*
X30389Y-61974D01*
X30389Y-62050D01*
X30008Y-62126D01*
X30694Y-62355D02*
X30771Y-62393D01*
X30923Y-62393D01*
X30999Y-62355D01*
X31037Y-62279D01*
X31037Y-62240D01*
X30999Y-62164D01*
X30923Y-62126D01*
X30809Y-62126D01*
X30732Y-62088D01*
X30694Y-62012D01*
X30694Y-61974D01*
X30732Y-61898D01*
X30809Y-61859D01*
X30923Y-61859D01*
X30999Y-61898D01*
X31304Y-62698D02*
X31342Y-62659D01*
X31419Y-62545D01*
X31457Y-62469D01*
X31495Y-62355D01*
X31533Y-62164D01*
X31533Y-62012D01*
X31495Y-61821D01*
X31457Y-61707D01*
X31419Y-61631D01*
X31342Y-61517D01*
X31304Y-61479D01*
G54D10*
X14376Y-63125D02*
X14372Y-63163D01*
X14360Y-63201D01*
X14342Y-63235D01*
X14317Y-63265D01*
X14287Y-63290D01*
X14253Y-63309D01*
X14216Y-63320D01*
X14177Y-63324D01*
X14139Y-63321D01*
X14102Y-63310D01*
X14067Y-63292D01*
X14037Y-63267D01*
X14011Y-63237D01*
X13993Y-63203D01*
X13981Y-63166D01*
X13977Y-63127D01*
X13980Y-63089D01*
X13991Y-63052D01*
X14008Y-63017D01*
X14033Y-62987D01*
X14062Y-62961D01*
X14096Y-62942D01*
X14134Y-62930D01*
X14172Y-62926D01*
X14210Y-62929D01*
X14248Y-62939D01*
X14283Y-62957D01*
X14313Y-62981D01*
X14339Y-63010D01*
X14358Y-63044D01*
X14371Y-63081D01*
X14375Y-63120D01*
X14376Y-63125D01*
X13976Y-63125D02*
X14376Y-63125D01*
G54D11*
X15186Y-63449D02*
X14728Y-63449D01*
X14957Y-63449D02*
X14957Y-62649D01*
X14881Y-62763D01*
X14805Y-62839D01*
X14728Y-62877D01*
X15528Y-63373D02*
X15567Y-63411D01*
X15528Y-63449D01*
X15490Y-63411D01*
X15528Y-63373D01*
X15528Y-63449D01*
X16062Y-62649D02*
X16138Y-62649D01*
X16214Y-62687D01*
X16252Y-62725D01*
X16290Y-62801D01*
X16329Y-62954D01*
X16329Y-63144D01*
X16290Y-63296D01*
X16252Y-63373D01*
X16214Y-63411D01*
X16138Y-63449D01*
X16062Y-63449D01*
X15986Y-63411D01*
X15948Y-63373D01*
X15909Y-63296D01*
X15871Y-63144D01*
X15871Y-62954D01*
X15909Y-62801D01*
X15948Y-62725D01*
X15986Y-62687D01*
X16062Y-62649D01*
X16633Y-62725D02*
X16671Y-62687D01*
X16748Y-62649D01*
X16938Y-62649D01*
X17014Y-62687D01*
X17052Y-62725D01*
X17091Y-62801D01*
X17091Y-62877D01*
X17052Y-62992D01*
X16595Y-63449D01*
X17091Y-63449D01*
X17433Y-63449D02*
X17433Y-62915D01*
X17433Y-62992D02*
X17472Y-62954D01*
X17548Y-62915D01*
X17662Y-62915D01*
X17738Y-62954D01*
X17776Y-63030D01*
X17776Y-63449D01*
X17776Y-63030D02*
X17814Y-62954D01*
X17891Y-62915D01*
X18005Y-62915D01*
X18081Y-62954D01*
X18119Y-63030D01*
X18119Y-63449D01*
X18500Y-63449D02*
X18500Y-62915D01*
X18500Y-62992D02*
X18539Y-62954D01*
X18615Y-62915D01*
X18729Y-62915D01*
X18805Y-62954D01*
X18843Y-63030D01*
X18843Y-63449D01*
X18843Y-63030D02*
X18881Y-62954D01*
X18958Y-62915D01*
X19072Y-62915D01*
X19148Y-62954D01*
X19186Y-63030D01*
X19186Y-63449D01*
X20749Y-62611D02*
X20063Y-63639D01*
X21778Y-62649D02*
X21854Y-62649D01*
X21930Y-62687D01*
X21968Y-62725D01*
X22006Y-62801D01*
X22045Y-62954D01*
X22045Y-63144D01*
X22006Y-63296D01*
X21968Y-63373D01*
X21930Y-63411D01*
X21854Y-63449D01*
X21778Y-63449D01*
X21702Y-63411D01*
X21664Y-63373D01*
X21625Y-63296D01*
X21587Y-63144D01*
X21587Y-62954D01*
X21625Y-62801D01*
X21664Y-62725D01*
X21702Y-62687D01*
X21778Y-62649D01*
X22387Y-63373D02*
X22426Y-63411D01*
X22387Y-63449D01*
X22349Y-63411D01*
X22387Y-63373D01*
X22387Y-63449D01*
X22921Y-62649D02*
X22997Y-62649D01*
X23073Y-62687D01*
X23111Y-62725D01*
X23149Y-62801D01*
X23188Y-62954D01*
X23188Y-63144D01*
X23149Y-63296D01*
X23111Y-63373D01*
X23073Y-63411D01*
X22997Y-63449D01*
X22921Y-63449D01*
X22845Y-63411D01*
X22807Y-63373D01*
X22768Y-63296D01*
X22730Y-63144D01*
X22730Y-62954D01*
X22768Y-62801D01*
X22807Y-62725D01*
X22845Y-62687D01*
X22921Y-62649D01*
X23873Y-62915D02*
X23873Y-63449D01*
X23683Y-62611D02*
X23492Y-63182D01*
X23988Y-63182D01*
X24445Y-62649D02*
X24521Y-62649D01*
X24597Y-62687D01*
X24635Y-62725D01*
X24673Y-62801D01*
X24712Y-62954D01*
X24712Y-63144D01*
X24673Y-63296D01*
X24635Y-63373D01*
X24597Y-63411D01*
X24521Y-63449D01*
X24445Y-63449D01*
X24369Y-63411D01*
X24331Y-63373D01*
X24292Y-63296D01*
X24254Y-63144D01*
X24254Y-62954D01*
X24292Y-62801D01*
X24331Y-62725D01*
X24369Y-62687D01*
X24445Y-62649D01*
X25016Y-62649D02*
X25016Y-62801D01*
X25321Y-62649D02*
X25321Y-62801D01*
X26503Y-63754D02*
X26465Y-63715D01*
X26389Y-63601D01*
X26351Y-63525D01*
X26313Y-63411D01*
X26274Y-63220D01*
X26274Y-63068D01*
X26313Y-62877D01*
X26351Y-62763D01*
X26389Y-62687D01*
X26465Y-62573D01*
X26503Y-62535D01*
X26731Y-62649D02*
X27227Y-62649D01*
X26960Y-62954D01*
X27074Y-62954D01*
X27150Y-62992D01*
X27188Y-63030D01*
X27227Y-63106D01*
X27227Y-63296D01*
X27188Y-63373D01*
X27150Y-63411D01*
X27074Y-63449D01*
X26846Y-63449D01*
X26769Y-63411D01*
X26731Y-63373D01*
X27989Y-63449D02*
X27531Y-63449D01*
X27760Y-63449D02*
X27760Y-62649D01*
X27684Y-62763D01*
X27608Y-62839D01*
X27531Y-62877D01*
X28941Y-63449D02*
X28941Y-62649D01*
X29284Y-63449D02*
X29284Y-63030D01*
X29246Y-62954D01*
X29170Y-62915D01*
X29056Y-62915D01*
X28980Y-62954D01*
X28941Y-62992D01*
X29780Y-63449D02*
X29704Y-63411D01*
X29665Y-63373D01*
X29627Y-63296D01*
X29627Y-63068D01*
X29665Y-62992D01*
X29704Y-62954D01*
X29780Y-62915D01*
X29894Y-62915D01*
X29970Y-62954D01*
X30008Y-62992D01*
X30046Y-63068D01*
X30046Y-63296D01*
X30008Y-63373D01*
X29970Y-63411D01*
X29894Y-63449D01*
X29780Y-63449D01*
X30504Y-63449D02*
X30428Y-63411D01*
X30389Y-63335D01*
X30389Y-62649D01*
X31113Y-63411D02*
X31037Y-63449D01*
X30885Y-63449D01*
X30808Y-63411D01*
X30770Y-63335D01*
X30770Y-63030D01*
X30808Y-62954D01*
X30885Y-62915D01*
X31037Y-62915D01*
X31113Y-62954D01*
X31151Y-63030D01*
X31151Y-63106D01*
X30770Y-63182D01*
X31456Y-63411D02*
X31533Y-63449D01*
X31685Y-63449D01*
X31761Y-63411D01*
X31799Y-63335D01*
X31799Y-63296D01*
X31761Y-63220D01*
X31685Y-63182D01*
X31571Y-63182D01*
X31494Y-63144D01*
X31456Y-63068D01*
X31456Y-63030D01*
X31494Y-62954D01*
X31571Y-62915D01*
X31685Y-62915D01*
X31761Y-62954D01*
X32066Y-63754D02*
X32104Y-63715D01*
X32181Y-63601D01*
X32219Y-63525D01*
X32257Y-63411D01*
X32295Y-63220D01*
X32295Y-63068D01*
X32257Y-62877D01*
X32219Y-62763D01*
X32181Y-62687D01*
X32104Y-62573D01*
X32066Y-62535D01*
M02*
