G04 (created by PCBNEW-RS274X (2011-05-25)-stable) date Fri 18 May 2012 19:27:03 CEST*
G01*
G70*
G90*
%MOIN*%
G04 Gerber Fmt 3.4, Leading zero omitted, Abs format*
%FSLAX34Y34*%
G04 APERTURE LIST*
%ADD10C,0.006000*%
%ADD11C,0.005900*%
%ADD12C,0.007500*%
%ADD13C,0.008000*%
%ADD14C,0.005000*%
%ADD15C,0.012000*%
%ADD16C,0.015000*%
%ADD17C,0.010000*%
%ADD18C,0.006500*%
%ADD19C,0.002600*%
%ADD20C,0.004000*%
%ADD21C,0.002000*%
%ADD22C,0.004500*%
%ADD23R,0.045000X0.065000*%
%ADD24R,0.065000X0.045000*%
%ADD25R,0.055000X0.075000*%
%ADD26R,0.075000X0.055000*%
%ADD27R,0.066000X0.015800*%
%ADD28O,0.066000X0.015800*%
%ADD29O,0.015800X0.066000*%
%ADD30R,0.080000X0.080000*%
%ADD31C,0.080000*%
%ADD32R,0.051500X0.055400*%
%ADD33R,0.055400X0.051500*%
%ADD34R,0.146000X0.059400*%
%ADD35C,0.055400*%
%ADD36R,0.098700X0.039700*%
%ADD37R,0.106600X0.118400*%
%ADD38R,0.110600X0.059400*%
%ADD39R,0.110600X0.039700*%
%ADD40R,0.177500X0.086900*%
%ADD41R,0.036000X0.094800*%
%ADD42R,0.040000X0.032000*%
%ADD43R,0.043600X0.063300*%
%ADD44R,0.110600X0.079800*%
%ADD45R,0.079800X0.110600*%
%ADD46R,0.057900X0.039700*%
%ADD47R,0.067200X0.067200*%
%ADD48R,0.114500X0.136100*%
%ADD49R,0.114500X0.124300*%
%ADD50C,0.059400*%
%ADD51R,0.236500X0.098700*%
%ADD52R,0.098700X0.043600*%
%ADD53R,0.185400X0.047600*%
G04 APERTURE END LIST*
G54D10*
G54D11*
X44015Y-44121D02*
X44015Y-43693D01*
X44458Y-43821D02*
X44229Y-43907D01*
X44458Y-43993D01*
X43115Y-55521D02*
X43115Y-55093D01*
X43558Y-55221D02*
X43329Y-55307D01*
X43558Y-55393D01*
X43115Y-53671D02*
X43115Y-53243D01*
X43558Y-53371D02*
X43329Y-53457D01*
X43558Y-53543D01*
X39136Y-53271D02*
X38965Y-53271D01*
X39050Y-53271D02*
X39050Y-52972D01*
X39022Y-53014D01*
X38993Y-53043D01*
X38965Y-53057D01*
X29665Y-55120D02*
X29665Y-54693D01*
X30107Y-54821D02*
X29879Y-54907D01*
X30107Y-54992D01*
X29715Y-52770D02*
X29715Y-52343D01*
X30157Y-52471D02*
X29929Y-52557D01*
X30157Y-52642D01*
X37586Y-54371D02*
X37414Y-54371D01*
X37500Y-54371D02*
X37500Y-54071D01*
X37471Y-54114D01*
X37443Y-54143D01*
X37414Y-54157D01*
G54D12*
X23386Y-41421D02*
X23214Y-41421D01*
X23300Y-41421D02*
X23300Y-41121D01*
X23271Y-41164D01*
X23243Y-41193D01*
X23214Y-41207D01*
X30736Y-45071D02*
X30564Y-45071D01*
X30650Y-45071D02*
X30650Y-44771D01*
X30621Y-44814D01*
X30593Y-44843D01*
X30564Y-44857D01*
X42286Y-37271D02*
X42114Y-37271D01*
X42200Y-37271D02*
X42200Y-36971D01*
X42171Y-37014D01*
X42143Y-37043D01*
X42114Y-37057D01*
G54D11*
X26786Y-38271D02*
X26614Y-38271D01*
X26700Y-38271D02*
X26700Y-37971D01*
X26671Y-38014D01*
X26643Y-38043D01*
X26614Y-38057D01*
G54D13*
X14450Y-56300D02*
X14450Y-34950D01*
X48250Y-56300D02*
X14450Y-56300D01*
X48250Y-34950D02*
X48250Y-56300D01*
X15250Y-34950D02*
X48250Y-34950D01*
X14450Y-34950D02*
X15250Y-34950D01*
G54D14*
X33537Y-51150D02*
X34437Y-51150D01*
X34437Y-51150D02*
X34437Y-51650D01*
X34437Y-51650D02*
X33537Y-51650D01*
X33537Y-51650D02*
X33537Y-51150D01*
X41945Y-45787D02*
X41045Y-45787D01*
X41045Y-45787D02*
X41045Y-45287D01*
X41045Y-45287D02*
X41945Y-45287D01*
X41945Y-45287D02*
X41945Y-45787D01*
X32200Y-53600D02*
X31300Y-53600D01*
X31300Y-53600D02*
X31300Y-53100D01*
X31300Y-53100D02*
X32200Y-53100D01*
X32200Y-53100D02*
X32200Y-53600D01*
X32200Y-54400D02*
X31300Y-54400D01*
X31300Y-54400D02*
X31300Y-53900D01*
X31300Y-53900D02*
X32200Y-53900D01*
X32200Y-53900D02*
X32200Y-54400D01*
X40692Y-41017D02*
X41592Y-41017D01*
X41592Y-41017D02*
X41592Y-41517D01*
X41592Y-41517D02*
X40692Y-41517D01*
X40692Y-41517D02*
X40692Y-41017D01*
X24900Y-44450D02*
X25800Y-44450D01*
X25800Y-44450D02*
X25800Y-44950D01*
X25800Y-44950D02*
X24900Y-44950D01*
X24900Y-44950D02*
X24900Y-44450D01*
X40000Y-46300D02*
X40900Y-46300D01*
X40900Y-46300D02*
X40900Y-46800D01*
X40900Y-46800D02*
X40000Y-46800D01*
X40000Y-46800D02*
X40000Y-46300D01*
X40000Y-47050D02*
X40900Y-47050D01*
X40900Y-47050D02*
X40900Y-47550D01*
X40900Y-47550D02*
X40000Y-47550D01*
X40000Y-47550D02*
X40000Y-47050D01*
X32950Y-38200D02*
X32950Y-39100D01*
X32950Y-39100D02*
X32450Y-39100D01*
X32450Y-39100D02*
X32450Y-38200D01*
X32450Y-38200D02*
X32950Y-38200D01*
X30950Y-38200D02*
X30950Y-39100D01*
X30950Y-39100D02*
X30450Y-39100D01*
X30450Y-39100D02*
X30450Y-38200D01*
X30450Y-38200D02*
X30950Y-38200D01*
X29950Y-38200D02*
X29950Y-39100D01*
X29950Y-39100D02*
X29450Y-39100D01*
X29450Y-39100D02*
X29450Y-38200D01*
X29450Y-38200D02*
X29950Y-38200D01*
X28950Y-38200D02*
X28950Y-39100D01*
X28950Y-39100D02*
X28450Y-39100D01*
X28450Y-39100D02*
X28450Y-38200D01*
X28450Y-38200D02*
X28950Y-38200D01*
X27950Y-38200D02*
X27950Y-39100D01*
X27950Y-39100D02*
X27450Y-39100D01*
X27450Y-39100D02*
X27450Y-38200D01*
X27450Y-38200D02*
X27950Y-38200D01*
X42500Y-48350D02*
X42500Y-47450D01*
X42500Y-47450D02*
X43000Y-47450D01*
X43000Y-47450D02*
X43000Y-48350D01*
X43000Y-48350D02*
X42500Y-48350D01*
X43200Y-48350D02*
X43200Y-47450D01*
X43200Y-47450D02*
X43700Y-47450D01*
X43700Y-47450D02*
X43700Y-48350D01*
X43700Y-48350D02*
X43200Y-48350D01*
X46400Y-45000D02*
X45500Y-45000D01*
X45500Y-45000D02*
X45500Y-44500D01*
X45500Y-44500D02*
X46400Y-44500D01*
X46400Y-44500D02*
X46400Y-45000D01*
X27701Y-44013D02*
X26801Y-44013D01*
X26801Y-44013D02*
X26801Y-43513D01*
X26801Y-43513D02*
X27701Y-43513D01*
X27701Y-43513D02*
X27701Y-44013D01*
X38850Y-51950D02*
X38850Y-52850D01*
X38850Y-52850D02*
X38350Y-52850D01*
X38350Y-52850D02*
X38350Y-51950D01*
X38350Y-51950D02*
X38850Y-51950D01*
X38350Y-54250D02*
X38350Y-53350D01*
X38350Y-53350D02*
X38850Y-53350D01*
X38850Y-53350D02*
X38850Y-54250D01*
X38850Y-54250D02*
X38350Y-54250D01*
X34400Y-43200D02*
X35300Y-43200D01*
X35300Y-43200D02*
X35300Y-43700D01*
X35300Y-43700D02*
X34400Y-43700D01*
X34400Y-43700D02*
X34400Y-43200D01*
X32875Y-50650D02*
X31975Y-50650D01*
X31975Y-50650D02*
X31975Y-50150D01*
X31975Y-50150D02*
X32875Y-50150D01*
X32875Y-50150D02*
X32875Y-50650D01*
X29400Y-42050D02*
X29400Y-42950D01*
X29400Y-42950D02*
X28900Y-42950D01*
X28900Y-42950D02*
X28900Y-42050D01*
X28900Y-42050D02*
X29400Y-42050D01*
X31550Y-42950D02*
X31550Y-42050D01*
X31550Y-42050D02*
X32050Y-42050D01*
X32050Y-42050D02*
X32050Y-42950D01*
X32050Y-42950D02*
X31550Y-42950D01*
X29850Y-47750D02*
X29850Y-48650D01*
X29850Y-48650D02*
X29350Y-48650D01*
X29350Y-48650D02*
X29350Y-47750D01*
X29350Y-47750D02*
X29850Y-47750D01*
X30500Y-44250D02*
X30500Y-43350D01*
X30500Y-43350D02*
X31000Y-43350D01*
X31000Y-43350D02*
X31000Y-44250D01*
X31000Y-44250D02*
X30500Y-44250D01*
X38250Y-42600D02*
X38250Y-41700D01*
X38250Y-41700D02*
X38750Y-41700D01*
X38750Y-41700D02*
X38750Y-42600D01*
X38750Y-42600D02*
X38250Y-42600D01*
X29050Y-46850D02*
X29050Y-45950D01*
X29050Y-45950D02*
X29550Y-45950D01*
X29550Y-45950D02*
X29550Y-46850D01*
X29550Y-46850D02*
X29050Y-46850D01*
X37300Y-42600D02*
X37300Y-41700D01*
X37300Y-41700D02*
X37800Y-41700D01*
X37800Y-41700D02*
X37800Y-42600D01*
X37800Y-42600D02*
X37300Y-42600D01*
X25800Y-45750D02*
X24900Y-45750D01*
X24900Y-45750D02*
X24900Y-45250D01*
X24900Y-45250D02*
X25800Y-45250D01*
X25800Y-45250D02*
X25800Y-45750D01*
X33100Y-42950D02*
X33100Y-42050D01*
X33100Y-42050D02*
X33600Y-42050D01*
X33600Y-42050D02*
X33600Y-42950D01*
X33600Y-42950D02*
X33100Y-42950D01*
X35800Y-46175D02*
X35800Y-45275D01*
X35800Y-45275D02*
X36300Y-45275D01*
X36300Y-45275D02*
X36300Y-46175D01*
X36300Y-46175D02*
X35800Y-46175D01*
X26350Y-45550D02*
X26350Y-44650D01*
X26350Y-44650D02*
X26850Y-44650D01*
X26850Y-44650D02*
X26850Y-45550D01*
X26850Y-45550D02*
X26350Y-45550D01*
X41550Y-48300D02*
X41550Y-47400D01*
X41550Y-47400D02*
X42050Y-47400D01*
X42050Y-47400D02*
X42050Y-48300D01*
X42050Y-48300D02*
X41550Y-48300D01*
X31700Y-50525D02*
X30800Y-50525D01*
X30800Y-50525D02*
X30800Y-50025D01*
X30800Y-50025D02*
X31700Y-50025D01*
X31700Y-50025D02*
X31700Y-50525D01*
X32397Y-42954D02*
X32397Y-42054D01*
X32397Y-42054D02*
X32897Y-42054D01*
X32897Y-42054D02*
X32897Y-42954D01*
X32897Y-42954D02*
X32397Y-42954D01*
X29700Y-46550D02*
X29700Y-45650D01*
X29700Y-45650D02*
X30200Y-45650D01*
X30200Y-45650D02*
X30200Y-46550D01*
X30200Y-46550D02*
X29700Y-46550D01*
X26195Y-43453D02*
X26194Y-43462D01*
X26191Y-43472D01*
X26186Y-43480D01*
X26180Y-43488D01*
X26172Y-43494D01*
X26164Y-43499D01*
X26155Y-43501D01*
X26145Y-43502D01*
X26136Y-43502D01*
X26127Y-43499D01*
X26118Y-43494D01*
X26111Y-43488D01*
X26104Y-43481D01*
X26100Y-43472D01*
X26097Y-43463D01*
X26096Y-43453D01*
X26096Y-43444D01*
X26099Y-43435D01*
X26103Y-43426D01*
X26110Y-43419D01*
X26117Y-43412D01*
X26125Y-43408D01*
X26135Y-43405D01*
X26144Y-43404D01*
X26153Y-43404D01*
X26163Y-43407D01*
X26171Y-43411D01*
X26179Y-43417D01*
X26185Y-43425D01*
X26190Y-43433D01*
X26193Y-43442D01*
X26194Y-43452D01*
X26195Y-43453D01*
X25695Y-43453D02*
X26095Y-43453D01*
X26095Y-43453D02*
X26095Y-44053D01*
X26095Y-44053D02*
X25695Y-44053D01*
X25295Y-44053D02*
X24895Y-44053D01*
X24895Y-44053D02*
X24895Y-43453D01*
X24895Y-43453D02*
X25295Y-43453D01*
X43250Y-50600D02*
X43249Y-50609D01*
X43246Y-50619D01*
X43241Y-50627D01*
X43235Y-50635D01*
X43227Y-50641D01*
X43219Y-50646D01*
X43210Y-50648D01*
X43200Y-50649D01*
X43191Y-50649D01*
X43182Y-50646D01*
X43173Y-50641D01*
X43166Y-50635D01*
X43159Y-50628D01*
X43155Y-50619D01*
X43152Y-50610D01*
X43151Y-50600D01*
X43151Y-50591D01*
X43154Y-50582D01*
X43158Y-50573D01*
X43165Y-50566D01*
X43172Y-50559D01*
X43180Y-50555D01*
X43190Y-50552D01*
X43199Y-50551D01*
X43208Y-50551D01*
X43218Y-50554D01*
X43226Y-50558D01*
X43234Y-50564D01*
X43240Y-50572D01*
X43245Y-50580D01*
X43248Y-50589D01*
X43249Y-50599D01*
X43250Y-50600D01*
X43200Y-51050D02*
X43200Y-50650D01*
X43200Y-50650D02*
X43800Y-50650D01*
X43800Y-50650D02*
X43800Y-51050D01*
X43800Y-51450D02*
X43800Y-51850D01*
X43800Y-51850D02*
X43200Y-51850D01*
X43200Y-51850D02*
X43200Y-51450D01*
G54D13*
X31532Y-45232D02*
X31529Y-45261D01*
X31520Y-45289D01*
X31506Y-45315D01*
X31488Y-45337D01*
X31465Y-45356D01*
X31440Y-45370D01*
X31412Y-45378D01*
X31383Y-45381D01*
X31354Y-45379D01*
X31326Y-45371D01*
X31300Y-45357D01*
X31278Y-45339D01*
X31259Y-45316D01*
X31245Y-45291D01*
X31236Y-45263D01*
X31233Y-45234D01*
X31235Y-45205D01*
X31243Y-45177D01*
X31256Y-45151D01*
X31275Y-45128D01*
X31297Y-45109D01*
X31322Y-45095D01*
X31350Y-45086D01*
X31379Y-45083D01*
X31408Y-45085D01*
X31436Y-45093D01*
X31462Y-45106D01*
X31485Y-45124D01*
X31504Y-45146D01*
X31519Y-45171D01*
X31528Y-45199D01*
X31531Y-45228D01*
X31532Y-45232D01*
X34982Y-48832D02*
X34982Y-44832D01*
X34982Y-44832D02*
X31232Y-44832D01*
X31232Y-44832D02*
X30982Y-45082D01*
X30982Y-45082D02*
X30982Y-48832D01*
X30982Y-48832D02*
X34982Y-48832D01*
G54D15*
X41700Y-36700D02*
X41700Y-35700D01*
X41700Y-35700D02*
X47700Y-35700D01*
X47700Y-35700D02*
X47700Y-36700D01*
X47700Y-36700D02*
X41700Y-36700D01*
X42700Y-36700D02*
X42700Y-35700D01*
G54D14*
X42771Y-43844D02*
X42771Y-44356D01*
X42771Y-44356D02*
X41629Y-44356D01*
X41629Y-44356D02*
X41629Y-43844D01*
X41629Y-43844D02*
X42771Y-43844D01*
X45144Y-45579D02*
X45656Y-45579D01*
X45656Y-45579D02*
X45656Y-46721D01*
X45656Y-46721D02*
X45144Y-46721D01*
X45144Y-46721D02*
X45144Y-45579D01*
G54D16*
X17694Y-36850D02*
X17686Y-36926D01*
X17664Y-37000D01*
X17628Y-37068D01*
X17579Y-37127D01*
X17520Y-37176D01*
X17452Y-37213D01*
X17379Y-37235D01*
X17302Y-37243D01*
X17227Y-37237D01*
X17153Y-37215D01*
X17085Y-37179D01*
X17025Y-37131D01*
X16975Y-37072D01*
X16938Y-37005D01*
X16915Y-36931D01*
X16907Y-36855D01*
X16913Y-36779D01*
X16934Y-36705D01*
X16969Y-36637D01*
X17017Y-36577D01*
X17076Y-36527D01*
X17143Y-36489D01*
X17216Y-36466D01*
X17292Y-36457D01*
X17368Y-36462D01*
X17442Y-36483D01*
X17511Y-36518D01*
X17571Y-36565D01*
X17621Y-36623D01*
X17659Y-36690D01*
X17684Y-36763D01*
X17693Y-36839D01*
X17694Y-36850D01*
X18580Y-35669D02*
X16020Y-35669D01*
X16020Y-35669D02*
X16020Y-38031D01*
X16020Y-38031D02*
X18580Y-38031D01*
X18580Y-38031D02*
X18580Y-35669D01*
X22994Y-36850D02*
X22986Y-36926D01*
X22964Y-37000D01*
X22928Y-37068D01*
X22879Y-37127D01*
X22820Y-37176D01*
X22752Y-37213D01*
X22679Y-37235D01*
X22602Y-37243D01*
X22527Y-37237D01*
X22453Y-37215D01*
X22385Y-37179D01*
X22325Y-37131D01*
X22275Y-37072D01*
X22238Y-37005D01*
X22215Y-36931D01*
X22207Y-36855D01*
X22213Y-36779D01*
X22234Y-36705D01*
X22269Y-36637D01*
X22317Y-36577D01*
X22376Y-36527D01*
X22443Y-36489D01*
X22516Y-36466D01*
X22592Y-36457D01*
X22668Y-36462D01*
X22742Y-36483D01*
X22811Y-36518D01*
X22871Y-36565D01*
X22921Y-36623D01*
X22959Y-36690D01*
X22984Y-36763D01*
X22993Y-36839D01*
X22994Y-36850D01*
X23880Y-35669D02*
X21320Y-35669D01*
X21320Y-35669D02*
X21320Y-38031D01*
X21320Y-38031D02*
X23880Y-38031D01*
X23880Y-38031D02*
X23880Y-35669D01*
G54D17*
X47540Y-50433D02*
X45886Y-50276D01*
X45886Y-50276D02*
X45886Y-49724D01*
X45886Y-49724D02*
X47540Y-49567D01*
X45689Y-49094D02*
X47382Y-48898D01*
X47382Y-48898D02*
X45689Y-48701D01*
X45689Y-51299D02*
X47382Y-51102D01*
X47382Y-51102D02*
X45689Y-50906D01*
X48170Y-51516D02*
X48170Y-48484D01*
X48170Y-48484D02*
X44626Y-48484D01*
X44626Y-48484D02*
X44626Y-51516D01*
X44626Y-51516D02*
X48170Y-51516D01*
G54D16*
X25541Y-53097D02*
X24824Y-53097D01*
X24824Y-53097D02*
X24824Y-47637D01*
X24824Y-47637D02*
X25541Y-47637D01*
X25541Y-47637D02*
X25541Y-47369D01*
X25541Y-47369D02*
X14576Y-47369D01*
X14576Y-47369D02*
X14576Y-51215D01*
X14576Y-51215D02*
X14576Y-54731D01*
X14576Y-54731D02*
X25541Y-54731D01*
X25541Y-54731D02*
X25541Y-53097D01*
G54D18*
X20200Y-43050D02*
X23200Y-43050D01*
X23200Y-41650D02*
X20200Y-41650D01*
X20200Y-43050D02*
X20200Y-41650D01*
G54D10*
X23200Y-41650D02*
X23200Y-43050D01*
G54D14*
X23141Y-41850D02*
X23138Y-41877D01*
X23130Y-41903D01*
X23117Y-41928D01*
X23100Y-41949D01*
X23078Y-41966D01*
X23054Y-41979D01*
X23028Y-41988D01*
X23000Y-41990D01*
X22974Y-41988D01*
X22948Y-41980D01*
X22923Y-41967D01*
X22902Y-41950D01*
X22884Y-41929D01*
X22871Y-41905D01*
X22863Y-41879D01*
X22860Y-41851D01*
X22862Y-41825D01*
X22869Y-41799D01*
X22882Y-41774D01*
X22899Y-41753D01*
X22920Y-41735D01*
X22944Y-41721D01*
X22970Y-41713D01*
X22998Y-41710D01*
X23024Y-41712D01*
X23050Y-41719D01*
X23075Y-41731D01*
X23097Y-41748D01*
X23115Y-41769D01*
X23128Y-41793D01*
X23137Y-41819D01*
X23140Y-41847D01*
X23141Y-41850D01*
X23200Y-42600D02*
X22900Y-42600D01*
X22900Y-42600D02*
X22900Y-42100D01*
X22900Y-42100D02*
X23200Y-42100D01*
X40200Y-49750D02*
X39300Y-49750D01*
X39300Y-49750D02*
X39300Y-49250D01*
X39300Y-49250D02*
X40200Y-49250D01*
X40200Y-49250D02*
X40200Y-49750D01*
X24250Y-38950D02*
X24250Y-39850D01*
X24250Y-39850D02*
X23750Y-39850D01*
X23750Y-39850D02*
X23750Y-38950D01*
X23750Y-38950D02*
X24250Y-38950D01*
X22650Y-39850D02*
X22650Y-38950D01*
X22650Y-38950D02*
X23150Y-38950D01*
X23150Y-38950D02*
X23150Y-39850D01*
X23150Y-39850D02*
X22650Y-39850D01*
X22050Y-38950D02*
X22050Y-39850D01*
X22050Y-39850D02*
X21550Y-39850D01*
X21550Y-39850D02*
X21550Y-38950D01*
X21550Y-38950D02*
X22050Y-38950D01*
X38500Y-50050D02*
X38500Y-50950D01*
X38500Y-50950D02*
X38000Y-50950D01*
X38000Y-50950D02*
X38000Y-50050D01*
X38000Y-50050D02*
X38500Y-50050D01*
G54D10*
X40050Y-51000D02*
X40050Y-50200D01*
X40050Y-50200D02*
X39550Y-50200D01*
X39550Y-50200D02*
X39550Y-51000D01*
X39550Y-51000D02*
X40050Y-51000D01*
G54D17*
X39394Y-52698D02*
X39393Y-52703D01*
X39391Y-52708D01*
X39389Y-52712D01*
X39386Y-52717D01*
X39382Y-52720D01*
X39377Y-52722D01*
X39372Y-52724D01*
X39367Y-52724D01*
X39362Y-52724D01*
X39357Y-52723D01*
X39353Y-52720D01*
X39349Y-52717D01*
X39345Y-52713D01*
X39343Y-52708D01*
X39341Y-52703D01*
X39341Y-52698D01*
X39341Y-52694D01*
X39342Y-52689D01*
X39345Y-52684D01*
X39348Y-52680D01*
X39352Y-52676D01*
X39357Y-52674D01*
X39362Y-52672D01*
X39367Y-52672D01*
X39371Y-52672D01*
X39376Y-52673D01*
X39381Y-52676D01*
X39385Y-52679D01*
X39389Y-52683D01*
X39391Y-52688D01*
X39393Y-52693D01*
X39393Y-52698D01*
X39394Y-52698D01*
X39209Y-52285D02*
X40391Y-52285D01*
X40391Y-52285D02*
X40391Y-52915D01*
X40391Y-52915D02*
X39209Y-52915D01*
X39209Y-52915D02*
X39209Y-52285D01*
X43041Y-43646D02*
X43041Y-41954D01*
X43041Y-41954D02*
X44459Y-41954D01*
X44459Y-41954D02*
X44459Y-43646D01*
X44459Y-43646D02*
X43041Y-43646D01*
G54D10*
X46100Y-53200D02*
X47100Y-53200D01*
X47100Y-53200D02*
X47100Y-55200D01*
X47100Y-55200D02*
X46100Y-55200D01*
X46100Y-55200D02*
X46100Y-53200D01*
G54D17*
X44146Y-53809D02*
X42454Y-53809D01*
X42454Y-53809D02*
X42454Y-52391D01*
X42454Y-52391D02*
X44146Y-52391D01*
X44146Y-52391D02*
X44146Y-53809D01*
X44146Y-55659D02*
X42454Y-55659D01*
X42454Y-55659D02*
X42454Y-54241D01*
X42454Y-54241D02*
X44146Y-54241D01*
X44146Y-54241D02*
X44146Y-55659D01*
X36366Y-54237D02*
X36364Y-54252D01*
X36360Y-54267D01*
X36352Y-54280D01*
X36343Y-54292D01*
X36331Y-54302D01*
X36317Y-54309D01*
X36302Y-54314D01*
X36287Y-54315D01*
X36273Y-54314D01*
X36258Y-54310D01*
X36244Y-54303D01*
X36232Y-54293D01*
X36222Y-54281D01*
X36215Y-54268D01*
X36210Y-54253D01*
X36209Y-54238D01*
X36210Y-54223D01*
X36214Y-54208D01*
X36221Y-54195D01*
X36231Y-54183D01*
X36242Y-54173D01*
X36256Y-54165D01*
X36271Y-54160D01*
X36286Y-54159D01*
X36300Y-54160D01*
X36315Y-54164D01*
X36329Y-54171D01*
X36341Y-54180D01*
X36351Y-54192D01*
X36359Y-54205D01*
X36364Y-54220D01*
X36365Y-54235D01*
X36366Y-54237D01*
X36543Y-52407D02*
X36543Y-54493D01*
X36543Y-54493D02*
X34457Y-54493D01*
X34457Y-54493D02*
X34457Y-52407D01*
X34457Y-52407D02*
X36543Y-52407D01*
G54D19*
X30054Y-53132D02*
X30054Y-53004D01*
X30054Y-53004D02*
X29857Y-53004D01*
X29857Y-53132D02*
X29857Y-53004D01*
X30054Y-53132D02*
X29857Y-53132D01*
X30054Y-53377D02*
X30054Y-53318D01*
X30054Y-53318D02*
X29955Y-53318D01*
X29955Y-53377D02*
X29955Y-53318D01*
X30054Y-53377D02*
X29955Y-53377D01*
X30054Y-53182D02*
X30054Y-53123D01*
X30054Y-53123D02*
X29955Y-53123D01*
X29955Y-53182D02*
X29955Y-53123D01*
X30054Y-53182D02*
X29955Y-53182D01*
X30054Y-53328D02*
X30054Y-53172D01*
X30054Y-53172D02*
X29985Y-53172D01*
X29985Y-53328D02*
X29985Y-53172D01*
X30054Y-53328D02*
X29985Y-53328D01*
X30643Y-53132D02*
X30643Y-53004D01*
X30643Y-53004D02*
X30446Y-53004D01*
X30446Y-53132D02*
X30446Y-53004D01*
X30643Y-53132D02*
X30446Y-53132D01*
X30643Y-53496D02*
X30643Y-53368D01*
X30643Y-53368D02*
X30446Y-53368D01*
X30446Y-53496D02*
X30446Y-53368D01*
X30643Y-53496D02*
X30446Y-53496D01*
X30545Y-53182D02*
X30545Y-53123D01*
X30545Y-53123D02*
X30446Y-53123D01*
X30446Y-53182D02*
X30446Y-53123D01*
X30545Y-53182D02*
X30446Y-53182D01*
X30545Y-53377D02*
X30545Y-53318D01*
X30545Y-53318D02*
X30446Y-53318D01*
X30446Y-53377D02*
X30446Y-53318D01*
X30545Y-53377D02*
X30446Y-53377D01*
X30515Y-53328D02*
X30515Y-53172D01*
X30515Y-53172D02*
X30446Y-53172D01*
X30446Y-53328D02*
X30446Y-53172D01*
X30515Y-53328D02*
X30446Y-53328D01*
X30250Y-53289D02*
X30250Y-53211D01*
X30250Y-53211D02*
X30172Y-53211D01*
X30172Y-53289D02*
X30172Y-53211D01*
X30250Y-53289D02*
X30172Y-53289D01*
X30054Y-53486D02*
X30054Y-53368D01*
X30054Y-53368D02*
X29936Y-53368D01*
X29936Y-53486D02*
X29936Y-53368D01*
X30054Y-53486D02*
X29936Y-53486D01*
X29886Y-53496D02*
X29886Y-53407D01*
X29886Y-53407D02*
X29857Y-53407D01*
X29857Y-53496D02*
X29857Y-53407D01*
X29886Y-53496D02*
X29857Y-53496D01*
G54D20*
X30044Y-53024D02*
X30456Y-53024D01*
X30446Y-53476D02*
X29886Y-53476D01*
G54D21*
X29944Y-53427D02*
X29943Y-53432D01*
X29941Y-53437D01*
X29939Y-53442D01*
X29935Y-53446D01*
X29931Y-53450D01*
X29926Y-53452D01*
X29921Y-53454D01*
X29916Y-53454D01*
X29911Y-53454D01*
X29906Y-53452D01*
X29901Y-53450D01*
X29897Y-53447D01*
X29893Y-53442D01*
X29891Y-53438D01*
X29889Y-53432D01*
X29889Y-53427D01*
X29889Y-53422D01*
X29890Y-53417D01*
X29893Y-53412D01*
X29896Y-53408D01*
X29901Y-53405D01*
X29905Y-53402D01*
X29910Y-53400D01*
X29916Y-53400D01*
X29920Y-53400D01*
X29926Y-53401D01*
X29931Y-53404D01*
X29935Y-53407D01*
X29938Y-53411D01*
X29941Y-53416D01*
X29943Y-53421D01*
X29943Y-53427D01*
X29944Y-53427D01*
G54D20*
X29857Y-53387D02*
X29868Y-53386D01*
X29880Y-53384D01*
X29892Y-53382D01*
X29903Y-53378D01*
X29914Y-53374D01*
X29925Y-53368D01*
X29935Y-53362D01*
X29945Y-53354D01*
X29953Y-53346D01*
X29961Y-53338D01*
X29969Y-53328D01*
X29975Y-53318D01*
X29981Y-53307D01*
X29985Y-53296D01*
X29989Y-53285D01*
X29991Y-53273D01*
X29993Y-53261D01*
X29994Y-53250D01*
X29993Y-53239D01*
X29991Y-53227D01*
X29989Y-53215D01*
X29985Y-53204D01*
X29981Y-53193D01*
X29975Y-53182D01*
X29969Y-53172D01*
X29961Y-53162D01*
X29953Y-53154D01*
X29945Y-53146D01*
X29935Y-53138D01*
X29925Y-53132D01*
X29914Y-53126D01*
X29903Y-53122D01*
X29892Y-53118D01*
X29880Y-53116D01*
X29868Y-53114D01*
X29857Y-53113D01*
X30643Y-53113D02*
X30632Y-53114D01*
X30620Y-53116D01*
X30608Y-53118D01*
X30597Y-53122D01*
X30586Y-53126D01*
X30575Y-53132D01*
X30565Y-53138D01*
X30555Y-53146D01*
X30547Y-53154D01*
X30539Y-53162D01*
X30531Y-53172D01*
X30525Y-53182D01*
X30519Y-53193D01*
X30515Y-53204D01*
X30511Y-53215D01*
X30509Y-53227D01*
X30507Y-53239D01*
X30506Y-53250D01*
X30507Y-53261D01*
X30509Y-53273D01*
X30511Y-53285D01*
X30515Y-53296D01*
X30519Y-53307D01*
X30525Y-53318D01*
X30531Y-53328D01*
X30539Y-53338D01*
X30547Y-53346D01*
X30555Y-53354D01*
X30565Y-53362D01*
X30575Y-53368D01*
X30586Y-53374D01*
X30597Y-53378D01*
X30608Y-53382D01*
X30620Y-53384D01*
X30632Y-53386D01*
X30643Y-53387D01*
G54D19*
X30054Y-54182D02*
X30054Y-54054D01*
X30054Y-54054D02*
X29857Y-54054D01*
X29857Y-54182D02*
X29857Y-54054D01*
X30054Y-54182D02*
X29857Y-54182D01*
X30054Y-54427D02*
X30054Y-54368D01*
X30054Y-54368D02*
X29955Y-54368D01*
X29955Y-54427D02*
X29955Y-54368D01*
X30054Y-54427D02*
X29955Y-54427D01*
X30054Y-54232D02*
X30054Y-54173D01*
X30054Y-54173D02*
X29955Y-54173D01*
X29955Y-54232D02*
X29955Y-54173D01*
X30054Y-54232D02*
X29955Y-54232D01*
X30054Y-54378D02*
X30054Y-54222D01*
X30054Y-54222D02*
X29985Y-54222D01*
X29985Y-54378D02*
X29985Y-54222D01*
X30054Y-54378D02*
X29985Y-54378D01*
X30643Y-54182D02*
X30643Y-54054D01*
X30643Y-54054D02*
X30446Y-54054D01*
X30446Y-54182D02*
X30446Y-54054D01*
X30643Y-54182D02*
X30446Y-54182D01*
X30643Y-54546D02*
X30643Y-54418D01*
X30643Y-54418D02*
X30446Y-54418D01*
X30446Y-54546D02*
X30446Y-54418D01*
X30643Y-54546D02*
X30446Y-54546D01*
X30545Y-54232D02*
X30545Y-54173D01*
X30545Y-54173D02*
X30446Y-54173D01*
X30446Y-54232D02*
X30446Y-54173D01*
X30545Y-54232D02*
X30446Y-54232D01*
X30545Y-54427D02*
X30545Y-54368D01*
X30545Y-54368D02*
X30446Y-54368D01*
X30446Y-54427D02*
X30446Y-54368D01*
X30545Y-54427D02*
X30446Y-54427D01*
X30515Y-54378D02*
X30515Y-54222D01*
X30515Y-54222D02*
X30446Y-54222D01*
X30446Y-54378D02*
X30446Y-54222D01*
X30515Y-54378D02*
X30446Y-54378D01*
X30250Y-54339D02*
X30250Y-54261D01*
X30250Y-54261D02*
X30172Y-54261D01*
X30172Y-54339D02*
X30172Y-54261D01*
X30250Y-54339D02*
X30172Y-54339D01*
X30054Y-54536D02*
X30054Y-54418D01*
X30054Y-54418D02*
X29936Y-54418D01*
X29936Y-54536D02*
X29936Y-54418D01*
X30054Y-54536D02*
X29936Y-54536D01*
X29886Y-54546D02*
X29886Y-54457D01*
X29886Y-54457D02*
X29857Y-54457D01*
X29857Y-54546D02*
X29857Y-54457D01*
X29886Y-54546D02*
X29857Y-54546D01*
G54D20*
X30044Y-54074D02*
X30456Y-54074D01*
X30446Y-54526D02*
X29886Y-54526D01*
G54D21*
X29944Y-54477D02*
X29943Y-54482D01*
X29941Y-54487D01*
X29939Y-54492D01*
X29935Y-54496D01*
X29931Y-54500D01*
X29926Y-54502D01*
X29921Y-54504D01*
X29916Y-54504D01*
X29911Y-54504D01*
X29906Y-54502D01*
X29901Y-54500D01*
X29897Y-54497D01*
X29893Y-54492D01*
X29891Y-54488D01*
X29889Y-54482D01*
X29889Y-54477D01*
X29889Y-54472D01*
X29890Y-54467D01*
X29893Y-54462D01*
X29896Y-54458D01*
X29901Y-54455D01*
X29905Y-54452D01*
X29910Y-54450D01*
X29916Y-54450D01*
X29920Y-54450D01*
X29926Y-54451D01*
X29931Y-54454D01*
X29935Y-54457D01*
X29938Y-54461D01*
X29941Y-54466D01*
X29943Y-54471D01*
X29943Y-54477D01*
X29944Y-54477D01*
G54D20*
X29857Y-54437D02*
X29868Y-54436D01*
X29880Y-54434D01*
X29892Y-54432D01*
X29903Y-54428D01*
X29914Y-54424D01*
X29925Y-54418D01*
X29935Y-54412D01*
X29945Y-54404D01*
X29953Y-54396D01*
X29961Y-54388D01*
X29969Y-54378D01*
X29975Y-54368D01*
X29981Y-54357D01*
X29985Y-54346D01*
X29989Y-54335D01*
X29991Y-54323D01*
X29993Y-54311D01*
X29994Y-54300D01*
X29993Y-54289D01*
X29991Y-54277D01*
X29989Y-54265D01*
X29985Y-54254D01*
X29981Y-54243D01*
X29975Y-54232D01*
X29969Y-54222D01*
X29961Y-54212D01*
X29953Y-54204D01*
X29945Y-54196D01*
X29935Y-54188D01*
X29925Y-54182D01*
X29914Y-54176D01*
X29903Y-54172D01*
X29892Y-54168D01*
X29880Y-54166D01*
X29868Y-54164D01*
X29857Y-54163D01*
X30643Y-54163D02*
X30632Y-54164D01*
X30620Y-54166D01*
X30608Y-54168D01*
X30597Y-54172D01*
X30586Y-54176D01*
X30575Y-54182D01*
X30565Y-54188D01*
X30555Y-54196D01*
X30547Y-54204D01*
X30539Y-54212D01*
X30531Y-54222D01*
X30525Y-54232D01*
X30519Y-54243D01*
X30515Y-54254D01*
X30511Y-54265D01*
X30509Y-54277D01*
X30507Y-54289D01*
X30506Y-54300D01*
X30507Y-54311D01*
X30509Y-54323D01*
X30511Y-54335D01*
X30515Y-54346D01*
X30519Y-54357D01*
X30525Y-54368D01*
X30531Y-54378D01*
X30539Y-54388D01*
X30547Y-54396D01*
X30555Y-54404D01*
X30565Y-54412D01*
X30575Y-54418D01*
X30586Y-54424D01*
X30597Y-54428D01*
X30608Y-54432D01*
X30620Y-54434D01*
X30632Y-54436D01*
X30643Y-54437D01*
G54D16*
X36200Y-37700D02*
X26200Y-37700D01*
X36200Y-35700D02*
X26200Y-35700D01*
X26200Y-35700D02*
X26200Y-37700D01*
X36202Y-37700D02*
X36202Y-35700D01*
G54D10*
X37250Y-39450D02*
X37250Y-38450D01*
X37250Y-38450D02*
X39250Y-38450D01*
X39250Y-38450D02*
X39250Y-39450D01*
X39250Y-39450D02*
X37250Y-39450D01*
X39250Y-39450D02*
X39250Y-38450D01*
X39250Y-38450D02*
X41250Y-38450D01*
X41250Y-38450D02*
X41250Y-39450D01*
X41250Y-39450D02*
X39250Y-39450D01*
G54D16*
X47512Y-40887D02*
X48103Y-40887D01*
X48103Y-40887D02*
X48103Y-39313D01*
X48103Y-39313D02*
X47512Y-39313D01*
X47512Y-41084D02*
X42788Y-41084D01*
X42788Y-41084D02*
X42788Y-39116D01*
X42788Y-39116D02*
X47512Y-39116D01*
X47512Y-39116D02*
X47512Y-41084D01*
G54D13*
X32950Y-41350D02*
X32950Y-40050D01*
X32950Y-40050D02*
X32700Y-39800D01*
X32700Y-39800D02*
X29300Y-39800D01*
X29300Y-39800D02*
X29050Y-40050D01*
X29050Y-40050D02*
X29050Y-41350D01*
X29050Y-41350D02*
X29300Y-41600D01*
X29300Y-41600D02*
X32700Y-41600D01*
X32700Y-41600D02*
X32950Y-41350D01*
X28750Y-41700D02*
X28750Y-39700D01*
X28750Y-39700D02*
X33250Y-39700D01*
X33250Y-39700D02*
X33250Y-41700D01*
X33250Y-41700D02*
X28750Y-41700D01*
G54D14*
X33428Y-53586D02*
X33428Y-54486D01*
X33428Y-54486D02*
X32928Y-54486D01*
X32928Y-54486D02*
X32928Y-53586D01*
X32928Y-53586D02*
X33428Y-53586D01*
G54D16*
X15057Y-39963D02*
X16750Y-39963D01*
X16750Y-39963D02*
X16750Y-44137D01*
X16750Y-44137D02*
X15057Y-44137D01*
X14585Y-39333D02*
X15057Y-39333D01*
X14585Y-44767D02*
X15057Y-44767D01*
X14585Y-39333D02*
X14585Y-44767D01*
X15057Y-44767D02*
X15057Y-39333D01*
G54D14*
X40600Y-51800D02*
X40599Y-51809D01*
X40596Y-51819D01*
X40591Y-51827D01*
X40585Y-51835D01*
X40577Y-51841D01*
X40569Y-51846D01*
X40560Y-51848D01*
X40550Y-51849D01*
X40541Y-51849D01*
X40532Y-51846D01*
X40523Y-51841D01*
X40516Y-51835D01*
X40509Y-51828D01*
X40505Y-51819D01*
X40502Y-51810D01*
X40501Y-51800D01*
X40501Y-51791D01*
X40504Y-51782D01*
X40508Y-51773D01*
X40515Y-51766D01*
X40522Y-51759D01*
X40530Y-51755D01*
X40540Y-51752D01*
X40549Y-51751D01*
X40558Y-51751D01*
X40568Y-51754D01*
X40576Y-51758D01*
X40584Y-51764D01*
X40590Y-51772D01*
X40595Y-51780D01*
X40598Y-51789D01*
X40599Y-51799D01*
X40600Y-51800D01*
X40550Y-52250D02*
X40550Y-51850D01*
X40550Y-51850D02*
X41150Y-51850D01*
X41150Y-51850D02*
X41150Y-52250D01*
X41150Y-52650D02*
X41150Y-53050D01*
X41150Y-53050D02*
X40550Y-53050D01*
X40550Y-53050D02*
X40550Y-52650D01*
X20300Y-39250D02*
X20300Y-40150D01*
X20300Y-40150D02*
X19800Y-40150D01*
X19800Y-40150D02*
X19800Y-39250D01*
X19800Y-39250D02*
X20300Y-39250D01*
G54D22*
X34735Y-51563D02*
X34675Y-51430D01*
X34632Y-51563D02*
X34632Y-51283D01*
X34700Y-51283D01*
X34718Y-51297D01*
X34726Y-51310D01*
X34735Y-51337D01*
X34735Y-51377D01*
X34726Y-51403D01*
X34718Y-51417D01*
X34700Y-51430D01*
X34632Y-51430D01*
X34906Y-51563D02*
X34803Y-51563D01*
X34855Y-51563D02*
X34855Y-51283D01*
X34838Y-51323D01*
X34820Y-51350D01*
X34803Y-51363D01*
X34966Y-51283D02*
X35086Y-51283D01*
X35009Y-51563D01*
X42235Y-45663D02*
X42175Y-45530D01*
X42132Y-45663D02*
X42132Y-45383D01*
X42200Y-45383D01*
X42218Y-45397D01*
X42226Y-45410D01*
X42235Y-45437D01*
X42235Y-45477D01*
X42226Y-45503D01*
X42218Y-45517D01*
X42200Y-45530D01*
X42132Y-45530D01*
X42406Y-45663D02*
X42303Y-45663D01*
X42355Y-45663D02*
X42355Y-45383D01*
X42338Y-45423D01*
X42320Y-45450D01*
X42303Y-45463D01*
X42560Y-45383D02*
X42526Y-45383D01*
X42509Y-45397D01*
X42500Y-45410D01*
X42483Y-45450D01*
X42474Y-45503D01*
X42474Y-45610D01*
X42483Y-45637D01*
X42491Y-45650D01*
X42509Y-45663D01*
X42543Y-45663D01*
X42560Y-45650D01*
X42569Y-45637D01*
X42577Y-45610D01*
X42577Y-45543D01*
X42569Y-45517D01*
X42560Y-45503D01*
X42543Y-45490D01*
X42509Y-45490D01*
X42491Y-45503D01*
X42483Y-45517D01*
X42474Y-45543D01*
X31635Y-52913D02*
X31575Y-52780D01*
X31532Y-52913D02*
X31532Y-52633D01*
X31600Y-52633D01*
X31618Y-52647D01*
X31626Y-52660D01*
X31635Y-52687D01*
X31635Y-52727D01*
X31626Y-52753D01*
X31618Y-52767D01*
X31600Y-52780D01*
X31532Y-52780D01*
X31806Y-52913D02*
X31703Y-52913D01*
X31755Y-52913D02*
X31755Y-52633D01*
X31738Y-52673D01*
X31720Y-52700D01*
X31703Y-52713D01*
X31960Y-52727D02*
X31960Y-52913D01*
X31917Y-52620D02*
X31874Y-52820D01*
X31986Y-52820D01*
X31585Y-54882D02*
X31525Y-54749D01*
X31482Y-54882D02*
X31482Y-54602D01*
X31550Y-54602D01*
X31568Y-54616D01*
X31576Y-54629D01*
X31585Y-54656D01*
X31585Y-54696D01*
X31576Y-54722D01*
X31568Y-54736D01*
X31550Y-54749D01*
X31482Y-54749D01*
X31756Y-54882D02*
X31653Y-54882D01*
X31705Y-54882D02*
X31705Y-54602D01*
X31688Y-54642D01*
X31670Y-54669D01*
X31653Y-54682D01*
X31816Y-54602D02*
X31927Y-54602D01*
X31867Y-54709D01*
X31893Y-54709D01*
X31910Y-54722D01*
X31919Y-54736D01*
X31927Y-54762D01*
X31927Y-54829D01*
X31919Y-54856D01*
X31910Y-54869D01*
X31893Y-54882D01*
X31841Y-54882D01*
X31824Y-54869D01*
X31816Y-54856D01*
X40985Y-41963D02*
X40925Y-41830D01*
X40882Y-41963D02*
X40882Y-41683D01*
X40950Y-41683D01*
X40968Y-41697D01*
X40976Y-41710D01*
X40985Y-41737D01*
X40985Y-41777D01*
X40976Y-41803D01*
X40968Y-41817D01*
X40950Y-41830D01*
X40882Y-41830D01*
X41156Y-41963D02*
X41053Y-41963D01*
X41105Y-41963D02*
X41105Y-41683D01*
X41088Y-41723D01*
X41070Y-41750D01*
X41053Y-41763D01*
X41224Y-41710D02*
X41233Y-41697D01*
X41250Y-41683D01*
X41293Y-41683D01*
X41310Y-41697D01*
X41319Y-41710D01*
X41327Y-41737D01*
X41327Y-41763D01*
X41319Y-41803D01*
X41216Y-41963D01*
X41327Y-41963D01*
X24235Y-44863D02*
X24175Y-44730D01*
X24132Y-44863D02*
X24132Y-44583D01*
X24200Y-44583D01*
X24218Y-44597D01*
X24226Y-44610D01*
X24235Y-44637D01*
X24235Y-44677D01*
X24226Y-44703D01*
X24218Y-44717D01*
X24200Y-44730D01*
X24132Y-44730D01*
X24406Y-44863D02*
X24303Y-44863D01*
X24355Y-44863D02*
X24355Y-44583D01*
X24338Y-44623D01*
X24320Y-44650D01*
X24303Y-44663D01*
X24577Y-44863D02*
X24474Y-44863D01*
X24526Y-44863D02*
X24526Y-44583D01*
X24509Y-44623D01*
X24491Y-44650D01*
X24474Y-44663D01*
X39435Y-46663D02*
X39375Y-46530D01*
X39332Y-46663D02*
X39332Y-46383D01*
X39400Y-46383D01*
X39418Y-46397D01*
X39426Y-46410D01*
X39435Y-46437D01*
X39435Y-46477D01*
X39426Y-46503D01*
X39418Y-46517D01*
X39400Y-46530D01*
X39332Y-46530D01*
X39606Y-46663D02*
X39503Y-46663D01*
X39555Y-46663D02*
X39555Y-46383D01*
X39538Y-46423D01*
X39520Y-46450D01*
X39503Y-46463D01*
X39717Y-46383D02*
X39734Y-46383D01*
X39751Y-46397D01*
X39760Y-46410D01*
X39769Y-46437D01*
X39777Y-46490D01*
X39777Y-46557D01*
X39769Y-46610D01*
X39760Y-46637D01*
X39751Y-46650D01*
X39734Y-46663D01*
X39717Y-46663D01*
X39700Y-46650D01*
X39691Y-46637D01*
X39683Y-46610D01*
X39674Y-46557D01*
X39674Y-46490D01*
X39683Y-46437D01*
X39691Y-46410D01*
X39700Y-46397D01*
X39717Y-46383D01*
X39471Y-47413D02*
X39411Y-47280D01*
X39368Y-47413D02*
X39368Y-47133D01*
X39436Y-47133D01*
X39454Y-47147D01*
X39462Y-47160D01*
X39471Y-47187D01*
X39471Y-47227D01*
X39462Y-47253D01*
X39454Y-47267D01*
X39436Y-47280D01*
X39368Y-47280D01*
X39556Y-47413D02*
X39591Y-47413D01*
X39608Y-47400D01*
X39616Y-47387D01*
X39634Y-47347D01*
X39642Y-47293D01*
X39642Y-47187D01*
X39634Y-47160D01*
X39625Y-47147D01*
X39608Y-47133D01*
X39574Y-47133D01*
X39556Y-47147D01*
X39548Y-47160D01*
X39539Y-47187D01*
X39539Y-47253D01*
X39548Y-47280D01*
X39556Y-47293D01*
X39574Y-47307D01*
X39608Y-47307D01*
X39625Y-47293D01*
X39634Y-47280D01*
X39642Y-47253D01*
X32813Y-39429D02*
X32680Y-39489D01*
X32813Y-39532D02*
X32533Y-39532D01*
X32533Y-39464D01*
X32547Y-39446D01*
X32560Y-39438D01*
X32587Y-39429D01*
X32627Y-39429D01*
X32653Y-39438D01*
X32667Y-39446D01*
X32680Y-39464D01*
X32680Y-39532D01*
X32653Y-39326D02*
X32640Y-39344D01*
X32627Y-39352D01*
X32600Y-39361D01*
X32587Y-39361D01*
X32560Y-39352D01*
X32547Y-39344D01*
X32533Y-39326D01*
X32533Y-39292D01*
X32547Y-39275D01*
X32560Y-39266D01*
X32587Y-39258D01*
X32600Y-39258D01*
X32627Y-39266D01*
X32640Y-39275D01*
X32653Y-39292D01*
X32653Y-39326D01*
X32667Y-39344D01*
X32680Y-39352D01*
X32707Y-39361D01*
X32760Y-39361D01*
X32787Y-39352D01*
X32800Y-39344D01*
X32813Y-39326D01*
X32813Y-39292D01*
X32800Y-39275D01*
X32787Y-39266D01*
X32760Y-39258D01*
X32707Y-39258D01*
X32680Y-39266D01*
X32667Y-39275D01*
X32653Y-39292D01*
X30813Y-39429D02*
X30680Y-39489D01*
X30813Y-39532D02*
X30533Y-39532D01*
X30533Y-39464D01*
X30547Y-39446D01*
X30560Y-39438D01*
X30587Y-39429D01*
X30627Y-39429D01*
X30653Y-39438D01*
X30667Y-39446D01*
X30680Y-39464D01*
X30680Y-39532D01*
X30533Y-39369D02*
X30533Y-39249D01*
X30813Y-39326D01*
X29813Y-39429D02*
X29680Y-39489D01*
X29813Y-39532D02*
X29533Y-39532D01*
X29533Y-39464D01*
X29547Y-39446D01*
X29560Y-39438D01*
X29587Y-39429D01*
X29627Y-39429D01*
X29653Y-39438D01*
X29667Y-39446D01*
X29680Y-39464D01*
X29680Y-39532D01*
X29533Y-39275D02*
X29533Y-39309D01*
X29547Y-39326D01*
X29560Y-39335D01*
X29600Y-39352D01*
X29653Y-39361D01*
X29760Y-39361D01*
X29787Y-39352D01*
X29800Y-39344D01*
X29813Y-39326D01*
X29813Y-39292D01*
X29800Y-39275D01*
X29787Y-39266D01*
X29760Y-39258D01*
X29693Y-39258D01*
X29667Y-39266D01*
X29653Y-39275D01*
X29640Y-39292D01*
X29640Y-39326D01*
X29653Y-39344D01*
X29667Y-39352D01*
X29693Y-39361D01*
X28813Y-39429D02*
X28680Y-39489D01*
X28813Y-39532D02*
X28533Y-39532D01*
X28533Y-39464D01*
X28547Y-39446D01*
X28560Y-39438D01*
X28587Y-39429D01*
X28627Y-39429D01*
X28653Y-39438D01*
X28667Y-39446D01*
X28680Y-39464D01*
X28680Y-39532D01*
X28533Y-39266D02*
X28533Y-39352D01*
X28667Y-39361D01*
X28653Y-39352D01*
X28640Y-39335D01*
X28640Y-39292D01*
X28653Y-39275D01*
X28667Y-39266D01*
X28693Y-39258D01*
X28760Y-39258D01*
X28787Y-39266D01*
X28800Y-39275D01*
X28813Y-39292D01*
X28813Y-39335D01*
X28800Y-39352D01*
X28787Y-39361D01*
X27813Y-39429D02*
X27680Y-39489D01*
X27813Y-39532D02*
X27533Y-39532D01*
X27533Y-39464D01*
X27547Y-39446D01*
X27560Y-39438D01*
X27587Y-39429D01*
X27627Y-39429D01*
X27653Y-39438D01*
X27667Y-39446D01*
X27680Y-39464D01*
X27680Y-39532D01*
X27627Y-39275D02*
X27813Y-39275D01*
X27520Y-39318D02*
X27720Y-39361D01*
X27720Y-39249D01*
X42863Y-48779D02*
X42730Y-48839D01*
X42863Y-48882D02*
X42583Y-48882D01*
X42583Y-48814D01*
X42597Y-48796D01*
X42610Y-48788D01*
X42637Y-48779D01*
X42677Y-48779D01*
X42703Y-48788D01*
X42717Y-48796D01*
X42730Y-48814D01*
X42730Y-48882D01*
X42583Y-48719D02*
X42583Y-48608D01*
X42690Y-48668D01*
X42690Y-48642D01*
X42703Y-48625D01*
X42717Y-48616D01*
X42743Y-48608D01*
X42810Y-48608D01*
X42837Y-48616D01*
X42850Y-48625D01*
X42863Y-48642D01*
X42863Y-48694D01*
X42850Y-48711D01*
X42837Y-48719D01*
X43563Y-48779D02*
X43430Y-48839D01*
X43563Y-48882D02*
X43283Y-48882D01*
X43283Y-48814D01*
X43297Y-48796D01*
X43310Y-48788D01*
X43337Y-48779D01*
X43377Y-48779D01*
X43403Y-48788D01*
X43417Y-48796D01*
X43430Y-48814D01*
X43430Y-48882D01*
X43310Y-48711D02*
X43297Y-48702D01*
X43283Y-48685D01*
X43283Y-48642D01*
X43297Y-48625D01*
X43310Y-48616D01*
X43337Y-48608D01*
X43363Y-48608D01*
X43403Y-48616D01*
X43563Y-48719D01*
X43563Y-48608D01*
X45121Y-44913D02*
X45061Y-44780D01*
X45018Y-44913D02*
X45018Y-44633D01*
X45086Y-44633D01*
X45104Y-44647D01*
X45112Y-44660D01*
X45121Y-44687D01*
X45121Y-44727D01*
X45112Y-44753D01*
X45104Y-44767D01*
X45086Y-44780D01*
X45018Y-44780D01*
X45292Y-44913D02*
X45189Y-44913D01*
X45241Y-44913D02*
X45241Y-44633D01*
X45224Y-44673D01*
X45206Y-44700D01*
X45189Y-44713D01*
X27085Y-43187D02*
X27076Y-43200D01*
X27050Y-43213D01*
X27033Y-43213D01*
X27008Y-43200D01*
X26990Y-43173D01*
X26982Y-43147D01*
X26973Y-43093D01*
X26973Y-43053D01*
X26982Y-43000D01*
X26990Y-42973D01*
X27008Y-42947D01*
X27033Y-42933D01*
X27050Y-42933D01*
X27076Y-42947D01*
X27085Y-42960D01*
X27153Y-42960D02*
X27162Y-42947D01*
X27179Y-42933D01*
X27222Y-42933D01*
X27239Y-42947D01*
X27248Y-42960D01*
X27256Y-42987D01*
X27256Y-43013D01*
X27248Y-43053D01*
X27145Y-43213D01*
X27256Y-43213D01*
X27316Y-42933D02*
X27427Y-42933D01*
X27367Y-43040D01*
X27393Y-43040D01*
X27410Y-43053D01*
X27419Y-43067D01*
X27427Y-43093D01*
X27427Y-43160D01*
X27419Y-43187D01*
X27410Y-43200D01*
X27393Y-43213D01*
X27341Y-43213D01*
X27324Y-43200D01*
X27316Y-43187D01*
X38087Y-52515D02*
X38100Y-52524D01*
X38113Y-52550D01*
X38113Y-52567D01*
X38100Y-52592D01*
X38073Y-52610D01*
X38047Y-52618D01*
X37993Y-52627D01*
X37953Y-52627D01*
X37900Y-52618D01*
X37873Y-52610D01*
X37847Y-52592D01*
X37833Y-52567D01*
X37833Y-52550D01*
X37847Y-52524D01*
X37860Y-52515D01*
X37860Y-52447D02*
X37847Y-52438D01*
X37833Y-52421D01*
X37833Y-52378D01*
X37847Y-52361D01*
X37860Y-52352D01*
X37887Y-52344D01*
X37913Y-52344D01*
X37953Y-52352D01*
X38113Y-52455D01*
X38113Y-52344D01*
X37860Y-52276D02*
X37847Y-52267D01*
X37833Y-52250D01*
X37833Y-52207D01*
X37847Y-52190D01*
X37860Y-52181D01*
X37887Y-52173D01*
X37913Y-52173D01*
X37953Y-52181D01*
X38113Y-52284D01*
X38113Y-52173D01*
X38087Y-53915D02*
X38100Y-53924D01*
X38113Y-53950D01*
X38113Y-53967D01*
X38100Y-53992D01*
X38073Y-54010D01*
X38047Y-54018D01*
X37993Y-54027D01*
X37953Y-54027D01*
X37900Y-54018D01*
X37873Y-54010D01*
X37847Y-53992D01*
X37833Y-53967D01*
X37833Y-53950D01*
X37847Y-53924D01*
X37860Y-53915D01*
X37860Y-53847D02*
X37847Y-53838D01*
X37833Y-53821D01*
X37833Y-53778D01*
X37847Y-53761D01*
X37860Y-53752D01*
X37887Y-53744D01*
X37913Y-53744D01*
X37953Y-53752D01*
X38113Y-53855D01*
X38113Y-53744D01*
X38113Y-53573D02*
X38113Y-53676D01*
X38113Y-53624D02*
X37833Y-53624D01*
X37873Y-53641D01*
X37900Y-53659D01*
X37913Y-53676D01*
X34720Y-42972D02*
X34711Y-42985D01*
X34685Y-42998D01*
X34668Y-42998D01*
X34643Y-42985D01*
X34625Y-42958D01*
X34617Y-42932D01*
X34608Y-42878D01*
X34608Y-42838D01*
X34617Y-42785D01*
X34625Y-42758D01*
X34643Y-42732D01*
X34668Y-42718D01*
X34685Y-42718D01*
X34711Y-42732D01*
X34720Y-42745D01*
X34788Y-42745D02*
X34797Y-42732D01*
X34814Y-42718D01*
X34857Y-42718D01*
X34874Y-42732D01*
X34883Y-42745D01*
X34891Y-42772D01*
X34891Y-42798D01*
X34883Y-42838D01*
X34780Y-42998D01*
X34891Y-42998D01*
X35002Y-42718D02*
X35019Y-42718D01*
X35036Y-42732D01*
X35045Y-42745D01*
X35054Y-42772D01*
X35062Y-42825D01*
X35062Y-42892D01*
X35054Y-42945D01*
X35045Y-42972D01*
X35036Y-42985D01*
X35019Y-42998D01*
X35002Y-42998D01*
X34985Y-42985D01*
X34976Y-42972D01*
X34968Y-42945D01*
X34959Y-42892D01*
X34959Y-42825D01*
X34968Y-42772D01*
X34976Y-42745D01*
X34985Y-42732D01*
X35002Y-42718D01*
X32285Y-51037D02*
X32276Y-51050D01*
X32250Y-51063D01*
X32233Y-51063D01*
X32208Y-51050D01*
X32190Y-51023D01*
X32182Y-50997D01*
X32173Y-50943D01*
X32173Y-50903D01*
X32182Y-50850D01*
X32190Y-50823D01*
X32208Y-50797D01*
X32233Y-50783D01*
X32250Y-50783D01*
X32276Y-50797D01*
X32285Y-50810D01*
X32456Y-51063D02*
X32353Y-51063D01*
X32405Y-51063D02*
X32405Y-50783D01*
X32388Y-50823D01*
X32370Y-50850D01*
X32353Y-50863D01*
X32541Y-51063D02*
X32576Y-51063D01*
X32593Y-51050D01*
X32601Y-51037D01*
X32619Y-50997D01*
X32627Y-50943D01*
X32627Y-50837D01*
X32619Y-50810D01*
X32610Y-50797D01*
X32593Y-50783D01*
X32559Y-50783D01*
X32541Y-50797D01*
X32533Y-50810D01*
X32524Y-50837D01*
X32524Y-50903D01*
X32533Y-50930D01*
X32541Y-50943D01*
X32559Y-50957D01*
X32593Y-50957D01*
X32610Y-50943D01*
X32619Y-50930D01*
X32627Y-50903D01*
X29287Y-43465D02*
X29300Y-43474D01*
X29313Y-43500D01*
X29313Y-43517D01*
X29300Y-43542D01*
X29273Y-43560D01*
X29247Y-43568D01*
X29193Y-43577D01*
X29153Y-43577D01*
X29100Y-43568D01*
X29073Y-43560D01*
X29047Y-43542D01*
X29033Y-43517D01*
X29033Y-43500D01*
X29047Y-43474D01*
X29060Y-43465D01*
X29313Y-43294D02*
X29313Y-43397D01*
X29313Y-43345D02*
X29033Y-43345D01*
X29073Y-43362D01*
X29100Y-43380D01*
X29113Y-43397D01*
X29153Y-43191D02*
X29140Y-43209D01*
X29127Y-43217D01*
X29100Y-43226D01*
X29087Y-43226D01*
X29060Y-43217D01*
X29047Y-43209D01*
X29033Y-43191D01*
X29033Y-43157D01*
X29047Y-43140D01*
X29060Y-43131D01*
X29087Y-43123D01*
X29100Y-43123D01*
X29127Y-43131D01*
X29140Y-43140D01*
X29153Y-43157D01*
X29153Y-43191D01*
X29167Y-43209D01*
X29180Y-43217D01*
X29207Y-43226D01*
X29260Y-43226D01*
X29287Y-43217D01*
X29300Y-43209D01*
X29313Y-43191D01*
X29313Y-43157D01*
X29300Y-43140D01*
X29287Y-43131D01*
X29260Y-43123D01*
X29207Y-43123D01*
X29180Y-43131D01*
X29167Y-43140D01*
X29153Y-43157D01*
X31887Y-43465D02*
X31900Y-43474D01*
X31913Y-43500D01*
X31913Y-43517D01*
X31900Y-43542D01*
X31873Y-43560D01*
X31847Y-43568D01*
X31793Y-43577D01*
X31753Y-43577D01*
X31700Y-43568D01*
X31673Y-43560D01*
X31647Y-43542D01*
X31633Y-43517D01*
X31633Y-43500D01*
X31647Y-43474D01*
X31660Y-43465D01*
X31913Y-43294D02*
X31913Y-43397D01*
X31913Y-43345D02*
X31633Y-43345D01*
X31673Y-43362D01*
X31700Y-43380D01*
X31713Y-43397D01*
X31633Y-43234D02*
X31633Y-43114D01*
X31913Y-43191D01*
X29187Y-48315D02*
X29200Y-48324D01*
X29213Y-48350D01*
X29213Y-48367D01*
X29200Y-48392D01*
X29173Y-48410D01*
X29147Y-48418D01*
X29093Y-48427D01*
X29053Y-48427D01*
X29000Y-48418D01*
X28973Y-48410D01*
X28947Y-48392D01*
X28933Y-48367D01*
X28933Y-48350D01*
X28947Y-48324D01*
X28960Y-48315D01*
X29213Y-48144D02*
X29213Y-48247D01*
X29213Y-48195D02*
X28933Y-48195D01*
X28973Y-48212D01*
X29000Y-48230D01*
X29013Y-48247D01*
X28933Y-47990D02*
X28933Y-48024D01*
X28947Y-48041D01*
X28960Y-48050D01*
X29000Y-48067D01*
X29053Y-48076D01*
X29160Y-48076D01*
X29187Y-48067D01*
X29200Y-48059D01*
X29213Y-48041D01*
X29213Y-48007D01*
X29200Y-47990D01*
X29187Y-47981D01*
X29160Y-47973D01*
X29093Y-47973D01*
X29067Y-47981D01*
X29053Y-47990D01*
X29040Y-48007D01*
X29040Y-48041D01*
X29053Y-48059D01*
X29067Y-48067D01*
X29093Y-48076D01*
X30837Y-44815D02*
X30850Y-44824D01*
X30863Y-44850D01*
X30863Y-44867D01*
X30850Y-44892D01*
X30823Y-44910D01*
X30797Y-44918D01*
X30743Y-44927D01*
X30703Y-44927D01*
X30650Y-44918D01*
X30623Y-44910D01*
X30597Y-44892D01*
X30583Y-44867D01*
X30583Y-44850D01*
X30597Y-44824D01*
X30610Y-44815D01*
X30863Y-44644D02*
X30863Y-44747D01*
X30863Y-44695D02*
X30583Y-44695D01*
X30623Y-44712D01*
X30650Y-44730D01*
X30663Y-44747D01*
X30583Y-44481D02*
X30583Y-44567D01*
X30717Y-44576D01*
X30703Y-44567D01*
X30690Y-44550D01*
X30690Y-44507D01*
X30703Y-44490D01*
X30717Y-44481D01*
X30743Y-44473D01*
X30810Y-44473D01*
X30837Y-44481D01*
X30850Y-44490D01*
X30863Y-44507D01*
X30863Y-44550D01*
X30850Y-44567D01*
X30837Y-44576D01*
X38587Y-43115D02*
X38600Y-43124D01*
X38613Y-43150D01*
X38613Y-43167D01*
X38600Y-43192D01*
X38573Y-43210D01*
X38547Y-43218D01*
X38493Y-43227D01*
X38453Y-43227D01*
X38400Y-43218D01*
X38373Y-43210D01*
X38347Y-43192D01*
X38333Y-43167D01*
X38333Y-43150D01*
X38347Y-43124D01*
X38360Y-43115D01*
X38613Y-42944D02*
X38613Y-43047D01*
X38613Y-42995D02*
X38333Y-42995D01*
X38373Y-43012D01*
X38400Y-43030D01*
X38413Y-43047D01*
X38333Y-42884D02*
X38333Y-42773D01*
X38440Y-42833D01*
X38440Y-42807D01*
X38453Y-42790D01*
X38467Y-42781D01*
X38493Y-42773D01*
X38560Y-42773D01*
X38587Y-42781D01*
X38600Y-42790D01*
X38613Y-42807D01*
X38613Y-42859D01*
X38600Y-42876D01*
X38587Y-42884D01*
X28837Y-46465D02*
X28850Y-46474D01*
X28863Y-46500D01*
X28863Y-46517D01*
X28850Y-46542D01*
X28823Y-46560D01*
X28797Y-46568D01*
X28743Y-46577D01*
X28703Y-46577D01*
X28650Y-46568D01*
X28623Y-46560D01*
X28597Y-46542D01*
X28583Y-46517D01*
X28583Y-46500D01*
X28597Y-46474D01*
X28610Y-46465D01*
X28863Y-46294D02*
X28863Y-46397D01*
X28863Y-46345D02*
X28583Y-46345D01*
X28623Y-46362D01*
X28650Y-46380D01*
X28663Y-46397D01*
X28610Y-46226D02*
X28597Y-46217D01*
X28583Y-46200D01*
X28583Y-46157D01*
X28597Y-46140D01*
X28610Y-46131D01*
X28637Y-46123D01*
X28663Y-46123D01*
X28703Y-46131D01*
X28863Y-46234D01*
X28863Y-46123D01*
X37637Y-43115D02*
X37650Y-43124D01*
X37663Y-43150D01*
X37663Y-43167D01*
X37650Y-43192D01*
X37623Y-43210D01*
X37597Y-43218D01*
X37543Y-43227D01*
X37503Y-43227D01*
X37450Y-43218D01*
X37423Y-43210D01*
X37397Y-43192D01*
X37383Y-43167D01*
X37383Y-43150D01*
X37397Y-43124D01*
X37410Y-43115D01*
X37663Y-42944D02*
X37663Y-43047D01*
X37663Y-42995D02*
X37383Y-42995D01*
X37423Y-43012D01*
X37450Y-43030D01*
X37463Y-43047D01*
X37663Y-42773D02*
X37663Y-42876D01*
X37663Y-42824D02*
X37383Y-42824D01*
X37423Y-42841D01*
X37450Y-42859D01*
X37463Y-42876D01*
X24235Y-45637D02*
X24226Y-45650D01*
X24200Y-45663D01*
X24183Y-45663D01*
X24158Y-45650D01*
X24140Y-45623D01*
X24132Y-45597D01*
X24123Y-45543D01*
X24123Y-45503D01*
X24132Y-45450D01*
X24140Y-45423D01*
X24158Y-45397D01*
X24183Y-45383D01*
X24200Y-45383D01*
X24226Y-45397D01*
X24235Y-45410D01*
X24406Y-45663D02*
X24303Y-45663D01*
X24355Y-45663D02*
X24355Y-45383D01*
X24338Y-45423D01*
X24320Y-45450D01*
X24303Y-45463D01*
X24517Y-45383D02*
X24534Y-45383D01*
X24551Y-45397D01*
X24560Y-45410D01*
X24569Y-45437D01*
X24577Y-45490D01*
X24577Y-45557D01*
X24569Y-45610D01*
X24560Y-45637D01*
X24551Y-45650D01*
X24534Y-45663D01*
X24517Y-45663D01*
X24500Y-45650D01*
X24491Y-45637D01*
X24483Y-45610D01*
X24474Y-45557D01*
X24474Y-45490D01*
X24483Y-45437D01*
X24491Y-45410D01*
X24500Y-45397D01*
X24517Y-45383D01*
X33437Y-43329D02*
X33450Y-43338D01*
X33463Y-43364D01*
X33463Y-43381D01*
X33450Y-43406D01*
X33423Y-43424D01*
X33397Y-43432D01*
X33343Y-43441D01*
X33303Y-43441D01*
X33250Y-43432D01*
X33223Y-43424D01*
X33197Y-43406D01*
X33183Y-43381D01*
X33183Y-43364D01*
X33197Y-43338D01*
X33210Y-43329D01*
X33463Y-43244D02*
X33463Y-43209D01*
X33450Y-43192D01*
X33437Y-43184D01*
X33397Y-43166D01*
X33343Y-43158D01*
X33237Y-43158D01*
X33210Y-43166D01*
X33197Y-43175D01*
X33183Y-43192D01*
X33183Y-43226D01*
X33197Y-43244D01*
X33210Y-43252D01*
X33237Y-43261D01*
X33303Y-43261D01*
X33330Y-43252D01*
X33343Y-43244D01*
X33357Y-43226D01*
X33357Y-43192D01*
X33343Y-43175D01*
X33330Y-43166D01*
X33303Y-43158D01*
X36137Y-44904D02*
X36150Y-44913D01*
X36163Y-44939D01*
X36163Y-44956D01*
X36150Y-44981D01*
X36123Y-44999D01*
X36097Y-45007D01*
X36043Y-45016D01*
X36003Y-45016D01*
X35950Y-45007D01*
X35923Y-44999D01*
X35897Y-44981D01*
X35883Y-44956D01*
X35883Y-44939D01*
X35897Y-44913D01*
X35910Y-44904D01*
X35883Y-44844D02*
X35883Y-44724D01*
X36163Y-44801D01*
X27287Y-45129D02*
X27300Y-45138D01*
X27313Y-45164D01*
X27313Y-45181D01*
X27300Y-45206D01*
X27273Y-45224D01*
X27247Y-45232D01*
X27193Y-45241D01*
X27153Y-45241D01*
X27100Y-45232D01*
X27073Y-45224D01*
X27047Y-45206D01*
X27033Y-45181D01*
X27033Y-45164D01*
X27047Y-45138D01*
X27060Y-45129D01*
X27033Y-44975D02*
X27033Y-45009D01*
X27047Y-45026D01*
X27060Y-45035D01*
X27100Y-45052D01*
X27153Y-45061D01*
X27260Y-45061D01*
X27287Y-45052D01*
X27300Y-45044D01*
X27313Y-45026D01*
X27313Y-44992D01*
X27300Y-44975D01*
X27287Y-44966D01*
X27260Y-44958D01*
X27193Y-44958D01*
X27167Y-44966D01*
X27153Y-44975D01*
X27140Y-44992D01*
X27140Y-45026D01*
X27153Y-45044D01*
X27167Y-45052D01*
X27193Y-45061D01*
X41887Y-48729D02*
X41900Y-48738D01*
X41913Y-48764D01*
X41913Y-48781D01*
X41900Y-48806D01*
X41873Y-48824D01*
X41847Y-48832D01*
X41793Y-48841D01*
X41753Y-48841D01*
X41700Y-48832D01*
X41673Y-48824D01*
X41647Y-48806D01*
X41633Y-48781D01*
X41633Y-48764D01*
X41647Y-48738D01*
X41660Y-48729D01*
X41633Y-48566D02*
X41633Y-48652D01*
X41767Y-48661D01*
X41753Y-48652D01*
X41740Y-48635D01*
X41740Y-48592D01*
X41753Y-48575D01*
X41767Y-48566D01*
X41793Y-48558D01*
X41860Y-48558D01*
X41887Y-48566D01*
X41900Y-48575D01*
X41913Y-48592D01*
X41913Y-48635D01*
X41900Y-48652D01*
X41887Y-48661D01*
X31221Y-50887D02*
X31212Y-50900D01*
X31186Y-50913D01*
X31169Y-50913D01*
X31144Y-50900D01*
X31126Y-50873D01*
X31118Y-50847D01*
X31109Y-50793D01*
X31109Y-50753D01*
X31118Y-50700D01*
X31126Y-50673D01*
X31144Y-50647D01*
X31169Y-50633D01*
X31186Y-50633D01*
X31212Y-50647D01*
X31221Y-50660D01*
X31375Y-50727D02*
X31375Y-50913D01*
X31332Y-50620D02*
X31289Y-50820D01*
X31401Y-50820D01*
X32437Y-43379D02*
X32450Y-43388D01*
X32463Y-43414D01*
X32463Y-43431D01*
X32450Y-43456D01*
X32423Y-43474D01*
X32397Y-43482D01*
X32343Y-43491D01*
X32303Y-43491D01*
X32250Y-43482D01*
X32223Y-43474D01*
X32197Y-43456D01*
X32183Y-43431D01*
X32183Y-43414D01*
X32197Y-43388D01*
X32210Y-43379D01*
X32183Y-43319D02*
X32183Y-43208D01*
X32290Y-43268D01*
X32290Y-43242D01*
X32303Y-43225D01*
X32317Y-43216D01*
X32343Y-43208D01*
X32410Y-43208D01*
X32437Y-43216D01*
X32450Y-43225D01*
X32463Y-43242D01*
X32463Y-43294D01*
X32450Y-43311D01*
X32437Y-43319D01*
X30037Y-45229D02*
X30050Y-45238D01*
X30063Y-45264D01*
X30063Y-45281D01*
X30050Y-45306D01*
X30023Y-45324D01*
X29997Y-45332D01*
X29943Y-45341D01*
X29903Y-45341D01*
X29850Y-45332D01*
X29823Y-45324D01*
X29797Y-45306D01*
X29783Y-45281D01*
X29783Y-45264D01*
X29797Y-45238D01*
X29810Y-45229D01*
X30063Y-45058D02*
X30063Y-45161D01*
X30063Y-45109D02*
X29783Y-45109D01*
X29823Y-45126D01*
X29850Y-45144D01*
X29863Y-45161D01*
G54D14*
X25292Y-43070D02*
X25209Y-43070D01*
X25209Y-43201D02*
X25209Y-42951D01*
X25328Y-42951D01*
X25506Y-43070D02*
X25542Y-43082D01*
X25553Y-43094D01*
X25565Y-43118D01*
X25565Y-43154D01*
X25553Y-43177D01*
X25542Y-43189D01*
X25518Y-43201D01*
X25423Y-43201D01*
X25423Y-42951D01*
X25506Y-42951D01*
X25530Y-42963D01*
X25542Y-42975D01*
X25553Y-42999D01*
X25553Y-43023D01*
X25542Y-43046D01*
X25530Y-43058D01*
X25506Y-43070D01*
X25423Y-43070D01*
X25661Y-42975D02*
X25673Y-42963D01*
X25696Y-42951D01*
X25756Y-42951D01*
X25780Y-42963D01*
X25792Y-42975D01*
X25803Y-42999D01*
X25803Y-43023D01*
X25792Y-43058D01*
X25649Y-43201D01*
X25803Y-43201D01*
X42820Y-51458D02*
X42820Y-51541D01*
X42951Y-51541D02*
X42701Y-51541D01*
X42701Y-51422D01*
X42820Y-51244D02*
X42832Y-51208D01*
X42844Y-51197D01*
X42868Y-51185D01*
X42904Y-51185D01*
X42927Y-51197D01*
X42939Y-51208D01*
X42951Y-51232D01*
X42951Y-51327D01*
X42701Y-51327D01*
X42701Y-51244D01*
X42713Y-51220D01*
X42725Y-51208D01*
X42749Y-51197D01*
X42773Y-51197D01*
X42796Y-51208D01*
X42808Y-51220D01*
X42820Y-51244D01*
X42820Y-51327D01*
X42951Y-50947D02*
X42951Y-51089D01*
X42951Y-51018D02*
X42701Y-51018D01*
X42737Y-51042D01*
X42761Y-51066D01*
X42773Y-51089D01*
X34175Y-47422D02*
X33742Y-47422D01*
X34134Y-46968D02*
X34154Y-46989D01*
X34175Y-47051D01*
X34175Y-47092D01*
X34154Y-47154D01*
X34113Y-47195D01*
X34072Y-47216D01*
X33989Y-47237D01*
X33927Y-47237D01*
X33845Y-47216D01*
X33804Y-47195D01*
X33762Y-47154D01*
X33742Y-47092D01*
X33742Y-47051D01*
X33762Y-46989D01*
X33783Y-46968D01*
X33742Y-46824D02*
X33742Y-46556D01*
X33907Y-46700D01*
X33907Y-46639D01*
X33927Y-46597D01*
X33948Y-46577D01*
X33989Y-46556D01*
X34092Y-46556D01*
X34134Y-46577D01*
X34154Y-46597D01*
X34175Y-46639D01*
X34175Y-46762D01*
X34154Y-46804D01*
X34134Y-46824D01*
G54D10*
X35225Y-44647D02*
X35413Y-44647D01*
X35188Y-44759D02*
X35319Y-44365D01*
X35450Y-44759D01*
X35526Y-44365D02*
X35751Y-44365D01*
X35638Y-44759D02*
X35638Y-44365D01*
X35901Y-44759D02*
X35976Y-44759D01*
X36013Y-44741D01*
X36032Y-44722D01*
X36069Y-44666D01*
X36088Y-44591D01*
X36088Y-44441D01*
X36069Y-44403D01*
X36051Y-44384D01*
X36013Y-44365D01*
X35938Y-44365D01*
X35901Y-44384D01*
X35882Y-44403D01*
X35863Y-44441D01*
X35863Y-44534D01*
X35882Y-44572D01*
X35901Y-44591D01*
X35938Y-44609D01*
X36013Y-44609D01*
X36051Y-44591D01*
X36069Y-44572D01*
X36088Y-44534D01*
X36463Y-44759D02*
X36238Y-44759D01*
X36351Y-44759D02*
X36351Y-44365D01*
X36313Y-44422D01*
X36276Y-44459D01*
X36238Y-44478D01*
X36613Y-44741D02*
X36669Y-44759D01*
X36763Y-44759D01*
X36801Y-44741D01*
X36819Y-44722D01*
X36838Y-44684D01*
X36838Y-44647D01*
X36819Y-44609D01*
X36801Y-44591D01*
X36763Y-44572D01*
X36688Y-44553D01*
X36651Y-44534D01*
X36632Y-44516D01*
X36613Y-44478D01*
X36613Y-44441D01*
X36632Y-44403D01*
X36651Y-44384D01*
X36688Y-44365D01*
X36782Y-44365D01*
X36838Y-44384D01*
X36988Y-44647D02*
X37176Y-44647D01*
X36951Y-44759D02*
X37082Y-44365D01*
X37213Y-44759D01*
X37345Y-44759D02*
X37345Y-44365D01*
X37476Y-44647D01*
X37607Y-44365D01*
X37607Y-44759D01*
X37757Y-44365D02*
X38020Y-44365D01*
X37851Y-44759D01*
X38151Y-44741D02*
X38207Y-44759D01*
X38301Y-44759D01*
X38339Y-44741D01*
X38357Y-44722D01*
X38376Y-44684D01*
X38376Y-44647D01*
X38357Y-44609D01*
X38339Y-44591D01*
X38301Y-44572D01*
X38226Y-44553D01*
X38189Y-44534D01*
X38170Y-44516D01*
X38151Y-44478D01*
X38151Y-44441D01*
X38170Y-44403D01*
X38189Y-44384D01*
X38226Y-44365D01*
X38320Y-44365D01*
X38376Y-44384D01*
G54D13*
X44955Y-37312D02*
X44955Y-36912D01*
X45108Y-36912D01*
X45146Y-36931D01*
X45165Y-36950D01*
X45184Y-36988D01*
X45184Y-37045D01*
X45165Y-37083D01*
X45146Y-37102D01*
X45108Y-37121D01*
X44955Y-37121D01*
X45336Y-36950D02*
X45355Y-36931D01*
X45393Y-36912D01*
X45489Y-36912D01*
X45527Y-36931D01*
X45546Y-36950D01*
X45565Y-36988D01*
X45565Y-37026D01*
X45546Y-37083D01*
X45317Y-37312D01*
X45565Y-37312D01*
X45916Y-37312D02*
X45916Y-36912D01*
X46000Y-36912D01*
X46050Y-36931D01*
X46083Y-36969D01*
X46100Y-37007D01*
X46116Y-37083D01*
X46116Y-37140D01*
X46100Y-37217D01*
X46083Y-37255D01*
X46050Y-37293D01*
X46000Y-37312D01*
X45916Y-37312D01*
X46266Y-37102D02*
X46383Y-37102D01*
X46433Y-37312D02*
X46266Y-37312D01*
X46266Y-36912D01*
X46433Y-36912D01*
X46700Y-37102D02*
X46750Y-37121D01*
X46767Y-37140D01*
X46783Y-37179D01*
X46783Y-37236D01*
X46767Y-37274D01*
X46750Y-37293D01*
X46717Y-37312D01*
X46583Y-37312D01*
X46583Y-36912D01*
X46700Y-36912D01*
X46733Y-36931D01*
X46750Y-36950D01*
X46767Y-36988D01*
X46767Y-37026D01*
X46750Y-37064D01*
X46733Y-37083D01*
X46700Y-37102D01*
X46583Y-37102D01*
X46933Y-36912D02*
X46933Y-37236D01*
X46950Y-37274D01*
X46967Y-37293D01*
X47000Y-37312D01*
X47067Y-37312D01*
X47100Y-37293D01*
X47117Y-37274D01*
X47133Y-37236D01*
X47133Y-36912D01*
X47484Y-36931D02*
X47450Y-36912D01*
X47400Y-36912D01*
X47350Y-36931D01*
X47317Y-36969D01*
X47300Y-37007D01*
X47284Y-37083D01*
X47284Y-37140D01*
X47300Y-37217D01*
X47317Y-37255D01*
X47350Y-37293D01*
X47400Y-37312D01*
X47434Y-37312D01*
X47484Y-37293D01*
X47500Y-37274D01*
X47500Y-37140D01*
X47434Y-37140D01*
G54D11*
X40872Y-44299D02*
X40843Y-44285D01*
X40815Y-44256D01*
X40772Y-44214D01*
X40743Y-44199D01*
X40715Y-44199D01*
X40729Y-44271D02*
X40701Y-44256D01*
X40672Y-44228D01*
X40658Y-44171D01*
X40658Y-44071D01*
X40672Y-44014D01*
X40701Y-43986D01*
X40729Y-43972D01*
X40786Y-43972D01*
X40815Y-43986D01*
X40843Y-44014D01*
X40857Y-44071D01*
X40857Y-44171D01*
X40843Y-44228D01*
X40815Y-44256D01*
X40786Y-44271D01*
X40729Y-44271D01*
X40971Y-44000D02*
X40985Y-43986D01*
X41014Y-43972D01*
X41085Y-43972D01*
X41113Y-43986D01*
X41128Y-44000D01*
X41142Y-44028D01*
X41142Y-44057D01*
X41128Y-44100D01*
X40957Y-44271D01*
X41142Y-44271D01*
X46599Y-46178D02*
X46585Y-46207D01*
X46556Y-46235D01*
X46514Y-46278D01*
X46499Y-46307D01*
X46499Y-46335D01*
X46571Y-46321D02*
X46556Y-46349D01*
X46528Y-46378D01*
X46471Y-46392D01*
X46371Y-46392D01*
X46314Y-46378D01*
X46286Y-46349D01*
X46272Y-46321D01*
X46272Y-46264D01*
X46286Y-46235D01*
X46314Y-46207D01*
X46371Y-46193D01*
X46471Y-46193D01*
X46528Y-46207D01*
X46556Y-46235D01*
X46571Y-46264D01*
X46571Y-46321D01*
X46571Y-45908D02*
X46571Y-46079D01*
X46571Y-45994D02*
X46272Y-45994D01*
X46314Y-46022D01*
X46343Y-46051D01*
X46357Y-46079D01*
X16881Y-37023D02*
X16924Y-37038D01*
X16995Y-37038D01*
X17023Y-37023D01*
X17038Y-37009D01*
X17052Y-36981D01*
X17052Y-36952D01*
X17038Y-36924D01*
X17023Y-36909D01*
X16995Y-36895D01*
X16938Y-36881D01*
X16909Y-36867D01*
X16895Y-36852D01*
X16881Y-36824D01*
X16881Y-36795D01*
X16895Y-36767D01*
X16909Y-36753D01*
X16938Y-36739D01*
X17009Y-36739D01*
X17052Y-36753D01*
X17152Y-36739D02*
X17223Y-37038D01*
X17280Y-36824D01*
X17337Y-37038D01*
X17408Y-36739D01*
X17679Y-37038D02*
X17508Y-37038D01*
X17593Y-37038D02*
X17593Y-36739D01*
X17565Y-36781D01*
X17536Y-36810D01*
X17508Y-36824D01*
X16965Y-38721D02*
X16865Y-38578D01*
X16794Y-38721D02*
X16794Y-38422D01*
X16908Y-38422D01*
X16937Y-38436D01*
X16951Y-38450D01*
X16965Y-38478D01*
X16965Y-38521D01*
X16951Y-38550D01*
X16937Y-38564D01*
X16908Y-38578D01*
X16794Y-38578D01*
X17093Y-38564D02*
X17193Y-38564D01*
X17236Y-38721D02*
X17093Y-38721D01*
X17093Y-38422D01*
X17236Y-38422D01*
X17350Y-38706D02*
X17393Y-38721D01*
X17464Y-38721D01*
X17492Y-38706D01*
X17507Y-38692D01*
X17521Y-38664D01*
X17521Y-38635D01*
X17507Y-38607D01*
X17492Y-38592D01*
X17464Y-38578D01*
X17407Y-38564D01*
X17378Y-38550D01*
X17364Y-38535D01*
X17350Y-38507D01*
X17350Y-38478D01*
X17364Y-38450D01*
X17378Y-38436D01*
X17407Y-38422D01*
X17478Y-38422D01*
X17521Y-38436D01*
X17649Y-38564D02*
X17749Y-38564D01*
X17792Y-38721D02*
X17649Y-38721D01*
X17649Y-38422D01*
X17792Y-38422D01*
X17877Y-38422D02*
X18048Y-38422D01*
X17963Y-38721D02*
X17963Y-38422D01*
X22201Y-37006D02*
X22244Y-37021D01*
X22315Y-37021D01*
X22343Y-37006D01*
X22358Y-36992D01*
X22372Y-36964D01*
X22372Y-36935D01*
X22358Y-36907D01*
X22343Y-36892D01*
X22315Y-36878D01*
X22258Y-36864D01*
X22229Y-36850D01*
X22215Y-36835D01*
X22201Y-36807D01*
X22201Y-36778D01*
X22215Y-36750D01*
X22229Y-36736D01*
X22258Y-36722D01*
X22329Y-36722D01*
X22372Y-36736D01*
X22472Y-36722D02*
X22543Y-37021D01*
X22600Y-36807D01*
X22657Y-37021D01*
X22728Y-36722D01*
X22828Y-36750D02*
X22842Y-36736D01*
X22871Y-36722D01*
X22942Y-36722D01*
X22970Y-36736D01*
X22985Y-36750D01*
X22999Y-36778D01*
X22999Y-36807D01*
X22985Y-36850D01*
X22814Y-37021D01*
X22999Y-37021D01*
X21355Y-38564D02*
X21398Y-38578D01*
X21412Y-38592D01*
X21426Y-38621D01*
X21426Y-38664D01*
X21412Y-38692D01*
X21398Y-38706D01*
X21369Y-38721D01*
X21255Y-38721D01*
X21255Y-38422D01*
X21355Y-38422D01*
X21383Y-38436D01*
X21398Y-38450D01*
X21412Y-38478D01*
X21412Y-38507D01*
X21398Y-38535D01*
X21383Y-38550D01*
X21355Y-38564D01*
X21255Y-38564D01*
X21611Y-38422D02*
X21668Y-38422D01*
X21697Y-38436D01*
X21725Y-38464D01*
X21739Y-38521D01*
X21739Y-38621D01*
X21725Y-38678D01*
X21697Y-38706D01*
X21668Y-38721D01*
X21611Y-38721D01*
X21583Y-38706D01*
X21554Y-38678D01*
X21540Y-38621D01*
X21540Y-38521D01*
X21554Y-38464D01*
X21583Y-38436D01*
X21611Y-38422D01*
X21924Y-38422D02*
X21981Y-38422D01*
X22010Y-38436D01*
X22038Y-38464D01*
X22052Y-38521D01*
X22052Y-38621D01*
X22038Y-38678D01*
X22010Y-38706D01*
X21981Y-38721D01*
X21924Y-38721D01*
X21896Y-38706D01*
X21867Y-38678D01*
X21853Y-38621D01*
X21853Y-38521D01*
X21867Y-38464D01*
X21896Y-38436D01*
X21924Y-38422D01*
X22137Y-38422D02*
X22308Y-38422D01*
X22223Y-38721D02*
X22223Y-38422D01*
X22551Y-38721D02*
X22408Y-38721D01*
X22408Y-38422D01*
X22707Y-38422D02*
X22764Y-38422D01*
X22793Y-38436D01*
X22821Y-38464D01*
X22835Y-38521D01*
X22835Y-38621D01*
X22821Y-38678D01*
X22793Y-38706D01*
X22764Y-38721D01*
X22707Y-38721D01*
X22679Y-38706D01*
X22650Y-38678D01*
X22636Y-38621D01*
X22636Y-38521D01*
X22650Y-38464D01*
X22679Y-38436D01*
X22707Y-38422D01*
X22949Y-38635D02*
X23091Y-38635D01*
X22920Y-38721D02*
X23020Y-38422D01*
X23120Y-38721D01*
X23219Y-38721D02*
X23219Y-38422D01*
X23290Y-38422D01*
X23333Y-38436D01*
X23362Y-38464D01*
X23376Y-38493D01*
X23390Y-38550D01*
X23390Y-38592D01*
X23376Y-38649D01*
X23362Y-38678D01*
X23333Y-38706D01*
X23290Y-38721D01*
X23219Y-38721D01*
X23518Y-38564D02*
X23618Y-38564D01*
X23661Y-38721D02*
X23518Y-38721D01*
X23518Y-38422D01*
X23661Y-38422D01*
X23960Y-38721D02*
X23860Y-38578D01*
X23789Y-38721D02*
X23789Y-38422D01*
X23903Y-38422D01*
X23932Y-38436D01*
X23946Y-38450D01*
X23960Y-38478D01*
X23960Y-38521D01*
X23946Y-38550D01*
X23932Y-38564D01*
X23903Y-38578D01*
X23789Y-38578D01*
G54D15*
X42243Y-50807D02*
X42729Y-50807D01*
X42786Y-50779D01*
X42814Y-50750D01*
X42843Y-50693D01*
X42843Y-50579D01*
X42814Y-50521D01*
X42786Y-50493D01*
X42729Y-50464D01*
X42243Y-50464D01*
X42814Y-50207D02*
X42843Y-50121D01*
X42843Y-49978D01*
X42814Y-49921D01*
X42786Y-49892D01*
X42729Y-49864D01*
X42671Y-49864D01*
X42614Y-49892D01*
X42586Y-49921D01*
X42557Y-49978D01*
X42529Y-50092D01*
X42500Y-50150D01*
X42471Y-50178D01*
X42414Y-50207D01*
X42357Y-50207D01*
X42300Y-50178D01*
X42271Y-50150D01*
X42243Y-50092D01*
X42243Y-49950D01*
X42271Y-49864D01*
X42529Y-49407D02*
X42557Y-49321D01*
X42586Y-49293D01*
X42643Y-49264D01*
X42729Y-49264D01*
X42786Y-49293D01*
X42814Y-49321D01*
X42843Y-49379D01*
X42843Y-49607D01*
X42243Y-49607D01*
X42243Y-49407D01*
X42271Y-49350D01*
X42300Y-49321D01*
X42357Y-49293D01*
X42414Y-49293D01*
X42471Y-49321D01*
X42500Y-49350D01*
X42529Y-49407D01*
X42529Y-49607D01*
G54D11*
X15379Y-46321D02*
X15379Y-46022D01*
X15493Y-46022D01*
X15522Y-46036D01*
X15536Y-46050D01*
X15550Y-46078D01*
X15550Y-46121D01*
X15536Y-46150D01*
X15522Y-46164D01*
X15493Y-46178D01*
X15379Y-46178D01*
X15806Y-46121D02*
X15806Y-46321D01*
X15735Y-46007D02*
X15664Y-46221D01*
X15849Y-46221D01*
X16373Y-46306D02*
X16416Y-46321D01*
X16487Y-46321D01*
X16515Y-46306D01*
X16530Y-46292D01*
X16544Y-46264D01*
X16544Y-46235D01*
X16530Y-46207D01*
X16515Y-46192D01*
X16487Y-46178D01*
X16430Y-46164D01*
X16401Y-46150D01*
X16387Y-46135D01*
X16373Y-46107D01*
X16373Y-46078D01*
X16387Y-46050D01*
X16401Y-46036D01*
X16430Y-46022D01*
X16501Y-46022D01*
X16544Y-46036D01*
X16672Y-46321D02*
X16672Y-46022D01*
X16814Y-46321D02*
X16814Y-46022D01*
X16914Y-46235D01*
X17014Y-46022D01*
X17014Y-46321D01*
G54D14*
X19357Y-42471D02*
X19357Y-42171D01*
X19672Y-42443D02*
X19658Y-42457D01*
X19615Y-42471D01*
X19586Y-42471D01*
X19543Y-42457D01*
X19515Y-42429D01*
X19500Y-42400D01*
X19486Y-42343D01*
X19486Y-42300D01*
X19500Y-42243D01*
X19515Y-42214D01*
X19543Y-42186D01*
X19586Y-42171D01*
X19615Y-42171D01*
X19658Y-42186D01*
X19672Y-42200D01*
X19929Y-42271D02*
X19929Y-42471D01*
X19858Y-42157D02*
X19786Y-42371D01*
X19972Y-42371D01*
G54D22*
X39635Y-49063D02*
X39575Y-48930D01*
X39532Y-49063D02*
X39532Y-48783D01*
X39600Y-48783D01*
X39618Y-48797D01*
X39626Y-48810D01*
X39635Y-48837D01*
X39635Y-48877D01*
X39626Y-48903D01*
X39618Y-48917D01*
X39600Y-48930D01*
X39532Y-48930D01*
X39703Y-48810D02*
X39712Y-48797D01*
X39729Y-48783D01*
X39772Y-48783D01*
X39789Y-48797D01*
X39798Y-48810D01*
X39806Y-48837D01*
X39806Y-48863D01*
X39798Y-48903D01*
X39695Y-49063D01*
X39806Y-49063D01*
X39874Y-48810D02*
X39883Y-48797D01*
X39900Y-48783D01*
X39943Y-48783D01*
X39960Y-48797D01*
X39969Y-48810D01*
X39977Y-48837D01*
X39977Y-48863D01*
X39969Y-48903D01*
X39866Y-49063D01*
X39977Y-49063D01*
X23613Y-39515D02*
X23480Y-39575D01*
X23613Y-39618D02*
X23333Y-39618D01*
X23333Y-39550D01*
X23347Y-39532D01*
X23360Y-39524D01*
X23387Y-39515D01*
X23427Y-39515D01*
X23453Y-39524D01*
X23467Y-39532D01*
X23480Y-39550D01*
X23480Y-39618D01*
X23360Y-39447D02*
X23347Y-39438D01*
X23333Y-39421D01*
X23333Y-39378D01*
X23347Y-39361D01*
X23360Y-39352D01*
X23387Y-39344D01*
X23413Y-39344D01*
X23453Y-39352D01*
X23613Y-39455D01*
X23613Y-39344D01*
X23613Y-39173D02*
X23613Y-39276D01*
X23613Y-39224D02*
X23333Y-39224D01*
X23373Y-39241D01*
X23400Y-39259D01*
X23413Y-39276D01*
X22513Y-39515D02*
X22380Y-39575D01*
X22513Y-39618D02*
X22233Y-39618D01*
X22233Y-39550D01*
X22247Y-39532D01*
X22260Y-39524D01*
X22287Y-39515D01*
X22327Y-39515D01*
X22353Y-39524D01*
X22367Y-39532D01*
X22380Y-39550D01*
X22380Y-39618D01*
X22260Y-39447D02*
X22247Y-39438D01*
X22233Y-39421D01*
X22233Y-39378D01*
X22247Y-39361D01*
X22260Y-39352D01*
X22287Y-39344D01*
X22313Y-39344D01*
X22353Y-39352D01*
X22513Y-39455D01*
X22513Y-39344D01*
X22233Y-39233D02*
X22233Y-39216D01*
X22247Y-39199D01*
X22260Y-39190D01*
X22287Y-39181D01*
X22340Y-39173D01*
X22407Y-39173D01*
X22460Y-39181D01*
X22487Y-39190D01*
X22500Y-39199D01*
X22513Y-39216D01*
X22513Y-39233D01*
X22500Y-39250D01*
X22487Y-39259D01*
X22460Y-39267D01*
X22407Y-39276D01*
X22340Y-39276D01*
X22287Y-39267D01*
X22260Y-39259D01*
X22247Y-39250D01*
X22233Y-39233D01*
X21313Y-39515D02*
X21180Y-39575D01*
X21313Y-39618D02*
X21033Y-39618D01*
X21033Y-39550D01*
X21047Y-39532D01*
X21060Y-39524D01*
X21087Y-39515D01*
X21127Y-39515D01*
X21153Y-39524D01*
X21167Y-39532D01*
X21180Y-39550D01*
X21180Y-39618D01*
X21313Y-39344D02*
X21313Y-39447D01*
X21313Y-39395D02*
X21033Y-39395D01*
X21073Y-39412D01*
X21100Y-39430D01*
X21113Y-39447D01*
X21313Y-39259D02*
X21313Y-39224D01*
X21300Y-39207D01*
X21287Y-39199D01*
X21247Y-39181D01*
X21193Y-39173D01*
X21087Y-39173D01*
X21060Y-39181D01*
X21047Y-39190D01*
X21033Y-39207D01*
X21033Y-39241D01*
X21047Y-39259D01*
X21060Y-39267D01*
X21087Y-39276D01*
X21153Y-39276D01*
X21180Y-39267D01*
X21193Y-39259D01*
X21207Y-39241D01*
X21207Y-39207D01*
X21193Y-39190D01*
X21180Y-39181D01*
X21153Y-39173D01*
X37787Y-50615D02*
X37800Y-50624D01*
X37813Y-50650D01*
X37813Y-50667D01*
X37800Y-50692D01*
X37773Y-50710D01*
X37747Y-50718D01*
X37693Y-50727D01*
X37653Y-50727D01*
X37600Y-50718D01*
X37573Y-50710D01*
X37547Y-50692D01*
X37533Y-50667D01*
X37533Y-50650D01*
X37547Y-50624D01*
X37560Y-50615D01*
X37560Y-50547D02*
X37547Y-50538D01*
X37533Y-50521D01*
X37533Y-50478D01*
X37547Y-50461D01*
X37560Y-50452D01*
X37587Y-50444D01*
X37613Y-50444D01*
X37653Y-50452D01*
X37813Y-50555D01*
X37813Y-50444D01*
X37627Y-50290D02*
X37813Y-50290D01*
X37520Y-50333D02*
X37720Y-50376D01*
X37720Y-50264D01*
G54D14*
X40871Y-50843D02*
X40571Y-50843D01*
X40843Y-50582D02*
X40857Y-50594D01*
X40871Y-50629D01*
X40871Y-50653D01*
X40857Y-50689D01*
X40829Y-50713D01*
X40800Y-50724D01*
X40743Y-50736D01*
X40700Y-50736D01*
X40643Y-50724D01*
X40614Y-50713D01*
X40586Y-50689D01*
X40571Y-50653D01*
X40571Y-50629D01*
X40586Y-50594D01*
X40600Y-50582D01*
X40571Y-50355D02*
X40571Y-50474D01*
X40714Y-50486D01*
X40700Y-50474D01*
X40686Y-50451D01*
X40686Y-50391D01*
X40700Y-50367D01*
X40714Y-50355D01*
X40743Y-50344D01*
X40814Y-50344D01*
X40843Y-50355D01*
X40857Y-50367D01*
X40871Y-50391D01*
X40871Y-50451D01*
X40857Y-50474D01*
X40843Y-50486D01*
G54D11*
X39508Y-51621D02*
X39508Y-51322D01*
X39821Y-51592D02*
X39807Y-51606D01*
X39764Y-51621D01*
X39736Y-51621D01*
X39693Y-51606D01*
X39664Y-51578D01*
X39650Y-51549D01*
X39636Y-51492D01*
X39636Y-51450D01*
X39650Y-51393D01*
X39664Y-51364D01*
X39693Y-51336D01*
X39736Y-51322D01*
X39764Y-51322D01*
X39807Y-51336D01*
X39821Y-51350D01*
X39935Y-51350D02*
X39949Y-51336D01*
X39978Y-51322D01*
X40049Y-51322D01*
X40077Y-51336D01*
X40092Y-51350D01*
X40106Y-51378D01*
X40106Y-51407D01*
X40092Y-51450D01*
X39921Y-51621D01*
X40106Y-51621D01*
X44971Y-43021D02*
X44672Y-43021D01*
X44672Y-42950D01*
X44686Y-42907D01*
X44714Y-42878D01*
X44743Y-42864D01*
X44800Y-42850D01*
X44842Y-42850D01*
X44899Y-42864D01*
X44928Y-42878D01*
X44956Y-42907D01*
X44971Y-42950D01*
X44971Y-43021D01*
X44971Y-42565D02*
X44971Y-42736D01*
X44971Y-42651D02*
X44672Y-42651D01*
X44714Y-42679D01*
X44743Y-42708D01*
X44757Y-42736D01*
G54D10*
X45633Y-54370D02*
X45648Y-54327D01*
X45662Y-54312D01*
X45690Y-54298D01*
X45733Y-54298D01*
X45762Y-54312D01*
X45776Y-54327D01*
X45790Y-54355D01*
X45790Y-54470D01*
X45490Y-54470D01*
X45490Y-54370D01*
X45505Y-54341D01*
X45519Y-54327D01*
X45548Y-54312D01*
X45576Y-54312D01*
X45605Y-54327D01*
X45619Y-54341D01*
X45633Y-54370D01*
X45633Y-54470D01*
X45490Y-54212D02*
X45490Y-54041D01*
X45790Y-54127D02*
X45490Y-54127D01*
X45790Y-53783D02*
X45790Y-53955D01*
X45790Y-53869D02*
X45490Y-53869D01*
X45533Y-53898D01*
X45562Y-53926D01*
X45576Y-53955D01*
X47362Y-54748D02*
X47562Y-54748D01*
X47248Y-54819D02*
X47462Y-54891D01*
X47462Y-54705D01*
X47534Y-54591D02*
X47548Y-54576D01*
X47562Y-54591D01*
X47548Y-54605D01*
X47534Y-54591D01*
X47562Y-54591D01*
X47262Y-54305D02*
X47262Y-54448D01*
X47405Y-54462D01*
X47391Y-54448D01*
X47377Y-54419D01*
X47377Y-54348D01*
X47391Y-54319D01*
X47405Y-54305D01*
X47434Y-54290D01*
X47505Y-54290D01*
X47534Y-54305D01*
X47548Y-54319D01*
X47562Y-54348D01*
X47562Y-54419D01*
X47548Y-54448D01*
X47534Y-54462D01*
X47448Y-54162D02*
X47448Y-53933D01*
X47262Y-53662D02*
X47262Y-53719D01*
X47277Y-53748D01*
X47291Y-53762D01*
X47334Y-53791D01*
X47391Y-53805D01*
X47505Y-53805D01*
X47534Y-53791D01*
X47548Y-53776D01*
X47562Y-53748D01*
X47562Y-53691D01*
X47548Y-53662D01*
X47534Y-53648D01*
X47505Y-53633D01*
X47434Y-53633D01*
X47405Y-53648D01*
X47391Y-53662D01*
X47377Y-53691D01*
X47377Y-53748D01*
X47391Y-53776D01*
X47405Y-53791D01*
X47434Y-53805D01*
X47262Y-53547D02*
X47562Y-53447D01*
X47262Y-53347D01*
G54D11*
X44858Y-53271D02*
X44858Y-52972D01*
X44929Y-52972D01*
X44972Y-52986D01*
X45001Y-53014D01*
X45015Y-53043D01*
X45029Y-53100D01*
X45029Y-53142D01*
X45015Y-53199D01*
X45001Y-53228D01*
X44972Y-53256D01*
X44929Y-53271D01*
X44858Y-53271D01*
X45143Y-53000D02*
X45157Y-52986D01*
X45186Y-52972D01*
X45257Y-52972D01*
X45285Y-52986D01*
X45300Y-53000D01*
X45314Y-53028D01*
X45314Y-53057D01*
X45300Y-53100D01*
X45129Y-53271D01*
X45314Y-53271D01*
X44858Y-55042D02*
X44858Y-54743D01*
X44929Y-54743D01*
X44972Y-54757D01*
X45001Y-54785D01*
X45015Y-54814D01*
X45029Y-54871D01*
X45029Y-54913D01*
X45015Y-54970D01*
X45001Y-54999D01*
X44972Y-55027D01*
X44929Y-55042D01*
X44858Y-55042D01*
X45129Y-54743D02*
X45314Y-54743D01*
X45214Y-54856D01*
X45257Y-54856D01*
X45285Y-54871D01*
X45300Y-54885D01*
X45314Y-54913D01*
X45314Y-54985D01*
X45300Y-55013D01*
X45285Y-55027D01*
X45257Y-55042D01*
X45171Y-55042D01*
X45143Y-55027D01*
X45129Y-55013D01*
X35992Y-51791D02*
X35992Y-52033D01*
X36006Y-52061D01*
X36021Y-52075D01*
X36049Y-52090D01*
X36106Y-52090D01*
X36135Y-52075D01*
X36149Y-52061D01*
X36163Y-52033D01*
X36163Y-51791D01*
X36462Y-52090D02*
X36291Y-52090D01*
X36376Y-52090D02*
X36376Y-51791D01*
X36348Y-51833D01*
X36319Y-51862D01*
X36291Y-51876D01*
G54D15*
X34616Y-55244D02*
X34416Y-55244D01*
X34416Y-55558D02*
X34416Y-54958D01*
X34702Y-54958D01*
X35216Y-55558D02*
X34930Y-55558D01*
X34930Y-54958D01*
X35387Y-55386D02*
X35673Y-55386D01*
X35330Y-55558D02*
X35530Y-54958D01*
X35730Y-55558D01*
X35901Y-55529D02*
X35987Y-55558D01*
X36130Y-55558D01*
X36187Y-55529D01*
X36216Y-55501D01*
X36244Y-55444D01*
X36244Y-55386D01*
X36216Y-55329D01*
X36187Y-55301D01*
X36130Y-55272D01*
X36016Y-55244D01*
X35958Y-55215D01*
X35930Y-55186D01*
X35901Y-55129D01*
X35901Y-55072D01*
X35930Y-55015D01*
X35958Y-54986D01*
X36016Y-54958D01*
X36158Y-54958D01*
X36244Y-54986D01*
X36501Y-55558D02*
X36501Y-54958D01*
X36501Y-55244D02*
X36844Y-55244D01*
X36844Y-55558D02*
X36844Y-54958D01*
G54D14*
X30578Y-52721D02*
X30578Y-52421D01*
X30650Y-52421D01*
X30693Y-52436D01*
X30721Y-52464D01*
X30736Y-52493D01*
X30750Y-52550D01*
X30750Y-52593D01*
X30736Y-52650D01*
X30721Y-52679D01*
X30693Y-52707D01*
X30650Y-52721D01*
X30578Y-52721D01*
X31021Y-52421D02*
X30878Y-52421D01*
X30864Y-52564D01*
X30878Y-52550D01*
X30907Y-52536D01*
X30978Y-52536D01*
X31007Y-52550D01*
X31021Y-52564D01*
X31036Y-52593D01*
X31036Y-52664D01*
X31021Y-52693D01*
X31007Y-52707D01*
X30978Y-52721D01*
X30907Y-52721D01*
X30878Y-52707D01*
X30864Y-52693D01*
X28044Y-52986D02*
X28015Y-52971D01*
X27972Y-52971D01*
X27929Y-52986D01*
X27901Y-53014D01*
X27886Y-53043D01*
X27872Y-53100D01*
X27872Y-53143D01*
X27886Y-53200D01*
X27901Y-53229D01*
X27929Y-53257D01*
X27972Y-53271D01*
X28001Y-53271D01*
X28044Y-53257D01*
X28058Y-53243D01*
X28058Y-53143D01*
X28001Y-53143D01*
X28358Y-53271D02*
X28258Y-53129D01*
X28186Y-53271D02*
X28186Y-52971D01*
X28301Y-52971D01*
X28329Y-52986D01*
X28344Y-53000D01*
X28358Y-53029D01*
X28358Y-53071D01*
X28344Y-53100D01*
X28329Y-53114D01*
X28301Y-53129D01*
X28186Y-53129D01*
X28486Y-53114D02*
X28586Y-53114D01*
X28629Y-53271D02*
X28486Y-53271D01*
X28486Y-52971D01*
X28629Y-52971D01*
X28757Y-53114D02*
X28857Y-53114D01*
X28900Y-53271D02*
X28757Y-53271D01*
X28757Y-52971D01*
X28900Y-52971D01*
X29028Y-53271D02*
X29028Y-52971D01*
X29200Y-53271D01*
X29200Y-52971D01*
X30578Y-55121D02*
X30578Y-54821D01*
X30650Y-54821D01*
X30693Y-54836D01*
X30721Y-54864D01*
X30736Y-54893D01*
X30750Y-54950D01*
X30750Y-54993D01*
X30736Y-55050D01*
X30721Y-55079D01*
X30693Y-55107D01*
X30650Y-55121D01*
X30578Y-55121D01*
X31007Y-54921D02*
X31007Y-55121D01*
X30936Y-54807D02*
X30864Y-55021D01*
X31050Y-55021D01*
X28745Y-54452D02*
X28645Y-54310D01*
X28573Y-54452D02*
X28573Y-54152D01*
X28688Y-54152D01*
X28716Y-54167D01*
X28731Y-54181D01*
X28745Y-54210D01*
X28745Y-54252D01*
X28731Y-54281D01*
X28716Y-54295D01*
X28688Y-54310D01*
X28573Y-54310D01*
X28873Y-54295D02*
X28973Y-54295D01*
X29016Y-54452D02*
X28873Y-54452D01*
X28873Y-54152D01*
X29016Y-54152D01*
X29144Y-54452D02*
X29144Y-54152D01*
X29216Y-54152D01*
X29259Y-54167D01*
X29287Y-54195D01*
X29302Y-54224D01*
X29316Y-54281D01*
X29316Y-54324D01*
X29302Y-54381D01*
X29287Y-54410D01*
X29259Y-54438D01*
X29216Y-54452D01*
X29144Y-54452D01*
G54D17*
X36713Y-36382D02*
X36713Y-35982D01*
X36866Y-35982D01*
X36904Y-36001D01*
X36923Y-36020D01*
X36942Y-36058D01*
X36942Y-36115D01*
X36923Y-36153D01*
X36904Y-36172D01*
X36866Y-36191D01*
X36713Y-36191D01*
X37323Y-36382D02*
X37094Y-36382D01*
X37208Y-36382D02*
X37208Y-35982D01*
X37170Y-36039D01*
X37132Y-36077D01*
X37094Y-36096D01*
G54D13*
X36739Y-36967D02*
X36739Y-37253D01*
X36719Y-37310D01*
X36681Y-37348D01*
X36624Y-37367D01*
X36586Y-37367D01*
X36872Y-36967D02*
X37101Y-36967D01*
X36986Y-37367D02*
X36986Y-36967D01*
X37215Y-37253D02*
X37406Y-37253D01*
X37177Y-37367D02*
X37310Y-36967D01*
X37444Y-37367D01*
X37787Y-36986D02*
X37749Y-36967D01*
X37692Y-36967D01*
X37634Y-36986D01*
X37596Y-37024D01*
X37577Y-37062D01*
X37558Y-37138D01*
X37558Y-37195D01*
X37577Y-37272D01*
X37596Y-37310D01*
X37634Y-37348D01*
X37692Y-37367D01*
X37730Y-37367D01*
X37787Y-37348D01*
X37806Y-37329D01*
X37806Y-37195D01*
X37730Y-37195D01*
G54D10*
X38000Y-38021D02*
X38000Y-38236D01*
X37986Y-38279D01*
X37957Y-38307D01*
X37914Y-38321D01*
X37886Y-38321D01*
X38143Y-38321D02*
X38143Y-38021D01*
X38258Y-38021D01*
X38286Y-38036D01*
X38301Y-38050D01*
X38315Y-38079D01*
X38315Y-38121D01*
X38301Y-38150D01*
X38286Y-38164D01*
X38258Y-38179D01*
X38143Y-38179D01*
X38429Y-38050D02*
X38443Y-38036D01*
X38472Y-38021D01*
X38543Y-38021D01*
X38572Y-38036D01*
X38586Y-38050D01*
X38601Y-38079D01*
X38601Y-38107D01*
X38586Y-38150D01*
X38415Y-38321D01*
X38601Y-38321D01*
X37679Y-39764D02*
X37779Y-39764D01*
X37822Y-39921D02*
X37679Y-39921D01*
X37679Y-39621D01*
X37822Y-39621D01*
X38122Y-39921D02*
X38022Y-39779D01*
X37950Y-39921D02*
X37950Y-39621D01*
X38065Y-39621D01*
X38093Y-39636D01*
X38108Y-39650D01*
X38122Y-39679D01*
X38122Y-39721D01*
X38108Y-39750D01*
X38093Y-39764D01*
X38065Y-39779D01*
X37950Y-39779D01*
X38236Y-39836D02*
X38379Y-39836D01*
X38208Y-39921D02*
X38308Y-39621D01*
X38408Y-39921D01*
X38493Y-39907D02*
X38536Y-39921D01*
X38607Y-39921D01*
X38636Y-39907D01*
X38650Y-39893D01*
X38665Y-39864D01*
X38665Y-39836D01*
X38650Y-39807D01*
X38636Y-39793D01*
X38607Y-39779D01*
X38550Y-39764D01*
X38522Y-39750D01*
X38507Y-39736D01*
X38493Y-39707D01*
X38493Y-39679D01*
X38507Y-39650D01*
X38522Y-39636D01*
X38550Y-39621D01*
X38622Y-39621D01*
X38665Y-39636D01*
X38793Y-39764D02*
X38893Y-39764D01*
X38936Y-39921D02*
X38793Y-39921D01*
X38793Y-39621D01*
X38936Y-39621D01*
X40000Y-38021D02*
X40000Y-38236D01*
X39986Y-38279D01*
X39957Y-38307D01*
X39914Y-38321D01*
X39886Y-38321D01*
X40143Y-38321D02*
X40143Y-38021D01*
X40258Y-38021D01*
X40286Y-38036D01*
X40301Y-38050D01*
X40315Y-38079D01*
X40315Y-38121D01*
X40301Y-38150D01*
X40286Y-38164D01*
X40258Y-38179D01*
X40143Y-38179D01*
X40601Y-38321D02*
X40429Y-38321D01*
X40515Y-38321D02*
X40515Y-38021D01*
X40486Y-38064D01*
X40458Y-38093D01*
X40429Y-38107D01*
X39822Y-39621D02*
X39993Y-39621D01*
X39907Y-39921D02*
X39907Y-39621D01*
X40093Y-39764D02*
X40193Y-39764D01*
X40236Y-39921D02*
X40093Y-39921D01*
X40093Y-39621D01*
X40236Y-39621D01*
X40350Y-39907D02*
X40393Y-39921D01*
X40464Y-39921D01*
X40493Y-39907D01*
X40507Y-39893D01*
X40522Y-39864D01*
X40522Y-39836D01*
X40507Y-39807D01*
X40493Y-39793D01*
X40464Y-39779D01*
X40407Y-39764D01*
X40379Y-39750D01*
X40364Y-39736D01*
X40350Y-39707D01*
X40350Y-39679D01*
X40364Y-39650D01*
X40379Y-39636D01*
X40407Y-39621D01*
X40479Y-39621D01*
X40522Y-39636D01*
X40608Y-39621D02*
X40779Y-39621D01*
X40693Y-39921D02*
X40693Y-39621D01*
G54D11*
X42151Y-39872D02*
X42151Y-40085D01*
X42136Y-40128D01*
X42108Y-40156D01*
X42065Y-40171D01*
X42037Y-40171D01*
X42279Y-39900D02*
X42293Y-39886D01*
X42322Y-39872D01*
X42393Y-39872D01*
X42421Y-39886D01*
X42436Y-39900D01*
X42450Y-39928D01*
X42450Y-39957D01*
X42436Y-40000D01*
X42265Y-40171D01*
X42450Y-40171D01*
X44210Y-38756D02*
X44253Y-38771D01*
X44324Y-38771D01*
X44352Y-38756D01*
X44367Y-38742D01*
X44381Y-38714D01*
X44381Y-38685D01*
X44367Y-38657D01*
X44352Y-38642D01*
X44324Y-38628D01*
X44267Y-38614D01*
X44238Y-38600D01*
X44224Y-38585D01*
X44210Y-38557D01*
X44210Y-38528D01*
X44224Y-38500D01*
X44238Y-38486D01*
X44267Y-38472D01*
X44338Y-38472D01*
X44381Y-38486D01*
X44509Y-38614D02*
X44609Y-38614D01*
X44652Y-38771D02*
X44509Y-38771D01*
X44509Y-38472D01*
X44652Y-38472D01*
X44951Y-38771D02*
X44851Y-38628D01*
X44780Y-38771D02*
X44780Y-38472D01*
X44894Y-38472D01*
X44923Y-38486D01*
X44937Y-38500D01*
X44951Y-38528D01*
X44951Y-38571D01*
X44937Y-38600D01*
X44923Y-38614D01*
X44894Y-38628D01*
X44780Y-38628D01*
X45079Y-38771D02*
X45079Y-38472D01*
X45207Y-38685D02*
X45349Y-38685D01*
X45178Y-38771D02*
X45278Y-38472D01*
X45378Y-38771D01*
X45620Y-38771D02*
X45477Y-38771D01*
X45477Y-38472D01*
G54D13*
X30676Y-41062D02*
X30943Y-41462D01*
X30943Y-41062D02*
X30676Y-41462D01*
X31305Y-41462D02*
X31076Y-41462D01*
X31190Y-41462D02*
X31190Y-41062D01*
X31152Y-41119D01*
X31114Y-41157D01*
X31076Y-41176D01*
X29658Y-40262D02*
X29429Y-40262D01*
X29543Y-40262D02*
X29543Y-39862D01*
X29505Y-39919D01*
X29467Y-39957D01*
X29429Y-39976D01*
X29886Y-40033D02*
X29848Y-40014D01*
X29829Y-39995D01*
X29810Y-39957D01*
X29810Y-39938D01*
X29829Y-39900D01*
X29848Y-39881D01*
X29886Y-39862D01*
X29963Y-39862D01*
X30001Y-39881D01*
X30020Y-39900D01*
X30039Y-39938D01*
X30039Y-39957D01*
X30020Y-39995D01*
X30001Y-40014D01*
X29963Y-40033D01*
X29886Y-40033D01*
X29848Y-40052D01*
X29829Y-40071D01*
X29810Y-40110D01*
X29810Y-40186D01*
X29829Y-40224D01*
X29848Y-40243D01*
X29886Y-40262D01*
X29963Y-40262D01*
X30001Y-40243D01*
X30020Y-40224D01*
X30039Y-40186D01*
X30039Y-40110D01*
X30020Y-40071D01*
X30001Y-40052D01*
X29963Y-40033D01*
X30210Y-40224D02*
X30229Y-40243D01*
X30210Y-40262D01*
X30191Y-40243D01*
X30210Y-40224D01*
X30210Y-40262D01*
X30572Y-39995D02*
X30572Y-40262D01*
X30476Y-39843D02*
X30381Y-40129D01*
X30629Y-40129D01*
X30743Y-39862D02*
X30991Y-39862D01*
X30857Y-40014D01*
X30915Y-40014D01*
X30953Y-40033D01*
X30972Y-40052D01*
X30991Y-40090D01*
X30991Y-40186D01*
X30972Y-40224D01*
X30953Y-40243D01*
X30915Y-40262D01*
X30800Y-40262D01*
X30762Y-40243D01*
X30743Y-40224D01*
X31143Y-39900D02*
X31162Y-39881D01*
X31200Y-39862D01*
X31296Y-39862D01*
X31334Y-39881D01*
X31353Y-39900D01*
X31372Y-39938D01*
X31372Y-39976D01*
X31353Y-40033D01*
X31124Y-40262D01*
X31372Y-40262D01*
X31543Y-40262D02*
X31543Y-39862D01*
X31677Y-40148D01*
X31810Y-39862D01*
X31810Y-40262D01*
X32000Y-40262D02*
X32000Y-39862D01*
X32000Y-40052D02*
X32229Y-40052D01*
X32229Y-40262D02*
X32229Y-39862D01*
X32381Y-39995D02*
X32591Y-39995D01*
X32381Y-40262D01*
X32591Y-40262D01*
G54D22*
X32713Y-54115D02*
X32580Y-54175D01*
X32713Y-54218D02*
X32433Y-54218D01*
X32433Y-54150D01*
X32447Y-54132D01*
X32460Y-54124D01*
X32487Y-54115D01*
X32527Y-54115D01*
X32553Y-54124D01*
X32567Y-54132D01*
X32580Y-54150D01*
X32580Y-54218D01*
X32713Y-53944D02*
X32713Y-54047D01*
X32713Y-53995D02*
X32433Y-53995D01*
X32473Y-54012D01*
X32500Y-54030D01*
X32513Y-54047D01*
X32553Y-53841D02*
X32540Y-53859D01*
X32527Y-53867D01*
X32500Y-53876D01*
X32487Y-53876D01*
X32460Y-53867D01*
X32447Y-53859D01*
X32433Y-53841D01*
X32433Y-53807D01*
X32447Y-53790D01*
X32460Y-53781D01*
X32487Y-53773D01*
X32500Y-53773D01*
X32527Y-53781D01*
X32540Y-53790D01*
X32553Y-53807D01*
X32553Y-53841D01*
X32567Y-53859D01*
X32580Y-53867D01*
X32607Y-53876D01*
X32660Y-53876D01*
X32687Y-53867D01*
X32700Y-53859D01*
X32713Y-53841D01*
X32713Y-53807D01*
X32700Y-53790D01*
X32687Y-53781D01*
X32660Y-53773D01*
X32607Y-53773D01*
X32580Y-53781D01*
X32567Y-53790D01*
X32553Y-53807D01*
G54D11*
X15379Y-44921D02*
X15379Y-44622D01*
X15493Y-44622D01*
X15522Y-44636D01*
X15536Y-44650D01*
X15550Y-44678D01*
X15550Y-44721D01*
X15536Y-44750D01*
X15522Y-44764D01*
X15493Y-44778D01*
X15379Y-44778D01*
X15650Y-44622D02*
X15835Y-44622D01*
X15735Y-44735D01*
X15778Y-44735D01*
X15806Y-44750D01*
X15821Y-44764D01*
X15835Y-44792D01*
X15835Y-44864D01*
X15821Y-44892D01*
X15806Y-44906D01*
X15778Y-44921D01*
X15692Y-44921D01*
X15664Y-44906D01*
X15650Y-44892D01*
X16567Y-44921D02*
X16467Y-44778D01*
X16396Y-44921D02*
X16396Y-44622D01*
X16510Y-44622D01*
X16539Y-44636D01*
X16553Y-44650D01*
X16567Y-44678D01*
X16567Y-44721D01*
X16553Y-44750D01*
X16539Y-44764D01*
X16510Y-44778D01*
X16396Y-44778D01*
X16695Y-44764D02*
X16795Y-44764D01*
X16838Y-44921D02*
X16695Y-44921D01*
X16695Y-44622D01*
X16838Y-44622D01*
X17066Y-44764D02*
X17109Y-44778D01*
X17123Y-44792D01*
X17137Y-44821D01*
X17137Y-44864D01*
X17123Y-44892D01*
X17109Y-44906D01*
X17080Y-44921D01*
X16966Y-44921D01*
X16966Y-44622D01*
X17066Y-44622D01*
X17094Y-44636D01*
X17109Y-44650D01*
X17123Y-44678D01*
X17123Y-44707D01*
X17109Y-44735D01*
X17094Y-44750D01*
X17066Y-44764D01*
X16966Y-44764D01*
X17265Y-44764D02*
X17365Y-44764D01*
X17408Y-44921D02*
X17265Y-44921D01*
X17265Y-44622D01*
X17408Y-44622D01*
X17679Y-44921D02*
X17536Y-44921D01*
X17536Y-44622D01*
X17764Y-44906D02*
X17807Y-44921D01*
X17878Y-44921D01*
X17906Y-44906D01*
X17921Y-44892D01*
X17935Y-44864D01*
X17935Y-44835D01*
X17921Y-44807D01*
X17906Y-44792D01*
X17878Y-44778D01*
X17821Y-44764D01*
X17792Y-44750D01*
X17778Y-44735D01*
X17764Y-44707D01*
X17764Y-44678D01*
X17778Y-44650D01*
X17792Y-44636D01*
X17821Y-44622D01*
X17892Y-44622D01*
X17935Y-44636D01*
X18063Y-44921D02*
X18063Y-44622D01*
X18205Y-44921D02*
X18205Y-44622D01*
X18305Y-44835D01*
X18405Y-44622D01*
X18405Y-44921D01*
G54D14*
X40689Y-51577D02*
X40677Y-51589D01*
X40642Y-51601D01*
X40618Y-51601D01*
X40582Y-51589D01*
X40558Y-51565D01*
X40547Y-51542D01*
X40535Y-51494D01*
X40535Y-51458D01*
X40547Y-51411D01*
X40558Y-51387D01*
X40582Y-51363D01*
X40618Y-51351D01*
X40642Y-51351D01*
X40677Y-51363D01*
X40689Y-51375D01*
X40927Y-51601D02*
X40785Y-51601D01*
X40856Y-51601D02*
X40856Y-51351D01*
X40832Y-51387D01*
X40808Y-51411D01*
X40785Y-51423D01*
X41142Y-51435D02*
X41142Y-51601D01*
X41082Y-51339D02*
X41023Y-51518D01*
X41177Y-51518D01*
G54D22*
X20163Y-39815D02*
X20030Y-39875D01*
X20163Y-39918D02*
X19883Y-39918D01*
X19883Y-39850D01*
X19897Y-39832D01*
X19910Y-39824D01*
X19937Y-39815D01*
X19977Y-39815D01*
X20003Y-39824D01*
X20017Y-39832D01*
X20030Y-39850D01*
X20030Y-39918D01*
X19910Y-39747D02*
X19897Y-39738D01*
X19883Y-39721D01*
X19883Y-39678D01*
X19897Y-39661D01*
X19910Y-39652D01*
X19937Y-39644D01*
X19963Y-39644D01*
X20003Y-39652D01*
X20163Y-39755D01*
X20163Y-39644D01*
X19883Y-39584D02*
X19883Y-39473D01*
X19990Y-39533D01*
X19990Y-39507D01*
X20003Y-39490D01*
X20017Y-39481D01*
X20043Y-39473D01*
X20110Y-39473D01*
X20137Y-39481D01*
X20150Y-39490D01*
X20163Y-39507D01*
X20163Y-39559D01*
X20150Y-39576D01*
X20137Y-39584D01*
%LPC*%
G54D23*
X33687Y-51400D03*
X34287Y-51400D03*
X41795Y-45537D03*
X41195Y-45537D03*
X32050Y-53350D03*
X31450Y-53350D03*
X32050Y-54150D03*
X31450Y-54150D03*
X40842Y-41267D03*
X41442Y-41267D03*
X25050Y-44700D03*
X25650Y-44700D03*
X40150Y-46550D03*
X40750Y-46550D03*
X40150Y-47300D03*
X40750Y-47300D03*
G54D24*
X32700Y-38350D03*
X32700Y-38950D03*
X30700Y-38350D03*
X30700Y-38950D03*
X29700Y-38350D03*
X29700Y-38950D03*
X28700Y-38350D03*
X28700Y-38950D03*
X27700Y-38350D03*
X27700Y-38950D03*
X42750Y-48200D03*
X42750Y-47600D03*
X43450Y-48200D03*
X43450Y-47600D03*
G54D23*
X46250Y-44750D03*
X45650Y-44750D03*
X27551Y-43763D03*
X26951Y-43763D03*
G54D24*
X38600Y-52100D03*
X38600Y-52700D03*
X38600Y-54100D03*
X38600Y-53500D03*
G54D23*
X34550Y-43450D03*
X35150Y-43450D03*
X32725Y-50400D03*
X32125Y-50400D03*
G54D24*
X29150Y-42200D03*
X29150Y-42800D03*
X31800Y-42800D03*
X31800Y-42200D03*
X29600Y-47900D03*
X29600Y-48500D03*
X30750Y-44100D03*
X30750Y-43500D03*
X38500Y-42450D03*
X38500Y-41850D03*
X29300Y-46700D03*
X29300Y-46100D03*
X37550Y-42450D03*
X37550Y-41850D03*
G54D23*
X25650Y-45500D03*
X25050Y-45500D03*
G54D24*
X33350Y-42800D03*
X33350Y-42200D03*
X36050Y-46025D03*
X36050Y-45425D03*
X26600Y-45400D03*
X26600Y-44800D03*
X41800Y-48150D03*
X41800Y-47550D03*
G54D23*
X31550Y-50275D03*
X30950Y-50275D03*
G54D24*
X32647Y-42804D03*
X32647Y-42204D03*
X29950Y-46400D03*
X29950Y-45800D03*
G54D25*
X25870Y-43753D03*
X25120Y-43753D03*
G54D26*
X43500Y-50875D03*
X43500Y-51625D03*
G54D27*
X30639Y-45324D03*
G54D28*
X30639Y-45521D03*
X30639Y-45718D03*
X30639Y-45915D03*
X30639Y-46112D03*
X30639Y-46308D03*
X30639Y-46505D03*
X30639Y-46702D03*
X30639Y-46899D03*
X30639Y-47096D03*
X30639Y-47293D03*
X30639Y-47489D03*
X30639Y-47686D03*
X30639Y-47883D03*
X30639Y-48080D03*
X30639Y-48277D03*
G54D29*
X31474Y-49175D03*
X31671Y-49175D03*
X31868Y-49175D03*
X32065Y-49175D03*
X32262Y-49175D03*
X32458Y-49175D03*
X32655Y-49175D03*
X32852Y-49175D03*
X33049Y-49175D03*
X33246Y-49175D03*
X33443Y-49175D03*
X33639Y-49175D03*
X33836Y-49175D03*
X34033Y-49175D03*
X34230Y-49175D03*
X34427Y-49175D03*
G54D28*
X35325Y-48277D03*
X35325Y-48080D03*
X35325Y-47883D03*
X35325Y-47686D03*
X35325Y-47489D03*
X35325Y-47293D03*
X35325Y-47096D03*
X35325Y-46899D03*
X35325Y-46702D03*
X35325Y-46505D03*
X35325Y-46308D03*
X35325Y-46112D03*
X35325Y-45915D03*
X35325Y-45718D03*
X35325Y-45521D03*
X35325Y-45324D03*
G54D29*
X34427Y-44489D03*
X34230Y-44489D03*
X33836Y-44489D03*
X34033Y-44482D03*
X33639Y-44489D03*
X33443Y-44489D03*
X33246Y-44489D03*
X33049Y-44489D03*
X32852Y-44489D03*
X32655Y-44489D03*
X32461Y-44489D03*
X32264Y-44489D03*
X32067Y-44489D03*
X31870Y-44489D03*
X31674Y-44489D03*
X31477Y-44489D03*
G54D30*
X42200Y-36200D03*
G54D31*
X43200Y-36200D03*
X44200Y-36200D03*
X45200Y-36200D03*
X46200Y-36200D03*
X47200Y-36200D03*
G54D32*
X41806Y-44533D03*
X42594Y-44533D03*
X42200Y-43667D03*
G54D33*
X45833Y-46544D03*
X45833Y-45756D03*
X44967Y-46150D03*
G54D34*
X18639Y-36063D03*
X18639Y-37637D03*
X15961Y-37637D03*
X15961Y-36063D03*
X23939Y-36063D03*
X23939Y-37637D03*
X21261Y-37637D03*
X21261Y-36063D03*
G54D35*
X45650Y-50689D03*
X45650Y-49311D03*
G54D36*
X44764Y-50315D03*
X44764Y-50000D03*
X44764Y-49685D03*
X44764Y-49370D03*
X44764Y-50630D03*
G54D37*
X44863Y-51654D03*
X44863Y-48346D03*
X46949Y-51654D03*
X46949Y-48346D03*
G54D38*
X25403Y-52294D03*
X25403Y-51794D03*
X25403Y-50794D03*
X25403Y-51294D03*
X25403Y-50294D03*
X25403Y-49794D03*
X25403Y-49294D03*
X25403Y-48794D03*
G54D39*
X25403Y-48400D03*
X25403Y-47889D03*
G54D40*
X15954Y-47172D03*
X15954Y-54928D03*
G54D41*
X22850Y-41300D03*
X22600Y-41300D03*
X22340Y-41300D03*
X22080Y-41300D03*
X21830Y-41300D03*
X21570Y-41300D03*
X21310Y-41300D03*
X21060Y-41300D03*
X20800Y-41300D03*
X20550Y-41300D03*
X20550Y-43400D03*
X20800Y-43400D03*
X21060Y-43400D03*
X21310Y-43400D03*
X21570Y-43400D03*
X21830Y-43400D03*
X22080Y-43400D03*
X22340Y-43400D03*
X22600Y-43400D03*
X22850Y-43400D03*
G54D23*
X40050Y-49500D03*
X39450Y-49500D03*
G54D24*
X24000Y-39100D03*
X24000Y-39700D03*
X22900Y-39700D03*
X22900Y-39100D03*
X21800Y-39100D03*
X21800Y-39700D03*
X38250Y-50200D03*
X38250Y-50800D03*
G54D42*
X39400Y-50350D03*
X39400Y-50850D03*
X40200Y-50350D03*
X39400Y-50600D03*
X40200Y-50850D03*
G54D43*
X39426Y-53112D03*
X39800Y-53112D03*
X40174Y-53112D03*
X39426Y-52088D03*
X39800Y-52088D03*
X40174Y-52088D03*
G54D44*
X43750Y-43639D03*
X43750Y-41961D03*
G54D30*
X46600Y-53700D03*
G54D31*
X46600Y-54700D03*
G54D45*
X44139Y-53100D03*
X42461Y-53100D03*
X44139Y-54950D03*
X42461Y-54950D03*
G54D46*
X36955Y-52700D03*
X36955Y-54200D03*
X36955Y-53700D03*
X36955Y-53200D03*
X34045Y-54200D03*
X34045Y-53700D03*
X34046Y-53200D03*
X34045Y-52700D03*
G54D47*
X30663Y-53250D03*
X29837Y-53250D03*
X30663Y-54300D03*
X29837Y-54300D03*
G54D30*
X26700Y-37200D03*
G54D31*
X26700Y-36200D03*
X27700Y-37200D03*
X27700Y-36200D03*
X28700Y-37200D03*
X28700Y-36200D03*
X29700Y-37200D03*
X29700Y-36200D03*
X30700Y-37200D03*
X30700Y-36200D03*
X31700Y-37200D03*
X31700Y-36200D03*
X32700Y-37200D03*
X32700Y-36200D03*
X33700Y-37200D03*
X33700Y-36200D03*
X34700Y-37200D03*
X34700Y-36200D03*
X35700Y-37200D03*
X35700Y-36200D03*
G54D30*
X37750Y-38950D03*
G54D31*
X38750Y-38950D03*
G54D30*
X39750Y-38950D03*
G54D31*
X40750Y-38950D03*
G54D48*
X46843Y-38811D03*
X45780Y-41281D03*
G54D49*
X43024Y-38752D03*
G54D50*
X46331Y-40100D03*
X43969Y-40100D03*
G54D51*
X32850Y-40700D03*
X29150Y-40700D03*
G54D24*
X33178Y-53736D03*
X33178Y-54336D03*
G54D52*
X16947Y-41066D03*
X16947Y-41459D03*
X16947Y-41853D03*
X16947Y-42247D03*
X16947Y-42641D03*
X16947Y-43034D03*
G54D53*
X16120Y-40672D03*
X16120Y-43428D03*
G54D26*
X40850Y-52075D03*
X40850Y-52825D03*
G54D24*
X20050Y-39400D03*
X20050Y-40000D03*
M02*
