G04 (created by PCBNEW (2013-may-18)-stable) date So 27 Okt 2013 17:02:31 CET*
%MOIN*%
G04 Gerber Fmt 3.4, Leading zero omitted, Abs format*
%FSLAX34Y34*%
G01*
G70*
G90*
G04 APERTURE LIST*
%ADD10C,0.00590551*%
%ADD11C,0.008*%
%ADD12R,0.08X0.08*%
%ADD13C,0.08*%
%ADD14C,0.0554*%
%ADD15C,0.0594*%
G04 APERTURE END LIST*
G54D10*
G54D11*
X14450Y-56300D02*
X14450Y-34950D01*
X48250Y-56300D02*
X14450Y-56300D01*
X48250Y-34950D02*
X48250Y-56300D01*
X15250Y-34950D02*
X48250Y-34950D01*
X14450Y-34950D02*
X15250Y-34950D01*
G54D12*
X42200Y-36200D03*
G54D13*
X43200Y-36200D03*
X44200Y-36200D03*
X45200Y-36200D03*
X46200Y-36200D03*
X47200Y-36200D03*
G54D14*
X45650Y-50689D03*
X45650Y-49311D03*
G54D12*
X46600Y-53700D03*
G54D13*
X46600Y-54700D03*
G54D12*
X26700Y-37200D03*
G54D13*
X26700Y-36200D03*
X27700Y-37200D03*
X27700Y-36200D03*
X28700Y-37200D03*
X28700Y-36200D03*
X29700Y-37200D03*
X29700Y-36200D03*
X30700Y-37200D03*
X30700Y-36200D03*
X31700Y-37200D03*
X31700Y-36200D03*
X32700Y-37200D03*
X32700Y-36200D03*
X33700Y-37200D03*
X33700Y-36200D03*
X34700Y-37200D03*
X34700Y-36200D03*
X35700Y-37200D03*
X35700Y-36200D03*
G54D12*
X37750Y-38950D03*
G54D13*
X38750Y-38950D03*
G54D12*
X39750Y-38950D03*
G54D13*
X40750Y-38950D03*
G54D15*
X46331Y-40100D03*
X43969Y-40100D03*
M02*
