G04 (created by PCBNEW-RS274X (2011-06-08)-testing) date Sa 02 Jul 2011 20:51:35 CEST*
G01*
G70*
G90*
%MOIN*%
G04 Gerber Fmt 3.4, Leading zero omitted, Abs format*
%FSLAX34Y34*%
G04 APERTURE LIST*
%ADD10C,0.006000*%
%ADD11C,0.005900*%
%ADD12C,0.007500*%
%ADD13C,0.008000*%
%ADD14C,0.015000*%
%ADD15C,0.005000*%
%ADD16C,0.012000*%
%ADD17C,0.010000*%
%ADD18C,0.006500*%
%ADD19C,0.002600*%
%ADD20C,0.004000*%
%ADD21C,0.002000*%
%ADD22C,0.004500*%
G04 APERTURE END LIST*
G54D10*
G54D11*
X44015Y-44121D02*
X44015Y-43693D01*
X44458Y-43821D02*
X44229Y-43907D01*
X44458Y-43993D01*
X43115Y-55521D02*
X43115Y-55093D01*
X43558Y-55221D02*
X43329Y-55307D01*
X43558Y-55393D01*
X43115Y-53671D02*
X43115Y-53243D01*
X43558Y-53371D02*
X43329Y-53457D01*
X43558Y-53543D01*
X40386Y-54071D02*
X40215Y-54071D01*
X40300Y-54071D02*
X40300Y-53772D01*
X40272Y-53814D01*
X40243Y-53843D01*
X40215Y-53857D01*
X30465Y-55170D02*
X30465Y-54743D01*
X30907Y-54871D02*
X30679Y-54957D01*
X30907Y-55042D01*
X30415Y-52870D02*
X30415Y-52443D01*
X30857Y-52571D02*
X30629Y-52657D01*
X30857Y-52742D01*
X37586Y-54371D02*
X37414Y-54371D01*
X37500Y-54371D02*
X37500Y-54071D01*
X37471Y-54114D01*
X37443Y-54143D01*
X37414Y-54157D01*
G54D12*
X23386Y-41421D02*
X23214Y-41421D01*
X23300Y-41421D02*
X23300Y-41121D01*
X23271Y-41164D01*
X23243Y-41193D01*
X23214Y-41207D01*
X30736Y-45071D02*
X30564Y-45071D01*
X30650Y-45071D02*
X30650Y-44771D01*
X30621Y-44814D01*
X30593Y-44843D01*
X30564Y-44857D01*
X42286Y-37271D02*
X42114Y-37271D01*
X42200Y-37271D02*
X42200Y-36971D01*
X42171Y-37014D01*
X42143Y-37043D01*
X42114Y-37057D01*
G54D11*
X26786Y-38271D02*
X26614Y-38271D01*
X26700Y-38271D02*
X26700Y-37971D01*
X26671Y-38014D01*
X26643Y-38043D01*
X26614Y-38057D01*
G54D13*
X14450Y-56300D02*
X14450Y-34950D01*
X48250Y-56300D02*
X14450Y-56300D01*
X48250Y-34950D02*
X48250Y-56300D01*
X15250Y-34950D02*
X48250Y-34950D01*
X14450Y-34950D02*
X15250Y-34950D01*
G54D14*
X15057Y-39963D02*
X16750Y-39963D01*
X16750Y-39963D02*
X16750Y-44137D01*
X16750Y-44137D02*
X15057Y-44137D01*
X14585Y-39333D02*
X15057Y-39333D01*
X14585Y-44767D02*
X15057Y-44767D01*
X14585Y-39333D02*
X14585Y-44767D01*
X15057Y-44767D02*
X15057Y-39333D01*
X47512Y-40887D02*
X48103Y-40887D01*
X48103Y-40887D02*
X48103Y-39313D01*
X48103Y-39313D02*
X47512Y-39313D01*
X47512Y-41084D02*
X42788Y-41084D01*
X42788Y-41084D02*
X42788Y-39116D01*
X42788Y-39116D02*
X47512Y-39116D01*
X47512Y-39116D02*
X47512Y-41084D01*
X36200Y-37700D02*
X26200Y-37700D01*
X36200Y-35700D02*
X26200Y-35700D01*
X26200Y-35700D02*
X26200Y-37700D01*
X36202Y-37700D02*
X36202Y-35700D01*
G54D10*
X36750Y-39450D02*
X36750Y-38450D01*
X36750Y-38450D02*
X38750Y-38450D01*
X38750Y-38450D02*
X38750Y-39450D01*
X38750Y-39450D02*
X36750Y-39450D01*
X38750Y-39450D02*
X38750Y-38450D01*
X38750Y-38450D02*
X40750Y-38450D01*
X40750Y-38450D02*
X40750Y-39450D01*
X40750Y-39450D02*
X38750Y-39450D01*
X46100Y-53200D02*
X47100Y-53200D01*
X47100Y-53200D02*
X47100Y-55200D01*
X47100Y-55200D02*
X46100Y-55200D01*
X46100Y-55200D02*
X46100Y-53200D01*
G54D13*
X32950Y-41350D02*
X32950Y-40050D01*
X32950Y-40050D02*
X32700Y-39800D01*
X32700Y-39800D02*
X29300Y-39800D01*
X29300Y-39800D02*
X29050Y-40050D01*
X29050Y-40050D02*
X29050Y-41350D01*
X29050Y-41350D02*
X29300Y-41600D01*
X29300Y-41600D02*
X32700Y-41600D01*
X32700Y-41600D02*
X32950Y-41350D01*
X28750Y-41700D02*
X28750Y-39700D01*
X28750Y-39700D02*
X33250Y-39700D01*
X33250Y-39700D02*
X33250Y-41700D01*
X33250Y-41700D02*
X28750Y-41700D01*
G54D15*
X33428Y-53586D02*
X33428Y-54486D01*
X33428Y-54486D02*
X32928Y-54486D01*
X32928Y-54486D02*
X32928Y-53586D01*
X32928Y-53586D02*
X33428Y-53586D01*
X33537Y-51150D02*
X34437Y-51150D01*
X34437Y-51150D02*
X34437Y-51650D01*
X34437Y-51650D02*
X33537Y-51650D01*
X33537Y-51650D02*
X33537Y-51150D01*
X41945Y-45787D02*
X41045Y-45787D01*
X41045Y-45787D02*
X41045Y-45287D01*
X41045Y-45287D02*
X41945Y-45287D01*
X41945Y-45287D02*
X41945Y-45787D01*
X32200Y-53600D02*
X31300Y-53600D01*
X31300Y-53600D02*
X31300Y-53100D01*
X31300Y-53100D02*
X32200Y-53100D01*
X32200Y-53100D02*
X32200Y-53600D01*
X32200Y-54400D02*
X31300Y-54400D01*
X31300Y-54400D02*
X31300Y-53900D01*
X31300Y-53900D02*
X32200Y-53900D01*
X32200Y-53900D02*
X32200Y-54400D01*
X40692Y-41017D02*
X41592Y-41017D01*
X41592Y-41017D02*
X41592Y-41517D01*
X41592Y-41517D02*
X40692Y-41517D01*
X40692Y-41517D02*
X40692Y-41017D01*
X24900Y-44450D02*
X25800Y-44450D01*
X25800Y-44450D02*
X25800Y-44950D01*
X25800Y-44950D02*
X24900Y-44950D01*
X24900Y-44950D02*
X24900Y-44450D01*
X40000Y-46300D02*
X40900Y-46300D01*
X40900Y-46300D02*
X40900Y-46800D01*
X40900Y-46800D02*
X40000Y-46800D01*
X40000Y-46800D02*
X40000Y-46300D01*
X40000Y-47050D02*
X40900Y-47050D01*
X40900Y-47050D02*
X40900Y-47550D01*
X40900Y-47550D02*
X40000Y-47550D01*
X40000Y-47550D02*
X40000Y-47050D01*
X32950Y-38200D02*
X32950Y-39100D01*
X32950Y-39100D02*
X32450Y-39100D01*
X32450Y-39100D02*
X32450Y-38200D01*
X32450Y-38200D02*
X32950Y-38200D01*
X30950Y-38200D02*
X30950Y-39100D01*
X30950Y-39100D02*
X30450Y-39100D01*
X30450Y-39100D02*
X30450Y-38200D01*
X30450Y-38200D02*
X30950Y-38200D01*
X29950Y-38200D02*
X29950Y-39100D01*
X29950Y-39100D02*
X29450Y-39100D01*
X29450Y-39100D02*
X29450Y-38200D01*
X29450Y-38200D02*
X29950Y-38200D01*
X28950Y-38200D02*
X28950Y-39100D01*
X28950Y-39100D02*
X28450Y-39100D01*
X28450Y-39100D02*
X28450Y-38200D01*
X28450Y-38200D02*
X28950Y-38200D01*
X27950Y-38200D02*
X27950Y-39100D01*
X27950Y-39100D02*
X27450Y-39100D01*
X27450Y-39100D02*
X27450Y-38200D01*
X27450Y-38200D02*
X27950Y-38200D01*
X42500Y-48350D02*
X42500Y-47450D01*
X42500Y-47450D02*
X43000Y-47450D01*
X43000Y-47450D02*
X43000Y-48350D01*
X43000Y-48350D02*
X42500Y-48350D01*
X43500Y-47600D02*
X43500Y-46700D01*
X43500Y-46700D02*
X44000Y-46700D01*
X44000Y-46700D02*
X44000Y-47600D01*
X44000Y-47600D02*
X43500Y-47600D01*
X46400Y-45000D02*
X45500Y-45000D01*
X45500Y-45000D02*
X45500Y-44500D01*
X45500Y-44500D02*
X46400Y-44500D01*
X46400Y-44500D02*
X46400Y-45000D01*
X27701Y-44013D02*
X26801Y-44013D01*
X26801Y-44013D02*
X26801Y-43513D01*
X26801Y-43513D02*
X27701Y-43513D01*
X27701Y-43513D02*
X27701Y-44013D01*
X38200Y-53800D02*
X39100Y-53800D01*
X39100Y-53800D02*
X39100Y-54300D01*
X39100Y-54300D02*
X38200Y-54300D01*
X38200Y-54300D02*
X38200Y-53800D01*
X38198Y-54607D02*
X39098Y-54607D01*
X39098Y-54607D02*
X39098Y-55107D01*
X39098Y-55107D02*
X38198Y-55107D01*
X38198Y-55107D02*
X38198Y-54607D01*
X34765Y-42935D02*
X34765Y-42035D01*
X34765Y-42035D02*
X35265Y-42035D01*
X35265Y-42035D02*
X35265Y-42935D01*
X35265Y-42935D02*
X34765Y-42935D01*
X33100Y-50650D02*
X33100Y-51550D01*
X33100Y-51550D02*
X32600Y-51550D01*
X32600Y-51550D02*
X32600Y-50650D01*
X32600Y-50650D02*
X33100Y-50650D01*
X29400Y-42050D02*
X29400Y-42950D01*
X29400Y-42950D02*
X28900Y-42950D01*
X28900Y-42950D02*
X28900Y-42050D01*
X28900Y-42050D02*
X29400Y-42050D01*
X31550Y-42950D02*
X31550Y-42050D01*
X31550Y-42050D02*
X32050Y-42050D01*
X32050Y-42050D02*
X32050Y-42950D01*
X32050Y-42950D02*
X31550Y-42950D01*
X28850Y-48750D02*
X27950Y-48750D01*
X27950Y-48750D02*
X27950Y-48250D01*
X27950Y-48250D02*
X28850Y-48250D01*
X28850Y-48250D02*
X28850Y-48750D01*
X30350Y-42950D02*
X30350Y-42050D01*
X30350Y-42050D02*
X30850Y-42050D01*
X30850Y-42050D02*
X30850Y-42950D01*
X30850Y-42950D02*
X30350Y-42950D01*
X41200Y-55100D02*
X40300Y-55100D01*
X40300Y-55100D02*
X40300Y-54600D01*
X40300Y-54600D02*
X41200Y-54600D01*
X41200Y-54600D02*
X41200Y-55100D01*
X38250Y-42600D02*
X38250Y-41700D01*
X38250Y-41700D02*
X38750Y-41700D01*
X38750Y-41700D02*
X38750Y-42600D01*
X38750Y-42600D02*
X38250Y-42600D01*
X28850Y-47400D02*
X27950Y-47400D01*
X27950Y-47400D02*
X27950Y-46900D01*
X27950Y-46900D02*
X28850Y-46900D01*
X28850Y-46900D02*
X28850Y-47400D01*
X37300Y-42600D02*
X37300Y-41700D01*
X37300Y-41700D02*
X37800Y-41700D01*
X37800Y-41700D02*
X37800Y-42600D01*
X37800Y-42600D02*
X37300Y-42600D01*
X25800Y-45750D02*
X24900Y-45750D01*
X24900Y-45750D02*
X24900Y-45250D01*
X24900Y-45250D02*
X25800Y-45250D01*
X25800Y-45250D02*
X25800Y-45750D01*
X33100Y-42950D02*
X33100Y-42050D01*
X33100Y-42050D02*
X33600Y-42050D01*
X33600Y-42050D02*
X33600Y-42950D01*
X33600Y-42950D02*
X33100Y-42950D01*
X37350Y-45650D02*
X38250Y-45650D01*
X38250Y-45650D02*
X38250Y-46150D01*
X38250Y-46150D02*
X37350Y-46150D01*
X37350Y-46150D02*
X37350Y-45650D01*
X26350Y-45550D02*
X26350Y-44650D01*
X26350Y-44650D02*
X26850Y-44650D01*
X26850Y-44650D02*
X26850Y-45550D01*
X26850Y-45550D02*
X26350Y-45550D01*
X41550Y-48300D02*
X41550Y-47400D01*
X41550Y-47400D02*
X42050Y-47400D01*
X42050Y-47400D02*
X42050Y-48300D01*
X42050Y-48300D02*
X41550Y-48300D01*
X31670Y-50659D02*
X31670Y-51559D01*
X31670Y-51559D02*
X31170Y-51559D01*
X31170Y-51559D02*
X31170Y-50659D01*
X31170Y-50659D02*
X31670Y-50659D01*
X32397Y-42954D02*
X32397Y-42054D01*
X32397Y-42054D02*
X32897Y-42054D01*
X32897Y-42054D02*
X32897Y-42954D01*
X32897Y-42954D02*
X32397Y-42954D01*
X28850Y-46700D02*
X27950Y-46700D01*
X27950Y-46700D02*
X27950Y-46200D01*
X27950Y-46200D02*
X28850Y-46200D01*
X28850Y-46200D02*
X28850Y-46700D01*
X26195Y-43453D02*
X26194Y-43462D01*
X26191Y-43472D01*
X26186Y-43480D01*
X26180Y-43488D01*
X26172Y-43494D01*
X26164Y-43499D01*
X26155Y-43501D01*
X26145Y-43502D01*
X26136Y-43502D01*
X26127Y-43499D01*
X26118Y-43494D01*
X26111Y-43488D01*
X26104Y-43481D01*
X26100Y-43472D01*
X26097Y-43463D01*
X26096Y-43453D01*
X26096Y-43444D01*
X26099Y-43435D01*
X26103Y-43426D01*
X26110Y-43419D01*
X26117Y-43412D01*
X26125Y-43408D01*
X26135Y-43405D01*
X26144Y-43404D01*
X26153Y-43404D01*
X26163Y-43407D01*
X26171Y-43411D01*
X26179Y-43417D01*
X26185Y-43425D01*
X26190Y-43433D01*
X26193Y-43442D01*
X26194Y-43452D01*
X26195Y-43453D01*
X25695Y-43453D02*
X26095Y-43453D01*
X26095Y-43453D02*
X26095Y-44053D01*
X26095Y-44053D02*
X25695Y-44053D01*
X25295Y-44053D02*
X24895Y-44053D01*
X24895Y-44053D02*
X24895Y-43453D01*
X24895Y-43453D02*
X25295Y-43453D01*
X41900Y-50650D02*
X41899Y-50659D01*
X41896Y-50669D01*
X41891Y-50677D01*
X41885Y-50685D01*
X41877Y-50691D01*
X41869Y-50696D01*
X41860Y-50698D01*
X41850Y-50699D01*
X41841Y-50699D01*
X41832Y-50696D01*
X41823Y-50691D01*
X41816Y-50685D01*
X41809Y-50678D01*
X41805Y-50669D01*
X41802Y-50660D01*
X41801Y-50650D01*
X41801Y-50641D01*
X41804Y-50632D01*
X41808Y-50623D01*
X41815Y-50616D01*
X41822Y-50609D01*
X41830Y-50605D01*
X41840Y-50602D01*
X41849Y-50601D01*
X41858Y-50601D01*
X41868Y-50604D01*
X41876Y-50608D01*
X41884Y-50614D01*
X41890Y-50622D01*
X41895Y-50630D01*
X41898Y-50639D01*
X41899Y-50649D01*
X41900Y-50650D01*
X41850Y-51100D02*
X41850Y-50700D01*
X41850Y-50700D02*
X42450Y-50700D01*
X42450Y-50700D02*
X42450Y-51100D01*
X42450Y-51500D02*
X42450Y-51900D01*
X42450Y-51900D02*
X41850Y-51900D01*
X41850Y-51900D02*
X41850Y-51500D01*
G54D13*
X31532Y-45232D02*
X31529Y-45261D01*
X31520Y-45289D01*
X31506Y-45315D01*
X31488Y-45337D01*
X31465Y-45356D01*
X31440Y-45370D01*
X31412Y-45378D01*
X31383Y-45381D01*
X31354Y-45379D01*
X31326Y-45371D01*
X31300Y-45357D01*
X31278Y-45339D01*
X31259Y-45316D01*
X31245Y-45291D01*
X31236Y-45263D01*
X31233Y-45234D01*
X31235Y-45205D01*
X31243Y-45177D01*
X31256Y-45151D01*
X31275Y-45128D01*
X31297Y-45109D01*
X31322Y-45095D01*
X31350Y-45086D01*
X31379Y-45083D01*
X31408Y-45085D01*
X31436Y-45093D01*
X31462Y-45106D01*
X31485Y-45124D01*
X31504Y-45146D01*
X31519Y-45171D01*
X31528Y-45199D01*
X31531Y-45228D01*
X31532Y-45232D01*
X34982Y-48832D02*
X34982Y-44832D01*
X34982Y-44832D02*
X31232Y-44832D01*
X31232Y-44832D02*
X30982Y-45082D01*
X30982Y-45082D02*
X30982Y-48832D01*
X30982Y-48832D02*
X34982Y-48832D01*
G54D16*
X41700Y-36700D02*
X41700Y-35700D01*
X41700Y-35700D02*
X47700Y-35700D01*
X47700Y-35700D02*
X47700Y-36700D01*
X47700Y-36700D02*
X41700Y-36700D01*
X42700Y-36700D02*
X42700Y-35700D01*
G54D15*
X42771Y-43844D02*
X42771Y-44356D01*
X42771Y-44356D02*
X41629Y-44356D01*
X41629Y-44356D02*
X41629Y-43844D01*
X41629Y-43844D02*
X42771Y-43844D01*
X45144Y-45579D02*
X45656Y-45579D01*
X45656Y-45579D02*
X45656Y-46721D01*
X45656Y-46721D02*
X45144Y-46721D01*
X45144Y-46721D02*
X45144Y-45579D01*
G54D14*
X17694Y-36850D02*
X17686Y-36926D01*
X17664Y-37000D01*
X17628Y-37068D01*
X17579Y-37127D01*
X17520Y-37176D01*
X17452Y-37213D01*
X17379Y-37235D01*
X17302Y-37243D01*
X17227Y-37237D01*
X17153Y-37215D01*
X17085Y-37179D01*
X17025Y-37131D01*
X16975Y-37072D01*
X16938Y-37005D01*
X16915Y-36931D01*
X16907Y-36855D01*
X16913Y-36779D01*
X16934Y-36705D01*
X16969Y-36637D01*
X17017Y-36577D01*
X17076Y-36527D01*
X17143Y-36489D01*
X17216Y-36466D01*
X17292Y-36457D01*
X17368Y-36462D01*
X17442Y-36483D01*
X17511Y-36518D01*
X17571Y-36565D01*
X17621Y-36623D01*
X17659Y-36690D01*
X17684Y-36763D01*
X17693Y-36839D01*
X17694Y-36850D01*
X18580Y-35669D02*
X16020Y-35669D01*
X16020Y-35669D02*
X16020Y-38031D01*
X16020Y-38031D02*
X18580Y-38031D01*
X18580Y-38031D02*
X18580Y-35669D01*
X22994Y-36850D02*
X22986Y-36926D01*
X22964Y-37000D01*
X22928Y-37068D01*
X22879Y-37127D01*
X22820Y-37176D01*
X22752Y-37213D01*
X22679Y-37235D01*
X22602Y-37243D01*
X22527Y-37237D01*
X22453Y-37215D01*
X22385Y-37179D01*
X22325Y-37131D01*
X22275Y-37072D01*
X22238Y-37005D01*
X22215Y-36931D01*
X22207Y-36855D01*
X22213Y-36779D01*
X22234Y-36705D01*
X22269Y-36637D01*
X22317Y-36577D01*
X22376Y-36527D01*
X22443Y-36489D01*
X22516Y-36466D01*
X22592Y-36457D01*
X22668Y-36462D01*
X22742Y-36483D01*
X22811Y-36518D01*
X22871Y-36565D01*
X22921Y-36623D01*
X22959Y-36690D01*
X22984Y-36763D01*
X22993Y-36839D01*
X22994Y-36850D01*
X23880Y-35669D02*
X21320Y-35669D01*
X21320Y-35669D02*
X21320Y-38031D01*
X21320Y-38031D02*
X23880Y-38031D01*
X23880Y-38031D02*
X23880Y-35669D01*
G54D17*
X47540Y-50433D02*
X45886Y-50276D01*
X45886Y-50276D02*
X45886Y-49724D01*
X45886Y-49724D02*
X47540Y-49567D01*
X45689Y-49094D02*
X47382Y-48898D01*
X47382Y-48898D02*
X45689Y-48701D01*
X45689Y-51299D02*
X47382Y-51102D01*
X47382Y-51102D02*
X45689Y-50906D01*
X48170Y-51516D02*
X48170Y-48484D01*
X48170Y-48484D02*
X44626Y-48484D01*
X44626Y-48484D02*
X44626Y-51516D01*
X44626Y-51516D02*
X48170Y-51516D01*
G54D14*
X25541Y-53097D02*
X24824Y-53097D01*
X24824Y-53097D02*
X24824Y-47637D01*
X24824Y-47637D02*
X25541Y-47637D01*
X25541Y-47637D02*
X25541Y-47369D01*
X25541Y-47369D02*
X14576Y-47369D01*
X14576Y-47369D02*
X14576Y-51215D01*
X14576Y-51215D02*
X14576Y-54731D01*
X14576Y-54731D02*
X25541Y-54731D01*
X25541Y-54731D02*
X25541Y-53097D01*
G54D18*
X20200Y-43050D02*
X23200Y-43050D01*
X23200Y-41650D02*
X20200Y-41650D01*
X20200Y-43050D02*
X20200Y-41650D01*
G54D10*
X23200Y-41650D02*
X23200Y-43050D01*
G54D15*
X23141Y-41850D02*
X23138Y-41877D01*
X23130Y-41903D01*
X23117Y-41928D01*
X23100Y-41949D01*
X23078Y-41966D01*
X23054Y-41979D01*
X23028Y-41988D01*
X23000Y-41990D01*
X22974Y-41988D01*
X22948Y-41980D01*
X22923Y-41967D01*
X22902Y-41950D01*
X22884Y-41929D01*
X22871Y-41905D01*
X22863Y-41879D01*
X22860Y-41851D01*
X22862Y-41825D01*
X22869Y-41799D01*
X22882Y-41774D01*
X22899Y-41753D01*
X22920Y-41735D01*
X22944Y-41721D01*
X22970Y-41713D01*
X22998Y-41710D01*
X23024Y-41712D01*
X23050Y-41719D01*
X23075Y-41731D01*
X23097Y-41748D01*
X23115Y-41769D01*
X23128Y-41793D01*
X23137Y-41819D01*
X23140Y-41847D01*
X23141Y-41850D01*
X23200Y-42600D02*
X22900Y-42600D01*
X22900Y-42600D02*
X22900Y-42100D01*
X22900Y-42100D02*
X23200Y-42100D01*
X40200Y-49750D02*
X39300Y-49750D01*
X39300Y-49750D02*
X39300Y-49250D01*
X39300Y-49250D02*
X40200Y-49250D01*
X40200Y-49250D02*
X40200Y-49750D01*
X23350Y-39850D02*
X22450Y-39850D01*
X22450Y-39850D02*
X22450Y-39350D01*
X22450Y-39350D02*
X23350Y-39350D01*
X23350Y-39350D02*
X23350Y-39850D01*
X21000Y-39350D02*
X21900Y-39350D01*
X21900Y-39350D02*
X21900Y-39850D01*
X21900Y-39850D02*
X21000Y-39850D01*
X21000Y-39850D02*
X21000Y-39350D01*
X19550Y-39350D02*
X20450Y-39350D01*
X20450Y-39350D02*
X20450Y-39850D01*
X20450Y-39850D02*
X19550Y-39850D01*
X19550Y-39850D02*
X19550Y-39350D01*
X38500Y-50050D02*
X38500Y-50950D01*
X38500Y-50950D02*
X38000Y-50950D01*
X38000Y-50950D02*
X38000Y-50050D01*
X38000Y-50050D02*
X38500Y-50050D01*
G54D10*
X40050Y-51000D02*
X40050Y-50200D01*
X40050Y-50200D02*
X39550Y-50200D01*
X39550Y-50200D02*
X39550Y-51000D01*
X39550Y-51000D02*
X40050Y-51000D01*
G54D17*
X40294Y-52948D02*
X40293Y-52953D01*
X40291Y-52958D01*
X40289Y-52962D01*
X40286Y-52967D01*
X40282Y-52970D01*
X40277Y-52972D01*
X40272Y-52974D01*
X40267Y-52974D01*
X40262Y-52974D01*
X40257Y-52973D01*
X40253Y-52970D01*
X40249Y-52967D01*
X40245Y-52963D01*
X40243Y-52958D01*
X40241Y-52953D01*
X40241Y-52948D01*
X40241Y-52944D01*
X40242Y-52939D01*
X40245Y-52934D01*
X40248Y-52930D01*
X40252Y-52926D01*
X40257Y-52924D01*
X40262Y-52922D01*
X40267Y-52922D01*
X40271Y-52922D01*
X40276Y-52923D01*
X40281Y-52926D01*
X40285Y-52929D01*
X40289Y-52933D01*
X40291Y-52938D01*
X40293Y-52943D01*
X40293Y-52948D01*
X40294Y-52948D01*
X40109Y-52535D02*
X41291Y-52535D01*
X41291Y-52535D02*
X41291Y-53165D01*
X41291Y-53165D02*
X40109Y-53165D01*
X40109Y-53165D02*
X40109Y-52535D01*
X45096Y-44309D02*
X43404Y-44309D01*
X43404Y-44309D02*
X43404Y-42891D01*
X43404Y-42891D02*
X45096Y-42891D01*
X45096Y-42891D02*
X45096Y-44309D01*
G54D19*
X30054Y-54182D02*
X30054Y-54054D01*
X30054Y-54054D02*
X29857Y-54054D01*
X29857Y-54182D02*
X29857Y-54054D01*
X30054Y-54182D02*
X29857Y-54182D01*
X30054Y-54427D02*
X30054Y-54368D01*
X30054Y-54368D02*
X29955Y-54368D01*
X29955Y-54427D02*
X29955Y-54368D01*
X30054Y-54427D02*
X29955Y-54427D01*
X30054Y-54232D02*
X30054Y-54173D01*
X30054Y-54173D02*
X29955Y-54173D01*
X29955Y-54232D02*
X29955Y-54173D01*
X30054Y-54232D02*
X29955Y-54232D01*
X30054Y-54378D02*
X30054Y-54222D01*
X30054Y-54222D02*
X29985Y-54222D01*
X29985Y-54378D02*
X29985Y-54222D01*
X30054Y-54378D02*
X29985Y-54378D01*
X30643Y-54182D02*
X30643Y-54054D01*
X30643Y-54054D02*
X30446Y-54054D01*
X30446Y-54182D02*
X30446Y-54054D01*
X30643Y-54182D02*
X30446Y-54182D01*
X30643Y-54546D02*
X30643Y-54418D01*
X30643Y-54418D02*
X30446Y-54418D01*
X30446Y-54546D02*
X30446Y-54418D01*
X30643Y-54546D02*
X30446Y-54546D01*
X30545Y-54232D02*
X30545Y-54173D01*
X30545Y-54173D02*
X30446Y-54173D01*
X30446Y-54232D02*
X30446Y-54173D01*
X30545Y-54232D02*
X30446Y-54232D01*
X30545Y-54427D02*
X30545Y-54368D01*
X30545Y-54368D02*
X30446Y-54368D01*
X30446Y-54427D02*
X30446Y-54368D01*
X30545Y-54427D02*
X30446Y-54427D01*
X30515Y-54378D02*
X30515Y-54222D01*
X30515Y-54222D02*
X30446Y-54222D01*
X30446Y-54378D02*
X30446Y-54222D01*
X30515Y-54378D02*
X30446Y-54378D01*
X30250Y-54339D02*
X30250Y-54261D01*
X30250Y-54261D02*
X30172Y-54261D01*
X30172Y-54339D02*
X30172Y-54261D01*
X30250Y-54339D02*
X30172Y-54339D01*
X30054Y-54536D02*
X30054Y-54418D01*
X30054Y-54418D02*
X29936Y-54418D01*
X29936Y-54536D02*
X29936Y-54418D01*
X30054Y-54536D02*
X29936Y-54536D01*
X29886Y-54546D02*
X29886Y-54457D01*
X29886Y-54457D02*
X29857Y-54457D01*
X29857Y-54546D02*
X29857Y-54457D01*
X29886Y-54546D02*
X29857Y-54546D01*
G54D20*
X30044Y-54074D02*
X30456Y-54074D01*
X30446Y-54526D02*
X29886Y-54526D01*
G54D21*
X29944Y-54477D02*
X29943Y-54482D01*
X29941Y-54487D01*
X29939Y-54492D01*
X29935Y-54496D01*
X29931Y-54500D01*
X29926Y-54502D01*
X29921Y-54504D01*
X29916Y-54504D01*
X29911Y-54504D01*
X29906Y-54502D01*
X29901Y-54500D01*
X29897Y-54497D01*
X29893Y-54492D01*
X29891Y-54488D01*
X29889Y-54482D01*
X29889Y-54477D01*
X29889Y-54472D01*
X29890Y-54467D01*
X29893Y-54462D01*
X29896Y-54458D01*
X29901Y-54455D01*
X29905Y-54452D01*
X29910Y-54450D01*
X29916Y-54450D01*
X29920Y-54450D01*
X29926Y-54451D01*
X29931Y-54454D01*
X29935Y-54457D01*
X29938Y-54461D01*
X29941Y-54466D01*
X29943Y-54471D01*
X29943Y-54477D01*
X29944Y-54477D01*
G54D20*
X29857Y-54437D02*
X29868Y-54436D01*
X29880Y-54434D01*
X29892Y-54432D01*
X29903Y-54428D01*
X29914Y-54424D01*
X29925Y-54418D01*
X29935Y-54412D01*
X29945Y-54404D01*
X29953Y-54396D01*
X29961Y-54388D01*
X29969Y-54378D01*
X29975Y-54368D01*
X29981Y-54357D01*
X29985Y-54346D01*
X29989Y-54335D01*
X29991Y-54323D01*
X29993Y-54311D01*
X29994Y-54300D01*
X29993Y-54289D01*
X29991Y-54277D01*
X29989Y-54265D01*
X29985Y-54254D01*
X29981Y-54243D01*
X29975Y-54232D01*
X29969Y-54222D01*
X29961Y-54212D01*
X29953Y-54204D01*
X29945Y-54196D01*
X29935Y-54188D01*
X29925Y-54182D01*
X29914Y-54176D01*
X29903Y-54172D01*
X29892Y-54168D01*
X29880Y-54166D01*
X29868Y-54164D01*
X29857Y-54163D01*
X30643Y-54163D02*
X30632Y-54164D01*
X30620Y-54166D01*
X30608Y-54168D01*
X30597Y-54172D01*
X30586Y-54176D01*
X30575Y-54182D01*
X30565Y-54188D01*
X30555Y-54196D01*
X30547Y-54204D01*
X30539Y-54212D01*
X30531Y-54222D01*
X30525Y-54232D01*
X30519Y-54243D01*
X30515Y-54254D01*
X30511Y-54265D01*
X30509Y-54277D01*
X30507Y-54289D01*
X30506Y-54300D01*
X30507Y-54311D01*
X30509Y-54323D01*
X30511Y-54335D01*
X30515Y-54346D01*
X30519Y-54357D01*
X30525Y-54368D01*
X30531Y-54378D01*
X30539Y-54388D01*
X30547Y-54396D01*
X30555Y-54404D01*
X30565Y-54412D01*
X30575Y-54418D01*
X30586Y-54424D01*
X30597Y-54428D01*
X30608Y-54432D01*
X30620Y-54434D01*
X30632Y-54436D01*
X30643Y-54437D01*
G54D19*
X30054Y-53132D02*
X30054Y-53004D01*
X30054Y-53004D02*
X29857Y-53004D01*
X29857Y-53132D02*
X29857Y-53004D01*
X30054Y-53132D02*
X29857Y-53132D01*
X30054Y-53377D02*
X30054Y-53318D01*
X30054Y-53318D02*
X29955Y-53318D01*
X29955Y-53377D02*
X29955Y-53318D01*
X30054Y-53377D02*
X29955Y-53377D01*
X30054Y-53182D02*
X30054Y-53123D01*
X30054Y-53123D02*
X29955Y-53123D01*
X29955Y-53182D02*
X29955Y-53123D01*
X30054Y-53182D02*
X29955Y-53182D01*
X30054Y-53328D02*
X30054Y-53172D01*
X30054Y-53172D02*
X29985Y-53172D01*
X29985Y-53328D02*
X29985Y-53172D01*
X30054Y-53328D02*
X29985Y-53328D01*
X30643Y-53132D02*
X30643Y-53004D01*
X30643Y-53004D02*
X30446Y-53004D01*
X30446Y-53132D02*
X30446Y-53004D01*
X30643Y-53132D02*
X30446Y-53132D01*
X30643Y-53496D02*
X30643Y-53368D01*
X30643Y-53368D02*
X30446Y-53368D01*
X30446Y-53496D02*
X30446Y-53368D01*
X30643Y-53496D02*
X30446Y-53496D01*
X30545Y-53182D02*
X30545Y-53123D01*
X30545Y-53123D02*
X30446Y-53123D01*
X30446Y-53182D02*
X30446Y-53123D01*
X30545Y-53182D02*
X30446Y-53182D01*
X30545Y-53377D02*
X30545Y-53318D01*
X30545Y-53318D02*
X30446Y-53318D01*
X30446Y-53377D02*
X30446Y-53318D01*
X30545Y-53377D02*
X30446Y-53377D01*
X30515Y-53328D02*
X30515Y-53172D01*
X30515Y-53172D02*
X30446Y-53172D01*
X30446Y-53328D02*
X30446Y-53172D01*
X30515Y-53328D02*
X30446Y-53328D01*
X30250Y-53289D02*
X30250Y-53211D01*
X30250Y-53211D02*
X30172Y-53211D01*
X30172Y-53289D02*
X30172Y-53211D01*
X30250Y-53289D02*
X30172Y-53289D01*
X30054Y-53486D02*
X30054Y-53368D01*
X30054Y-53368D02*
X29936Y-53368D01*
X29936Y-53486D02*
X29936Y-53368D01*
X30054Y-53486D02*
X29936Y-53486D01*
X29886Y-53496D02*
X29886Y-53407D01*
X29886Y-53407D02*
X29857Y-53407D01*
X29857Y-53496D02*
X29857Y-53407D01*
X29886Y-53496D02*
X29857Y-53496D01*
G54D20*
X30044Y-53024D02*
X30456Y-53024D01*
X30446Y-53476D02*
X29886Y-53476D01*
G54D21*
X29944Y-53427D02*
X29943Y-53432D01*
X29941Y-53437D01*
X29939Y-53442D01*
X29935Y-53446D01*
X29931Y-53450D01*
X29926Y-53452D01*
X29921Y-53454D01*
X29916Y-53454D01*
X29911Y-53454D01*
X29906Y-53452D01*
X29901Y-53450D01*
X29897Y-53447D01*
X29893Y-53442D01*
X29891Y-53438D01*
X29889Y-53432D01*
X29889Y-53427D01*
X29889Y-53422D01*
X29890Y-53417D01*
X29893Y-53412D01*
X29896Y-53408D01*
X29901Y-53405D01*
X29905Y-53402D01*
X29910Y-53400D01*
X29916Y-53400D01*
X29920Y-53400D01*
X29926Y-53401D01*
X29931Y-53404D01*
X29935Y-53407D01*
X29938Y-53411D01*
X29941Y-53416D01*
X29943Y-53421D01*
X29943Y-53427D01*
X29944Y-53427D01*
G54D20*
X29857Y-53387D02*
X29868Y-53386D01*
X29880Y-53384D01*
X29892Y-53382D01*
X29903Y-53378D01*
X29914Y-53374D01*
X29925Y-53368D01*
X29935Y-53362D01*
X29945Y-53354D01*
X29953Y-53346D01*
X29961Y-53338D01*
X29969Y-53328D01*
X29975Y-53318D01*
X29981Y-53307D01*
X29985Y-53296D01*
X29989Y-53285D01*
X29991Y-53273D01*
X29993Y-53261D01*
X29994Y-53250D01*
X29993Y-53239D01*
X29991Y-53227D01*
X29989Y-53215D01*
X29985Y-53204D01*
X29981Y-53193D01*
X29975Y-53182D01*
X29969Y-53172D01*
X29961Y-53162D01*
X29953Y-53154D01*
X29945Y-53146D01*
X29935Y-53138D01*
X29925Y-53132D01*
X29914Y-53126D01*
X29903Y-53122D01*
X29892Y-53118D01*
X29880Y-53116D01*
X29868Y-53114D01*
X29857Y-53113D01*
X30643Y-53113D02*
X30632Y-53114D01*
X30620Y-53116D01*
X30608Y-53118D01*
X30597Y-53122D01*
X30586Y-53126D01*
X30575Y-53132D01*
X30565Y-53138D01*
X30555Y-53146D01*
X30547Y-53154D01*
X30539Y-53162D01*
X30531Y-53172D01*
X30525Y-53182D01*
X30519Y-53193D01*
X30515Y-53204D01*
X30511Y-53215D01*
X30509Y-53227D01*
X30507Y-53239D01*
X30506Y-53250D01*
X30507Y-53261D01*
X30509Y-53273D01*
X30511Y-53285D01*
X30515Y-53296D01*
X30519Y-53307D01*
X30525Y-53318D01*
X30531Y-53328D01*
X30539Y-53338D01*
X30547Y-53346D01*
X30555Y-53354D01*
X30565Y-53362D01*
X30575Y-53368D01*
X30586Y-53374D01*
X30597Y-53378D01*
X30608Y-53382D01*
X30620Y-53384D01*
X30632Y-53386D01*
X30643Y-53387D01*
G54D17*
X36366Y-54237D02*
X36364Y-54252D01*
X36360Y-54267D01*
X36352Y-54280D01*
X36343Y-54292D01*
X36331Y-54302D01*
X36317Y-54309D01*
X36302Y-54314D01*
X36287Y-54315D01*
X36273Y-54314D01*
X36258Y-54310D01*
X36244Y-54303D01*
X36232Y-54293D01*
X36222Y-54281D01*
X36215Y-54268D01*
X36210Y-54253D01*
X36209Y-54238D01*
X36210Y-54223D01*
X36214Y-54208D01*
X36221Y-54195D01*
X36231Y-54183D01*
X36242Y-54173D01*
X36256Y-54165D01*
X36271Y-54160D01*
X36286Y-54159D01*
X36300Y-54160D01*
X36315Y-54164D01*
X36329Y-54171D01*
X36341Y-54180D01*
X36351Y-54192D01*
X36359Y-54205D01*
X36364Y-54220D01*
X36365Y-54235D01*
X36366Y-54237D01*
X36543Y-52407D02*
X36543Y-54493D01*
X36543Y-54493D02*
X34457Y-54493D01*
X34457Y-54493D02*
X34457Y-52407D01*
X34457Y-52407D02*
X36543Y-52407D01*
X44146Y-53809D02*
X42454Y-53809D01*
X42454Y-53809D02*
X42454Y-52391D01*
X42454Y-52391D02*
X44146Y-52391D01*
X44146Y-52391D02*
X44146Y-53809D01*
X44146Y-55659D02*
X42454Y-55659D01*
X42454Y-55659D02*
X42454Y-54241D01*
X42454Y-54241D02*
X44146Y-54241D01*
X44146Y-54241D02*
X44146Y-55659D01*
G54D16*
X16093Y-42592D02*
X15493Y-42592D01*
X15493Y-42364D01*
X15521Y-42306D01*
X15550Y-42278D01*
X15607Y-42249D01*
X15693Y-42249D01*
X15750Y-42278D01*
X15779Y-42306D01*
X15807Y-42364D01*
X15807Y-42592D01*
X15493Y-42049D02*
X15493Y-41678D01*
X15721Y-41878D01*
X15721Y-41792D01*
X15750Y-41735D01*
X15779Y-41706D01*
X15836Y-41678D01*
X15979Y-41678D01*
X16036Y-41706D01*
X16064Y-41735D01*
X16093Y-41792D01*
X16093Y-41964D01*
X16064Y-42021D01*
X16036Y-42049D01*
X15679Y-44829D02*
X15479Y-44829D01*
X15479Y-45143D02*
X15479Y-44543D01*
X15765Y-44543D01*
X16193Y-44829D02*
X15993Y-44829D01*
X15993Y-45143D02*
X15993Y-44543D01*
X16279Y-44543D01*
X16850Y-45086D02*
X16821Y-45114D01*
X16735Y-45143D01*
X16678Y-45143D01*
X16593Y-45114D01*
X16535Y-45057D01*
X16507Y-45000D01*
X16478Y-44886D01*
X16478Y-44800D01*
X16507Y-44686D01*
X16535Y-44629D01*
X16593Y-44571D01*
X16678Y-44543D01*
X16735Y-44543D01*
X16821Y-44571D01*
X16850Y-44600D01*
X16964Y-45200D02*
X17421Y-45200D01*
X17535Y-45114D02*
X17621Y-45143D01*
X17764Y-45143D01*
X17821Y-45114D01*
X17850Y-45086D01*
X17878Y-45029D01*
X17878Y-44971D01*
X17850Y-44914D01*
X17821Y-44886D01*
X17764Y-44857D01*
X17650Y-44829D01*
X17592Y-44800D01*
X17564Y-44771D01*
X17535Y-44714D01*
X17535Y-44657D01*
X17564Y-44600D01*
X17592Y-44571D01*
X17650Y-44543D01*
X17792Y-44543D01*
X17878Y-44571D01*
X18135Y-45143D02*
X18135Y-44543D01*
X18421Y-45143D02*
X18421Y-44543D01*
X18621Y-44971D01*
X18821Y-44543D01*
X18821Y-45143D01*
X42114Y-42014D02*
X42200Y-42043D01*
X42343Y-42043D01*
X42400Y-42014D01*
X42429Y-41986D01*
X42457Y-41929D01*
X42457Y-41871D01*
X42429Y-41814D01*
X42400Y-41786D01*
X42343Y-41757D01*
X42229Y-41729D01*
X42171Y-41700D01*
X42143Y-41671D01*
X42114Y-41614D01*
X42114Y-41557D01*
X42143Y-41500D01*
X42171Y-41471D01*
X42229Y-41443D01*
X42371Y-41443D01*
X42457Y-41471D01*
X42714Y-41729D02*
X42914Y-41729D01*
X43000Y-42043D02*
X42714Y-42043D01*
X42714Y-41443D01*
X43000Y-41443D01*
X43600Y-42043D02*
X43400Y-41757D01*
X43257Y-42043D02*
X43257Y-41443D01*
X43485Y-41443D01*
X43543Y-41471D01*
X43571Y-41500D01*
X43600Y-41557D01*
X43600Y-41643D01*
X43571Y-41700D01*
X43543Y-41729D01*
X43485Y-41757D01*
X43257Y-41757D01*
X43857Y-42043D02*
X43857Y-41443D01*
X44114Y-41871D02*
X44400Y-41871D01*
X44057Y-42043D02*
X44257Y-41443D01*
X44457Y-42043D01*
X44943Y-42043D02*
X44657Y-42043D01*
X44657Y-41443D01*
G54D17*
X33855Y-38412D02*
X33855Y-38012D01*
X34008Y-38012D01*
X34046Y-38031D01*
X34065Y-38050D01*
X34084Y-38088D01*
X34084Y-38145D01*
X34065Y-38183D01*
X34046Y-38202D01*
X34008Y-38221D01*
X33855Y-38221D01*
X34465Y-38412D02*
X34236Y-38412D01*
X34350Y-38412D02*
X34350Y-38012D01*
X34312Y-38069D01*
X34274Y-38107D01*
X34236Y-38126D01*
G54D13*
X35184Y-38012D02*
X35184Y-38298D01*
X35164Y-38355D01*
X35126Y-38393D01*
X35069Y-38412D01*
X35031Y-38412D01*
X35317Y-38012D02*
X35546Y-38012D01*
X35431Y-38412D02*
X35431Y-38012D01*
X35660Y-38298D02*
X35851Y-38298D01*
X35622Y-38412D02*
X35755Y-38012D01*
X35889Y-38412D01*
X36232Y-38031D02*
X36194Y-38012D01*
X36137Y-38012D01*
X36079Y-38031D01*
X36041Y-38069D01*
X36022Y-38107D01*
X36003Y-38183D01*
X36003Y-38240D01*
X36022Y-38317D01*
X36041Y-38355D01*
X36079Y-38393D01*
X36137Y-38412D01*
X36175Y-38412D01*
X36232Y-38393D01*
X36251Y-38374D01*
X36251Y-38240D01*
X36175Y-38240D01*
G54D10*
X37500Y-38021D02*
X37500Y-38236D01*
X37486Y-38279D01*
X37457Y-38307D01*
X37414Y-38321D01*
X37386Y-38321D01*
X37643Y-38321D02*
X37643Y-38021D01*
X37758Y-38021D01*
X37786Y-38036D01*
X37801Y-38050D01*
X37815Y-38079D01*
X37815Y-38121D01*
X37801Y-38150D01*
X37786Y-38164D01*
X37758Y-38179D01*
X37643Y-38179D01*
X37929Y-38050D02*
X37943Y-38036D01*
X37972Y-38021D01*
X38043Y-38021D01*
X38072Y-38036D01*
X38086Y-38050D01*
X38101Y-38079D01*
X38101Y-38107D01*
X38086Y-38150D01*
X37915Y-38321D01*
X38101Y-38321D01*
X37179Y-39764D02*
X37279Y-39764D01*
X37322Y-39921D02*
X37179Y-39921D01*
X37179Y-39621D01*
X37322Y-39621D01*
X37622Y-39921D02*
X37522Y-39779D01*
X37450Y-39921D02*
X37450Y-39621D01*
X37565Y-39621D01*
X37593Y-39636D01*
X37608Y-39650D01*
X37622Y-39679D01*
X37622Y-39721D01*
X37608Y-39750D01*
X37593Y-39764D01*
X37565Y-39779D01*
X37450Y-39779D01*
X37736Y-39836D02*
X37879Y-39836D01*
X37708Y-39921D02*
X37808Y-39621D01*
X37908Y-39921D01*
X37993Y-39907D02*
X38036Y-39921D01*
X38107Y-39921D01*
X38136Y-39907D01*
X38150Y-39893D01*
X38165Y-39864D01*
X38165Y-39836D01*
X38150Y-39807D01*
X38136Y-39793D01*
X38107Y-39779D01*
X38050Y-39764D01*
X38022Y-39750D01*
X38007Y-39736D01*
X37993Y-39707D01*
X37993Y-39679D01*
X38007Y-39650D01*
X38022Y-39636D01*
X38050Y-39621D01*
X38122Y-39621D01*
X38165Y-39636D01*
X38293Y-39764D02*
X38393Y-39764D01*
X38436Y-39921D02*
X38293Y-39921D01*
X38293Y-39621D01*
X38436Y-39621D01*
X39500Y-38021D02*
X39500Y-38236D01*
X39486Y-38279D01*
X39457Y-38307D01*
X39414Y-38321D01*
X39386Y-38321D01*
X39643Y-38321D02*
X39643Y-38021D01*
X39758Y-38021D01*
X39786Y-38036D01*
X39801Y-38050D01*
X39815Y-38079D01*
X39815Y-38121D01*
X39801Y-38150D01*
X39786Y-38164D01*
X39758Y-38179D01*
X39643Y-38179D01*
X40101Y-38321D02*
X39929Y-38321D01*
X40015Y-38321D02*
X40015Y-38021D01*
X39986Y-38064D01*
X39958Y-38093D01*
X39929Y-38107D01*
X39272Y-39571D02*
X39443Y-39571D01*
X39357Y-39871D02*
X39357Y-39571D01*
X39543Y-39714D02*
X39643Y-39714D01*
X39686Y-39871D02*
X39543Y-39871D01*
X39543Y-39571D01*
X39686Y-39571D01*
X39800Y-39857D02*
X39843Y-39871D01*
X39914Y-39871D01*
X39943Y-39857D01*
X39957Y-39843D01*
X39972Y-39814D01*
X39972Y-39786D01*
X39957Y-39757D01*
X39943Y-39743D01*
X39914Y-39729D01*
X39857Y-39714D01*
X39829Y-39700D01*
X39814Y-39686D01*
X39800Y-39657D01*
X39800Y-39629D01*
X39814Y-39600D01*
X39829Y-39586D01*
X39857Y-39571D01*
X39929Y-39571D01*
X39972Y-39586D01*
X40058Y-39571D02*
X40229Y-39571D01*
X40143Y-39871D02*
X40143Y-39571D01*
X45814Y-54436D02*
X45829Y-54393D01*
X45843Y-54378D01*
X45871Y-54364D01*
X45914Y-54364D01*
X45943Y-54378D01*
X45957Y-54393D01*
X45971Y-54421D01*
X45971Y-54536D01*
X45671Y-54536D01*
X45671Y-54436D01*
X45686Y-54407D01*
X45700Y-54393D01*
X45729Y-54378D01*
X45757Y-54378D01*
X45786Y-54393D01*
X45800Y-54407D01*
X45814Y-54436D01*
X45814Y-54536D01*
X45671Y-54278D02*
X45671Y-54107D01*
X45971Y-54193D02*
X45671Y-54193D01*
X45971Y-53849D02*
X45971Y-54021D01*
X45971Y-53935D02*
X45671Y-53935D01*
X45714Y-53964D01*
X45743Y-53992D01*
X45757Y-54021D01*
X47421Y-54864D02*
X47621Y-54864D01*
X47307Y-54935D02*
X47521Y-55007D01*
X47521Y-54821D01*
X47593Y-54707D02*
X47607Y-54692D01*
X47621Y-54707D01*
X47607Y-54721D01*
X47593Y-54707D01*
X47621Y-54707D01*
X47321Y-54421D02*
X47321Y-54564D01*
X47464Y-54578D01*
X47450Y-54564D01*
X47436Y-54535D01*
X47436Y-54464D01*
X47450Y-54435D01*
X47464Y-54421D01*
X47493Y-54406D01*
X47564Y-54406D01*
X47593Y-54421D01*
X47607Y-54435D01*
X47621Y-54464D01*
X47621Y-54535D01*
X47607Y-54564D01*
X47593Y-54578D01*
X47507Y-54278D02*
X47507Y-54049D01*
X47321Y-53778D02*
X47321Y-53835D01*
X47336Y-53864D01*
X47350Y-53878D01*
X47393Y-53907D01*
X47450Y-53921D01*
X47564Y-53921D01*
X47593Y-53907D01*
X47607Y-53892D01*
X47621Y-53864D01*
X47621Y-53807D01*
X47607Y-53778D01*
X47593Y-53764D01*
X47564Y-53749D01*
X47493Y-53749D01*
X47464Y-53764D01*
X47450Y-53778D01*
X47436Y-53807D01*
X47436Y-53864D01*
X47450Y-53892D01*
X47464Y-53907D01*
X47493Y-53921D01*
X47321Y-53663D02*
X47621Y-53563D01*
X47321Y-53463D01*
G54D13*
X30676Y-40562D02*
X30943Y-40962D01*
X30943Y-40562D02*
X30676Y-40962D01*
X31305Y-40962D02*
X31076Y-40962D01*
X31190Y-40962D02*
X31190Y-40562D01*
X31152Y-40619D01*
X31114Y-40657D01*
X31076Y-40676D01*
X29808Y-40112D02*
X29579Y-40112D01*
X29693Y-40112D02*
X29693Y-39712D01*
X29655Y-39769D01*
X29617Y-39807D01*
X29579Y-39826D01*
X30036Y-39883D02*
X29998Y-39864D01*
X29979Y-39845D01*
X29960Y-39807D01*
X29960Y-39788D01*
X29979Y-39750D01*
X29998Y-39731D01*
X30036Y-39712D01*
X30113Y-39712D01*
X30151Y-39731D01*
X30170Y-39750D01*
X30189Y-39788D01*
X30189Y-39807D01*
X30170Y-39845D01*
X30151Y-39864D01*
X30113Y-39883D01*
X30036Y-39883D01*
X29998Y-39902D01*
X29979Y-39921D01*
X29960Y-39960D01*
X29960Y-40036D01*
X29979Y-40074D01*
X29998Y-40093D01*
X30036Y-40112D01*
X30113Y-40112D01*
X30151Y-40093D01*
X30170Y-40074D01*
X30189Y-40036D01*
X30189Y-39960D01*
X30170Y-39921D01*
X30151Y-39902D01*
X30113Y-39883D01*
X30360Y-40074D02*
X30379Y-40093D01*
X30360Y-40112D01*
X30341Y-40093D01*
X30360Y-40074D01*
X30360Y-40112D01*
X30722Y-39845D02*
X30722Y-40112D01*
X30626Y-39693D02*
X30531Y-39979D01*
X30779Y-39979D01*
X30893Y-39712D02*
X31141Y-39712D01*
X31007Y-39864D01*
X31065Y-39864D01*
X31103Y-39883D01*
X31122Y-39902D01*
X31141Y-39940D01*
X31141Y-40036D01*
X31122Y-40074D01*
X31103Y-40093D01*
X31065Y-40112D01*
X30950Y-40112D01*
X30912Y-40093D01*
X30893Y-40074D01*
X31293Y-39750D02*
X31312Y-39731D01*
X31350Y-39712D01*
X31446Y-39712D01*
X31484Y-39731D01*
X31503Y-39750D01*
X31522Y-39788D01*
X31522Y-39826D01*
X31503Y-39883D01*
X31274Y-40112D01*
X31522Y-40112D01*
X31693Y-40112D02*
X31693Y-39712D01*
X31827Y-39998D01*
X31960Y-39712D01*
X31960Y-40112D01*
X32150Y-40112D02*
X32150Y-39712D01*
X32150Y-39902D02*
X32379Y-39902D01*
X32379Y-40112D02*
X32379Y-39712D01*
X32531Y-39845D02*
X32741Y-39845D01*
X32531Y-40112D01*
X32741Y-40112D01*
G54D22*
X32663Y-54165D02*
X32530Y-54225D01*
X32663Y-54268D02*
X32383Y-54268D01*
X32383Y-54200D01*
X32397Y-54182D01*
X32410Y-54174D01*
X32437Y-54165D01*
X32477Y-54165D01*
X32503Y-54174D01*
X32517Y-54182D01*
X32530Y-54200D01*
X32530Y-54268D01*
X32663Y-53994D02*
X32663Y-54097D01*
X32663Y-54045D02*
X32383Y-54045D01*
X32423Y-54062D01*
X32450Y-54080D01*
X32463Y-54097D01*
X32503Y-53891D02*
X32490Y-53909D01*
X32477Y-53917D01*
X32450Y-53926D01*
X32437Y-53926D01*
X32410Y-53917D01*
X32397Y-53909D01*
X32383Y-53891D01*
X32383Y-53857D01*
X32397Y-53840D01*
X32410Y-53831D01*
X32437Y-53823D01*
X32450Y-53823D01*
X32477Y-53831D01*
X32490Y-53840D01*
X32503Y-53857D01*
X32503Y-53891D01*
X32517Y-53909D01*
X32530Y-53917D01*
X32557Y-53926D01*
X32610Y-53926D01*
X32637Y-53917D01*
X32650Y-53909D01*
X32663Y-53891D01*
X32663Y-53857D01*
X32650Y-53840D01*
X32637Y-53831D01*
X32610Y-53823D01*
X32557Y-53823D01*
X32530Y-53831D01*
X32517Y-53840D01*
X32503Y-53857D01*
X34735Y-51563D02*
X34675Y-51430D01*
X34632Y-51563D02*
X34632Y-51283D01*
X34700Y-51283D01*
X34718Y-51297D01*
X34726Y-51310D01*
X34735Y-51337D01*
X34735Y-51377D01*
X34726Y-51403D01*
X34718Y-51417D01*
X34700Y-51430D01*
X34632Y-51430D01*
X34906Y-51563D02*
X34803Y-51563D01*
X34855Y-51563D02*
X34855Y-51283D01*
X34838Y-51323D01*
X34820Y-51350D01*
X34803Y-51363D01*
X34966Y-51283D02*
X35086Y-51283D01*
X35009Y-51563D01*
X42235Y-45663D02*
X42175Y-45530D01*
X42132Y-45663D02*
X42132Y-45383D01*
X42200Y-45383D01*
X42218Y-45397D01*
X42226Y-45410D01*
X42235Y-45437D01*
X42235Y-45477D01*
X42226Y-45503D01*
X42218Y-45517D01*
X42200Y-45530D01*
X42132Y-45530D01*
X42406Y-45663D02*
X42303Y-45663D01*
X42355Y-45663D02*
X42355Y-45383D01*
X42338Y-45423D01*
X42320Y-45450D01*
X42303Y-45463D01*
X42560Y-45383D02*
X42526Y-45383D01*
X42509Y-45397D01*
X42500Y-45410D01*
X42483Y-45450D01*
X42474Y-45503D01*
X42474Y-45610D01*
X42483Y-45637D01*
X42491Y-45650D01*
X42509Y-45663D01*
X42543Y-45663D01*
X42560Y-45650D01*
X42569Y-45637D01*
X42577Y-45610D01*
X42577Y-45543D01*
X42569Y-45517D01*
X42560Y-45503D01*
X42543Y-45490D01*
X42509Y-45490D01*
X42491Y-45503D01*
X42483Y-45517D01*
X42474Y-45543D01*
X31635Y-52913D02*
X31575Y-52780D01*
X31532Y-52913D02*
X31532Y-52633D01*
X31600Y-52633D01*
X31618Y-52647D01*
X31626Y-52660D01*
X31635Y-52687D01*
X31635Y-52727D01*
X31626Y-52753D01*
X31618Y-52767D01*
X31600Y-52780D01*
X31532Y-52780D01*
X31806Y-52913D02*
X31703Y-52913D01*
X31755Y-52913D02*
X31755Y-52633D01*
X31738Y-52673D01*
X31720Y-52700D01*
X31703Y-52713D01*
X31960Y-52727D02*
X31960Y-52913D01*
X31917Y-52620D02*
X31874Y-52820D01*
X31986Y-52820D01*
X31585Y-54882D02*
X31525Y-54749D01*
X31482Y-54882D02*
X31482Y-54602D01*
X31550Y-54602D01*
X31568Y-54616D01*
X31576Y-54629D01*
X31585Y-54656D01*
X31585Y-54696D01*
X31576Y-54722D01*
X31568Y-54736D01*
X31550Y-54749D01*
X31482Y-54749D01*
X31756Y-54882D02*
X31653Y-54882D01*
X31705Y-54882D02*
X31705Y-54602D01*
X31688Y-54642D01*
X31670Y-54669D01*
X31653Y-54682D01*
X31816Y-54602D02*
X31927Y-54602D01*
X31867Y-54709D01*
X31893Y-54709D01*
X31910Y-54722D01*
X31919Y-54736D01*
X31927Y-54762D01*
X31927Y-54829D01*
X31919Y-54856D01*
X31910Y-54869D01*
X31893Y-54882D01*
X31841Y-54882D01*
X31824Y-54869D01*
X31816Y-54856D01*
X40985Y-41963D02*
X40925Y-41830D01*
X40882Y-41963D02*
X40882Y-41683D01*
X40950Y-41683D01*
X40968Y-41697D01*
X40976Y-41710D01*
X40985Y-41737D01*
X40985Y-41777D01*
X40976Y-41803D01*
X40968Y-41817D01*
X40950Y-41830D01*
X40882Y-41830D01*
X41156Y-41963D02*
X41053Y-41963D01*
X41105Y-41963D02*
X41105Y-41683D01*
X41088Y-41723D01*
X41070Y-41750D01*
X41053Y-41763D01*
X41224Y-41710D02*
X41233Y-41697D01*
X41250Y-41683D01*
X41293Y-41683D01*
X41310Y-41697D01*
X41319Y-41710D01*
X41327Y-41737D01*
X41327Y-41763D01*
X41319Y-41803D01*
X41216Y-41963D01*
X41327Y-41963D01*
X24235Y-44863D02*
X24175Y-44730D01*
X24132Y-44863D02*
X24132Y-44583D01*
X24200Y-44583D01*
X24218Y-44597D01*
X24226Y-44610D01*
X24235Y-44637D01*
X24235Y-44677D01*
X24226Y-44703D01*
X24218Y-44717D01*
X24200Y-44730D01*
X24132Y-44730D01*
X24406Y-44863D02*
X24303Y-44863D01*
X24355Y-44863D02*
X24355Y-44583D01*
X24338Y-44623D01*
X24320Y-44650D01*
X24303Y-44663D01*
X24577Y-44863D02*
X24474Y-44863D01*
X24526Y-44863D02*
X24526Y-44583D01*
X24509Y-44623D01*
X24491Y-44650D01*
X24474Y-44663D01*
X39435Y-46663D02*
X39375Y-46530D01*
X39332Y-46663D02*
X39332Y-46383D01*
X39400Y-46383D01*
X39418Y-46397D01*
X39426Y-46410D01*
X39435Y-46437D01*
X39435Y-46477D01*
X39426Y-46503D01*
X39418Y-46517D01*
X39400Y-46530D01*
X39332Y-46530D01*
X39606Y-46663D02*
X39503Y-46663D01*
X39555Y-46663D02*
X39555Y-46383D01*
X39538Y-46423D01*
X39520Y-46450D01*
X39503Y-46463D01*
X39717Y-46383D02*
X39734Y-46383D01*
X39751Y-46397D01*
X39760Y-46410D01*
X39769Y-46437D01*
X39777Y-46490D01*
X39777Y-46557D01*
X39769Y-46610D01*
X39760Y-46637D01*
X39751Y-46650D01*
X39734Y-46663D01*
X39717Y-46663D01*
X39700Y-46650D01*
X39691Y-46637D01*
X39683Y-46610D01*
X39674Y-46557D01*
X39674Y-46490D01*
X39683Y-46437D01*
X39691Y-46410D01*
X39700Y-46397D01*
X39717Y-46383D01*
X39471Y-47413D02*
X39411Y-47280D01*
X39368Y-47413D02*
X39368Y-47133D01*
X39436Y-47133D01*
X39454Y-47147D01*
X39462Y-47160D01*
X39471Y-47187D01*
X39471Y-47227D01*
X39462Y-47253D01*
X39454Y-47267D01*
X39436Y-47280D01*
X39368Y-47280D01*
X39556Y-47413D02*
X39591Y-47413D01*
X39608Y-47400D01*
X39616Y-47387D01*
X39634Y-47347D01*
X39642Y-47293D01*
X39642Y-47187D01*
X39634Y-47160D01*
X39625Y-47147D01*
X39608Y-47133D01*
X39574Y-47133D01*
X39556Y-47147D01*
X39548Y-47160D01*
X39539Y-47187D01*
X39539Y-47253D01*
X39548Y-47280D01*
X39556Y-47293D01*
X39574Y-47307D01*
X39608Y-47307D01*
X39625Y-47293D01*
X39634Y-47280D01*
X39642Y-47253D01*
X32813Y-39429D02*
X32680Y-39489D01*
X32813Y-39532D02*
X32533Y-39532D01*
X32533Y-39464D01*
X32547Y-39446D01*
X32560Y-39438D01*
X32587Y-39429D01*
X32627Y-39429D01*
X32653Y-39438D01*
X32667Y-39446D01*
X32680Y-39464D01*
X32680Y-39532D01*
X32653Y-39326D02*
X32640Y-39344D01*
X32627Y-39352D01*
X32600Y-39361D01*
X32587Y-39361D01*
X32560Y-39352D01*
X32547Y-39344D01*
X32533Y-39326D01*
X32533Y-39292D01*
X32547Y-39275D01*
X32560Y-39266D01*
X32587Y-39258D01*
X32600Y-39258D01*
X32627Y-39266D01*
X32640Y-39275D01*
X32653Y-39292D01*
X32653Y-39326D01*
X32667Y-39344D01*
X32680Y-39352D01*
X32707Y-39361D01*
X32760Y-39361D01*
X32787Y-39352D01*
X32800Y-39344D01*
X32813Y-39326D01*
X32813Y-39292D01*
X32800Y-39275D01*
X32787Y-39266D01*
X32760Y-39258D01*
X32707Y-39258D01*
X32680Y-39266D01*
X32667Y-39275D01*
X32653Y-39292D01*
X30813Y-39429D02*
X30680Y-39489D01*
X30813Y-39532D02*
X30533Y-39532D01*
X30533Y-39464D01*
X30547Y-39446D01*
X30560Y-39438D01*
X30587Y-39429D01*
X30627Y-39429D01*
X30653Y-39438D01*
X30667Y-39446D01*
X30680Y-39464D01*
X30680Y-39532D01*
X30533Y-39369D02*
X30533Y-39249D01*
X30813Y-39326D01*
X29813Y-39429D02*
X29680Y-39489D01*
X29813Y-39532D02*
X29533Y-39532D01*
X29533Y-39464D01*
X29547Y-39446D01*
X29560Y-39438D01*
X29587Y-39429D01*
X29627Y-39429D01*
X29653Y-39438D01*
X29667Y-39446D01*
X29680Y-39464D01*
X29680Y-39532D01*
X29533Y-39275D02*
X29533Y-39309D01*
X29547Y-39326D01*
X29560Y-39335D01*
X29600Y-39352D01*
X29653Y-39361D01*
X29760Y-39361D01*
X29787Y-39352D01*
X29800Y-39344D01*
X29813Y-39326D01*
X29813Y-39292D01*
X29800Y-39275D01*
X29787Y-39266D01*
X29760Y-39258D01*
X29693Y-39258D01*
X29667Y-39266D01*
X29653Y-39275D01*
X29640Y-39292D01*
X29640Y-39326D01*
X29653Y-39344D01*
X29667Y-39352D01*
X29693Y-39361D01*
X28813Y-39429D02*
X28680Y-39489D01*
X28813Y-39532D02*
X28533Y-39532D01*
X28533Y-39464D01*
X28547Y-39446D01*
X28560Y-39438D01*
X28587Y-39429D01*
X28627Y-39429D01*
X28653Y-39438D01*
X28667Y-39446D01*
X28680Y-39464D01*
X28680Y-39532D01*
X28533Y-39266D02*
X28533Y-39352D01*
X28667Y-39361D01*
X28653Y-39352D01*
X28640Y-39335D01*
X28640Y-39292D01*
X28653Y-39275D01*
X28667Y-39266D01*
X28693Y-39258D01*
X28760Y-39258D01*
X28787Y-39266D01*
X28800Y-39275D01*
X28813Y-39292D01*
X28813Y-39335D01*
X28800Y-39352D01*
X28787Y-39361D01*
X27813Y-39429D02*
X27680Y-39489D01*
X27813Y-39532D02*
X27533Y-39532D01*
X27533Y-39464D01*
X27547Y-39446D01*
X27560Y-39438D01*
X27587Y-39429D01*
X27627Y-39429D01*
X27653Y-39438D01*
X27667Y-39446D01*
X27680Y-39464D01*
X27680Y-39532D01*
X27627Y-39275D02*
X27813Y-39275D01*
X27520Y-39318D02*
X27720Y-39361D01*
X27720Y-39249D01*
X42863Y-48779D02*
X42730Y-48839D01*
X42863Y-48882D02*
X42583Y-48882D01*
X42583Y-48814D01*
X42597Y-48796D01*
X42610Y-48788D01*
X42637Y-48779D01*
X42677Y-48779D01*
X42703Y-48788D01*
X42717Y-48796D01*
X42730Y-48814D01*
X42730Y-48882D01*
X42583Y-48719D02*
X42583Y-48608D01*
X42690Y-48668D01*
X42690Y-48642D01*
X42703Y-48625D01*
X42717Y-48616D01*
X42743Y-48608D01*
X42810Y-48608D01*
X42837Y-48616D01*
X42850Y-48625D01*
X42863Y-48642D01*
X42863Y-48694D01*
X42850Y-48711D01*
X42837Y-48719D01*
X43863Y-48029D02*
X43730Y-48089D01*
X43863Y-48132D02*
X43583Y-48132D01*
X43583Y-48064D01*
X43597Y-48046D01*
X43610Y-48038D01*
X43637Y-48029D01*
X43677Y-48029D01*
X43703Y-48038D01*
X43717Y-48046D01*
X43730Y-48064D01*
X43730Y-48132D01*
X43610Y-47961D02*
X43597Y-47952D01*
X43583Y-47935D01*
X43583Y-47892D01*
X43597Y-47875D01*
X43610Y-47866D01*
X43637Y-47858D01*
X43663Y-47858D01*
X43703Y-47866D01*
X43863Y-47969D01*
X43863Y-47858D01*
X45121Y-44913D02*
X45061Y-44780D01*
X45018Y-44913D02*
X45018Y-44633D01*
X45086Y-44633D01*
X45104Y-44647D01*
X45112Y-44660D01*
X45121Y-44687D01*
X45121Y-44727D01*
X45112Y-44753D01*
X45104Y-44767D01*
X45086Y-44780D01*
X45018Y-44780D01*
X45292Y-44913D02*
X45189Y-44913D01*
X45241Y-44913D02*
X45241Y-44633D01*
X45224Y-44673D01*
X45206Y-44700D01*
X45189Y-44713D01*
X27085Y-43187D02*
X27076Y-43200D01*
X27050Y-43213D01*
X27033Y-43213D01*
X27008Y-43200D01*
X26990Y-43173D01*
X26982Y-43147D01*
X26973Y-43093D01*
X26973Y-43053D01*
X26982Y-43000D01*
X26990Y-42973D01*
X27008Y-42947D01*
X27033Y-42933D01*
X27050Y-42933D01*
X27076Y-42947D01*
X27085Y-42960D01*
X27153Y-42960D02*
X27162Y-42947D01*
X27179Y-42933D01*
X27222Y-42933D01*
X27239Y-42947D01*
X27248Y-42960D01*
X27256Y-42987D01*
X27256Y-43013D01*
X27248Y-43053D01*
X27145Y-43213D01*
X27256Y-43213D01*
X27316Y-42933D02*
X27427Y-42933D01*
X27367Y-43040D01*
X27393Y-43040D01*
X27410Y-43053D01*
X27419Y-43067D01*
X27427Y-43093D01*
X27427Y-43160D01*
X27419Y-43187D01*
X27410Y-43200D01*
X27393Y-43213D01*
X27341Y-43213D01*
X27324Y-43200D01*
X27316Y-43187D01*
X39435Y-54187D02*
X39426Y-54200D01*
X39400Y-54213D01*
X39383Y-54213D01*
X39358Y-54200D01*
X39340Y-54173D01*
X39332Y-54147D01*
X39323Y-54093D01*
X39323Y-54053D01*
X39332Y-54000D01*
X39340Y-53973D01*
X39358Y-53947D01*
X39383Y-53933D01*
X39400Y-53933D01*
X39426Y-53947D01*
X39435Y-53960D01*
X39503Y-53960D02*
X39512Y-53947D01*
X39529Y-53933D01*
X39572Y-53933D01*
X39589Y-53947D01*
X39598Y-53960D01*
X39606Y-53987D01*
X39606Y-54013D01*
X39598Y-54053D01*
X39495Y-54213D01*
X39606Y-54213D01*
X39674Y-53960D02*
X39683Y-53947D01*
X39700Y-53933D01*
X39743Y-53933D01*
X39760Y-53947D01*
X39769Y-53960D01*
X39777Y-53987D01*
X39777Y-54013D01*
X39769Y-54053D01*
X39666Y-54213D01*
X39777Y-54213D01*
X39435Y-54937D02*
X39426Y-54950D01*
X39400Y-54963D01*
X39383Y-54963D01*
X39358Y-54950D01*
X39340Y-54923D01*
X39332Y-54897D01*
X39323Y-54843D01*
X39323Y-54803D01*
X39332Y-54750D01*
X39340Y-54723D01*
X39358Y-54697D01*
X39383Y-54683D01*
X39400Y-54683D01*
X39426Y-54697D01*
X39435Y-54710D01*
X39503Y-54710D02*
X39512Y-54697D01*
X39529Y-54683D01*
X39572Y-54683D01*
X39589Y-54697D01*
X39598Y-54710D01*
X39606Y-54737D01*
X39606Y-54763D01*
X39598Y-54803D01*
X39495Y-54963D01*
X39606Y-54963D01*
X39777Y-54963D02*
X39674Y-54963D01*
X39726Y-54963D02*
X39726Y-54683D01*
X39709Y-54723D01*
X39691Y-54750D01*
X39674Y-54763D01*
X34537Y-42615D02*
X34550Y-42624D01*
X34563Y-42650D01*
X34563Y-42667D01*
X34550Y-42692D01*
X34523Y-42710D01*
X34497Y-42718D01*
X34443Y-42727D01*
X34403Y-42727D01*
X34350Y-42718D01*
X34323Y-42710D01*
X34297Y-42692D01*
X34283Y-42667D01*
X34283Y-42650D01*
X34297Y-42624D01*
X34310Y-42615D01*
X34310Y-42547D02*
X34297Y-42538D01*
X34283Y-42521D01*
X34283Y-42478D01*
X34297Y-42461D01*
X34310Y-42452D01*
X34337Y-42444D01*
X34363Y-42444D01*
X34403Y-42452D01*
X34563Y-42555D01*
X34563Y-42444D01*
X34283Y-42333D02*
X34283Y-42316D01*
X34297Y-42299D01*
X34310Y-42290D01*
X34337Y-42281D01*
X34390Y-42273D01*
X34457Y-42273D01*
X34510Y-42281D01*
X34537Y-42290D01*
X34550Y-42299D01*
X34563Y-42316D01*
X34563Y-42333D01*
X34550Y-42350D01*
X34537Y-42359D01*
X34510Y-42367D01*
X34457Y-42376D01*
X34390Y-42376D01*
X34337Y-42367D01*
X34310Y-42359D01*
X34297Y-42350D01*
X34283Y-42333D01*
X32337Y-51215D02*
X32350Y-51224D01*
X32363Y-51250D01*
X32363Y-51267D01*
X32350Y-51292D01*
X32323Y-51310D01*
X32297Y-51318D01*
X32243Y-51327D01*
X32203Y-51327D01*
X32150Y-51318D01*
X32123Y-51310D01*
X32097Y-51292D01*
X32083Y-51267D01*
X32083Y-51250D01*
X32097Y-51224D01*
X32110Y-51215D01*
X32363Y-51044D02*
X32363Y-51147D01*
X32363Y-51095D02*
X32083Y-51095D01*
X32123Y-51112D01*
X32150Y-51130D01*
X32163Y-51147D01*
X32363Y-50959D02*
X32363Y-50924D01*
X32350Y-50907D01*
X32337Y-50899D01*
X32297Y-50881D01*
X32243Y-50873D01*
X32137Y-50873D01*
X32110Y-50881D01*
X32097Y-50890D01*
X32083Y-50907D01*
X32083Y-50941D01*
X32097Y-50959D01*
X32110Y-50967D01*
X32137Y-50976D01*
X32203Y-50976D01*
X32230Y-50967D01*
X32243Y-50959D01*
X32257Y-50941D01*
X32257Y-50907D01*
X32243Y-50890D01*
X32230Y-50881D01*
X32203Y-50873D01*
X29287Y-43465D02*
X29300Y-43474D01*
X29313Y-43500D01*
X29313Y-43517D01*
X29300Y-43542D01*
X29273Y-43560D01*
X29247Y-43568D01*
X29193Y-43577D01*
X29153Y-43577D01*
X29100Y-43568D01*
X29073Y-43560D01*
X29047Y-43542D01*
X29033Y-43517D01*
X29033Y-43500D01*
X29047Y-43474D01*
X29060Y-43465D01*
X29313Y-43294D02*
X29313Y-43397D01*
X29313Y-43345D02*
X29033Y-43345D01*
X29073Y-43362D01*
X29100Y-43380D01*
X29113Y-43397D01*
X29153Y-43191D02*
X29140Y-43209D01*
X29127Y-43217D01*
X29100Y-43226D01*
X29087Y-43226D01*
X29060Y-43217D01*
X29047Y-43209D01*
X29033Y-43191D01*
X29033Y-43157D01*
X29047Y-43140D01*
X29060Y-43131D01*
X29087Y-43123D01*
X29100Y-43123D01*
X29127Y-43131D01*
X29140Y-43140D01*
X29153Y-43157D01*
X29153Y-43191D01*
X29167Y-43209D01*
X29180Y-43217D01*
X29207Y-43226D01*
X29260Y-43226D01*
X29287Y-43217D01*
X29300Y-43209D01*
X29313Y-43191D01*
X29313Y-43157D01*
X29300Y-43140D01*
X29287Y-43131D01*
X29260Y-43123D01*
X29207Y-43123D01*
X29180Y-43131D01*
X29167Y-43140D01*
X29153Y-43157D01*
X31887Y-43465D02*
X31900Y-43474D01*
X31913Y-43500D01*
X31913Y-43517D01*
X31900Y-43542D01*
X31873Y-43560D01*
X31847Y-43568D01*
X31793Y-43577D01*
X31753Y-43577D01*
X31700Y-43568D01*
X31673Y-43560D01*
X31647Y-43542D01*
X31633Y-43517D01*
X31633Y-43500D01*
X31647Y-43474D01*
X31660Y-43465D01*
X31913Y-43294D02*
X31913Y-43397D01*
X31913Y-43345D02*
X31633Y-43345D01*
X31673Y-43362D01*
X31700Y-43380D01*
X31713Y-43397D01*
X31633Y-43234D02*
X31633Y-43114D01*
X31913Y-43191D01*
X27435Y-48587D02*
X27426Y-48600D01*
X27400Y-48613D01*
X27383Y-48613D01*
X27358Y-48600D01*
X27340Y-48573D01*
X27332Y-48547D01*
X27323Y-48493D01*
X27323Y-48453D01*
X27332Y-48400D01*
X27340Y-48373D01*
X27358Y-48347D01*
X27383Y-48333D01*
X27400Y-48333D01*
X27426Y-48347D01*
X27435Y-48360D01*
X27606Y-48613D02*
X27503Y-48613D01*
X27555Y-48613D02*
X27555Y-48333D01*
X27538Y-48373D01*
X27520Y-48400D01*
X27503Y-48413D01*
X27760Y-48333D02*
X27726Y-48333D01*
X27709Y-48347D01*
X27700Y-48360D01*
X27683Y-48400D01*
X27674Y-48453D01*
X27674Y-48560D01*
X27683Y-48587D01*
X27691Y-48600D01*
X27709Y-48613D01*
X27743Y-48613D01*
X27760Y-48600D01*
X27769Y-48587D01*
X27777Y-48560D01*
X27777Y-48493D01*
X27769Y-48467D01*
X27760Y-48453D01*
X27743Y-48440D01*
X27709Y-48440D01*
X27691Y-48453D01*
X27683Y-48467D01*
X27674Y-48493D01*
X30687Y-43515D02*
X30700Y-43524D01*
X30713Y-43550D01*
X30713Y-43567D01*
X30700Y-43592D01*
X30673Y-43610D01*
X30647Y-43618D01*
X30593Y-43627D01*
X30553Y-43627D01*
X30500Y-43618D01*
X30473Y-43610D01*
X30447Y-43592D01*
X30433Y-43567D01*
X30433Y-43550D01*
X30447Y-43524D01*
X30460Y-43515D01*
X30713Y-43344D02*
X30713Y-43447D01*
X30713Y-43395D02*
X30433Y-43395D01*
X30473Y-43412D01*
X30500Y-43430D01*
X30513Y-43447D01*
X30433Y-43181D02*
X30433Y-43267D01*
X30567Y-43276D01*
X30553Y-43267D01*
X30540Y-43250D01*
X30540Y-43207D01*
X30553Y-43190D01*
X30567Y-43181D01*
X30593Y-43173D01*
X30660Y-43173D01*
X30687Y-43181D01*
X30700Y-43190D01*
X30713Y-43207D01*
X30713Y-43250D01*
X30700Y-43267D01*
X30687Y-43276D01*
X40635Y-55587D02*
X40626Y-55600D01*
X40600Y-55613D01*
X40583Y-55613D01*
X40558Y-55600D01*
X40540Y-55573D01*
X40532Y-55547D01*
X40523Y-55493D01*
X40523Y-55453D01*
X40532Y-55400D01*
X40540Y-55373D01*
X40558Y-55347D01*
X40583Y-55333D01*
X40600Y-55333D01*
X40626Y-55347D01*
X40635Y-55360D01*
X40806Y-55613D02*
X40703Y-55613D01*
X40755Y-55613D02*
X40755Y-55333D01*
X40738Y-55373D01*
X40720Y-55400D01*
X40703Y-55413D01*
X40960Y-55427D02*
X40960Y-55613D01*
X40917Y-55320D02*
X40874Y-55520D01*
X40986Y-55520D01*
X38587Y-43115D02*
X38600Y-43124D01*
X38613Y-43150D01*
X38613Y-43167D01*
X38600Y-43192D01*
X38573Y-43210D01*
X38547Y-43218D01*
X38493Y-43227D01*
X38453Y-43227D01*
X38400Y-43218D01*
X38373Y-43210D01*
X38347Y-43192D01*
X38333Y-43167D01*
X38333Y-43150D01*
X38347Y-43124D01*
X38360Y-43115D01*
X38613Y-42944D02*
X38613Y-43047D01*
X38613Y-42995D02*
X38333Y-42995D01*
X38373Y-43012D01*
X38400Y-43030D01*
X38413Y-43047D01*
X38333Y-42884D02*
X38333Y-42773D01*
X38440Y-42833D01*
X38440Y-42807D01*
X38453Y-42790D01*
X38467Y-42781D01*
X38493Y-42773D01*
X38560Y-42773D01*
X38587Y-42781D01*
X38600Y-42790D01*
X38613Y-42807D01*
X38613Y-42859D01*
X38600Y-42876D01*
X38587Y-42884D01*
X28235Y-47837D02*
X28226Y-47850D01*
X28200Y-47863D01*
X28183Y-47863D01*
X28158Y-47850D01*
X28140Y-47823D01*
X28132Y-47797D01*
X28123Y-47743D01*
X28123Y-47703D01*
X28132Y-47650D01*
X28140Y-47623D01*
X28158Y-47597D01*
X28183Y-47583D01*
X28200Y-47583D01*
X28226Y-47597D01*
X28235Y-47610D01*
X28406Y-47863D02*
X28303Y-47863D01*
X28355Y-47863D02*
X28355Y-47583D01*
X28338Y-47623D01*
X28320Y-47650D01*
X28303Y-47663D01*
X28474Y-47610D02*
X28483Y-47597D01*
X28500Y-47583D01*
X28543Y-47583D01*
X28560Y-47597D01*
X28569Y-47610D01*
X28577Y-47637D01*
X28577Y-47663D01*
X28569Y-47703D01*
X28466Y-47863D01*
X28577Y-47863D01*
X37637Y-43115D02*
X37650Y-43124D01*
X37663Y-43150D01*
X37663Y-43167D01*
X37650Y-43192D01*
X37623Y-43210D01*
X37597Y-43218D01*
X37543Y-43227D01*
X37503Y-43227D01*
X37450Y-43218D01*
X37423Y-43210D01*
X37397Y-43192D01*
X37383Y-43167D01*
X37383Y-43150D01*
X37397Y-43124D01*
X37410Y-43115D01*
X37663Y-42944D02*
X37663Y-43047D01*
X37663Y-42995D02*
X37383Y-42995D01*
X37423Y-43012D01*
X37450Y-43030D01*
X37463Y-43047D01*
X37663Y-42773D02*
X37663Y-42876D01*
X37663Y-42824D02*
X37383Y-42824D01*
X37423Y-42841D01*
X37450Y-42859D01*
X37463Y-42876D01*
X24235Y-45637D02*
X24226Y-45650D01*
X24200Y-45663D01*
X24183Y-45663D01*
X24158Y-45650D01*
X24140Y-45623D01*
X24132Y-45597D01*
X24123Y-45543D01*
X24123Y-45503D01*
X24132Y-45450D01*
X24140Y-45423D01*
X24158Y-45397D01*
X24183Y-45383D01*
X24200Y-45383D01*
X24226Y-45397D01*
X24235Y-45410D01*
X24406Y-45663D02*
X24303Y-45663D01*
X24355Y-45663D02*
X24355Y-45383D01*
X24338Y-45423D01*
X24320Y-45450D01*
X24303Y-45463D01*
X24517Y-45383D02*
X24534Y-45383D01*
X24551Y-45397D01*
X24560Y-45410D01*
X24569Y-45437D01*
X24577Y-45490D01*
X24577Y-45557D01*
X24569Y-45610D01*
X24560Y-45637D01*
X24551Y-45650D01*
X24534Y-45663D01*
X24517Y-45663D01*
X24500Y-45650D01*
X24491Y-45637D01*
X24483Y-45610D01*
X24474Y-45557D01*
X24474Y-45490D01*
X24483Y-45437D01*
X24491Y-45410D01*
X24500Y-45397D01*
X24517Y-45383D01*
X33437Y-43329D02*
X33450Y-43338D01*
X33463Y-43364D01*
X33463Y-43381D01*
X33450Y-43406D01*
X33423Y-43424D01*
X33397Y-43432D01*
X33343Y-43441D01*
X33303Y-43441D01*
X33250Y-43432D01*
X33223Y-43424D01*
X33197Y-43406D01*
X33183Y-43381D01*
X33183Y-43364D01*
X33197Y-43338D01*
X33210Y-43329D01*
X33463Y-43244D02*
X33463Y-43209D01*
X33450Y-43192D01*
X33437Y-43184D01*
X33397Y-43166D01*
X33343Y-43158D01*
X33237Y-43158D01*
X33210Y-43166D01*
X33197Y-43175D01*
X33183Y-43192D01*
X33183Y-43226D01*
X33197Y-43244D01*
X33210Y-43252D01*
X33237Y-43261D01*
X33303Y-43261D01*
X33330Y-43252D01*
X33343Y-43244D01*
X33357Y-43226D01*
X33357Y-43192D01*
X33343Y-43175D01*
X33330Y-43166D01*
X33303Y-43158D01*
X38621Y-45987D02*
X38612Y-46000D01*
X38586Y-46013D01*
X38569Y-46013D01*
X38544Y-46000D01*
X38526Y-45973D01*
X38518Y-45947D01*
X38509Y-45893D01*
X38509Y-45853D01*
X38518Y-45800D01*
X38526Y-45773D01*
X38544Y-45747D01*
X38569Y-45733D01*
X38586Y-45733D01*
X38612Y-45747D01*
X38621Y-45760D01*
X38681Y-45733D02*
X38801Y-45733D01*
X38724Y-46013D01*
X27287Y-45129D02*
X27300Y-45138D01*
X27313Y-45164D01*
X27313Y-45181D01*
X27300Y-45206D01*
X27273Y-45224D01*
X27247Y-45232D01*
X27193Y-45241D01*
X27153Y-45241D01*
X27100Y-45232D01*
X27073Y-45224D01*
X27047Y-45206D01*
X27033Y-45181D01*
X27033Y-45164D01*
X27047Y-45138D01*
X27060Y-45129D01*
X27033Y-44975D02*
X27033Y-45009D01*
X27047Y-45026D01*
X27060Y-45035D01*
X27100Y-45052D01*
X27153Y-45061D01*
X27260Y-45061D01*
X27287Y-45052D01*
X27300Y-45044D01*
X27313Y-45026D01*
X27313Y-44992D01*
X27300Y-44975D01*
X27287Y-44966D01*
X27260Y-44958D01*
X27193Y-44958D01*
X27167Y-44966D01*
X27153Y-44975D01*
X27140Y-44992D01*
X27140Y-45026D01*
X27153Y-45044D01*
X27167Y-45052D01*
X27193Y-45061D01*
X41887Y-48729D02*
X41900Y-48738D01*
X41913Y-48764D01*
X41913Y-48781D01*
X41900Y-48806D01*
X41873Y-48824D01*
X41847Y-48832D01*
X41793Y-48841D01*
X41753Y-48841D01*
X41700Y-48832D01*
X41673Y-48824D01*
X41647Y-48806D01*
X41633Y-48781D01*
X41633Y-48764D01*
X41647Y-48738D01*
X41660Y-48729D01*
X41633Y-48566D02*
X41633Y-48652D01*
X41767Y-48661D01*
X41753Y-48652D01*
X41740Y-48635D01*
X41740Y-48592D01*
X41753Y-48575D01*
X41767Y-48566D01*
X41793Y-48558D01*
X41860Y-48558D01*
X41887Y-48566D01*
X41900Y-48575D01*
X41913Y-48592D01*
X41913Y-48635D01*
X41900Y-48652D01*
X41887Y-48661D01*
X30937Y-51129D02*
X30950Y-51138D01*
X30963Y-51164D01*
X30963Y-51181D01*
X30950Y-51206D01*
X30923Y-51224D01*
X30897Y-51232D01*
X30843Y-51241D01*
X30803Y-51241D01*
X30750Y-51232D01*
X30723Y-51224D01*
X30697Y-51206D01*
X30683Y-51181D01*
X30683Y-51164D01*
X30697Y-51138D01*
X30710Y-51129D01*
X30777Y-50975D02*
X30963Y-50975D01*
X30670Y-51018D02*
X30870Y-51061D01*
X30870Y-50949D01*
X32437Y-43379D02*
X32450Y-43388D01*
X32463Y-43414D01*
X32463Y-43431D01*
X32450Y-43456D01*
X32423Y-43474D01*
X32397Y-43482D01*
X32343Y-43491D01*
X32303Y-43491D01*
X32250Y-43482D01*
X32223Y-43474D01*
X32197Y-43456D01*
X32183Y-43431D01*
X32183Y-43414D01*
X32197Y-43388D01*
X32210Y-43379D01*
X32183Y-43319D02*
X32183Y-43208D01*
X32290Y-43268D01*
X32290Y-43242D01*
X32303Y-43225D01*
X32317Y-43216D01*
X32343Y-43208D01*
X32410Y-43208D01*
X32437Y-43216D01*
X32450Y-43225D01*
X32463Y-43242D01*
X32463Y-43294D01*
X32450Y-43311D01*
X32437Y-43319D01*
X28421Y-45987D02*
X28412Y-46000D01*
X28386Y-46013D01*
X28369Y-46013D01*
X28344Y-46000D01*
X28326Y-45973D01*
X28318Y-45947D01*
X28309Y-45893D01*
X28309Y-45853D01*
X28318Y-45800D01*
X28326Y-45773D01*
X28344Y-45747D01*
X28369Y-45733D01*
X28386Y-45733D01*
X28412Y-45747D01*
X28421Y-45760D01*
X28592Y-46013D02*
X28489Y-46013D01*
X28541Y-46013D02*
X28541Y-45733D01*
X28524Y-45773D01*
X28506Y-45800D01*
X28489Y-45813D01*
G54D15*
X25292Y-43070D02*
X25209Y-43070D01*
X25209Y-43201D02*
X25209Y-42951D01*
X25328Y-42951D01*
X25506Y-43070D02*
X25542Y-43082D01*
X25553Y-43094D01*
X25565Y-43118D01*
X25565Y-43154D01*
X25553Y-43177D01*
X25542Y-43189D01*
X25518Y-43201D01*
X25423Y-43201D01*
X25423Y-42951D01*
X25506Y-42951D01*
X25530Y-42963D01*
X25542Y-42975D01*
X25553Y-42999D01*
X25553Y-43023D01*
X25542Y-43046D01*
X25530Y-43058D01*
X25506Y-43070D01*
X25423Y-43070D01*
X25661Y-42975D02*
X25673Y-42963D01*
X25696Y-42951D01*
X25756Y-42951D01*
X25780Y-42963D01*
X25792Y-42975D01*
X25803Y-42999D01*
X25803Y-43023D01*
X25792Y-43058D01*
X25649Y-43201D01*
X25803Y-43201D01*
X41470Y-51508D02*
X41470Y-51591D01*
X41601Y-51591D02*
X41351Y-51591D01*
X41351Y-51472D01*
X41470Y-51294D02*
X41482Y-51258D01*
X41494Y-51247D01*
X41518Y-51235D01*
X41554Y-51235D01*
X41577Y-51247D01*
X41589Y-51258D01*
X41601Y-51282D01*
X41601Y-51377D01*
X41351Y-51377D01*
X41351Y-51294D01*
X41363Y-51270D01*
X41375Y-51258D01*
X41399Y-51247D01*
X41423Y-51247D01*
X41446Y-51258D01*
X41458Y-51270D01*
X41470Y-51294D01*
X41470Y-51377D01*
X41601Y-50997D02*
X41601Y-51139D01*
X41601Y-51068D02*
X41351Y-51068D01*
X41387Y-51092D01*
X41411Y-51116D01*
X41423Y-51139D01*
X33625Y-47622D02*
X33192Y-47622D01*
X33584Y-47168D02*
X33604Y-47189D01*
X33625Y-47251D01*
X33625Y-47292D01*
X33604Y-47354D01*
X33563Y-47395D01*
X33522Y-47416D01*
X33439Y-47437D01*
X33377Y-47437D01*
X33295Y-47416D01*
X33254Y-47395D01*
X33212Y-47354D01*
X33192Y-47292D01*
X33192Y-47251D01*
X33212Y-47189D01*
X33233Y-47168D01*
X33192Y-47024D02*
X33192Y-46756D01*
X33357Y-46900D01*
X33357Y-46839D01*
X33377Y-46797D01*
X33398Y-46777D01*
X33439Y-46756D01*
X33542Y-46756D01*
X33584Y-46777D01*
X33604Y-46797D01*
X33625Y-46839D01*
X33625Y-46962D01*
X33604Y-47004D01*
X33584Y-47024D01*
G54D10*
X35225Y-44647D02*
X35413Y-44647D01*
X35188Y-44759D02*
X35319Y-44365D01*
X35450Y-44759D01*
X35526Y-44365D02*
X35751Y-44365D01*
X35638Y-44759D02*
X35638Y-44365D01*
X35901Y-44759D02*
X35976Y-44759D01*
X36013Y-44741D01*
X36032Y-44722D01*
X36069Y-44666D01*
X36088Y-44591D01*
X36088Y-44441D01*
X36069Y-44403D01*
X36051Y-44384D01*
X36013Y-44365D01*
X35938Y-44365D01*
X35901Y-44384D01*
X35882Y-44403D01*
X35863Y-44441D01*
X35863Y-44534D01*
X35882Y-44572D01*
X35901Y-44591D01*
X35938Y-44609D01*
X36013Y-44609D01*
X36051Y-44591D01*
X36069Y-44572D01*
X36088Y-44534D01*
X36463Y-44759D02*
X36238Y-44759D01*
X36351Y-44759D02*
X36351Y-44365D01*
X36313Y-44422D01*
X36276Y-44459D01*
X36238Y-44478D01*
X36613Y-44741D02*
X36669Y-44759D01*
X36763Y-44759D01*
X36801Y-44741D01*
X36819Y-44722D01*
X36838Y-44684D01*
X36838Y-44647D01*
X36819Y-44609D01*
X36801Y-44591D01*
X36763Y-44572D01*
X36688Y-44553D01*
X36651Y-44534D01*
X36632Y-44516D01*
X36613Y-44478D01*
X36613Y-44441D01*
X36632Y-44403D01*
X36651Y-44384D01*
X36688Y-44365D01*
X36782Y-44365D01*
X36838Y-44384D01*
X36988Y-44647D02*
X37176Y-44647D01*
X36951Y-44759D02*
X37082Y-44365D01*
X37213Y-44759D01*
X37345Y-44759D02*
X37345Y-44365D01*
X37476Y-44647D01*
X37607Y-44365D01*
X37607Y-44759D01*
X37757Y-44365D02*
X38020Y-44365D01*
X37851Y-44759D01*
X38151Y-44741D02*
X38207Y-44759D01*
X38301Y-44759D01*
X38339Y-44741D01*
X38357Y-44722D01*
X38376Y-44684D01*
X38376Y-44647D01*
X38357Y-44609D01*
X38339Y-44591D01*
X38301Y-44572D01*
X38226Y-44553D01*
X38189Y-44534D01*
X38170Y-44516D01*
X38151Y-44478D01*
X38151Y-44441D01*
X38170Y-44403D01*
X38189Y-44384D01*
X38226Y-44365D01*
X38320Y-44365D01*
X38376Y-44384D01*
G54D13*
X44955Y-37312D02*
X44955Y-36912D01*
X45108Y-36912D01*
X45146Y-36931D01*
X45165Y-36950D01*
X45184Y-36988D01*
X45184Y-37045D01*
X45165Y-37083D01*
X45146Y-37102D01*
X45108Y-37121D01*
X44955Y-37121D01*
X45336Y-36950D02*
X45355Y-36931D01*
X45393Y-36912D01*
X45489Y-36912D01*
X45527Y-36931D01*
X45546Y-36950D01*
X45565Y-36988D01*
X45565Y-37026D01*
X45546Y-37083D01*
X45317Y-37312D01*
X45565Y-37312D01*
X45916Y-37312D02*
X45916Y-36912D01*
X46000Y-36912D01*
X46050Y-36931D01*
X46083Y-36969D01*
X46100Y-37007D01*
X46116Y-37083D01*
X46116Y-37140D01*
X46100Y-37217D01*
X46083Y-37255D01*
X46050Y-37293D01*
X46000Y-37312D01*
X45916Y-37312D01*
X46266Y-37102D02*
X46383Y-37102D01*
X46433Y-37312D02*
X46266Y-37312D01*
X46266Y-36912D01*
X46433Y-36912D01*
X46700Y-37102D02*
X46750Y-37121D01*
X46767Y-37140D01*
X46783Y-37179D01*
X46783Y-37236D01*
X46767Y-37274D01*
X46750Y-37293D01*
X46717Y-37312D01*
X46583Y-37312D01*
X46583Y-36912D01*
X46700Y-36912D01*
X46733Y-36931D01*
X46750Y-36950D01*
X46767Y-36988D01*
X46767Y-37026D01*
X46750Y-37064D01*
X46733Y-37083D01*
X46700Y-37102D01*
X46583Y-37102D01*
X46933Y-36912D02*
X46933Y-37236D01*
X46950Y-37274D01*
X46967Y-37293D01*
X47000Y-37312D01*
X47067Y-37312D01*
X47100Y-37293D01*
X47117Y-37274D01*
X47133Y-37236D01*
X47133Y-36912D01*
X47484Y-36931D02*
X47450Y-36912D01*
X47400Y-36912D01*
X47350Y-36931D01*
X47317Y-36969D01*
X47300Y-37007D01*
X47284Y-37083D01*
X47284Y-37140D01*
X47300Y-37217D01*
X47317Y-37255D01*
X47350Y-37293D01*
X47400Y-37312D01*
X47434Y-37312D01*
X47484Y-37293D01*
X47500Y-37274D01*
X47500Y-37140D01*
X47434Y-37140D01*
G54D11*
X40872Y-44299D02*
X40843Y-44285D01*
X40815Y-44256D01*
X40772Y-44214D01*
X40743Y-44199D01*
X40715Y-44199D01*
X40729Y-44271D02*
X40701Y-44256D01*
X40672Y-44228D01*
X40658Y-44171D01*
X40658Y-44071D01*
X40672Y-44014D01*
X40701Y-43986D01*
X40729Y-43972D01*
X40786Y-43972D01*
X40815Y-43986D01*
X40843Y-44014D01*
X40857Y-44071D01*
X40857Y-44171D01*
X40843Y-44228D01*
X40815Y-44256D01*
X40786Y-44271D01*
X40729Y-44271D01*
X40971Y-44000D02*
X40985Y-43986D01*
X41014Y-43972D01*
X41085Y-43972D01*
X41113Y-43986D01*
X41128Y-44000D01*
X41142Y-44028D01*
X41142Y-44057D01*
X41128Y-44100D01*
X40957Y-44271D01*
X41142Y-44271D01*
X44399Y-46228D02*
X44385Y-46257D01*
X44356Y-46285D01*
X44314Y-46328D01*
X44299Y-46357D01*
X44299Y-46385D01*
X44371Y-46371D02*
X44356Y-46399D01*
X44328Y-46428D01*
X44271Y-46442D01*
X44171Y-46442D01*
X44114Y-46428D01*
X44086Y-46399D01*
X44072Y-46371D01*
X44072Y-46314D01*
X44086Y-46285D01*
X44114Y-46257D01*
X44171Y-46243D01*
X44271Y-46243D01*
X44328Y-46257D01*
X44356Y-46285D01*
X44371Y-46314D01*
X44371Y-46371D01*
X44371Y-45958D02*
X44371Y-46129D01*
X44371Y-46044D02*
X44072Y-46044D01*
X44114Y-46072D01*
X44143Y-46101D01*
X44157Y-46129D01*
G54D16*
X16480Y-37131D02*
X16566Y-37160D01*
X16709Y-37160D01*
X16766Y-37131D01*
X16795Y-37103D01*
X16823Y-37046D01*
X16823Y-36988D01*
X16795Y-36931D01*
X16766Y-36903D01*
X16709Y-36874D01*
X16595Y-36846D01*
X16537Y-36817D01*
X16509Y-36788D01*
X16480Y-36731D01*
X16480Y-36674D01*
X16509Y-36617D01*
X16537Y-36588D01*
X16595Y-36560D01*
X16737Y-36560D01*
X16823Y-36588D01*
X17023Y-36560D02*
X17166Y-37160D01*
X17280Y-36731D01*
X17394Y-37160D01*
X17537Y-36560D01*
X18080Y-37160D02*
X17737Y-37160D01*
X17909Y-37160D02*
X17909Y-36560D01*
X17852Y-36646D01*
X17794Y-36703D01*
X17737Y-36731D01*
X16379Y-39093D02*
X16179Y-38807D01*
X16036Y-39093D02*
X16036Y-38493D01*
X16264Y-38493D01*
X16322Y-38521D01*
X16350Y-38550D01*
X16379Y-38607D01*
X16379Y-38693D01*
X16350Y-38750D01*
X16322Y-38779D01*
X16264Y-38807D01*
X16036Y-38807D01*
X16636Y-38779D02*
X16836Y-38779D01*
X16922Y-39093D02*
X16636Y-39093D01*
X16636Y-38493D01*
X16922Y-38493D01*
X17150Y-39064D02*
X17236Y-39093D01*
X17379Y-39093D01*
X17436Y-39064D01*
X17465Y-39036D01*
X17493Y-38979D01*
X17493Y-38921D01*
X17465Y-38864D01*
X17436Y-38836D01*
X17379Y-38807D01*
X17265Y-38779D01*
X17207Y-38750D01*
X17179Y-38721D01*
X17150Y-38664D01*
X17150Y-38607D01*
X17179Y-38550D01*
X17207Y-38521D01*
X17265Y-38493D01*
X17407Y-38493D01*
X17493Y-38521D01*
X17750Y-38779D02*
X17950Y-38779D01*
X18036Y-39093D02*
X17750Y-39093D01*
X17750Y-38493D01*
X18036Y-38493D01*
X18207Y-38493D02*
X18550Y-38493D01*
X18379Y-39093D02*
X18379Y-38493D01*
X21800Y-37114D02*
X21886Y-37143D01*
X22029Y-37143D01*
X22086Y-37114D01*
X22115Y-37086D01*
X22143Y-37029D01*
X22143Y-36971D01*
X22115Y-36914D01*
X22086Y-36886D01*
X22029Y-36857D01*
X21915Y-36829D01*
X21857Y-36800D01*
X21829Y-36771D01*
X21800Y-36714D01*
X21800Y-36657D01*
X21829Y-36600D01*
X21857Y-36571D01*
X21915Y-36543D01*
X22057Y-36543D01*
X22143Y-36571D01*
X22343Y-36543D02*
X22486Y-37143D01*
X22600Y-36714D01*
X22714Y-37143D01*
X22857Y-36543D01*
X23057Y-36600D02*
X23086Y-36571D01*
X23143Y-36543D01*
X23286Y-36543D01*
X23343Y-36571D01*
X23372Y-36600D01*
X23400Y-36657D01*
X23400Y-36714D01*
X23372Y-36800D01*
X23029Y-37143D01*
X23400Y-37143D01*
X20150Y-38729D02*
X20236Y-38757D01*
X20264Y-38786D01*
X20293Y-38843D01*
X20293Y-38929D01*
X20264Y-38986D01*
X20236Y-39014D01*
X20178Y-39043D01*
X19950Y-39043D01*
X19950Y-38443D01*
X20150Y-38443D01*
X20207Y-38471D01*
X20236Y-38500D01*
X20264Y-38557D01*
X20264Y-38614D01*
X20236Y-38671D01*
X20207Y-38700D01*
X20150Y-38729D01*
X19950Y-38729D01*
X20664Y-38443D02*
X20778Y-38443D01*
X20836Y-38471D01*
X20893Y-38529D01*
X20921Y-38643D01*
X20921Y-38843D01*
X20893Y-38957D01*
X20836Y-39014D01*
X20778Y-39043D01*
X20664Y-39043D01*
X20607Y-39014D01*
X20550Y-38957D01*
X20521Y-38843D01*
X20521Y-38643D01*
X20550Y-38529D01*
X20607Y-38471D01*
X20664Y-38443D01*
X21293Y-38443D02*
X21407Y-38443D01*
X21465Y-38471D01*
X21522Y-38529D01*
X21550Y-38643D01*
X21550Y-38843D01*
X21522Y-38957D01*
X21465Y-39014D01*
X21407Y-39043D01*
X21293Y-39043D01*
X21236Y-39014D01*
X21179Y-38957D01*
X21150Y-38843D01*
X21150Y-38643D01*
X21179Y-38529D01*
X21236Y-38471D01*
X21293Y-38443D01*
X21722Y-38443D02*
X22065Y-38443D01*
X21894Y-39043D02*
X21894Y-38443D01*
X22551Y-39043D02*
X22265Y-39043D01*
X22265Y-38443D01*
X22865Y-38443D02*
X22979Y-38443D01*
X23037Y-38471D01*
X23094Y-38529D01*
X23122Y-38643D01*
X23122Y-38843D01*
X23094Y-38957D01*
X23037Y-39014D01*
X22979Y-39043D01*
X22865Y-39043D01*
X22808Y-39014D01*
X22751Y-38957D01*
X22722Y-38843D01*
X22722Y-38643D01*
X22751Y-38529D01*
X22808Y-38471D01*
X22865Y-38443D01*
X23351Y-38871D02*
X23637Y-38871D01*
X23294Y-39043D02*
X23494Y-38443D01*
X23694Y-39043D01*
X23894Y-39043D02*
X23894Y-38443D01*
X24037Y-38443D01*
X24122Y-38471D01*
X24180Y-38529D01*
X24208Y-38586D01*
X24237Y-38700D01*
X24237Y-38786D01*
X24208Y-38900D01*
X24180Y-38957D01*
X24122Y-39014D01*
X24037Y-39043D01*
X23894Y-39043D01*
X24494Y-38729D02*
X24694Y-38729D01*
X24780Y-39043D02*
X24494Y-39043D01*
X24494Y-38443D01*
X24780Y-38443D01*
X25380Y-39043D02*
X25180Y-38757D01*
X25037Y-39043D02*
X25037Y-38443D01*
X25265Y-38443D01*
X25323Y-38471D01*
X25351Y-38500D01*
X25380Y-38557D01*
X25380Y-38643D01*
X25351Y-38700D01*
X25323Y-38729D01*
X25265Y-38757D01*
X25037Y-38757D01*
X42943Y-50907D02*
X43429Y-50907D01*
X43486Y-50879D01*
X43514Y-50850D01*
X43543Y-50793D01*
X43543Y-50679D01*
X43514Y-50621D01*
X43486Y-50593D01*
X43429Y-50564D01*
X42943Y-50564D01*
X43514Y-50307D02*
X43543Y-50221D01*
X43543Y-50078D01*
X43514Y-50021D01*
X43486Y-49992D01*
X43429Y-49964D01*
X43371Y-49964D01*
X43314Y-49992D01*
X43286Y-50021D01*
X43257Y-50078D01*
X43229Y-50192D01*
X43200Y-50250D01*
X43171Y-50278D01*
X43114Y-50307D01*
X43057Y-50307D01*
X43000Y-50278D01*
X42971Y-50250D01*
X42943Y-50192D01*
X42943Y-50050D01*
X42971Y-49964D01*
X43229Y-49507D02*
X43257Y-49421D01*
X43286Y-49393D01*
X43343Y-49364D01*
X43429Y-49364D01*
X43486Y-49393D01*
X43514Y-49421D01*
X43543Y-49479D01*
X43543Y-49707D01*
X42943Y-49707D01*
X42943Y-49507D01*
X42971Y-49450D01*
X43000Y-49421D01*
X43057Y-49393D01*
X43114Y-49393D01*
X43171Y-49421D01*
X43200Y-49450D01*
X43229Y-49507D01*
X43229Y-49707D01*
X17508Y-48243D02*
X17508Y-47643D01*
X17736Y-47643D01*
X17794Y-47671D01*
X17822Y-47700D01*
X17851Y-47757D01*
X17851Y-47843D01*
X17822Y-47900D01*
X17794Y-47929D01*
X17736Y-47957D01*
X17508Y-47957D01*
X18365Y-47843D02*
X18365Y-48243D01*
X18222Y-47614D02*
X18079Y-48043D01*
X18451Y-48043D01*
X17393Y-47014D02*
X17479Y-47043D01*
X17622Y-47043D01*
X17679Y-47014D01*
X17708Y-46986D01*
X17736Y-46929D01*
X17736Y-46871D01*
X17708Y-46814D01*
X17679Y-46786D01*
X17622Y-46757D01*
X17508Y-46729D01*
X17450Y-46700D01*
X17422Y-46671D01*
X17393Y-46614D01*
X17393Y-46557D01*
X17422Y-46500D01*
X17450Y-46471D01*
X17508Y-46443D01*
X17650Y-46443D01*
X17736Y-46471D01*
X17993Y-47043D02*
X17993Y-46443D01*
X18279Y-47043D02*
X18279Y-46443D01*
X18479Y-46871D01*
X18679Y-46443D01*
X18679Y-47043D01*
G54D15*
X21407Y-42721D02*
X21407Y-42421D01*
X21722Y-42693D02*
X21708Y-42707D01*
X21665Y-42721D01*
X21636Y-42721D01*
X21593Y-42707D01*
X21565Y-42679D01*
X21550Y-42650D01*
X21536Y-42593D01*
X21536Y-42550D01*
X21550Y-42493D01*
X21565Y-42464D01*
X21593Y-42436D01*
X21636Y-42421D01*
X21665Y-42421D01*
X21708Y-42436D01*
X21722Y-42450D01*
X21979Y-42521D02*
X21979Y-42721D01*
X21908Y-42407D02*
X21836Y-42621D01*
X22022Y-42621D01*
G54D22*
X39635Y-49063D02*
X39575Y-48930D01*
X39532Y-49063D02*
X39532Y-48783D01*
X39600Y-48783D01*
X39618Y-48797D01*
X39626Y-48810D01*
X39635Y-48837D01*
X39635Y-48877D01*
X39626Y-48903D01*
X39618Y-48917D01*
X39600Y-48930D01*
X39532Y-48930D01*
X39703Y-48810D02*
X39712Y-48797D01*
X39729Y-48783D01*
X39772Y-48783D01*
X39789Y-48797D01*
X39798Y-48810D01*
X39806Y-48837D01*
X39806Y-48863D01*
X39798Y-48903D01*
X39695Y-49063D01*
X39806Y-49063D01*
X39874Y-48810D02*
X39883Y-48797D01*
X39900Y-48783D01*
X39943Y-48783D01*
X39960Y-48797D01*
X39969Y-48810D01*
X39977Y-48837D01*
X39977Y-48863D01*
X39969Y-48903D01*
X39866Y-49063D01*
X39977Y-49063D01*
X22785Y-40313D02*
X22725Y-40180D01*
X22682Y-40313D02*
X22682Y-40033D01*
X22750Y-40033D01*
X22768Y-40047D01*
X22776Y-40060D01*
X22785Y-40087D01*
X22785Y-40127D01*
X22776Y-40153D01*
X22768Y-40167D01*
X22750Y-40180D01*
X22682Y-40180D01*
X22853Y-40060D02*
X22862Y-40047D01*
X22879Y-40033D01*
X22922Y-40033D01*
X22939Y-40047D01*
X22948Y-40060D01*
X22956Y-40087D01*
X22956Y-40113D01*
X22948Y-40153D01*
X22845Y-40313D01*
X22956Y-40313D01*
X23127Y-40313D02*
X23024Y-40313D01*
X23076Y-40313D02*
X23076Y-40033D01*
X23059Y-40073D01*
X23041Y-40100D01*
X23024Y-40113D01*
X21335Y-40313D02*
X21275Y-40180D01*
X21232Y-40313D02*
X21232Y-40033D01*
X21300Y-40033D01*
X21318Y-40047D01*
X21326Y-40060D01*
X21335Y-40087D01*
X21335Y-40127D01*
X21326Y-40153D01*
X21318Y-40167D01*
X21300Y-40180D01*
X21232Y-40180D01*
X21403Y-40060D02*
X21412Y-40047D01*
X21429Y-40033D01*
X21472Y-40033D01*
X21489Y-40047D01*
X21498Y-40060D01*
X21506Y-40087D01*
X21506Y-40113D01*
X21498Y-40153D01*
X21395Y-40313D01*
X21506Y-40313D01*
X21617Y-40033D02*
X21634Y-40033D01*
X21651Y-40047D01*
X21660Y-40060D01*
X21669Y-40087D01*
X21677Y-40140D01*
X21677Y-40207D01*
X21669Y-40260D01*
X21660Y-40287D01*
X21651Y-40300D01*
X21634Y-40313D01*
X21617Y-40313D01*
X21600Y-40300D01*
X21591Y-40287D01*
X21583Y-40260D01*
X21574Y-40207D01*
X21574Y-40140D01*
X21583Y-40087D01*
X21591Y-40060D01*
X21600Y-40047D01*
X21617Y-40033D01*
X19885Y-40313D02*
X19825Y-40180D01*
X19782Y-40313D02*
X19782Y-40033D01*
X19850Y-40033D01*
X19868Y-40047D01*
X19876Y-40060D01*
X19885Y-40087D01*
X19885Y-40127D01*
X19876Y-40153D01*
X19868Y-40167D01*
X19850Y-40180D01*
X19782Y-40180D01*
X20056Y-40313D02*
X19953Y-40313D01*
X20005Y-40313D02*
X20005Y-40033D01*
X19988Y-40073D01*
X19970Y-40100D01*
X19953Y-40113D01*
X20141Y-40313D02*
X20176Y-40313D01*
X20193Y-40300D01*
X20201Y-40287D01*
X20219Y-40247D01*
X20227Y-40193D01*
X20227Y-40087D01*
X20219Y-40060D01*
X20210Y-40047D01*
X20193Y-40033D01*
X20159Y-40033D01*
X20141Y-40047D01*
X20133Y-40060D01*
X20124Y-40087D01*
X20124Y-40153D01*
X20133Y-40180D01*
X20141Y-40193D01*
X20159Y-40207D01*
X20193Y-40207D01*
X20210Y-40193D01*
X20219Y-40180D01*
X20227Y-40153D01*
X37787Y-50615D02*
X37800Y-50624D01*
X37813Y-50650D01*
X37813Y-50667D01*
X37800Y-50692D01*
X37773Y-50710D01*
X37747Y-50718D01*
X37693Y-50727D01*
X37653Y-50727D01*
X37600Y-50718D01*
X37573Y-50710D01*
X37547Y-50692D01*
X37533Y-50667D01*
X37533Y-50650D01*
X37547Y-50624D01*
X37560Y-50615D01*
X37560Y-50547D02*
X37547Y-50538D01*
X37533Y-50521D01*
X37533Y-50478D01*
X37547Y-50461D01*
X37560Y-50452D01*
X37587Y-50444D01*
X37613Y-50444D01*
X37653Y-50452D01*
X37813Y-50555D01*
X37813Y-50444D01*
X37627Y-50290D02*
X37813Y-50290D01*
X37520Y-50333D02*
X37720Y-50376D01*
X37720Y-50264D01*
G54D15*
X40871Y-50843D02*
X40571Y-50843D01*
X40843Y-50582D02*
X40857Y-50594D01*
X40871Y-50629D01*
X40871Y-50653D01*
X40857Y-50689D01*
X40829Y-50713D01*
X40800Y-50724D01*
X40743Y-50736D01*
X40700Y-50736D01*
X40643Y-50724D01*
X40614Y-50713D01*
X40586Y-50689D01*
X40571Y-50653D01*
X40571Y-50629D01*
X40586Y-50594D01*
X40600Y-50582D01*
X40571Y-50355D02*
X40571Y-50474D01*
X40714Y-50486D01*
X40700Y-50474D01*
X40686Y-50451D01*
X40686Y-50391D01*
X40700Y-50367D01*
X40714Y-50355D01*
X40743Y-50344D01*
X40814Y-50344D01*
X40843Y-50355D01*
X40857Y-50367D01*
X40871Y-50391D01*
X40871Y-50451D01*
X40857Y-50474D01*
X40843Y-50486D01*
G54D11*
X40408Y-51871D02*
X40408Y-51572D01*
X40721Y-51842D02*
X40707Y-51856D01*
X40664Y-51871D01*
X40636Y-51871D01*
X40593Y-51856D01*
X40564Y-51828D01*
X40550Y-51799D01*
X40536Y-51742D01*
X40536Y-51700D01*
X40550Y-51643D01*
X40564Y-51614D01*
X40593Y-51586D01*
X40636Y-51572D01*
X40664Y-51572D01*
X40707Y-51586D01*
X40721Y-51600D01*
X40835Y-51600D02*
X40849Y-51586D01*
X40878Y-51572D01*
X40949Y-51572D01*
X40977Y-51586D01*
X40992Y-51600D01*
X41006Y-51628D01*
X41006Y-51657D01*
X40992Y-51700D01*
X40821Y-51871D01*
X41006Y-51871D01*
X44029Y-43371D02*
X44029Y-43072D01*
X44100Y-43072D01*
X44143Y-43086D01*
X44172Y-43114D01*
X44186Y-43143D01*
X44200Y-43200D01*
X44200Y-43242D01*
X44186Y-43299D01*
X44172Y-43328D01*
X44143Y-43356D01*
X44100Y-43371D01*
X44029Y-43371D01*
X44485Y-43371D02*
X44314Y-43371D01*
X44399Y-43371D02*
X44399Y-43072D01*
X44371Y-43114D01*
X44342Y-43143D01*
X44314Y-43157D01*
G54D15*
X29478Y-55071D02*
X29478Y-54771D01*
X29550Y-54771D01*
X29593Y-54786D01*
X29621Y-54814D01*
X29636Y-54843D01*
X29650Y-54900D01*
X29650Y-54943D01*
X29636Y-55000D01*
X29621Y-55029D01*
X29593Y-55057D01*
X29550Y-55071D01*
X29478Y-55071D01*
X29907Y-54871D02*
X29907Y-55071D01*
X29836Y-54757D02*
X29764Y-54971D01*
X29950Y-54971D01*
X28808Y-54521D02*
X28708Y-54379D01*
X28636Y-54521D02*
X28636Y-54221D01*
X28751Y-54221D01*
X28779Y-54236D01*
X28794Y-54250D01*
X28808Y-54279D01*
X28808Y-54321D01*
X28794Y-54350D01*
X28779Y-54364D01*
X28751Y-54379D01*
X28636Y-54379D01*
X28936Y-54364D02*
X29036Y-54364D01*
X29079Y-54521D02*
X28936Y-54521D01*
X28936Y-54221D01*
X29079Y-54221D01*
X29207Y-54521D02*
X29207Y-54221D01*
X29279Y-54221D01*
X29322Y-54236D01*
X29350Y-54264D01*
X29365Y-54293D01*
X29379Y-54350D01*
X29379Y-54393D01*
X29365Y-54450D01*
X29350Y-54479D01*
X29322Y-54507D01*
X29279Y-54521D01*
X29207Y-54521D01*
X29228Y-52771D02*
X29228Y-52471D01*
X29300Y-52471D01*
X29343Y-52486D01*
X29371Y-52514D01*
X29386Y-52543D01*
X29400Y-52600D01*
X29400Y-52643D01*
X29386Y-52700D01*
X29371Y-52729D01*
X29343Y-52757D01*
X29300Y-52771D01*
X29228Y-52771D01*
X29671Y-52471D02*
X29528Y-52471D01*
X29514Y-52614D01*
X29528Y-52600D01*
X29557Y-52586D01*
X29628Y-52586D01*
X29657Y-52600D01*
X29671Y-52614D01*
X29686Y-52643D01*
X29686Y-52714D01*
X29671Y-52743D01*
X29657Y-52757D01*
X29628Y-52771D01*
X29557Y-52771D01*
X29528Y-52757D01*
X29514Y-52743D01*
X28201Y-53036D02*
X28172Y-53021D01*
X28129Y-53021D01*
X28086Y-53036D01*
X28058Y-53064D01*
X28043Y-53093D01*
X28029Y-53150D01*
X28029Y-53193D01*
X28043Y-53250D01*
X28058Y-53279D01*
X28086Y-53307D01*
X28129Y-53321D01*
X28158Y-53321D01*
X28201Y-53307D01*
X28215Y-53293D01*
X28215Y-53193D01*
X28158Y-53193D01*
X28515Y-53321D02*
X28415Y-53179D01*
X28343Y-53321D02*
X28343Y-53021D01*
X28458Y-53021D01*
X28486Y-53036D01*
X28501Y-53050D01*
X28515Y-53079D01*
X28515Y-53121D01*
X28501Y-53150D01*
X28486Y-53164D01*
X28458Y-53179D01*
X28343Y-53179D01*
X28643Y-53164D02*
X28743Y-53164D01*
X28786Y-53321D02*
X28643Y-53321D01*
X28643Y-53021D01*
X28786Y-53021D01*
X28914Y-53164D02*
X29014Y-53164D01*
X29057Y-53321D02*
X28914Y-53321D01*
X28914Y-53021D01*
X29057Y-53021D01*
X29185Y-53321D02*
X29185Y-53021D01*
X29357Y-53321D01*
X29357Y-53021D01*
G54D16*
X34843Y-53807D02*
X35329Y-53807D01*
X35386Y-53779D01*
X35414Y-53750D01*
X35443Y-53693D01*
X35443Y-53579D01*
X35414Y-53521D01*
X35386Y-53493D01*
X35329Y-53464D01*
X34843Y-53464D01*
X35443Y-52864D02*
X35443Y-53207D01*
X35443Y-53035D02*
X34843Y-53035D01*
X34929Y-53092D01*
X34986Y-53150D01*
X35014Y-53207D01*
X34486Y-55129D02*
X34286Y-55129D01*
X34286Y-55443D02*
X34286Y-54843D01*
X34572Y-54843D01*
X35086Y-55443D02*
X34800Y-55443D01*
X34800Y-54843D01*
X35257Y-55271D02*
X35543Y-55271D01*
X35200Y-55443D02*
X35400Y-54843D01*
X35600Y-55443D01*
X35771Y-55414D02*
X35857Y-55443D01*
X36000Y-55443D01*
X36057Y-55414D01*
X36086Y-55386D01*
X36114Y-55329D01*
X36114Y-55271D01*
X36086Y-55214D01*
X36057Y-55186D01*
X36000Y-55157D01*
X35886Y-55129D01*
X35828Y-55100D01*
X35800Y-55071D01*
X35771Y-55014D01*
X35771Y-54957D01*
X35800Y-54900D01*
X35828Y-54871D01*
X35886Y-54843D01*
X36028Y-54843D01*
X36114Y-54871D01*
X36371Y-55443D02*
X36371Y-54843D01*
X36371Y-55129D02*
X36714Y-55129D01*
X36714Y-55443D02*
X36714Y-54843D01*
G54D11*
X43079Y-52871D02*
X43079Y-52572D01*
X43150Y-52572D01*
X43193Y-52586D01*
X43222Y-52614D01*
X43236Y-52643D01*
X43250Y-52700D01*
X43250Y-52742D01*
X43236Y-52799D01*
X43222Y-52828D01*
X43193Y-52856D01*
X43150Y-52871D01*
X43079Y-52871D01*
X43364Y-52600D02*
X43378Y-52586D01*
X43407Y-52572D01*
X43478Y-52572D01*
X43506Y-52586D01*
X43521Y-52600D01*
X43535Y-52628D01*
X43535Y-52657D01*
X43521Y-52700D01*
X43350Y-52871D01*
X43535Y-52871D01*
X43079Y-54721D02*
X43079Y-54422D01*
X43150Y-54422D01*
X43193Y-54436D01*
X43222Y-54464D01*
X43236Y-54493D01*
X43250Y-54550D01*
X43250Y-54592D01*
X43236Y-54649D01*
X43222Y-54678D01*
X43193Y-54706D01*
X43150Y-54721D01*
X43079Y-54721D01*
X43350Y-54422D02*
X43535Y-54422D01*
X43435Y-54535D01*
X43478Y-54535D01*
X43506Y-54550D01*
X43521Y-54564D01*
X43535Y-54592D01*
X43535Y-54664D01*
X43521Y-54692D01*
X43506Y-54706D01*
X43478Y-54721D01*
X43392Y-54721D01*
X43364Y-54706D01*
X43350Y-54692D01*
M02*
