M48
;DRILL file {PCBnew (2011-05-25)-stable} date Mon 14 Nov 2011 21:13:12 CET
;FORMAT={-:-/ absolute / metric / decimal}
FMAT,2
METRIC,TZ
T1C0.300
T2C0.635
T3C0.701
T4C0.813
T5C0.899
T6C1.001
T7C1.016
T8C1.199
T9C2.200
T10C3.299
%
G90
G05
M71
T2
X50.419Y124.968
X51.181Y129.159
X55.250Y122.250
X55.654Y125.146
X56.500Y126.500
X56.500Y131.501
X56.515Y129.286
X58.001Y109.250
X58.001Y120.000
X60.000Y121.249
X60.480Y117.427
X61.501Y128.001
X64.000Y113.500
X64.376Y128.905
X65.001Y112.250
X65.001Y119.499
X66.170Y121.450
X66.203Y120.274
X67.234Y127.333
X67.310Y102.108
X68.707Y98.806
X69.266Y126.324
X69.499Y120.000
X70.556Y106.304
X70.848Y129.593
X72.723Y123.114
X72.799Y127.145
X74.160Y131.938
X75.275Y123.701
X75.438Y139.319
X75.529Y121.336
X75.728Y125.506
X75.750Y109.250
X76.043Y104.879
X77.094Y124.226
X77.516Y127.124
X77.643Y137.742
X79.017Y121.849
X79.329Y126.710
X79.847Y118.422
X80.406Y127.480
X80.548Y119.535
X80.899Y138.430
X81.590Y121.940
X82.123Y133.548
X82.248Y118.346
X82.433Y117.193
X82.550Y136.271
X82.573Y134.859
X83.048Y124.612
X83.820Y139.954
X84.531Y130.063
X84.823Y125.440
X84.999Y127.937
X85.250Y111.750
X85.481Y117.429
X85.966Y128.603
X86.467Y123.675
X86.693Y116.997
X86.810Y127.640
X88.049Y118.979
X88.585Y125.890
X88.908Y120.653
X90.107Y125.405
X90.678Y116.586
X94.559Y118.963
X95.827Y138.819
X96.500Y120.500
X96.751Y115.001
X98.750Y125.499
X100.749Y124.000
X103.500Y116.751
X104.082Y117.899
X107.823Y103.505
X107.823Y108.204
X111.506Y130.683
X111.999Y119.751
T3
X113.723Y123.622
X113.723Y125.222
X113.723Y126.822
X114.922Y124.422
X114.922Y126.022
T4
X69.977Y94.107
T6
X73.683Y103.251
X73.683Y105.791
X77.493Y103.251
X77.493Y141.351
X80.033Y103.251
X80.033Y141.351
X82.573Y103.251
X82.573Y141.351
X85.113Y103.251
X85.113Y141.351
T7
X69.977Y91.567
X72.517Y91.567
X72.517Y94.107
X75.057Y91.567
X75.057Y94.107
X77.597Y91.567
X77.597Y94.107
X80.137Y91.567
X80.137Y94.107
X82.677Y91.567
X82.677Y94.107
X85.217Y91.567
X85.217Y94.107
X87.757Y91.567
X87.757Y94.107
X90.297Y91.567
X90.297Y94.107
X92.837Y91.567
X92.837Y94.107
X96.266Y99.314
X98.806Y99.314
X101.346Y99.314
X103.886Y99.314
X107.188Y91.948
X109.728Y91.948
X112.268Y91.948
X114.808Y91.948
X117.348Y91.948
X118.364Y136.398
X118.364Y138.938
X119.888Y91.948
T8
X115.951Y100.584
T9
X49.233Y122.301
X107.231Y122.301
T10
X49.233Y112.301
X49.233Y132.301
X107.231Y112.301
X107.231Y132.301
T1
X111.450Y101.034G85X111.450Y100.134
G05
X113.901Y98.735G85X113.002Y98.735
G05
X113.901Y102.433G85X113.002Y102.433
G05
X118.351Y101.034G85X118.351Y100.134
G05
T5
X119.273Y121.572G85X118.273Y121.572
G05
X119.273Y128.872G85X118.273Y128.872
G05
T0
M30
