G04 start of page 3 for group 1 idx 1 *
G04 Title: 4FF-FFC, bottom *
G04 Creator: pcb 20140316 *
G04 CreationDate: Fr 01 Apr 2016 11:12:18 GMT UTC *
G04 For: laforge *
G04 Format: Gerber/RS-274X *
G04 PCB-Dimensions (mil): 6000.00 5000.00 *
G04 PCB-Coordinate-Origin: lower left *
%MOIN*%
%FSLAX25Y25*%
%LNBOTTOM*%
%ADD23C,0.0197*%
%ADD22C,0.0354*%
%ADD21C,0.0787*%
%ADD20C,0.0100*%
%ADD19C,0.0157*%
%ADD18C,0.0001*%
G54D18*G36*
X317645Y486220D02*X448819D01*
Y458661D01*
X317645D01*
Y466002D01*
X350514Y466007D01*
X350667Y466044D01*
X350812Y466104D01*
X350947Y466186D01*
X351066Y466288D01*
X351168Y466408D01*
X351251Y466542D01*
X351311Y466688D01*
X351348Y466841D01*
X351357Y466998D01*
X351348Y476555D01*
X351311Y476708D01*
X351251Y476853D01*
X351168Y476987D01*
X351066Y477107D01*
X350947Y477209D01*
X350812Y477291D01*
X350667Y477352D01*
X350514Y477388D01*
X350357Y477398D01*
X317645Y477393D01*
Y486220D01*
G37*
G36*
X54134D02*X317645D01*
Y477393D01*
X284776Y477388D01*
X284623Y477352D01*
X284478Y477291D01*
X284343Y477209D01*
X284224Y477107D01*
X284122Y476987D01*
X284039Y476853D01*
X283979Y476708D01*
X283942Y476555D01*
X283933Y476398D01*
X283942Y466841D01*
X283979Y466688D01*
X284039Y466542D01*
X284122Y466408D01*
X284224Y466288D01*
X284343Y466186D01*
X284478Y466104D01*
X284623Y466044D01*
X284776Y466007D01*
X284933Y465998D01*
X317645Y466002D01*
Y458661D01*
X54134D01*
Y486220D01*
G37*
G36*
X317645Y450787D02*X448819D01*
Y423228D01*
X317645D01*
Y430569D01*
X350514Y430574D01*
X350667Y430611D01*
X350812Y430671D01*
X350947Y430753D01*
X351066Y430855D01*
X351168Y430975D01*
X351251Y431109D01*
X351311Y431255D01*
X351348Y431408D01*
X351357Y431565D01*
X351348Y441122D01*
X351311Y441275D01*
X351251Y441420D01*
X351168Y441554D01*
X351066Y441674D01*
X350947Y441776D01*
X350812Y441858D01*
X350667Y441919D01*
X350514Y441955D01*
X350357Y441965D01*
X317645Y441960D01*
Y450787D01*
G37*
G36*
X55118D02*X317645D01*
Y441960D01*
X284776Y441955D01*
X284623Y441919D01*
X284478Y441858D01*
X284343Y441776D01*
X284224Y441674D01*
X284122Y441554D01*
X284039Y441420D01*
X283979Y441275D01*
X283942Y441122D01*
X283933Y440965D01*
X283942Y431408D01*
X283979Y431255D01*
X284039Y431109D01*
X284122Y430975D01*
X284224Y430855D01*
X284343Y430753D01*
X284478Y430671D01*
X284623Y430611D01*
X284776Y430574D01*
X284933Y430565D01*
X317645Y430569D01*
Y423228D01*
X55118D01*
Y424690D01*
X55379Y425320D01*
X55561Y426076D01*
X55622Y426850D01*
X55561Y427625D01*
X55379Y428381D01*
X55118Y429011D01*
Y434690D01*
X55379Y435320D01*
X55561Y436076D01*
X55622Y436850D01*
X55561Y437625D01*
X55379Y438381D01*
X55118Y439011D01*
Y444690D01*
X55379Y445320D01*
X55561Y446076D01*
X55622Y446850D01*
X55561Y447625D01*
X55379Y448381D01*
X55118Y449011D01*
Y450787D01*
G37*
G54D19*X32480Y465551D02*X29528Y468504D01*
X34606Y475551D02*X33465Y474409D01*
X29528Y446850D02*X33465Y450787D01*
X17717Y436850D02*X25433D01*
X29528Y440945D01*
X17717Y426850D02*X25276D01*
X29528Y431102D01*
Y435039D01*
X33465Y442913D02*Y429134D01*
X29528Y425197D01*
X17717Y446850D02*X29528D01*
X15276Y475551D02*X22480D01*
X25591Y472441D01*
X22323Y485551D02*X25591Y482283D01*
Y478346D01*
X15276Y485551D02*X22323D01*
X15276Y465551D02*X22638D01*
X25591Y462598D01*
Y472441D02*Y468504D01*
X45276Y465551D02*X32480D01*
X29528Y468504D02*Y486220D01*
X27559Y488189D01*
X45276Y485551D02*X40669D01*
X35433Y480315D01*
X45276Y475551D02*X34606D01*
X47717Y446850D02*X37402D01*
X33465Y442913D01*
X47717Y436850D02*X39213D01*
X37402Y435039D01*
X47717Y426850D02*X39685D01*
X37402Y429134D01*
G54D20*X289830Y433262D02*X289431Y432464D01*
X288230Y432065D01*
X287031D02*X288230D01*
X287031D02*X285830Y432464D01*
X285433Y433262D01*
X285830Y434064D01*
X286630Y434465D01*
X288631Y434864D01*
X289431Y435263D01*
X289830Y436063D01*
Y436464D01*
X289431Y437262D01*
X288230Y437663D01*
X287031D02*X288230D01*
X287031D02*X285830Y437262D01*
X285433Y436464D01*
X292749Y432065D02*X295150Y437663D01*
X297550Y432065D02*X295150Y437663D01*
X294350Y439261D01*
X293552Y440064D01*
X292749Y440465D01*
X292350D02*X292749D01*
X304467Y433262D02*X304068Y432464D01*
X302867Y432065D01*
X301668D02*X302867D01*
X301668D02*X300467Y432464D01*
X300070Y433262D01*
X300467Y434064D01*
X301267Y434465D01*
X303268Y434864D01*
X304068Y435263D01*
X304467Y436063D01*
Y436464D01*
X304068Y437262D01*
X302867Y437663D01*
X301668D02*X302867D01*
X301668D02*X300467Y437262D01*
X300070Y436464D01*
X306987Y432065D02*Y437663D01*
Y433663D02*X308184Y432462D01*
X308987Y432065D01*
X310186D01*
X310986Y432462D01*
X311385Y433663D01*
Y437663D01*
Y433663D02*X312586Y432462D01*
X313384Y432065D01*
X314585D01*
X315383Y432462D01*
X315784Y433663D01*
Y437663D01*
X320304Y432065D02*X319501Y432462D01*
X318701Y433262D01*
X318304Y434461D01*
Y435263D01*
X318701Y436462D01*
X319501Y437262D01*
X320304Y437663D01*
X321503D01*
X322303Y437262D01*
X323101Y436462D01*
X323502Y435263D01*
Y434461D02*Y435263D01*
Y434461D02*X323101Y433262D01*
X322303Y432462D01*
X321503Y432065D01*
X320304D02*X321503D01*
X330823Y433262D02*X330020Y432462D01*
X329222Y432065D01*
X328021D02*X329222D01*
X328021D02*X327223Y432462D01*
X326421Y433262D01*
X326022Y434461D01*
Y435263D01*
X326421Y436462D01*
X327223Y437262D01*
X328021Y437663D01*
X329222D01*
X330020Y437262D01*
X330823Y436462D01*
X335342Y432065D02*X334540Y432462D01*
X333739Y433262D01*
X333343Y434461D01*
Y435263D01*
X333739Y436462D01*
X334540Y437262D01*
X335342Y437663D01*
X336541D01*
X337341Y437262D01*
X338139Y436462D01*
X338540Y435263D01*
Y434461D02*Y435263D01*
Y434461D02*X338139Y433262D01*
X337341Y432462D01*
X336541Y432065D01*
X335342D02*X336541D01*
X341060D02*Y437663D01*
Y433663D02*X342257Y432462D01*
X343059Y432065D01*
X344258D01*
X345058Y432462D01*
X345457Y433663D01*
Y437663D01*
Y433663D02*X346659Y432462D01*
X347457Y432065D01*
X348658D01*
X349456Y432462D01*
X349857Y433663D01*
Y437663D01*
X289830Y468695D02*X289431Y467897D01*
X288230Y467498D01*
X287031D02*X288230D01*
X287031D02*X285830Y467897D01*
X285433Y468695D01*
X285830Y469497D01*
X286630Y469898D01*
X288631Y470297D01*
X289431Y470696D01*
X289830Y471496D01*
Y471897D01*
X289431Y472695D01*
X288230Y473096D01*
X287031D02*X288230D01*
X287031D02*X285830Y472695D01*
X285433Y471897D01*
X292749Y467498D02*X295150Y473096D01*
X297550Y467498D02*X295150Y473096D01*
X294350Y474694D01*
X293552Y475497D01*
X292749Y475898D01*
X292350D02*X292749D01*
X304467Y468695D02*X304068Y467897D01*
X302867Y467498D01*
X301668D02*X302867D01*
X301668D02*X300467Y467897D01*
X300070Y468695D01*
X300467Y469497D01*
X301267Y469898D01*
X303268Y470297D01*
X304068Y470696D01*
X304467Y471496D01*
Y471897D01*
X304068Y472695D01*
X302867Y473096D01*
X301668D02*X302867D01*
X301668D02*X300467Y472695D01*
X300070Y471897D01*
X306987Y467498D02*Y473096D01*
Y469096D02*X308184Y467895D01*
X308987Y467498D01*
X310186D01*
X310986Y467895D01*
X311385Y469096D01*
Y473096D01*
Y469096D02*X312586Y467895D01*
X313384Y467498D01*
X314585D01*
X315383Y467895D01*
X315784Y469096D01*
Y473096D01*
X320304Y467498D02*X319501Y467895D01*
X318701Y468695D01*
X318304Y469894D01*
Y470696D01*
X318701Y471895D01*
X319501Y472695D01*
X320304Y473096D01*
X321503D01*
X322303Y472695D01*
X323101Y471895D01*
X323502Y470696D01*
Y469894D02*Y470696D01*
Y469894D02*X323101Y468695D01*
X322303Y467895D01*
X321503Y467498D01*
X320304D02*X321503D01*
X330823Y468695D02*X330020Y467895D01*
X329222Y467498D01*
X328021D02*X329222D01*
X328021D02*X327223Y467895D01*
X326421Y468695D01*
X326022Y469894D01*
Y470696D01*
X326421Y471895D01*
X327223Y472695D01*
X328021Y473096D01*
X329222D01*
X330020Y472695D01*
X330823Y471895D01*
X335342Y467498D02*X334540Y467895D01*
X333739Y468695D01*
X333343Y469894D01*
Y470696D01*
X333739Y471895D01*
X334540Y472695D01*
X335342Y473096D01*
X336541D01*
X337341Y472695D01*
X338139Y471895D01*
X338540Y470696D01*
Y469894D02*Y470696D01*
Y469894D02*X338139Y468695D01*
X337341Y467895D01*
X336541Y467498D01*
X335342D02*X336541D01*
X341060D02*Y473096D01*
Y469096D02*X342257Y467895D01*
X343059Y467498D01*
X344258D01*
X345058Y467895D01*
X345457Y469096D01*
Y473096D01*
Y469096D02*X346659Y467895D01*
X347457Y467498D01*
X348658D01*
X349456Y467895D01*
X349857Y469096D01*
Y473096D01*
G54D21*X12323Y465551D02*X18228D01*
X12323Y475551D02*X18228D01*
X12323Y485551D02*X18228D01*
X42323Y465551D02*X48228D01*
X42323Y475551D02*X48228D01*
X42323Y485551D02*X48228D01*
X44764Y446850D02*X50669D01*
X14764D02*X20669D01*
X14764Y436850D02*X20669D01*
X14764Y426850D02*X20669D01*
X44764Y436850D02*X50669D01*
X44764Y426850D02*X50669D01*
G54D22*X29528Y435039D03*
X25591Y462598D03*
Y468504D03*
Y478346D03*
X27559Y488189D03*
X33465Y474409D03*
X35433Y480315D03*
X29528Y440945D03*
X33465Y450787D03*
X37402Y435039D03*
Y429134D03*
X29528Y425197D03*
G54D23*M02*
