G04 start of page 3 for group 1 idx 1 *
G04 Title: 4FF-FFC, bottom *
G04 Creator: pcb 20140316 *
G04 CreationDate: Sa 30 Aug 2014 12:40:55 GMT UTC *
G04 For: kevredon *
G04 Format: Gerber/RS-274X *
G04 PCB-Dimensions (mm): 152.40 127.00 *
G04 PCB-Coordinate-Origin: lower left *
%MOMM*%
%FSLAX43Y43*%
%LNBOTTOM*%
%ADD22C,0.500*%
%ADD21C,0.900*%
%ADD20C,2.000*%
%ADD19C,0.400*%
%ADD18C,0.002*%
G54D18*G36*
X8310Y115250D02*X13500D01*
X14000Y114750D01*
Y114500D01*
X113999D01*
Y107500D01*
X14120D01*
X13500Y106750D01*
X8310D01*
Y108168D01*
X8808Y108666D01*
X8822Y108678D01*
X8855Y108717D01*
X8871Y108679D01*
X8929Y108585D01*
X9001Y108501D01*
X9085Y108429D01*
X9179Y108371D01*
X9282Y108328D01*
X9390Y108303D01*
X9500Y108294D01*
X9559Y108299D01*
X9746Y108112D01*
X9758Y108098D01*
X9812Y108052D01*
X9812Y108052D01*
X9873Y108014D01*
X9939Y107987D01*
X10009Y107970D01*
X10080Y107965D01*
X10098Y107966D01*
X10201D01*
X10249Y107849D01*
X10352Y107681D01*
X10481Y107531D01*
X10631Y107402D01*
X10799Y107299D01*
X10981Y107224D01*
X11173Y107178D01*
X11370Y107166D01*
X12870D01*
X13067Y107178D01*
X13259Y107224D01*
X13441Y107299D01*
X13609Y107402D01*
X13759Y107531D01*
X13888Y107681D01*
X13991Y107849D01*
X14066Y108031D01*
X14112Y108223D01*
X14128Y108420D01*
X14112Y108617D01*
X14066Y108809D01*
X13991Y108991D01*
X13888Y109159D01*
X13759Y109309D01*
X13609Y109438D01*
X13441Y109541D01*
X13259Y109616D01*
X13067Y109662D01*
X12870Y109674D01*
X11370D01*
X11173Y109662D01*
X10981Y109616D01*
X10799Y109541D01*
X10631Y109438D01*
X10481Y109309D01*
X10352Y109159D01*
X10249Y108991D01*
X10220Y108922D01*
X10201Y108942D01*
X10204Y109000D01*
X10197Y109110D01*
X10172Y109218D01*
X10129Y109321D01*
X10071Y109415D01*
X9999Y109499D01*
X9915Y109571D01*
X9821Y109629D01*
X9718Y109672D01*
X9610Y109697D01*
X9500Y109706D01*
X9390Y109697D01*
X9282Y109672D01*
X9179Y109629D01*
X9085Y109571D01*
X9001Y109499D01*
X8954Y109445D01*
Y110055D01*
X9001Y110001D01*
X9085Y109929D01*
X9179Y109871D01*
X9282Y109828D01*
X9390Y109803D01*
X9500Y109794D01*
X9610Y109803D01*
X9718Y109828D01*
X9821Y109871D01*
X9915Y109929D01*
X9999Y110001D01*
X10071Y110085D01*
X10129Y110179D01*
X10172Y110282D01*
X10197Y110390D01*
X10204Y110498D01*
X10249Y110389D01*
X10352Y110221D01*
X10481Y110071D01*
X10631Y109942D01*
X10799Y109839D01*
X10981Y109764D01*
X11173Y109718D01*
X11370Y109706D01*
X12870D01*
X13067Y109718D01*
X13259Y109764D01*
X13441Y109839D01*
X13609Y109942D01*
X13759Y110071D01*
X13888Y110221D01*
X13991Y110389D01*
X14066Y110571D01*
X14112Y110763D01*
X14128Y110960D01*
X14112Y111157D01*
X14066Y111349D01*
X13991Y111531D01*
X13888Y111699D01*
X13759Y111849D01*
X13609Y111978D01*
X13441Y112081D01*
X13259Y112156D01*
X13067Y112202D01*
X12870Y112214D01*
X11370D01*
X11173Y112202D01*
X10981Y112156D01*
X10799Y112081D01*
X10631Y111978D01*
X10481Y111849D01*
X10352Y111699D01*
X10249Y111531D01*
X10201Y111414D01*
X9978D01*
X9960Y111415D01*
X9889Y111410D01*
X9819Y111393D01*
X9753Y111366D01*
X9692Y111328D01*
X9692Y111328D01*
X9638Y111282D01*
X9626Y111268D01*
X9559Y111201D01*
X9500Y111206D01*
X9390Y111197D01*
X9282Y111172D01*
X9179Y111129D01*
X9085Y111071D01*
X9001Y110999D01*
X8954Y110945D01*
Y112312D01*
X9688Y113046D01*
X10201D01*
X10249Y112929D01*
X10352Y112761D01*
X10481Y112611D01*
X10631Y112482D01*
X10799Y112379D01*
X10981Y112304D01*
X11173Y112258D01*
X11370Y112246D01*
X12870D01*
X13067Y112258D01*
X13259Y112304D01*
X13441Y112379D01*
X13609Y112482D01*
X13759Y112611D01*
X13888Y112761D01*
X13991Y112929D01*
X14066Y113111D01*
X14112Y113303D01*
X14128Y113500D01*
X14112Y113697D01*
X14066Y113889D01*
X13991Y114071D01*
X13888Y114239D01*
X13759Y114389D01*
X13609Y114518D01*
X13441Y114621D01*
X13259Y114696D01*
X13067Y114742D01*
X12870Y114754D01*
X11370D01*
X11173Y114742D01*
X10981Y114696D01*
X10799Y114621D01*
X10631Y114518D01*
X10481Y114389D01*
X10352Y114239D01*
X10249Y114071D01*
X10201Y113954D01*
X9518D01*
X9500Y113955D01*
X9429Y113950D01*
X9359Y113933D01*
X9293Y113906D01*
X9232Y113868D01*
X9232Y113868D01*
X9178Y113822D01*
X9166Y113808D01*
X8310Y112952D01*
Y113668D01*
X8441Y113799D01*
X8500Y113794D01*
X8610Y113803D01*
X8718Y113828D01*
X8821Y113871D01*
X8915Y113929D01*
X8999Y114001D01*
X9071Y114085D01*
X9129Y114179D01*
X9172Y114282D01*
X9197Y114390D01*
X9204Y114500D01*
X9197Y114610D01*
X9172Y114718D01*
X9129Y114821D01*
X9071Y114915D01*
X8999Y114999D01*
X8915Y115071D01*
X8821Y115129D01*
X8718Y115172D01*
X8610Y115197D01*
X8500Y115206D01*
X8390Y115197D01*
X8310Y115178D01*
Y115250D01*
G37*
G36*
X2500D02*X8310D01*
Y115178D01*
X8282Y115172D01*
X8179Y115129D01*
X8085Y115071D01*
X8001Y114999D01*
X7929Y114915D01*
X7871Y114821D01*
X7828Y114718D01*
X7803Y114610D01*
X7794Y114500D01*
X7799Y114441D01*
X7312Y113954D01*
X6419D01*
X6371Y114071D01*
X6268Y114239D01*
X6139Y114389D01*
X5989Y114518D01*
X5821Y114621D01*
X5639Y114696D01*
X5447Y114742D01*
X5250Y114754D01*
X3750D01*
X3553Y114742D01*
X3361Y114696D01*
X3179Y114621D01*
X3011Y114518D01*
X2861Y114389D01*
X2732Y114239D01*
X2629Y114071D01*
X2554Y113889D01*
X2508Y113697D01*
X2492Y113500D01*
X2508Y113303D01*
X2554Y113111D01*
X2629Y112929D01*
X2732Y112761D01*
X2861Y112611D01*
X3011Y112482D01*
X3179Y112379D01*
X3361Y112304D01*
X3553Y112258D01*
X3750Y112246D01*
X5250D01*
X5447Y112258D01*
X5639Y112304D01*
X5821Y112379D01*
X5989Y112482D01*
X6139Y112611D01*
X6268Y112761D01*
X6371Y112929D01*
X6419Y113046D01*
X7482D01*
X7500Y113045D01*
X7571Y113050D01*
X7571Y113050D01*
X7641Y113067D01*
X7707Y113094D01*
X7768Y113132D01*
X7822Y113178D01*
X7834Y113192D01*
X8310Y113668D01*
Y112952D01*
X8192Y112834D01*
X8178Y112822D01*
X8132Y112768D01*
X8094Y112707D01*
X8067Y112641D01*
X8050Y112571D01*
X8050Y112571D01*
X8045Y112500D01*
X8046Y112482D01*
Y112445D01*
X7999Y112499D01*
X7915Y112571D01*
X7821Y112629D01*
X7718Y112672D01*
X7610Y112697D01*
X7500Y112706D01*
X7390Y112697D01*
X7282Y112672D01*
X7179Y112629D01*
X7085Y112571D01*
X7001Y112499D01*
X6929Y112415D01*
X6871Y112321D01*
X6828Y112218D01*
X6803Y112110D01*
X6794Y112000D01*
X6799Y111941D01*
X6376Y111518D01*
X6371Y111531D01*
X6268Y111699D01*
X6139Y111849D01*
X5989Y111978D01*
X5821Y112081D01*
X5639Y112156D01*
X5447Y112202D01*
X5250Y112214D01*
X3750D01*
X3553Y112202D01*
X3361Y112156D01*
X3179Y112081D01*
X3011Y111978D01*
X2861Y111849D01*
X2732Y111699D01*
X2629Y111531D01*
X2554Y111349D01*
X2508Y111157D01*
X2492Y110960D01*
X2508Y110763D01*
X2554Y110571D01*
X2629Y110389D01*
X2732Y110221D01*
X2861Y110071D01*
X3011Y109942D01*
X3179Y109839D01*
X3361Y109764D01*
X3553Y109718D01*
X3750Y109706D01*
X5250D01*
X5447Y109718D01*
X5639Y109764D01*
X5821Y109839D01*
X5989Y109942D01*
X6139Y110071D01*
X6268Y110221D01*
X6371Y110389D01*
X6419Y110506D01*
X6442D01*
X6460Y110505D01*
X6531Y110510D01*
X6531Y110510D01*
X6601Y110527D01*
X6667Y110554D01*
X6728Y110592D01*
X6782Y110638D01*
X6794Y110652D01*
X6818Y110676D01*
X6803Y110610D01*
X6794Y110500D01*
X6803Y110390D01*
X6828Y110282D01*
X6871Y110179D01*
X6929Y110085D01*
X7001Y110001D01*
X7046Y109962D01*
Y109688D01*
X6362Y109005D01*
X6268Y109159D01*
X6139Y109309D01*
X5989Y109438D01*
X5821Y109541D01*
X5639Y109616D01*
X5447Y109662D01*
X5250Y109674D01*
X3750D01*
X3553Y109662D01*
X3361Y109616D01*
X3179Y109541D01*
X3011Y109438D01*
X2861Y109309D01*
X2732Y109159D01*
X2629Y108991D01*
X2554Y108809D01*
X2508Y108617D01*
X2492Y108420D01*
X2508Y108223D01*
X2554Y108031D01*
X2629Y107849D01*
X2732Y107681D01*
X2861Y107531D01*
X3011Y107402D01*
X3179Y107299D01*
X3361Y107224D01*
X3553Y107178D01*
X3750Y107166D01*
X5250D01*
X5447Y107178D01*
X5639Y107224D01*
X5821Y107299D01*
X5989Y107402D01*
X6139Y107531D01*
X6268Y107681D01*
X6371Y107849D01*
X6419Y107965D01*
X6420Y107965D01*
X6491Y107970D01*
X6491Y107970D01*
X6561Y107987D01*
X6627Y108014D01*
X6688Y108052D01*
X6742Y108098D01*
X6754Y108112D01*
X6818Y108176D01*
X6803Y108110D01*
X6794Y108000D01*
X6803Y107890D01*
X6828Y107782D01*
X6871Y107679D01*
X6929Y107585D01*
X7001Y107501D01*
X7085Y107429D01*
X7179Y107371D01*
X7282Y107328D01*
X7390Y107303D01*
X7500Y107294D01*
X7610Y107303D01*
X7718Y107328D01*
X7821Y107371D01*
X7915Y107429D01*
X7999Y107501D01*
X8071Y107585D01*
X8129Y107679D01*
X8172Y107782D01*
X8197Y107890D01*
X8204Y108000D01*
X8201Y108058D01*
X8310Y108168D01*
Y106750D01*
X3500D01*
X2000Y108250D01*
Y114750D01*
X2500Y115250D01*
G37*
G36*
X10901Y125000D02*X12500D01*
X14000Y123500D01*
X114000D01*
Y116570D01*
X10901D01*
Y116996D01*
X12250D01*
X12447Y117008D01*
X12639Y117054D01*
X12821Y117129D01*
X12989Y117232D01*
X13139Y117361D01*
X13268Y117511D01*
X13371Y117679D01*
X13446Y117861D01*
X13492Y118053D01*
X13508Y118250D01*
X13492Y118447D01*
X13446Y118639D01*
X13371Y118821D01*
X13268Y118989D01*
X13139Y119139D01*
X12989Y119268D01*
X12821Y119371D01*
X12639Y119446D01*
X12447Y119492D01*
X12250Y119504D01*
X10901D01*
Y119536D01*
X12250D01*
X12447Y119548D01*
X12639Y119594D01*
X12821Y119669D01*
X12989Y119772D01*
X13139Y119901D01*
X13268Y120051D01*
X13371Y120219D01*
X13446Y120401D01*
X13492Y120593D01*
X13508Y120790D01*
X13492Y120987D01*
X13446Y121179D01*
X13371Y121361D01*
X13268Y121529D01*
X13139Y121679D01*
X12989Y121808D01*
X12821Y121911D01*
X12639Y121986D01*
X12447Y122032D01*
X12250Y122044D01*
X10901D01*
Y122076D01*
X12250D01*
X12447Y122088D01*
X12639Y122134D01*
X12821Y122209D01*
X12989Y122312D01*
X13139Y122441D01*
X13268Y122591D01*
X13371Y122759D01*
X13446Y122941D01*
X13492Y123133D01*
X13508Y123330D01*
X13492Y123527D01*
X13446Y123719D01*
X13371Y123901D01*
X13268Y124069D01*
X13139Y124219D01*
X12989Y124348D01*
X12821Y124451D01*
X12639Y124526D01*
X12447Y124572D01*
X12250Y124584D01*
X10901D01*
Y125000D01*
G37*
G36*
Y119504D02*X10750D01*
X10553Y119492D01*
X10361Y119446D01*
X10179Y119371D01*
X10011Y119268D01*
X9861Y119139D01*
X9732Y118989D01*
X9629Y118821D01*
X9581Y118704D01*
X8438D01*
X7954Y119188D01*
Y120055D01*
X8001Y120001D01*
X8085Y119929D01*
X8179Y119871D01*
X8282Y119828D01*
X8390Y119803D01*
X8500Y119794D01*
X8610Y119803D01*
X8718Y119828D01*
X8821Y119871D01*
X8915Y119929D01*
X8999Y120001D01*
X9071Y120085D01*
X9129Y120179D01*
X9172Y120282D01*
X9185Y120336D01*
X9581D01*
X9629Y120219D01*
X9732Y120051D01*
X9861Y119901D01*
X10011Y119772D01*
X10179Y119669D01*
X10361Y119594D01*
X10553Y119548D01*
X10750Y119536D01*
X10901D01*
Y119504D01*
G37*
G36*
Y116570D02*X2680D01*
X2000Y117250D01*
Y117701D01*
X2009Y117679D01*
X2112Y117511D01*
X2241Y117361D01*
X2391Y117232D01*
X2559Y117129D01*
X2741Y117054D01*
X2933Y117008D01*
X3130Y116996D01*
X4630D01*
X4827Y117008D01*
X5019Y117054D01*
X5201Y117129D01*
X5369Y117232D01*
X5519Y117361D01*
X5648Y117511D01*
X5724Y117634D01*
X5799Y117559D01*
X5794Y117500D01*
X5803Y117390D01*
X5828Y117282D01*
X5871Y117179D01*
X5929Y117085D01*
X6001Y117001D01*
X6085Y116929D01*
X6179Y116871D01*
X6282Y116828D01*
X6390Y116803D01*
X6500Y116794D01*
X6610Y116803D01*
X6718Y116828D01*
X6821Y116871D01*
X6915Y116929D01*
X6999Y117001D01*
X7071Y117085D01*
X7129Y117179D01*
X7172Y117282D01*
X7197Y117390D01*
X7204Y117500D01*
X7197Y117610D01*
X7172Y117718D01*
X7129Y117821D01*
X7071Y117915D01*
X6999Y117999D01*
X6915Y118071D01*
X6821Y118129D01*
X6718Y118172D01*
X6610Y118197D01*
X6500Y118206D01*
X6441Y118201D01*
X6324Y118318D01*
X6390Y118303D01*
X6500Y118294D01*
X6610Y118303D01*
X6718Y118328D01*
X6821Y118371D01*
X6915Y118429D01*
X6999Y118501D01*
X7071Y118585D01*
X7129Y118679D01*
X7145Y118717D01*
X7178Y118678D01*
X7192Y118666D01*
X7916Y117942D01*
X7928Y117928D01*
X7982Y117882D01*
X7982Y117882D01*
X8043Y117844D01*
X8109Y117817D01*
X8179Y117800D01*
X8250Y117795D01*
X8268Y117796D01*
X9581D01*
X9629Y117679D01*
X9732Y117511D01*
X9861Y117361D01*
X10011Y117232D01*
X10179Y117129D01*
X10361Y117054D01*
X10553Y117008D01*
X10750Y116996D01*
X10901D01*
Y116570D01*
G37*
G36*
X10750Y122044D02*X10553Y122032D01*
X10361Y121986D01*
X10179Y121911D01*
X10011Y121808D01*
X9861Y121679D01*
X9732Y121529D01*
X9629Y121361D01*
X9581Y121244D01*
X8808D01*
X8790Y121245D01*
X8719Y121240D01*
X8649Y121223D01*
X8591Y121199D01*
X8500Y121206D01*
X8390Y121197D01*
X8282Y121172D01*
X8179Y121129D01*
X8085Y121071D01*
X8001Y120999D01*
X7954Y120945D01*
Y123482D01*
X7955Y123500D01*
X7950Y123571D01*
X7933Y123641D01*
X7906Y123707D01*
X7892Y123730D01*
X7868Y123768D01*
X7822Y123822D01*
X7808Y123834D01*
X7701Y123942D01*
X7704Y124000D01*
X7697Y124110D01*
X7672Y124218D01*
X7629Y124321D01*
X7571Y124415D01*
X7499Y124499D01*
X7415Y124571D01*
X7321Y124629D01*
X7218Y124672D01*
X7110Y124697D01*
X7000Y124706D01*
X6890Y124697D01*
X6782Y124672D01*
X6679Y124629D01*
X6585Y124571D01*
X6501Y124499D01*
X6429Y124415D01*
X6371Y124321D01*
X6328Y124218D01*
X6303Y124110D01*
X6294Y124000D01*
X6303Y123890D01*
X6328Y123782D01*
X6371Y123679D01*
X6429Y123585D01*
X6501Y123501D01*
X6585Y123429D01*
X6679Y123371D01*
X6782Y123328D01*
X6890Y123303D01*
X7000Y123294D01*
X7046Y123297D01*
Y121945D01*
X6999Y121999D01*
X6954Y122038D01*
Y122482D01*
X6955Y122500D01*
X6950Y122571D01*
X6933Y122641D01*
X6906Y122707D01*
X6892Y122730D01*
X6868Y122768D01*
X6822Y122822D01*
X6808Y122834D01*
X6004Y123638D01*
X5992Y123652D01*
X5938Y123698D01*
X5938Y123698D01*
X5877Y123736D01*
X5811Y123763D01*
X5808Y123764D01*
X5751Y123901D01*
X5648Y124069D01*
X5519Y124219D01*
X5369Y124348D01*
X5201Y124451D01*
X5019Y124526D01*
X4827Y124572D01*
X4630Y124584D01*
X3130D01*
X2933Y124572D01*
X2741Y124526D01*
X2559Y124451D01*
X2391Y124348D01*
X2241Y124219D01*
X2112Y124069D01*
X2009Y123901D01*
X2000Y123879D01*
Y124250D01*
X2750Y125000D01*
X10901D01*
Y124584D01*
X10750D01*
X10553Y124572D01*
X10361Y124526D01*
X10179Y124451D01*
X10011Y124348D01*
X9861Y124219D01*
X9732Y124069D01*
X9629Y123901D01*
X9554Y123719D01*
X9508Y123527D01*
X9492Y123330D01*
X9506Y123148D01*
X9059Y122701D01*
X9000Y122706D01*
X8890Y122697D01*
X8782Y122672D01*
X8679Y122629D01*
X8585Y122571D01*
X8501Y122499D01*
X8429Y122415D01*
X8371Y122321D01*
X8328Y122218D01*
X8303Y122110D01*
X8294Y122000D01*
X8303Y121890D01*
X8328Y121782D01*
X8371Y121679D01*
X8429Y121585D01*
X8501Y121501D01*
X8585Y121429D01*
X8679Y121371D01*
X8782Y121328D01*
X8890Y121303D01*
X9000Y121294D01*
X9110Y121303D01*
X9218Y121328D01*
X9321Y121371D01*
X9415Y121429D01*
X9499Y121501D01*
X9571Y121585D01*
X9629Y121679D01*
X9672Y121782D01*
X9697Y121890D01*
X9704Y122000D01*
X9701Y122058D01*
X9980Y122338D01*
X10011Y122312D01*
X10179Y122209D01*
X10361Y122134D01*
X10553Y122088D01*
X10750Y122076D01*
X10901D01*
Y122044D01*
X10750D01*
G37*
G54D19*X5750Y118250D02*X6500Y117500D01*
X5710Y120790D02*X6500Y120000D01*
Y119000D01*
X8250Y118250D02*X7500Y119000D01*
X4500Y110960D02*X6460D01*
X7500Y112000D01*
X4500Y108420D02*X6420D01*
X7500Y109500D01*
Y110500D01*
Y113500D02*X8500Y114500D01*
Y112500D02*Y109000D01*
X7500Y108000D01*
X4500Y113500D02*X7500D01*
X3880Y120790D02*X5710D01*
X5670Y123330D02*X6500Y122500D01*
Y121500D01*
X3880Y123330D02*X5670D01*
X3880Y118250D02*X5750D01*
X8790Y120790D02*X8500Y120500D01*
X11500Y123330D02*X10330D01*
X9000Y122000D01*
X11500Y120790D02*X8790D01*
X12120Y113500D02*X9500D01*
X8500Y112500D01*
X12120Y110960D02*X9960D01*
X9500Y110500D01*
X12120Y108420D02*X10080D01*
X9500Y109000D01*
X11500Y118250D02*X8250D01*
X7500Y119000D02*Y123500D01*
X7000Y124000D01*
G54D20*X10750Y118250D02*X12250D01*
X10750Y120790D02*X12250D01*
X10750Y123330D02*X12250D01*
X3130Y118250D02*X4630D01*
X3130Y120790D02*X4630D01*
X3130Y123330D02*X4630D01*
X3750Y113500D02*X5250D01*
X3750Y110960D02*X5250D01*
X3750Y108420D02*X5250D01*
X11370Y113500D02*X12870D01*
X11370Y110960D02*X12870D01*
X11370Y108420D02*X12870D01*
G54D21*X6500Y117500D03*
Y119000D03*
Y121500D03*
X7000Y124000D03*
X8500Y120500D03*
X9000Y122000D03*
X7500Y110500D03*
Y112000D03*
X8500Y114500D03*
X9500Y110500D03*
X7500Y108000D03*
X9500Y109000D03*
G54D22*M02*
