G04 start of page 2 for group 0 idx 0 *
G04 Title: 4FF-FFC, top *
G04 Creator: pcb 20140316 *
G04 CreationDate: Sa 30 Aug 2014 12:40:55 GMT UTC *
G04 For: kevredon *
G04 Format: Gerber/RS-274X *
G04 PCB-Dimensions (mm): 152.40 127.00 *
G04 PCB-Coordinate-Origin: lower left *
%MOMM*%
%FSLAX43Y43*%
%LNTOP*%
%ADD17C,0.500*%
%ADD16C,0.900*%
%ADD15R,0.900X0.900*%
%ADD14C,0.750*%
%ADD13C,0.400*%
%ADD12C,0.500*%
%ADD11C,0.002*%
G54D11*G36*
X8799Y110441D02*X8192Y109834D01*
X8178Y109822D01*
X8132Y109768D01*
X8094Y109707D01*
X8067Y109641D01*
X8050Y109571D01*
X8050Y109571D01*
X8045Y109500D01*
X8046Y109482D01*
Y108518D01*
X8045Y108500D01*
X8049Y108441D01*
X7999Y108499D01*
X7915Y108571D01*
X7821Y108629D01*
X7718Y108672D01*
X7610Y108697D01*
X7500Y108706D01*
X7390Y108697D01*
X7282Y108672D01*
X7179Y108629D01*
X7085Y108571D01*
X7001Y108499D01*
X6929Y108415D01*
X6871Y108321D01*
X6828Y108218D01*
X6803Y108110D01*
X6794Y108000D01*
X6803Y107890D01*
X6828Y107782D01*
X6871Y107679D01*
X6929Y107585D01*
X7001Y107501D01*
X7085Y107429D01*
X7179Y107371D01*
X7282Y107328D01*
X7390Y107303D01*
X7500Y107294D01*
X7559Y107299D01*
X8108Y106750D01*
X3500D01*
X2000Y108250D01*
Y114750D01*
X2500Y115250D01*
X13500D01*
X14000Y114750D01*
Y114539D01*
X13142D01*
X13122Y114541D01*
X13043Y114534D01*
X12966Y114516D01*
X12893Y114486D01*
X12825Y114444D01*
X12825Y114444D01*
X12765Y114393D01*
X12752Y114378D01*
X12532Y114157D01*
X12525Y114157D01*
X12429Y114134D01*
X12338Y114096D01*
X12253Y114044D01*
X12178Y113980D01*
X12171Y113971D01*
X11334Y114808D01*
X11322Y114822D01*
X11268Y114868D01*
X11268Y114868D01*
X11207Y114906D01*
X11141Y114933D01*
X11071Y114950D01*
X11000Y114955D01*
X10982Y114954D01*
X9038D01*
X8999Y114999D01*
X8915Y115071D01*
X8821Y115129D01*
X8718Y115172D01*
X8610Y115197D01*
X8500Y115206D01*
X8390Y115197D01*
X8282Y115172D01*
X8179Y115129D01*
X8085Y115071D01*
X8001Y114999D01*
X7929Y114915D01*
X7871Y114821D01*
X7828Y114718D01*
X7803Y114610D01*
X7794Y114500D01*
X7803Y114390D01*
X7828Y114282D01*
X7871Y114179D01*
X7929Y114085D01*
X8001Y114001D01*
X8085Y113929D01*
X8179Y113871D01*
X8282Y113828D01*
X8390Y113803D01*
X8500Y113794D01*
X8610Y113803D01*
X8718Y113828D01*
X8821Y113871D01*
X8915Y113929D01*
X8999Y114001D01*
X9038Y114046D01*
X10812D01*
X11666Y113192D01*
X11678Y113178D01*
X11732Y113132D01*
X11732Y113132D01*
X11793Y113094D01*
X11859Y113067D01*
X11929Y113050D01*
X12000Y113045D01*
X12018Y113046D01*
X12227D01*
X12241Y113034D01*
X12178Y112980D01*
X12156Y112954D01*
X11688D01*
X11334Y113308D01*
X11322Y113322D01*
X11268Y113368D01*
X11268Y113368D01*
X11207Y113406D01*
X11141Y113433D01*
X11071Y113450D01*
X11000Y113455D01*
X10982Y113454D01*
X8518D01*
X8500Y113455D01*
X8429Y113450D01*
X8359Y113433D01*
X8293Y113406D01*
X8232Y113368D01*
X8232Y113368D01*
X8178Y113322D01*
X8166Y113308D01*
X7559Y112701D01*
X7500Y112706D01*
X7390Y112697D01*
X7282Y112672D01*
X7179Y112629D01*
X7085Y112571D01*
X7001Y112499D01*
X6929Y112415D01*
X6871Y112321D01*
X6828Y112218D01*
X6803Y112110D01*
X6794Y112000D01*
X6803Y111890D01*
X6828Y111782D01*
X6871Y111679D01*
X6929Y111585D01*
X7001Y111501D01*
X7085Y111429D01*
X7179Y111371D01*
X7282Y111328D01*
X7390Y111303D01*
X7500Y111294D01*
X7610Y111303D01*
X7676Y111318D01*
X7559Y111201D01*
X7500Y111206D01*
X7390Y111197D01*
X7282Y111172D01*
X7179Y111129D01*
X7085Y111071D01*
X7001Y110999D01*
X6929Y110915D01*
X6871Y110821D01*
X6828Y110718D01*
X6803Y110610D01*
X6794Y110500D01*
X6803Y110390D01*
X6828Y110282D01*
X6871Y110179D01*
X6929Y110085D01*
X7001Y110001D01*
X7085Y109929D01*
X7179Y109871D01*
X7282Y109828D01*
X7390Y109803D01*
X7500Y109794D01*
X7610Y109803D01*
X7718Y109828D01*
X7821Y109871D01*
X7915Y109929D01*
X7999Y110001D01*
X8071Y110085D01*
X8129Y110179D01*
X8172Y110282D01*
X8197Y110390D01*
X8204Y110500D01*
X8201Y110558D01*
X9188Y111546D01*
X9812D01*
X10166Y111192D01*
X10178Y111178D01*
X10232Y111132D01*
X10232Y111132D01*
X10293Y111094D01*
X10359Y111067D01*
X10429Y111050D01*
X10500Y111045D01*
X10518Y111046D01*
X12227D01*
X12241Y111034D01*
X12179Y110980D01*
X12156Y110954D01*
X11018D01*
X11000Y110955D01*
X10929Y110950D01*
X10859Y110933D01*
X10793Y110906D01*
X10732Y110868D01*
X10732Y110868D01*
X10678Y110822D01*
X10666Y110808D01*
X10182Y110324D01*
X10197Y110390D01*
X10204Y110500D01*
X10197Y110610D01*
X10172Y110718D01*
X10129Y110821D01*
X10071Y110915D01*
X9999Y110999D01*
X9915Y111071D01*
X9821Y111129D01*
X9718Y111172D01*
X9610Y111197D01*
X9500Y111206D01*
X9390Y111197D01*
X9282Y111172D01*
X9179Y111129D01*
X9085Y111071D01*
X9001Y110999D01*
X8929Y110915D01*
X8871Y110821D01*
X8828Y110718D01*
X8803Y110610D01*
X8794Y110500D01*
X8799Y110441D01*
G37*
G36*
X8055Y119954D02*X7688D01*
X6954Y120688D01*
Y120962D01*
X6999Y121001D01*
X7071Y121085D01*
X7129Y121179D01*
X7172Y121282D01*
X7197Y121390D01*
X7204Y121500D01*
X7197Y121610D01*
X7172Y121718D01*
X7129Y121821D01*
X7071Y121915D01*
X6999Y121999D01*
X6915Y122071D01*
X6821Y122129D01*
X6718Y122172D01*
X6610Y122197D01*
X6500Y122206D01*
X6390Y122197D01*
X6282Y122172D01*
X6179Y122129D01*
X6085Y122071D01*
X6001Y121999D01*
X5929Y121915D01*
X5871Y121821D01*
X5828Y121718D01*
X5803Y121610D01*
X5794Y121500D01*
X5803Y121390D01*
X5828Y121282D01*
X5871Y121179D01*
X5929Y121085D01*
X6001Y121001D01*
X6046Y120962D01*
Y120518D01*
X6045Y120500D01*
X6050Y120429D01*
X6067Y120359D01*
X6094Y120293D01*
X6132Y120232D01*
X6132Y120232D01*
X6178Y120178D01*
X6192Y120166D01*
X6676Y119682D01*
X6610Y119697D01*
X6500Y119706D01*
X6390Y119697D01*
X6282Y119672D01*
X6179Y119629D01*
X6085Y119571D01*
X6001Y119499D01*
X5929Y119415D01*
X5871Y119321D01*
X5828Y119218D01*
X5803Y119110D01*
X5794Y119000D01*
X5803Y118890D01*
X5828Y118782D01*
X5871Y118679D01*
X5929Y118585D01*
X6001Y118501D01*
X6085Y118429D01*
X6179Y118371D01*
X6282Y118328D01*
X6390Y118303D01*
X6500Y118294D01*
X6559Y118299D01*
X6632Y118225D01*
X6644Y118212D01*
X6681Y118181D01*
X6610Y118197D01*
X6500Y118206D01*
X6390Y118197D01*
X6282Y118172D01*
X6179Y118129D01*
X6085Y118071D01*
X6001Y117999D01*
X5929Y117915D01*
X5871Y117821D01*
X5828Y117718D01*
X5803Y117610D01*
X5794Y117500D01*
X5803Y117390D01*
X5828Y117282D01*
X5871Y117179D01*
X5929Y117085D01*
X6001Y117001D01*
X6085Y116929D01*
X6179Y116871D01*
X6282Y116828D01*
X6390Y116803D01*
X6500Y116794D01*
X6610Y116803D01*
X6718Y116828D01*
X6821Y116871D01*
X6915Y116929D01*
X6999Y117001D01*
X7038Y117046D01*
X12228D01*
X12254Y117023D01*
X12339Y116972D01*
X12420Y116938D01*
X12523Y116835D01*
X12550Y116770D01*
X12591Y116703D01*
X12643Y116643D01*
X12703Y116591D01*
X12737Y116570D01*
X2680D01*
X2000Y117250D01*
Y124250D01*
X2750Y125000D01*
X12500D01*
X13961Y123539D01*
X13142D01*
X13122Y123541D01*
X13043Y123534D01*
X12966Y123516D01*
X12893Y123486D01*
X12825Y123444D01*
X12825Y123444D01*
X12765Y123393D01*
X12752Y123378D01*
X12532Y123157D01*
X12525Y123157D01*
X12429Y123134D01*
X12338Y123096D01*
X12253Y123044D01*
X12178Y122980D01*
X12171Y122971D01*
X10834Y124308D01*
X10822Y124322D01*
X10768Y124368D01*
X10730Y124392D01*
X10707Y124406D01*
X10641Y124433D01*
X10571Y124450D01*
X10500Y124455D01*
X10482Y124454D01*
X7538D01*
X7499Y124499D01*
X7415Y124571D01*
X7321Y124629D01*
X7218Y124672D01*
X7110Y124697D01*
X7000Y124706D01*
X6890Y124697D01*
X6782Y124672D01*
X6679Y124629D01*
X6585Y124571D01*
X6501Y124499D01*
X6429Y124415D01*
X6371Y124321D01*
X6328Y124218D01*
X6303Y124110D01*
X6294Y124000D01*
X6303Y123890D01*
X6328Y123782D01*
X6371Y123679D01*
X6429Y123585D01*
X6501Y123501D01*
X6585Y123429D01*
X6679Y123371D01*
X6782Y123328D01*
X6890Y123303D01*
X7000Y123294D01*
X7110Y123303D01*
X7218Y123328D01*
X7321Y123371D01*
X7415Y123429D01*
X7499Y123501D01*
X7538Y123546D01*
X10312D01*
X11666Y122192D01*
X11678Y122178D01*
X11732Y122132D01*
X11732Y122132D01*
X11793Y122094D01*
X11859Y122067D01*
X11929Y122050D01*
X12000Y122045D01*
X12018Y122046D01*
X12227D01*
X12241Y122034D01*
X12178Y121980D01*
X12156Y121954D01*
X11188D01*
X9834Y123308D01*
X9822Y123322D01*
X9768Y123368D01*
X9730Y123392D01*
X9707Y123406D01*
X9641Y123433D01*
X9571Y123450D01*
X9500Y123455D01*
X9482Y123454D01*
X8518D01*
X8500Y123455D01*
X8429Y123450D01*
X8359Y123433D01*
X8293Y123406D01*
X8232Y123368D01*
X8232Y123368D01*
X8178Y123322D01*
X8166Y123308D01*
X7692Y122834D01*
X7678Y122822D01*
X7632Y122768D01*
X7594Y122707D01*
X7567Y122641D01*
X7550Y122571D01*
X7550Y122571D01*
X7545Y122500D01*
X7546Y122482D01*
Y121518D01*
X7545Y121500D01*
X7550Y121429D01*
X7567Y121359D01*
X7594Y121293D01*
X7632Y121232D01*
X7632Y121232D01*
X7678Y121178D01*
X7692Y121166D01*
X7935Y120923D01*
X7929Y120915D01*
X7871Y120821D01*
X7828Y120718D01*
X7803Y120610D01*
X7794Y120500D01*
X7803Y120390D01*
X7828Y120282D01*
X7871Y120179D01*
X7929Y120085D01*
X8001Y120001D01*
X8055Y119954D01*
G37*
G54D12*X112129Y122534D02*X14129D01*
X14129Y122534D01*
X14128Y122535D02*X14129Y122534D01*
X112129Y121534D02*X14129D01*
X112129Y120534D02*X14129D01*
Y121534D02*X14129Y121534D01*
X14129Y120534D02*X14129Y120534D01*
X14118Y120536D02*X14120Y120534D01*
X14117Y121536D02*X14122Y121541D01*
X112129Y119534D02*X14129D01*
X112129Y118534D02*X14129D01*
X112129Y117534D02*X14129D01*
X14129Y117534D01*
X14129Y119534D02*X14129Y119534D01*
X14129Y118534D02*X14129Y118534D01*
X14113Y118536D02*X14122Y118527D01*
X14113Y119536D02*X14122Y119527D01*
G54D13*X14466Y118500D02*X14500Y118534D01*
G54D14*X16124Y119534D02*X12625D01*
X16120Y121534D02*X12624D01*
X16124Y120534D02*X12625D01*
G54D12*X15500Y117000D02*X16122Y117534D01*
X15500Y117000D02*X13000D01*
G54D13*Y117034D01*
G54D14*X16124Y118534D02*X12625D01*
G54D12*X14132Y117536D02*X13122D01*
G54D14*X16124Y117534D02*X12625D01*
X12623Y117536D01*
G54D13*X13000Y117000D02*X12500Y117500D01*
G54D12*X14129Y113534D02*X14129Y113534D01*
X14129Y112534D02*X14129Y112534D01*
X15620Y114035D02*X13122D01*
G54D14*X16124Y111534D02*X12625D01*
X16124Y110534D02*X12625D01*
X16124Y109534D02*X12625D01*
G54D12*X14132Y108536D02*X13122D01*
G54D14*X16120Y113534D02*X12624D01*
X16120Y112534D02*X12624D01*
G54D12*X13122Y114035D02*X12621Y113534D01*
X14129Y111534D02*X14129Y111534D01*
X14129Y110534D02*X14129Y110534D01*
X14113Y110536D02*X14122Y110527D01*
X14118Y111536D02*X14120Y111534D01*
X14117Y112536D02*X14122Y112541D01*
X14128Y113535D02*X14129Y113534D01*
X112129D02*X14129D01*
X112129Y112534D02*X14129D01*
X112129Y111534D02*X14129D01*
X15620Y114035D02*X16122Y113534D01*
X112129Y109534D02*X14129D01*
X112129Y108534D02*X14129D01*
Y109534D02*X14129Y109534D01*
X14113Y109536D02*X14122Y109527D01*
X14129Y108534D02*X14129Y108534D01*
G54D13*X14466Y109500D02*X14500Y109534D01*
G54D12*X112129Y110534D02*X14129D01*
X13122Y123035D02*X12621Y122534D01*
G54D13*X12000Y122500D02*X14000D01*
X11000Y121500D02*X14000D01*
X6500Y117500D02*X14000D01*
X14129Y118534D02*X6966D01*
X6500Y119000D01*
X7500Y119500D02*X14000D01*
X10500Y120500D02*X14000D01*
X6500Y121500D02*Y120500D01*
X7500Y119500D01*
X8500Y120500D02*Y121000D01*
X8000Y121500D01*
X10500Y124000D02*X12000Y122500D01*
X9500Y123000D02*X11000Y121500D01*
X9000Y122000D02*X10500Y120500D01*
X7000Y124000D02*X10500D01*
X8000Y121500D02*Y122500D01*
X8500Y123000D01*
X9500D01*
X8500Y114500D02*X11000D01*
X12000Y113500D01*
X13500D01*
X8500Y113000D02*X11000D01*
X9000Y112000D02*X10000D01*
X10500Y111500D01*
X11000Y113000D02*X11500Y112500D01*
X14000D01*
X10500Y111500D02*X14000D01*
X7500Y112000D02*X8500Y113000D01*
X7500Y110500D02*X9000Y112000D01*
X9500Y110500D02*X8500Y109500D01*
Y108500D01*
X9000Y108000D01*
X10000D01*
X11500Y109500D01*
X9500Y109000D02*X11000Y110500D01*
G54D14*X12625Y108534D02*X12623Y108536D01*
G54D13*X13000Y108000D02*X12500Y108500D01*
X11500Y109500D02*X14096D01*
X11000Y110500D02*X14000D01*
X7500Y108000D02*X8500Y107000D01*
X11000D01*
X12500Y108500D01*
G54D12*X15620Y123035D02*X16122Y122534D01*
X15620Y123035D02*X13122D01*
G54D14*X16120Y122534D02*X12624D01*
G54D12*X15500Y108000D02*X16122Y108534D01*
X15500Y108000D02*X13000D01*
G54D14*X16124Y108534D02*X12625D01*
G54D15*X110450Y110500D02*X113550D01*
X110450Y118500D02*X113550D01*
X110450Y117500D02*X113550D01*
X110450Y113500D02*X113550D01*
X110450Y122500D02*X113550D01*
X110450Y121500D02*X113550D01*
X110450Y120500D02*X113550D01*
X110450Y119500D02*X113550D01*
X110450Y112500D02*X113550D01*
X110450Y111500D02*X113550D01*
X110450Y109500D02*X113550D01*
X110450Y108500D02*X113550D01*
G54D16*X6500Y117500D03*
Y119000D03*
Y121500D03*
X7000Y124000D03*
X8500Y120500D03*
X9000Y122000D03*
X7500Y110500D03*
Y112000D03*
X8500Y114500D03*
X9500Y110500D03*
X7500Y108000D03*
X9500Y109000D03*
G54D17*M02*
