G04 start of page 4 for group 2 idx 2 *
G04 Title: 4FF-FFC, outline *
G04 Creator: pcb 20140316 *
G04 CreationDate: Fr 01 Apr 2016 11:12:18 GMT UTC *
G04 For: laforge *
G04 Format: Gerber/RS-274X *
G04 PCB-Dimensions (mil): 6000.00 5000.00 *
G04 PCB-Coordinate-Origin: lower left *
%MOIN*%
%FSLAX25Y25*%
%LNOUTLINE*%
%ADD25C,0.0079*%
%ADD24C,0.0079*%
G54D24*X10315Y454173D02*X52441D01*
X10551Y458228D02*X52677D01*
X54906Y487299D02*X50252Y491953D01*
G54D25*X53110Y458661D02*X52677Y458228D01*
G54D24*X14965Y419528D02*X52441D01*
X7165Y451024D02*Y427327D01*
X8087Y425102D02*X12740Y420449D01*
X55627Y423361D02*X55591Y422677D01*
X48028Y492874D02*X10551D01*
G54D25*X448819Y486220D02*X55984D01*
X54906Y487299D01*
G54D24*X7402Y489724D02*Y461378D01*
G54D25*X448819Y458661D02*X53110D01*
X448819Y450787D02*X55827D01*
X55591Y451024D01*
X448819Y423228D02*X55760D01*
X55627Y423361D01*
X448819Y458661D02*Y486220D01*
Y450787D02*Y423228D01*
G54D24*X10315Y454173D02*G75*G03X7165Y451024I0J-3150D01*G01*
X50255Y491952D02*G75*G03X48028Y492874I-2227J-2227D01*G01*
X10551D02*G75*G03X7402Y489724I0J-3150D01*G01*
Y461378D02*G75*G03X10551Y458228I3150J0D01*G01*
X52441Y419528D02*G75*G03X55591Y422677I0J3150D01*G01*
X12737Y420450D02*G75*G03X14965Y419528I2227J2227D01*G01*
X55591Y451024D02*G75*G03X52441Y454173I-3150J0D01*G01*
X7165Y427327D02*G75*G03X8088Y425100I3150J0D01*G01*
M02*
