G04 start of page 2 for group 0 idx 0 *
G04 Title: (unknown), component *
G04 Creator: pcb 20140316 *
G04 CreationDate: Mi 30 Apr 2014 18:22:33 GMT UTC *
G04 For: laforge *
G04 Format: Gerber/RS-274X *
G04 PCB-Dimensions (mil): 7874.02 5000.00 *
G04 PCB-Coordinate-Origin: lower left *
%MOIN*%
%FSLAX25Y25*%
%LNTOP*%
%ADD14R,0.0866X0.0866*%
%ADD13R,0.0354X0.0354*%
%ADD12C,0.0295*%
%ADD11C,0.0197*%
G54D11*X41949Y458413D02*X627579D01*
X41947Y450548D02*X627579Y450539D01*
X41949Y454476D02*X627579D01*
X41963Y438720D02*X627579Y438728D01*
X41949Y442666D02*X627579Y442665D01*
X41949Y446603D02*X627579Y446602D01*
G54D12*X626595D03*
X653718Y467746D02*X648723D01*
X639390Y458413D01*
X642343D02*Y461366D01*
X641358D01*
X638406Y458413D01*
X653718Y457904D02*X648723D01*
X653718Y448062D02*X647773D01*
X645295Y450539D01*
X648723Y457904D02*X645295Y454476D01*
X626595Y458413D02*X642343D01*
X640374Y459397D02*X636437D01*
X635453Y458413D01*
X681670Y467746D02*X693049D01*
X695492Y465303D01*
X691555Y454476D02*Y444634D01*
X695492Y465303D02*Y442665D01*
X681670Y448062D02*Y442623D01*
X679744Y440697D01*
X691555Y444634D02*X683681Y436760D01*
X695492Y442665D02*X685650Y432823D01*
X681670Y457904D02*X688128D01*
X691555Y454476D01*
X645295Y436760D02*X683681D01*
X643327Y432823D02*X685650D01*
X647264Y436760D02*X645295D01*
X626595Y454476D03*
Y450539D03*
X645295Y454476D02*X626595D01*
X645295Y450539D02*X626595D01*
X641358Y446602D02*X626595D01*
X679744Y440697D02*X647264D01*
X626595Y438728D02*X637421D01*
X643327Y432823D01*
X638406Y437744D02*X635453D01*
X634469Y438728D01*
X626595Y442665D02*X639390D01*
X645295Y436760D02*X639390Y442665D01*
X647264Y440697D02*X641358Y446602D01*
G54D13*X35847Y438729D02*X48051D01*
G54D14*X680883Y448062D02*X682458D01*
X680883Y457904D02*X682458D01*
X680883Y467746D02*X682458D01*
X652931Y448062D02*X654506D01*
X652931Y457904D02*X654506D01*
X652931Y467746D02*X654506D01*
G54D13*X35847Y442666D02*X48051D01*
X35847Y446603D02*X48051D01*
X35847Y450539D02*X48051D01*
X35847Y454476D02*X48051D01*
X35847Y458413D02*X48051D01*
M02*
