G04 start of page 2 for group 0 idx 0 *
G04 Title: (unknown), component *
G04 Creator: pcb 20140316 *
G04 CreationDate: Fr 01 Apr 2016 11:10:24 GMT UTC *
G04 For: laforge *
G04 Format: Gerber/RS-274X *
G04 PCB-Dimensions (mil): 7874.02 5000.00 *
G04 PCB-Coordinate-Origin: lower left *
%MOIN*%
%FSLAX25Y25*%
%LNTOP*%
%ADD15R,0.0866X0.0866*%
%ADD14R,0.0354X0.0354*%
%ADD13C,0.0100*%
%ADD12C,0.0295*%
%ADD11C,0.0197*%
G54D11*X41949Y458413D02*X627579D01*
X41947Y450548D02*X627579Y450539D01*
X41949Y454476D02*X627579D01*
X41963Y438720D02*X627579Y438728D01*
X41949Y442666D02*X627579Y442665D01*
X41949Y446603D02*X627579Y446602D01*
G54D12*X626595D03*
X653718Y467746D02*X648723D01*
X639390Y458413D01*
X642343D02*Y461366D01*
X641358D01*
X638406Y458413D01*
X653718Y457904D02*X648723D01*
X653718Y448062D02*X647773D01*
X645295Y450539D01*
X648723Y457904D02*X645295Y454476D01*
X626595Y458413D02*X642343D01*
X640374Y459397D02*X636437D01*
X635453Y458413D01*
X681670Y467746D02*X693049D01*
X695492Y465303D01*
X691555Y454476D02*Y444634D01*
X695492Y465303D02*Y442665D01*
X681670Y448062D02*Y442623D01*
X679744Y440697D01*
X691555Y444634D02*X683681Y436760D01*
X695492Y442665D02*X685650Y432823D01*
X681670Y457904D02*X688128D01*
X691555Y454476D01*
X645295Y436760D02*X683681D01*
X643327Y432823D02*X685650D01*
X647264Y436760D02*X645295D01*
X626595Y454476D03*
Y450539D03*
X645295Y454476D02*X626595D01*
X645295Y450539D02*X626595D01*
X641358Y446602D02*X626595D01*
X679744Y440697D02*X647264D01*
X626595Y438728D02*X637421D01*
X643327Y432823D01*
X638406Y437744D02*X635453D01*
X634469Y438728D01*
X626595Y442665D02*X639390D01*
X645295Y436760D02*X639390Y442665D01*
X647264Y440697D02*X641358Y446602D01*
G54D13*X666762Y473788D02*Y471693D01*
X665238Y472836D01*
Y472264D01*
X665049Y471884D01*
X664858Y471693D01*
X664286Y471502D01*
X663906D02*X664286D01*
X663906D02*X663334Y471693D01*
X662953Y472073D01*
X662762Y472645D01*
Y473216D02*Y472645D01*
Y473216D02*X662953Y473788D01*
X663144Y473978D01*
X663524Y474168D01*
X662762Y470302D02*X666762D01*
Y467827D01*
X664857Y470302D02*Y468779D01*
X662762Y466627D02*X666762D01*
Y464152D01*
X664857Y466627D02*Y465104D01*
X664762Y462952D02*Y460452D01*
X666190Y456586D02*X666571Y456967D01*
X666762Y457538D01*
Y458300D02*Y457538D01*
Y458300D02*X666571Y458872D01*
X666190Y459252D01*
X665810D02*X666190D01*
X665810D02*X665428Y459063D01*
X665238Y458872D01*
X665048Y458490D01*
X664667Y457347D01*
X664476Y456967D01*
X664286Y456777D01*
X663905Y456586D01*
X663333D02*X663905D01*
X663333D02*X662953Y456967D01*
X662762Y457538D01*
Y458300D02*Y457538D01*
Y458300D02*X662953Y458872D01*
X663333Y459252D01*
X662762Y454053D02*X666762D01*
Y455386D02*Y452720D01*
X664762Y451520D02*Y449020D01*
X666762Y446678D02*X666571Y447058D01*
X666190Y447440D01*
X665810Y447630D01*
X665238Y447820D01*
X664286D02*X665238D01*
X664286D02*X663713Y447630D01*
X663714D02*X663333Y447440D01*
X662953Y447058D01*
X662762Y446678D01*
Y445915D01*
X662953Y445535D01*
X663333Y445154D01*
X663714Y444963D01*
X664286Y444774D01*
X665238D01*
X665810Y444963D01*
X666190Y445154D01*
X666571Y445535D01*
X666762Y445915D01*
Y446678D02*Y445915D01*
X672731Y473058D02*X673111Y473248D01*
X673301Y473820D01*
Y474391D02*Y473820D01*
Y474391D02*X673111Y474963D01*
X672731Y475152D01*
X672349Y474963D01*
X672158Y474582D01*
X671968Y473629D01*
X671778Y473248D01*
X671397Y473058D01*
X671206D02*X671397D01*
X671206D02*X670826Y473248D01*
X670635Y473820D01*
Y474391D02*Y473820D01*
Y474391D02*X670826Y474963D01*
X671206Y475152D01*
X673301Y471668D02*X670635Y470525D01*
X673301Y469382D02*X670635Y470525D01*
X669874Y470906D01*
X669492Y471286D01*
X669301Y471668D01*
Y471858D02*Y471668D01*
X672731Y466088D02*X673111Y466278D01*
X673301Y466850D01*
Y467421D02*Y466850D01*
Y467421D02*X673111Y467993D01*
X672731Y468182D01*
X672349Y467993D01*
X672158Y467612D01*
X671968Y466659D01*
X671778Y466278D01*
X671397Y466088D01*
X671206D02*X671397D01*
X671206D02*X670826Y466278D01*
X670635Y466850D01*
Y467421D02*Y466850D01*
Y467421D02*X670826Y467993D01*
X671206Y468182D01*
X670635Y464888D02*X673301D01*
X672540D02*X673112Y464318D01*
X673301Y463936D01*
Y463365D01*
X673112Y462984D01*
X672540Y462794D01*
X670635D02*X672540D01*
X673112Y462222D01*
X673301Y461842D01*
Y461270D01*
X673112Y460890D01*
X672540Y460699D01*
X670635D02*X672540D01*
X673301Y458547D02*X673112Y458929D01*
X672731Y459310D01*
X672160Y459499D01*
X671778D02*X672160D01*
X671778D02*X671207Y459310D01*
X670826Y458929D01*
X670635Y458547D01*
Y457976D01*
X670826Y457595D01*
X671207Y457215D01*
X671778Y457024D01*
X672160D01*
X672731Y457215D01*
X673112Y457595D01*
X673301Y457976D01*
Y458547D02*Y457976D01*
X672731Y453538D02*X673112Y453920D01*
X673301Y454300D01*
Y454872D02*Y454300D01*
Y454872D02*X673112Y455252D01*
X672731Y455634D01*
X672160Y455824D01*
X671778D02*X672160D01*
X671778D02*X671207Y455634D01*
X670826Y455252D01*
X670635Y454872D01*
Y454300D01*
X670826Y453920D01*
X671207Y453538D01*
X673301Y451386D02*X673112Y451768D01*
X672731Y452149D01*
X672160Y452338D01*
X671778D02*X672160D01*
X671778D02*X671207Y452149D01*
X670826Y451768D01*
X670635Y451386D01*
Y450815D01*
X670826Y450434D01*
X671207Y450054D01*
X671778Y449863D01*
X672160D01*
X672731Y450054D01*
X673112Y450434D01*
X673301Y450815D01*
Y451386D02*Y450815D01*
X670635Y448663D02*X673301D01*
X672540D02*X673112Y448093D01*
X673301Y447711D01*
Y447140D01*
X673112Y446759D01*
X672540Y446569D01*
X670635D02*X672540D01*
X673112Y445997D01*
X673301Y445617D01*
Y445045D01*
X673112Y444665D01*
X672540Y444474D01*
X670635D02*X672540D01*
G54D14*X35847Y438729D02*X48051D01*
G54D15*X680883Y448062D02*X682458D01*
X680883Y457904D02*X682458D01*
X680883Y467746D02*X682458D01*
X652931Y448062D02*X654506D01*
X652931Y457904D02*X654506D01*
X652931Y467746D02*X654506D01*
G54D14*X35847Y442666D02*X48051D01*
X35847Y446603D02*X48051D01*
X35847Y450539D02*X48051D01*
X35847Y454476D02*X48051D01*
X35847Y458413D02*X48051D01*
M02*
