M48
;DRILL file {Pcbnew (2013-may-18)-stable} date So 27 Okt 2013 17:01:21 CET
;FORMAT={-:-/ absolute / inch / decimal}
FMAT,2
INCH,TZ
T1C0.025
T2C0.032
T3C0.035
T4C0.039
T5C0.040
%
G90
G05
M72
T1
X1.57Y-4.24
X1.8Y-4.19
X1.865Y-4.305
X1.985Y-4.13
X2.01Y-4.38
X2.2816Y-4.2245
X2.3261Y-4.2681
X2.3802Y-4.311
X2.3892Y-4.1603
X2.56Y-3.55
X2.74Y-3.985
X2.7997Y-4.5069
X2.8093Y-4.4156
X2.815Y-4.85
X2.8618Y-4.2765
X2.88Y-5.375
X2.9Y-4.75
X2.91Y-5.265
X2.945Y-4.905
X2.95Y-4.75
X2.9777Y-4.4364
X3.0013Y-4.9446
X3.025Y-4.88
X3.05Y-5.18
X3.09Y-4.97
X3.1131Y-4.9039
X3.1217Y-4.7293
X3.125Y-4.205
X3.1421Y-4.7811
X3.1426Y-4.829
X3.145Y-4.385
X3.1514Y-4.6505
X3.1733Y-4.7209
X3.1975Y-5.1825
X3.1986Y-4.7726
X3.2Y-4.985
X3.2321Y-4.8367
X3.2772Y-4.3374
X3.285Y-4.73
X3.295Y-4.615
X3.315Y-4.535
X3.315Y-4.69
X3.3332Y-5.1799
X3.3599Y-3.9803
X3.3639Y-5.0003
X3.4128Y-4.7979
X3.4193Y-4.3899
X3.45Y-4.585
X3.4597Y-4.9724
X3.4737Y-4.7832
X3.475Y-4.65
X3.4764Y-4.9247
X3.53Y-4.1257
X3.5524Y-4.2509
X3.5682Y-4.8858
X3.5827Y-5.0787
X3.591Y-4.7293
X3.5965Y-5.3828
X3.615Y-4.345
X3.6268Y-4.8322
X3.655Y-4.72
X3.66Y-4.595
X3.665Y-4.66
X3.695Y-5.2075
X3.8147Y-4.8037
X3.865Y-4.525
X3.878Y-5.5118
X4.0375Y-5.385
X4.0475Y-4.5434
X4.06Y-4.285
X4.275Y-4.7
X4.345Y-4.72
X4.445Y-4.615
X4.51Y-4.545
X4.71Y-4.045
T2
X2.67Y-3.72
T3
X4.565Y-4.9311
X4.565Y-5.0689
T4
X4.3969Y-4.01
X4.6331Y-4.01
T5
X2.67Y-3.62
X2.77Y-3.62
X2.77Y-3.72
X2.87Y-3.62
X2.87Y-3.72
X2.97Y-3.62
X2.97Y-3.72
X3.07Y-3.62
X3.07Y-3.72
X3.17Y-3.62
X3.17Y-3.72
X3.27Y-3.62
X3.27Y-3.72
X3.37Y-3.62
X3.37Y-3.72
X3.47Y-3.62
X3.47Y-3.72
X3.57Y-3.62
X3.57Y-3.72
X3.775Y-3.895
X3.875Y-3.895
X3.975Y-3.895
X4.075Y-3.895
X4.22Y-3.62
X4.32Y-3.62
X4.42Y-3.62
X4.52Y-3.62
X4.62Y-3.62
X4.66Y-5.37
X4.66Y-5.47
X4.72Y-3.62
T0
M30
