M48
;DRILL file {Pcbnew (2013-dec-23)-stable} date Fri 20 Jun 2014 03:28:17 PM CEST
;FORMAT={-:-/ absolute / inch / decimal}
FMAT,2
INCH,TZ
T1C0.025
T2C0.032
T3C0.035
T4C0.039
T5C0.040
%
G90
G05
M72
T1
X1.57Y4.24
X1.8Y4.19
X1.865Y4.305
X1.985Y4.13
X2.01Y4.38
X2.2816Y4.2245
X2.3261Y4.2681
X2.3802Y4.311
X2.3892Y4.1603
X2.56Y3.55
X2.74Y3.985
X2.7997Y4.5069
X2.8093Y4.4156
X2.815Y4.85
X2.825Y5.085
X2.825Y5.355
X2.8618Y4.2765
X2.88Y5.355
X2.9Y4.75
X2.91Y5.265
X2.945Y4.905
X2.95Y4.75
X2.9777Y4.4364
X3.0013Y4.9446
X3.025Y4.88
X3.05Y5.18
X3.09Y4.97
X3.1131Y4.9039
X3.1217Y4.7293
X3.125Y4.205
X3.1421Y4.7811
X3.1426Y4.829
X3.145Y4.385
X3.1514Y4.6505
X3.1733Y4.7209
X3.1975Y5.1825
X3.1986Y4.7726
X3.2Y4.985
X3.2321Y4.8367
X3.2772Y4.3374
X3.285Y4.73
X3.295Y4.615
X3.315Y4.535
X3.315Y4.69
X3.3332Y5.1799
X3.3599Y3.9803
X3.3639Y5.0003
X3.38Y4.67
X3.4128Y4.7979
X3.4193Y4.3899
X3.4597Y4.9724
X3.4737Y4.7832
X3.475Y4.65
X3.4764Y4.9247
X3.53Y4.1257
X3.5524Y4.2509
X3.5682Y4.8858
X3.5827Y5.0787
X3.591Y4.7293
X3.5965Y5.3828
X3.615Y4.345
X3.6268Y4.8322
X3.655Y4.72
X3.66Y4.595
X3.665Y4.66
X3.695Y5.2075
X3.8147Y4.8037
X3.865Y4.525
X3.878Y5.5118
X4.0375Y5.385
X4.0475Y4.5434
X4.06Y4.285
X4.275Y4.7
X4.345Y4.72
X4.445Y4.615
X4.51Y4.545
X4.71Y4.045
T2
X2.67Y3.72
T3
X4.565Y4.9311
X4.565Y5.0689
T4
X4.3969Y4.01
X4.6331Y4.01
T5
X2.67Y3.62
X2.77Y3.62
X2.77Y3.72
X2.87Y3.62
X2.87Y3.72
X2.97Y3.62
X2.97Y3.72
X3.07Y3.62
X3.07Y3.72
X3.17Y3.62
X3.17Y3.72
X3.27Y3.62
X3.27Y3.72
X3.37Y3.62
X3.37Y3.72
X3.47Y3.62
X3.47Y3.72
X3.57Y3.62
X3.57Y3.72
X3.775Y3.895
X3.875Y3.895
X3.975Y3.895
X4.075Y3.895
X4.22Y3.62
X4.32Y3.62
X4.42Y3.62
X4.52Y3.62
X4.62Y3.62
X4.66Y5.37
X4.66Y5.47
X4.72Y3.62
T0
M30
