M48
;DRILL file {PCBnew (2011-05-25)-stable} date Tue 06 Dec 2011 00:37:28 CET
;FORMAT={-:-/ absolute / metric / decimal}
FMAT,2
METRIC,TZ
T1C0.635
T2C0.813
T3C0.899
T4C1.001
T5C1.016
%
G90
G05
M71
T1
X45.720Y106.426
X51.054Y111.252
X57.953Y107.302
X59.083Y108.410
X60.457Y109.499
X60.686Y105.672
X70.348Y118.392
X71.112Y114.475
X71.356Y112.156
X72.690Y108.623
X73.152Y136.525
X73.914Y121.666
X74.930Y120.650
X75.634Y112.685
X75.768Y124.440
X76.233Y125.593
X76.327Y132.842
X76.340Y122.918
X78.671Y126.401
X79.073Y124.559
X79.121Y131.887
X79.291Y120.124
X79.756Y110.998
X79.809Y121.440
X79.822Y122.657
X80.046Y118.123
X80.602Y119.911
X81.244Y121.224
X81.326Y127.005
X82.095Y122.852
X83.241Y110.170
X83.271Y131.613
X83.342Y116.332
X83.566Y120.485
X83.980Y119.154
X84.262Y114.953
X84.663Y131.569
X85.443Y127.008
X86.685Y121.867
X86.850Y111.503
X87.549Y116.624
X87.876Y126.299
X88.232Y121.493
X88.245Y119.268
X88.301Y125.087
X90.231Y107.973
X90.632Y124.099
X91.211Y120.124
X91.351Y136.723
X92.121Y122.738
X92.337Y119.123
X96.893Y122.014
X98.552Y126.492
X100.076Y136.652
X102.108Y136.652
X102.806Y115.402
T2
X67.818Y94.488
T3
X115.951Y125.250
X115.951Y128.750
T4
X111.681Y101.854
X117.681Y101.854
T5
X67.818Y91.948
X70.358Y91.948
X70.358Y94.488
X72.898Y91.948
X72.898Y94.488
X75.438Y91.948
X75.438Y94.488
X77.978Y91.948
X77.978Y94.488
X80.518Y91.948
X80.518Y94.488
X83.058Y91.948
X83.058Y94.488
X85.598Y91.948
X85.598Y94.488
X88.138Y91.948
X88.138Y94.488
X90.678Y91.948
X90.678Y94.488
X94.615Y98.933
X97.155Y98.933
X99.695Y98.933
X102.235Y98.933
X107.188Y91.948
X109.728Y91.948
X112.268Y91.948
X114.808Y91.948
X117.348Y91.948
X118.364Y136.398
X118.364Y138.938
X119.888Y91.948
T0
M30
