M48
;DRILL file {Pcbnew (2013-may-18)-stable} date So 17 Mai 2015 15:00:01 CEST
;FORMAT={-:-/ absolute / metric / decimal}
FMAT,2
METRIC,TZ
T1C0.635
T2C0.813
T3C0.899
T4C1.001
T5C1.016
%
G90
G05
M71
T1
X39.878Y-107.696
X45.72Y-106.426
X47.371Y-109.347
X51.054Y-111.252
X57.953Y-107.302
X59.083Y-108.41
X60.457Y-109.499
X60.686Y-105.672
X65.024Y-90.17
X69.596Y-101.219
X71.112Y-114.475
X71.356Y-112.156
X71.501Y-123.19
X71.755Y-129.159
X71.755Y-136.017
X72.69Y-108.623
X73.152Y-136.017
X73.66Y-120.65
X73.914Y-133.731
X74.803Y-124.587
X74.93Y-120.65
X75.634Y-112.685
X76.233Y-125.593
X76.835Y-123.952
X77.47Y-131.572
X78.486Y-126.238
X79.073Y-124.559
X79.291Y-120.124
X79.375Y-106.807
X79.809Y-121.44
X79.822Y-122.657
X79.883Y-111.379
X80.046Y-118.123
X80.602Y-119.911
X81.216Y-131.636
X81.244Y-121.224
X81.28Y-126.619
X82.095Y-122.852
X83.241Y-110.17
X83.439Y-120.142
X83.693Y-117.221
X84.201Y-115.189
X84.201Y-119.126
X84.663Y-131.569
X85.341Y-101.1
X85.443Y-127.008
X85.852Y-118.618
X86.685Y-121.867
X86.85Y-111.503
X87.876Y-126.299
X88.Y-118.25
X88.232Y-121.493
X88.301Y-125.087
X89.662Y-104.793
X90.231Y-107.973
X90.632Y-124.099
X91.Y-129.
X91.211Y-120.124
X91.351Y-136.723
X91.821Y-110.363
X92.121Y-122.738
X92.837Y-119.888
X92.964Y-116.713
X93.091Y-118.364
X93.853Y-132.27
X96.893Y-122.014
X98.171Y-114.935
X98.5Y-140.
X102.552Y-136.779
X102.806Y-115.402
X103.124Y-108.839
X108.585Y-119.38
X110.363Y-119.888
X112.903Y-117.221
X114.554Y-115.443
X119.634Y-102.743
T2
X67.818Y-94.488
T3
X115.951Y-125.25
X115.951Y-128.75
T4
X111.681Y-101.854
X117.681Y-101.854
T5
X67.818Y-91.948
X70.358Y-91.948
X70.358Y-94.488
X72.898Y-91.948
X72.898Y-94.488
X75.438Y-91.948
X75.438Y-94.488
X77.978Y-91.948
X77.978Y-94.488
X80.518Y-91.948
X80.518Y-94.488
X83.058Y-91.948
X83.058Y-94.488
X85.598Y-91.948
X85.598Y-94.488
X88.138Y-91.948
X88.138Y-94.488
X90.678Y-91.948
X90.678Y-94.488
X95.885Y-98.933
X98.425Y-98.933
X100.965Y-98.933
X103.505Y-98.933
X107.188Y-91.948
X109.728Y-91.948
X112.268Y-91.948
X114.808Y-91.948
X117.348Y-91.948
X118.364Y-136.398
X118.364Y-138.938
X119.888Y-91.948
T0
M30
